<?xml version="1.0" encoding="utf-8" standalone="no"?>
<!DOCTYPE svg PUBLIC "-//W3C//DTD SVG 1.1//EN"
  "http://www.w3.org/Graphics/SVG/1.1/DTD/svg11.dtd">
<svg xmlns:xlink="http://www.w3.org/1999/xlink" width="790.56pt" height="239.76pt" viewBox="0 0 790.56 239.76" xmlns="http://www.w3.org/2000/svg" version="1.1">
 <metadata>
  <rdf:RDF xmlns:dc="http://purl.org/dc/elements/1.1/" xmlns:cc="http://creativecommons.org/ns#" xmlns:rdf="http://www.w3.org/1999/02/22-rdf-syntax-ns#">
   <cc:Work>
    <dc:type rdf:resource="http://purl.org/dc/dcmitype/StillImage"/>
    <dc:date>2022-09-15T18:25:36.564917</dc:date>
    <dc:format>image/svg+xml</dc:format>
    <dc:creator>
     <cc:Agent>
      <dc:title>Matplotlib v3.5.2, https://matplotlib.org/</dc:title>
     </cc:Agent>
    </dc:creator>
   </cc:Work>
  </rdf:RDF>
 </metadata>
 <defs>
  <style type="text/css">*{stroke-linejoin: round; stroke-linecap: butt}</style>
 </defs>
 <g id="figure_1">
  <g id="patch_1">
   <path d="M 0 239.76 
L 790.56 239.76 
L 790.56 0 
L 0 0 
z
" style="fill: #ffffff"/>
  </g>
  <g id="axes_1">
   <g id="patch_2">
    <path d="M 50.699531 100.398392 
L 455.086664 100.398392 
L 455.086664 13.022746 
L 50.699531 13.022746 
z
" style="fill: #ffffff"/>
   </g>
   <g id="patch_3">
    <path d="M 104.774554 100.398392 
L 104.774554 13.022746 
L 161.200666 13.022746 
L 161.200666 100.398392 
z
" clip-path="url(#p6bf31c4abd)" style="fill: #d4d4d4; opacity: 0.5; stroke: #d4d4d4; stroke-linejoin: miter"/>
   </g>
   <g id="patch_4">
    <path d="M 365.74532 100.398392 
L 365.74532 13.022746 
L 438.629048 13.022746 
L 438.629048 100.398392 
z
" clip-path="url(#p6bf31c4abd)" style="fill: #d4d4d4; opacity: 0.5; stroke: #d4d4d4; stroke-linejoin: miter"/>
   </g>
   <g id="patch_5">
    <path d="M 828.204326 100.398392 
L 828.204326 13.022746 
L 885.335764 13.022746 
L 885.335764 100.398392 
z
" clip-path="url(#p6bf31c4abd)" style="fill: #d4d4d4; opacity: 0.5; stroke: #d4d4d4; stroke-linejoin: miter"/>
   </g>
   <g id="matplotlib.axis_1">
    <g id="xtick_1">
     <g id="line2d_1">
      <path d="M 50.699531 100.398392 
L 50.699531 13.022746 
" clip-path="url(#p6bf31c4abd)" style="fill: none; stroke-dasharray: 2.96,1.28; stroke-dashoffset: 0; stroke: #7f7f7f; stroke-opacity: 0.2; stroke-width: 0.8"/>
     </g>
     <g id="line2d_2">
      <defs>
       <path id="maa4fda78c7" d="M 0 0 
L 0 3.5 
" style="stroke: #000000; stroke-width: 0.8"/>
      </defs>
      <g>
       <use xlink:href="#maa4fda78c7" x="50.699531" y="100.398392" style="stroke: #000000; stroke-width: 0.8"/>
      </g>
     </g>
    </g>
    <g id="xtick_2">
     <g id="line2d_3">
      <path d="M 151.796314 100.398392 
L 151.796314 13.022746 
" clip-path="url(#p6bf31c4abd)" style="fill: none; stroke-dasharray: 2.96,1.28; stroke-dashoffset: 0; stroke: #7f7f7f; stroke-opacity: 0.2; stroke-width: 0.8"/>
     </g>
     <g id="line2d_4">
      <g>
       <use xlink:href="#maa4fda78c7" x="151.796314" y="100.398392" style="stroke: #000000; stroke-width: 0.8"/>
      </g>
     </g>
    </g>
    <g id="xtick_3">
     <g id="line2d_5">
      <path d="M 252.893097 100.398392 
L 252.893097 13.022746 
" clip-path="url(#p6bf31c4abd)" style="fill: none; stroke-dasharray: 2.96,1.28; stroke-dashoffset: 0; stroke: #7f7f7f; stroke-opacity: 0.2; stroke-width: 0.8"/>
     </g>
     <g id="line2d_6">
      <g>
       <use xlink:href="#maa4fda78c7" x="252.893097" y="100.398392" style="stroke: #000000; stroke-width: 0.8"/>
      </g>
     </g>
    </g>
    <g id="xtick_4">
     <g id="line2d_7">
      <path d="M 353.98988 100.398392 
L 353.98988 13.022746 
" clip-path="url(#p6bf31c4abd)" style="fill: none; stroke-dasharray: 2.96,1.28; stroke-dashoffset: 0; stroke: #7f7f7f; stroke-opacity: 0.2; stroke-width: 0.8"/>
     </g>
     <g id="line2d_8">
      <g>
       <use xlink:href="#maa4fda78c7" x="353.98988" y="100.398392" style="stroke: #000000; stroke-width: 0.8"/>
      </g>
     </g>
    </g>
    <g id="xtick_5">
     <g id="line2d_9">
      <path d="M 455.086664 100.398392 
L 455.086664 13.022746 
" clip-path="url(#p6bf31c4abd)" style="fill: none; stroke-dasharray: 2.96,1.28; stroke-dashoffset: 0; stroke: #7f7f7f; stroke-opacity: 0.2; stroke-width: 0.8"/>
     </g>
     <g id="line2d_10">
      <g>
       <use xlink:href="#maa4fda78c7" x="455.086664" y="100.398392" style="stroke: #000000; stroke-width: 0.8"/>
      </g>
     </g>
    </g>
   </g>
   <g id="matplotlib.axis_2">
    <g id="ytick_1">
     <g id="line2d_11">
      <path d="M 50.699531 88.329932 
L 455.086664 88.329932 
" clip-path="url(#p6bf31c4abd)" style="fill: none; stroke-dasharray: 2.96,1.28; stroke-dashoffset: 0; stroke: #7f7f7f; stroke-opacity: 0.2; stroke-width: 0.8"/>
     </g>
     <g id="line2d_12">
      <defs>
       <path id="m5f7a89f33d" d="M 0 0 
L -3.5 0 
" style="stroke: #000000; stroke-width: 0.8"/>
      </defs>
      <g>
       <use xlink:href="#m5f7a89f33d" x="50.699531" y="88.329932" style="stroke: #000000; stroke-width: 0.8"/>
      </g>
     </g>
     <g id="text_1">
      <!-- -10 -->
      <g transform="translate(25.490228 93.172871)scale(0.14 -0.14)">
       <defs>
        <path id="CMSS17-2d" d="M 1664 1216 
L 1664 1585 
L 64 1585 
L 64 1216 
L 1664 1216 
z
" transform="scale(0.015625)"/>
        <path id="CMSS17-31" d="M 1818 4288 
L 1696 4288 
C 1350 3940 947 3890 538 3890 
L 538 3520 
C 723 3520 1024 3520 1325 3667 
L 1325 369 
L 570 369 
L 570 0 
L 2573 0 
L 2573 369 
L 1818 369 
L 1818 4288 
z
" transform="scale(0.015625)"/>
        <path id="CMSS17-30" d="M 2758 2044 
C 2758 2405 2752 3077 2490 3596 
C 2227 4096 1805 4229 1504 4229 
C 1069 4229 698 3975 506 3570 
C 301 3146 243 2709 243 2044 
C 243 1589 262 1031 493 543 
C 755 5 1197 -128 1498 -128 
C 1894 -128 2278 81 2496 518 
C 2720 974 2758 1474 2758 2044 
z
M 1498 261 
C 1011 261 864 811 819 995 
C 742 1310 730 1614 730 2114 
C 730 2506 730 2948 851 3297 
C 998 3701 1254 3840 1498 3840 
C 1971 3840 2125 3372 2176 3208 
C 2272 2873 2272 2481 2272 2114 
C 2272 1526 2272 261 1498 261 
z
" transform="scale(0.015625)"/>
       </defs>
       <use xlink:href="#CMSS17-2d" transform="scale(0.996264)"/>
       <use xlink:href="#CMSS17-31" transform="translate(31.229113 0)scale(0.996264)"/>
       <use xlink:href="#CMSS17-30" transform="translate(78.072736 0)scale(0.996264)"/>
      </g>
     </g>
    </g>
    <g id="ytick_2">
     <g id="line2d_13">
      <path d="M 50.699531 64.193014 
L 455.086664 64.193014 
" clip-path="url(#p6bf31c4abd)" style="fill: none; stroke-dasharray: 2.96,1.28; stroke-dashoffset: 0; stroke: #7f7f7f; stroke-opacity: 0.2; stroke-width: 0.8"/>
     </g>
     <g id="line2d_14">
      <g>
       <use xlink:href="#m5f7a89f33d" x="50.699531" y="64.193014" style="stroke: #000000; stroke-width: 0.8"/>
      </g>
     </g>
     <g id="text_2">
      <!-- 0 -->
      <g transform="translate(36.871042 69.035952)scale(0.14 -0.14)">
       <use xlink:href="#CMSS17-30" transform="scale(0.996264)"/>
      </g>
     </g>
    </g>
    <g id="ytick_3">
     <g id="line2d_15">
      <path d="M 50.699531 40.056095 
L 455.086664 40.056095 
" clip-path="url(#p6bf31c4abd)" style="fill: none; stroke-dasharray: 2.96,1.28; stroke-dashoffset: 0; stroke: #7f7f7f; stroke-opacity: 0.2; stroke-width: 0.8"/>
     </g>
     <g id="line2d_16">
      <g>
       <use xlink:href="#m5f7a89f33d" x="50.699531" y="40.056095" style="stroke: #000000; stroke-width: 0.8"/>
      </g>
     </g>
     <g id="text_3">
      <!-- 10 -->
      <g transform="translate(30.042553 44.899033)scale(0.14 -0.14)">
       <use xlink:href="#CMSS17-31" transform="scale(0.996264)"/>
       <use xlink:href="#CMSS17-30" transform="translate(46.843624 0)scale(0.996264)"/>
      </g>
     </g>
    </g>
    <g id="ytick_4">
     <g id="line2d_17">
      <path d="M 50.699531 15.919176 
L 455.086664 15.919176 
" clip-path="url(#p6bf31c4abd)" style="fill: none; stroke-dasharray: 2.96,1.28; stroke-dashoffset: 0; stroke: #7f7f7f; stroke-opacity: 0.2; stroke-width: 0.8"/>
     </g>
     <g id="line2d_18">
      <g>
       <use xlink:href="#m5f7a89f33d" x="50.699531" y="15.919176" style="stroke: #000000; stroke-width: 0.8"/>
      </g>
     </g>
     <g id="text_4">
      <!-- 20 -->
      <g transform="translate(30.042553 20.762115)scale(0.14 -0.14)">
       <defs>
        <path id="CMSS17-32" d="M 1651 1357 
C 1830 1541 2099 1764 2285 1987 
C 2464 2204 2701 2511 2701 2957 
C 2701 3657 2227 4288 1421 4288 
C 787 4288 422 3893 250 3274 
L 499 2929 
C 640 3510 838 3880 1338 3880 
C 1888 3880 2195 3433 2195 2942 
C 2195 2355 1747 1901 1408 1563 
C 1030 1187 659 804 301 408 
L 301 0 
L 2701 0 
L 2701 433 
L 1613 433 
C 1536 433 1459 433 1382 433 
L 742 433 
L 742 439 
L 1651 1357 
z
" transform="scale(0.015625)"/>
       </defs>
       <use xlink:href="#CMSS17-32" transform="scale(0.996264)"/>
       <use xlink:href="#CMSS17-30" transform="translate(46.843624 0)scale(0.996264)"/>
      </g>
     </g>
    </g>
    <g id="text_5">
     <!-- Control [deg] -->
     <g transform="translate(18.003304 93.972631)rotate(-90)scale(0.14 -0.14)">
      <defs>
       <path id="CMSS17-43" d="M 3501 714 
C 3072 427 2874 344 2355 344 
C 1459 344 934 1303 934 2179 
C 934 3112 1472 4032 2381 4032 
C 2790 4032 3059 3918 3386 3715 
L 3475 4217 
C 3168 4370 2778 4440 2387 4440 
C 1158 4440 397 3316 397 2179 
C 397 927 1299 -64 2323 -64 
C 2874 -64 3066 -19 3539 280 
L 3501 714 
z
" transform="scale(0.015625)"/>
       <path id="CMSS17-6f" d="M 2829 1356 
C 2829 2176 2221 2816 1504 2816 
C 768 2816 173 2157 173 1356 
C 173 544 787 -64 1498 -64 
C 2227 -64 2829 563 2829 1356 
z
M 1504 337 
C 1050 337 659 709 659 1408 
C 659 2151 1114 2427 1498 2427 
C 1914 2427 2342 2126 2342 1408 
C 2342 683 1926 337 1504 337 
z
" transform="scale(0.015625)"/>
       <path id="CMSS17-6e" d="M 2618 1877 
C 2618 2283 2522 2816 1798 2816 
C 1389 2816 1120 2606 941 2389 
L 941 2758 
L 474 2758 
L 474 0 
L 960 0 
L 960 1559 
C 960 1964 1114 2428 1549 2428 
C 2112 2428 2131 2048 2131 1829 
L 2131 0 
L 2618 0 
L 2618 1877 
z
" transform="scale(0.015625)"/>
       <path id="CMSS17-74" d="M 1069 2368 
L 1901 2368 
L 1901 2737 
L 1069 2737 
L 1069 3520 
L 614 3520 
L 614 2737 
L 109 2737 
L 109 2368 
L 602 2368 
L 602 749 
C 602 384 685 -64 1107 -64 
C 1427 -64 1722 25 2003 172 
L 1901 548 
C 1747 414 1562 337 1363 337 
C 1082 337 1069 696 1069 856 
L 1069 2368 
z
" transform="scale(0.015625)"/>
       <path id="CMSS17-72" d="M 954 1363 
C 954 1965 1395 2368 1958 2368 
L 1958 2789 
C 1549 2789 1165 2585 934 2253 
L 934 2758 
L 480 2758 
L 480 0 
L 954 0 
L 954 1363 
z
" transform="scale(0.015625)"/>
       <path id="CMSS17-6c" d="M 947 4416 
L 474 4416 
L 474 0 
L 947 0 
L 947 4416 
z
" transform="scale(0.015625)"/>
       <path id="CMSS17-5b" d="M 1613 -1600 
L 1613 -1212 
L 1062 -1212 
L 1062 4352 
L 1613 4352 
L 1613 4741 
L 595 4741 
L 595 -1600 
L 1613 -1600 
z
" transform="scale(0.015625)"/>
       <path id="CMSS17-64" d="M 2611 4416 
L 2138 4416 
L 2138 2438 
C 1939 2603 1613 2756 1254 2756 
C 672 2756 211 2131 211 1347 
C 211 562 666 -64 1235 -64 
C 1677 -64 1971 172 2125 306 
L 2125 -13 
L 2611 -13 
L 2611 4416 
z
M 2125 836 
C 2125 747 2125 653 1926 482 
C 1798 375 1645 325 1498 325 
C 1152 325 698 576 698 1340 
C 698 2134 1210 2368 1562 2368 
C 1798 2368 1990 2254 2125 2065 
L 2125 836 
z
" transform="scale(0.015625)"/>
       <path id="CMSS17-65" d="M 2502 1377 
C 2502 1590 2490 2003 2285 2345 
C 2061 2713 1696 2816 1421 2816 
C 755 2816 192 2188 192 1375 
C 192 582 774 -64 1510 -64 
C 1798 -64 2150 19 2470 248 
C 2470 274 2458 414 2451 420 
C 2451 433 2432 630 2432 656 
C 2125 407 1773 325 1517 325 
C 1107 325 666 667 646 1377 
L 2502 1377 
z
M 698 1728 
C 781 2084 1062 2421 1421 2421 
C 1517 2421 1965 2421 2080 1728 
L 698 1728 
z
" transform="scale(0.015625)"/>
       <path id="CMSS17-67" d="M 2848 2808 
C 2483 2808 2170 2738 1914 2617 
C 1702 2777 1485 2808 1338 2808 
C 781 2808 358 2349 358 1814 
C 358 1468 550 1207 563 1195 
C 448 1035 384 863 384 672 
C 384 448 474 289 544 200 
C 211 -3 166 -314 166 -435 
C 166 -898 749 -1280 1498 -1280 
C 2253 -1280 2835 -898 2835 -428 
C 2835 448 1856 448 1587 448 
L 1069 448 
C 973 448 717 448 717 791 
C 717 921 774 1004 781 1010 
C 877 940 1075 832 1338 832 
C 1869 832 2310 1278 2310 1827 
C 2310 2132 2170 2355 2112 2432 
L 2131 2432 
C 2150 2432 2419 2432 2515 2432 
C 2720 2432 2739 2429 2918 2419 
L 2848 2808 
z
M 1338 1182 
C 1120 1182 813 1315 813 1823 
C 813 2375 1165 2464 1331 2464 
C 1549 2464 1856 2331 1856 1823 
C 1856 1271 1504 1182 1338 1182 
z
M 1581 -10 
C 1734 -10 2381 -10 2381 -442 
C 2381 -714 1984 -929 1504 -929 
C 1018 -929 621 -720 621 -435 
C 621 -403 621 -10 1062 -10 
L 1581 -10 
z
" transform="scale(0.015625)"/>
       <path id="CMSS17-5d" d="M 1146 4741 
L 128 4741 
L 128 4352 
L 678 4352 
L 678 -1212 
L 128 -1212 
L 128 -1600 
L 1146 -1600 
L 1146 4741 
z
" transform="scale(0.015625)"/>
      </defs>
      <use xlink:href="#CMSS17-43" transform="scale(0.996264)"/>
      <use xlink:href="#CMSS17-6f" transform="translate(59.855772 0)scale(0.996264)"/>
      <use xlink:href="#CMSS17-6e" transform="translate(106.699395 0)scale(0.996264)"/>
      <use xlink:href="#CMSS17-74" transform="translate(154.904338 0)scale(0.996264)"/>
      <use xlink:href="#CMSS17-72" transform="translate(188.735905 0)scale(0.996264)"/>
      <use xlink:href="#CMSS17-6f" transform="translate(220.645677 0)scale(0.996264)"/>
      <use xlink:href="#CMSS17-6c" transform="translate(267.489301 0)scale(0.996264)"/>
      <use xlink:href="#CMSS17-5b" transform="translate(320.899137 0)scale(0.996264)"/>
      <use xlink:href="#CMSS17-64" transform="translate(348.084575 0)scale(0.996264)"/>
      <use xlink:href="#CMSS17-65" transform="translate(396.289519 0)scale(0.996264)"/>
      <use xlink:href="#CMSS17-67" transform="translate(437.928341 0)scale(0.996264)"/>
      <use xlink:href="#CMSS17-5d" transform="translate(484.771964 0)scale(0.996264)"/>
     </g>
    </g>
   </g>
   <g id="line2d_19">
    <path d="M 50.699531 40.056095 
L 455.086664 40.056095 
" clip-path="url(#p6bf31c4abd)" style="fill: none; stroke-dasharray: 5,7; stroke-dashoffset: 0; stroke: #696969"/>
   </g>
   <g id="line2d_20">
    <path d="M 50.699531 63.320384 
L 53.064368 61.346566 
L 55.429205 60.986533 
L 57.794042 59.671516 
L 62.523716 58.243912 
L 71.983064 55.515277 
L 74.347901 55.184696 
L 76.712738 53.774949 
L 81.442412 51.90307 
L 83.807249 51.563827 
L 88.536923 49.831048 
L 90.90176 48.291102 
L 93.266597 47.226443 
L 95.631434 45.965157 
L 100.361108 42.959179 
L 114.550131 33.468359 
L 119.279805 29.975879 
L 121.644642 29.32035 
L 126.374316 25.536322 
L 128.739153 22.168981 
L 131.10399 20.367473 
L 133.468827 19.014389 
L 135.833664 19.364284 
L 138.198501 16.68507 
L 140.563338 15.971618 
L 145.293012 15.565479 
L 147.657849 17.463638 
L 150.022686 16.323892 
L 152.387523 17.586876 
L 154.75236 16.455817 
L 157.117197 22.861289 
L 159.482034 27.102371 
L 161.846871 37.066939 
L 164.211708 45.394081 
L 166.576545 44.117884 
L 168.941382 53.51823 
L 171.30622 60.166775 
L 173.671057 67.442001 
L 176.035894 75.887915 
L 178.400731 77.455944 
L 180.765568 88.174031 
L 183.130405 91.897269 
L 185.495242 93.024829 
L 187.860079 89.118095 
L 190.224916 84.89917 
L 192.589753 81.902901 
L 194.95459 80.427942 
L 197.319427 78.479772 
L 199.684264 77.635997 
L 202.049101 77.608558 
L 204.413938 75.846049 
L 206.778775 71.862303 
L 209.143612 69.071545 
L 211.508449 69.687186 
L 213.873286 66.622754 
L 216.238123 64.210001 
L 218.60296 62.624073 
L 220.967797 57.788472 
L 223.332634 56.016967 
L 225.697471 54.853502 
L 228.062308 58.792127 
L 230.427145 54.199083 
L 232.791982 54.138705 
L 235.156819 54.480955 
L 237.521656 55.37757 
L 239.886494 62.469571 
L 242.251331 60.846272 
L 249.345842 67.321047 
L 251.710679 74.029282 
L 254.075516 72.652021 
L 256.440353 74.518499 
L 258.80519 77.776305 
L 261.170027 72.556475 
L 263.534864 73.584539 
L 265.899701 66.600076 
L 268.264538 63.393457 
L 270.629375 61.76371 
L 272.994212 57.906756 
L 275.359049 51.517029 
L 277.723886 51.239124 
L 280.088723 52.028451 
L 282.45356 53.554088 
L 284.818397 55.688797 
L 287.183234 59.676572 
L 289.548071 61.906445 
L 291.912908 65.010216 
L 294.277745 67.284019 
L 296.642582 68.143134 
L 299.007419 72.289425 
L 301.372256 73.867124 
L 303.737093 69.666612 
L 308.466768 68.138245 
L 310.831605 66.513799 
L 313.196442 66.732162 
L 315.561279 64.980838 
L 317.926116 64.941351 
L 320.290953 63.912121 
L 322.65579 63.561537 
L 325.020627 61.048713 
L 327.385464 60.387051 
L 329.750301 57.205579 
L 332.115138 56.806847 
L 334.479975 55.07602 
L 336.844812 54.746559 
L 339.209649 53.42043 
L 341.574486 53.149271 
L 343.939323 52.206774 
L 346.30416 51.42809 
L 348.668997 50.41001 
L 358.128345 45.678908 
L 365.222856 42.78565 
L 369.95253 40.819351 
L 374.682205 38.578378 
L 379.411879 36.266217 
L 381.776716 35.181548 
L 384.141553 33.408176 
L 386.50639 33.128282 
L 398.330575 27.362297 
L 400.695412 27.252923 
L 403.060249 24.926394 
L 407.789923 22.561101 
L 414.884434 19.632563 
L 417.249271 18.954425 
L 419.614108 18.471538 
L 421.978945 18.182988 
L 424.343782 18.467427 
L 426.708619 21.532439 
L 429.073456 20.980642 
L 431.438293 23.673561 
L 433.80313 27.445788 
L 436.167967 32.118674 
L 438.532804 32.531787 
L 440.897641 46.936144 
L 443.262479 51.29807 
L 450.35699 73.215622 
L 455.086664 88.715819 
L 455.086664 88.715819 
" clip-path="url(#p6bf31c4abd)" style="fill: none; stroke-dasharray: 7.4,3.2; stroke-dashoffset: 0; stroke: #000000; stroke-width: 2"/>
   </g>
   <g id="line2d_21">
    <path d="M 50.699531 60.429108 
L 53.064368 58.686994 
L 55.429205 57.640285 
L 57.794042 57.031367 
L 60.158879 56.67731 
L 62.523716 56.484582 
L 64.888553 56.005514 
L 67.25339 55.072215 
L 69.618227 53.939162 
L 74.347901 52.196432 
L 81.442412 50.256994 
L 86.172086 48.991482 
L 90.90176 47.590547 
L 93.266597 46.63946 
L 97.996271 44.005718 
L 102.725946 41.591987 
L 107.45562 38.82121 
L 112.185294 35.87599 
L 116.914968 32.813258 
L 124.009479 28.651108 
L 128.739153 25.806732 
L 131.10399 24.888938 
L 135.833664 23.569323 
L 140.563338 22.475333 
L 145.293012 21.790912 
L 147.657849 22.067155 
L 150.022686 22.849296 
L 152.387523 24.039348 
L 154.75236 26.038932 
L 157.117197 28.600614 
L 159.482034 32.513414 
L 161.846871 37.870314 
L 164.211708 44.251437 
L 166.576545 51.349343 
L 168.941382 57.656995 
L 171.30622 66.224833 
L 173.671057 72.960615 
L 178.400731 88.340385 
L 180.765568 94.403356 
L 183.130405 97.142503 
L 185.495242 97.122309 
L 187.860079 95.893063 
L 190.224916 92.048083 
L 192.589753 87.964875 
L 194.95459 84.607815 
L 197.319427 82.641965 
L 204.413938 75.969718 
L 209.143612 71.434064 
L 211.508449 68.670332 
L 213.873286 66.708512 
L 216.238123 63.727075 
L 218.60296 62.072825 
L 220.967797 61.064784 
L 223.332634 59.628761 
L 225.697471 58.538559 
L 228.062308 57.110346 
L 230.427145 56.045363 
L 232.791982 55.430626 
L 235.156819 55.434546 
L 237.521656 56.509653 
L 239.886494 58.254207 
L 242.251331 60.960713 
L 244.616168 63.342908 
L 246.981005 65.359407 
L 249.345842 66.137628 
L 251.710679 67.047815 
L 256.440353 68.22907 
L 258.80519 68.075678 
L 261.170027 65.490055 
L 263.534864 62.603035 
L 265.899701 60.47244 
L 268.264538 57.720289 
L 270.629375 53.89595 
L 272.994212 51.324892 
L 275.359049 50.112335 
L 277.723886 48.269581 
L 280.088723 47.795101 
L 282.45356 48.549687 
L 287.183234 52.689501 
L 289.548071 55.19828 
L 291.912908 59.784713 
L 294.277745 63.159972 
L 296.642582 65.063788 
L 299.007419 66.095589 
L 301.372256 66.94326 
L 303.737093 66.641534 
L 306.10193 65.994446 
L 308.466768 66.249521 
L 310.831605 66.125847 
L 313.196442 65.143024 
L 315.561279 64.535709 
L 317.926116 63.472329 
L 320.290953 63.200749 
L 322.65579 61.8893 
L 325.020627 60.39555 
L 327.385464 58.743513 
L 329.750301 57.367564 
L 332.115138 56.57856 
L 339.209649 55.032633 
L 348.668997 51.282995 
L 351.033834 50.455129 
L 358.128345 47.564826 
L 362.858019 46.040049 
L 365.222856 45.328254 
L 369.95253 43.497531 
L 379.411879 39.848332 
L 386.50639 36.317324 
L 403.060249 27.264702 
L 407.789923 24.080616 
L 410.15476 23.311016 
L 417.249271 21.477714 
L 419.614108 21.11881 
L 421.978945 21.006543 
L 424.343782 21.527356 
L 426.708619 23.055498 
L 429.073456 25.723798 
L 431.438293 29.167262 
L 433.80313 33.592713 
L 436.167967 39.223985 
L 443.262479 60.210952 
L 445.627316 68.177802 
L 447.992153 74.791792 
L 452.721827 89.679603 
L 455.086664 94.623266 
L 455.086664 94.623266 
" clip-path="url(#p6bf31c4abd)" style="fill: none; stroke: #2e8b57; stroke-width: 2; stroke-linecap: square"/>
   </g>
   <g id="line2d_22">
    <path d="M 50.699531 60.87936 
L 53.064368 59.236842 
L 55.429205 58.489866 
L 60.158879 57.872264 
L 64.888553 57.428804 
L 76.712738 55.097231 
L 93.266597 52.551596 
L 97.996271 51.278385 
L 102.725946 50.107936 
L 121.644642 44.208923 
L 128.739153 42.054837 
L 131.10399 41.576459 
L 138.198501 40.601267 
L 142.928175 40.109489 
L 145.293012 39.92106 
L 147.657849 40.05607 
L 150.022686 40.45007 
L 152.387523 41.033255 
L 154.75236 42.032371 
L 157.117197 43.299284 
L 159.482034 45.26838 
L 161.846871 48.00131 
L 164.211708 51.205091 
L 166.576545 54.655251 
L 168.941382 56.807441 
L 171.30622 61.326647 
L 173.671057 67.657752 
L 176.035894 75.386026 
L 178.400731 85.29612 
L 180.765568 92.518463 
L 183.130405 95.637818 
L 185.495242 95.853738 
L 187.860079 94.5554 
L 192.589753 84.799856 
L 194.95459 81.271092 
L 197.319427 79.465657 
L 204.413938 72.435109 
L 206.778775 70.33398 
L 211.508449 66.645946 
L 213.873286 65.619538 
L 216.238123 62.731829 
L 218.60296 61.573224 
L 220.967797 60.759737 
L 223.332634 59.576357 
L 225.697471 59.231587 
L 230.427145 58.153348 
L 232.791982 57.929143 
L 235.156819 57.947096 
L 237.521656 58.077375 
L 239.886494 59.100892 
L 242.251331 61.834142 
L 244.616168 63.078401 
L 246.981005 63.775032 
L 249.345842 64.023739 
L 251.710679 64.092999 
L 256.440353 64.86228 
L 258.80519 65.14205 
L 261.170027 65.679363 
L 263.534864 64.526676 
L 265.899701 62.04737 
L 268.264538 58.02998 
L 270.629375 53.772064 
L 272.994212 50.410856 
L 275.359049 48.89151 
L 277.723886 47.199601 
L 280.088723 47.123614 
L 282.45356 48.341808 
L 284.818397 50.143228 
L 287.183234 51.731058 
L 289.548071 55.794231 
L 291.912908 60.825091 
L 294.277745 61.997545 
L 296.642582 64.326829 
L 299.007419 65.28871 
L 301.372256 65.990016 
L 303.737093 65.664704 
L 306.10193 65.120295 
L 308.466768 66.14302 
L 310.831605 65.728091 
L 313.196442 64.358859 
L 315.561279 63.966348 
L 317.926116 63.10559 
L 320.290953 62.975731 
L 322.65579 62.031036 
L 325.020627 60.933579 
L 327.385464 59.534642 
L 329.750301 58.425006 
L 332.115138 57.981651 
L 339.209649 57.033057 
L 348.668997 55.126096 
L 353.398671 54.201972 
L 358.128345 53.226964 
L 369.95253 51.137413 
L 379.411879 49.214905 
L 388.871227 46.761812 
L 395.965738 44.80289 
L 403.060249 42.818024 
L 407.789923 41.202022 
L 414.884434 40.108276 
L 419.614108 39.590402 
L 421.978945 39.496859 
L 424.343782 39.746122 
L 426.708619 40.508165 
L 429.073456 41.838479 
L 431.438293 43.552893 
L 433.80313 45.804862 
L 436.167967 48.630804 
L 438.532804 52.154603 
L 440.897641 55.093949 
L 443.262479 57.538562 
L 445.627316 62.845512 
L 447.992153 69.233643 
L 450.35699 77.115773 
L 452.721827 86.854462 
L 455.086664 92.760196 
L 455.086664 92.760196 
" clip-path="url(#p6bf31c4abd)" style="fill: none; stroke: #dc143c; stroke-width: 2; stroke-linecap: square"/>
   </g>
   <g id="line2d_23">
    <path d="M 50.699531 62.054502 
L 53.064368 59.609995 
L 55.429205 58.330572 
L 57.794042 57.688391 
L 60.158879 56.838508 
L 62.523716 54.97239 
L 64.888553 54.812369 
L 67.25339 55.259501 
L 69.618227 55.826363 
L 71.983064 55.701797 
L 74.347901 54.505379 
L 76.712738 53.695288 
L 79.077575 53.284638 
L 83.807249 51.977479 
L 88.536923 49.935344 
L 93.266597 48.805618 
L 95.631434 46.479917 
L 97.996271 44.497298 
L 100.361108 42.767081 
L 102.725946 41.418833 
L 105.090783 40.666214 
L 107.45562 40.233448 
L 109.820457 40.147733 
L 112.185294 40.382826 
L 114.550131 40.396245 
L 119.279805 40.035438 
L 128.739153 40.290541 
L 147.657849 40.05886 
L 150.022686 39.73194 
L 152.387523 39.846889 
L 154.75236 40.119346 
L 157.117197 39.963148 
L 159.482034 40.982255 
L 161.846871 40.281628 
L 164.211708 43.109708 
L 166.576545 51.878289 
L 168.941382 53.390915 
L 171.30622 59.124734 
L 173.671057 67.239746 
L 176.035894 73.026983 
L 178.400731 83.727502 
L 180.765568 93.47134 
L 185.495242 97.531 
L 187.860079 97.661509 
L 190.224916 92.401792 
L 192.589753 88.707405 
L 194.95459 85.580572 
L 199.684264 77.371915 
L 202.049101 74.626671 
L 204.413938 71.306404 
L 209.143612 70.650198 
L 211.508449 67.385619 
L 213.873286 66.188281 
L 218.60296 64.193517 
L 220.967797 64.918546 
L 223.332634 65.356139 
L 225.697471 64.405366 
L 228.062308 62.100545 
L 230.427145 54.824997 
L 232.791982 54.418861 
L 235.156819 53.083272 
L 237.521656 55.206234 
L 239.886494 60.025862 
L 242.251331 64.134857 
L 244.616168 64.147613 
L 246.981005 64.439152 
L 249.345842 65.076872 
L 251.710679 65.043167 
L 254.075516 63.998678 
L 256.440353 63.955561 
L 258.80519 62.93381 
L 261.170027 63.791069 
L 263.534864 63.98974 
L 265.899701 61.993954 
L 268.264538 59.319472 
L 270.629375 52.894378 
L 272.994212 52.257329 
L 275.359049 49.771561 
L 277.723886 49.350437 
L 280.088723 48.721112 
L 282.45356 46.488044 
L 284.818397 51.286423 
L 287.183234 57.533817 
L 289.548071 60.125225 
L 291.912908 60.33821 
L 294.277745 62.887629 
L 296.642582 68.200615 
L 299.007419 66.638469 
L 301.372256 68.212816 
L 303.737093 66.123072 
L 306.10193 64.583263 
L 308.466768 61.399771 
L 310.831605 60.512775 
L 313.196442 64.730914 
L 315.561279 54.964256 
L 317.926116 60.904765 
L 320.290953 61.463764 
L 322.65579 64.152918 
L 325.020627 62.406399 
L 327.385464 60.359489 
L 329.750301 58.616156 
L 332.115138 57.188466 
L 334.479975 56.330781 
L 339.209649 55.209954 
L 343.939323 52.546388 
L 346.30416 50.951645 
L 351.033834 48.012512 
L 353.398671 47.272048 
L 355.763508 46.254604 
L 362.858019 43.511524 
L 365.222856 42.416443 
L 372.317367 40.027195 
L 374.682205 40.234978 
L 377.047042 40.131281 
L 379.411879 40.248355 
L 381.776716 39.946282 
L 391.236064 40.153761 
L 395.965738 40.008881 
L 403.060249 39.997096 
L 407.789923 40.013057 
L 417.249271 39.981424 
L 424.343782 40.095736 
L 426.708619 39.942375 
L 429.073456 39.905504 
L 431.438293 39.989628 
L 433.80313 40.498911 
L 436.167967 40.201035 
L 440.897641 54.529433 
L 443.262479 57.222946 
L 445.627316 63.282651 
L 447.992153 70.782939 
L 450.35699 77.040251 
L 452.721827 85.443474 
L 455.086664 96.515721 
L 455.086664 96.515721 
" clip-path="url(#p6bf31c4abd)" style="fill: none; stroke: #000000; stroke-width: 2; stroke-linecap: square"/>
   </g>
   <g id="patch_6">
    <path d="M 50.699531 100.398392 
L 50.699531 13.022746 
" style="fill: none; stroke: #000000; stroke-width: 0.8; stroke-linejoin: miter; stroke-linecap: square"/>
   </g>
   <g id="patch_7">
    <path d="M 455.086664 100.398392 
L 455.086664 13.022746 
" style="fill: none; stroke: #000000; stroke-width: 0.8; stroke-linejoin: miter; stroke-linecap: square"/>
   </g>
   <g id="patch_8">
    <path d="M 50.699531 100.398392 
L 455.086664 100.398392 
" style="fill: none; stroke: #000000; stroke-width: 0.8; stroke-linejoin: miter; stroke-linecap: square"/>
   </g>
   <g id="patch_9">
    <path d="M 50.699531 13.022746 
L 455.086664 13.022746 
" style="fill: none; stroke: #000000; stroke-width: 0.8; stroke-linejoin: miter; stroke-linecap: square"/>
   </g>
   <g id="text_6">
    <!-- (a) -->
    <g transform="translate(60.699531 26.760311)scale(0.18 -0.18)">
     <defs>
      <path id="CMSS17-28" d="M 1613 4768 
C 1267 4417 474 3601 474 1588 
C 474 -433 1267 -1243 1613 -1600 
L 2003 -1600 
C 1216 -784 960 357 960 1581 
C 960 2798 1203 3946 2003 4768 
L 1613 4768 
z
" transform="scale(0.015625)"/>
      <path id="CMSS17-61" d="M 2406 1791 
C 2406 2392 1978 2808 1402 2808 
C 1120 2808 813 2757 461 2553 
L 499 2135 
C 659 2248 934 2432 1395 2432 
C 1722 2432 1920 2180 1920 1782 
L 1920 1536 
C 896 1536 256 1238 256 726 
C 256 461 416 -64 947 -64 
C 1043 -64 1562 -64 1933 217 
L 1933 -19 
L 2406 -19 
L 2406 1791 
z
M 1920 816 
C 1920 701 1920 548 1728 434 
C 1562 325 1350 325 1261 325 
C 941 325 723 511 723 744 
C 723 1211 1722 1211 1920 1211 
L 1920 816 
z
" transform="scale(0.015625)"/>
      <path id="CMSS17-29" d="M 723 -1600 
C 1069 -1249 1862 -433 1862 1581 
C 1862 3601 1069 4411 723 4768 
L 333 4768 
C 1120 3952 1376 2811 1376 1588 
C 1376 370 1133 -778 333 -1600 
L 723 -1600 
z
" transform="scale(0.015625)"/>
     </defs>
     <use xlink:href="#CMSS17-28" transform="scale(0.996264)"/>
     <use xlink:href="#CMSS17-61" transform="translate(36.433914 0)scale(0.996264)"/>
     <use xlink:href="#CMSS17-29" transform="translate(81.355835 0)scale(0.996264)"/>
    </g>
   </g>
  </g>
  <g id="axes_2">
   <g id="patch_10">
    <path d="M 50.699531 199.678787 
L 455.086664 199.678787 
L 455.086664 112.303142 
L 50.699531 112.303142 
z
" style="fill: #ffffff"/>
   </g>
   <g id="patch_11">
    <path d="M 104.774554 199.678787 
L 104.774554 112.303142 
L 161.200666 112.303142 
L 161.200666 199.678787 
z
" clip-path="url(#pccf9b8fb54)" style="fill: #d4d4d4; opacity: 0.5; stroke: #d4d4d4; stroke-linejoin: miter"/>
   </g>
   <g id="patch_12">
    <path d="M 365.74532 199.678787 
L 365.74532 112.303142 
L 438.629048 112.303142 
L 438.629048 199.678787 
z
" clip-path="url(#pccf9b8fb54)" style="fill: #d4d4d4; opacity: 0.5; stroke: #d4d4d4; stroke-linejoin: miter"/>
   </g>
   <g id="matplotlib.axis_3">
    <g id="xtick_6">
     <g id="line2d_24">
      <path d="M 50.699531 199.678787 
L 50.699531 112.303142 
" clip-path="url(#pccf9b8fb54)" style="fill: none; stroke-dasharray: 2.96,1.28; stroke-dashoffset: 0; stroke: #7f7f7f; stroke-opacity: 0.2; stroke-width: 0.8"/>
     </g>
     <g id="line2d_25">
      <g>
       <use xlink:href="#maa4fda78c7" x="50.699531" y="199.678787" style="stroke: #000000; stroke-width: 0.8"/>
      </g>
     </g>
     <g id="text_7">
      <!-- 0 -->
      <g transform="translate(47.285286 216.364664)scale(0.14 -0.14)">
       <use xlink:href="#CMSS17-30" transform="scale(0.996264)"/>
      </g>
     </g>
    </g>
    <g id="xtick_7">
     <g id="line2d_26">
      <path d="M 151.796314 199.678787 
L 151.796314 112.303142 
" clip-path="url(#pccf9b8fb54)" style="fill: none; stroke-dasharray: 2.96,1.28; stroke-dashoffset: 0; stroke: #7f7f7f; stroke-opacity: 0.2; stroke-width: 0.8"/>
     </g>
     <g id="line2d_27">
      <g>
       <use xlink:href="#maa4fda78c7" x="151.796314" y="199.678787" style="stroke: #000000; stroke-width: 0.8"/>
      </g>
     </g>
     <g id="text_8">
      <!-- 3 -->
      <g transform="translate(148.38207 216.364664)scale(0.14 -0.14)">
       <defs>
        <path id="CMSS17-33" d="M 1005 2025 
L 1440 2025 
C 2042 2025 2214 1507 2214 1146 
C 2214 653 1933 267 1472 267 
C 1114 267 608 444 320 912 
C 275 691 275 678 250 526 
C 550 88 1037 -128 1485 -128 
C 2214 -128 2752 473 2752 1138 
C 2752 1638 2400 2057 1920 2215 
C 2304 2424 2586 2816 2586 3273 
C 2586 3805 2093 4229 1491 4229 
C 941 4229 512 3892 333 3530 
C 378 3468 493 3284 550 3189 
C 691 3562 1056 3840 1485 3840 
C 1843 3840 2080 3607 2080 3271 
C 2080 2923 1856 2543 1478 2455 
C 1453 2455 1056 2417 1005 2411 
L 1005 2025 
z
" transform="scale(0.015625)"/>
       </defs>
       <use xlink:href="#CMSS17-33" transform="scale(0.996264)"/>
      </g>
     </g>
    </g>
    <g id="xtick_8">
     <g id="line2d_28">
      <path d="M 252.893097 199.678787 
L 252.893097 112.303142 
" clip-path="url(#pccf9b8fb54)" style="fill: none; stroke-dasharray: 2.96,1.28; stroke-dashoffset: 0; stroke: #7f7f7f; stroke-opacity: 0.2; stroke-width: 0.8"/>
     </g>
     <g id="line2d_29">
      <g>
       <use xlink:href="#maa4fda78c7" x="252.893097" y="199.678787" style="stroke: #000000; stroke-width: 0.8"/>
      </g>
     </g>
     <g id="text_9">
      <!-- 6 -->
      <g transform="translate(249.478853 216.364664)scale(0.14 -0.14)">
       <defs>
        <path id="CMSS17-36" d="M 2496 4101 
C 2227 4210 2035 4229 1856 4229 
C 1024 4229 250 3368 250 2006 
C 250 265 986 -128 1510 -128 
C 1798 -128 2086 -39 2362 280 
C 2643 617 2752 898 2752 1389 
C 2752 2179 2362 2880 1779 2880 
C 1357 2880 992 2657 768 2376 
C 832 3258 1254 3840 1862 3840 
C 2029 3840 2246 3816 2496 3710 
L 2496 4101 
z
M 774 1369 
C 774 1420 774 1452 781 1548 
C 781 2045 1069 2491 1536 2491 
C 1837 2491 1990 2332 2106 2135 
C 2240 1886 2246 1650 2246 1388 
C 2246 1140 2246 891 2099 637 
C 1978 439 1818 267 1510 267 
C 902 267 800 1114 774 1369 
z
" transform="scale(0.015625)"/>
       </defs>
       <use xlink:href="#CMSS17-36" transform="scale(0.996264)"/>
      </g>
     </g>
    </g>
    <g id="xtick_9">
     <g id="line2d_30">
      <path d="M 353.98988 199.678787 
L 353.98988 112.303142 
" clip-path="url(#pccf9b8fb54)" style="fill: none; stroke-dasharray: 2.96,1.28; stroke-dashoffset: 0; stroke: #7f7f7f; stroke-opacity: 0.2; stroke-width: 0.8"/>
     </g>
     <g id="line2d_31">
      <g>
       <use xlink:href="#maa4fda78c7" x="353.98988" y="199.678787" style="stroke: #000000; stroke-width: 0.8"/>
      </g>
     </g>
     <g id="text_10">
      <!-- 9 -->
      <g transform="translate(350.575636 216.364664)scale(0.14 -0.14)">
       <defs>
        <path id="CMSS17-39" d="M 435 174 
C 614 21 845 -128 1235 -128 
C 2010 -128 2752 721 2752 2095 
C 2752 3932 1952 4229 1523 4229 
C 1094 4229 819 4041 582 3741 
C 301 3397 250 3090 250 2733 
C 250 2307 326 2045 506 1745 
C 749 1357 973 1275 1222 1275 
C 1600 1275 1978 1459 2234 1776 
C 2189 902 1798 267 1235 267 
C 1005 267 819 339 634 516 
L 435 174 
z
M 2214 2746 
C 2221 2703 2221 2622 2221 2596 
C 2221 2074 1914 1664 1466 1664 
C 1171 1664 1018 1813 902 2006 
C 762 2249 755 2485 755 2733 
C 755 2976 755 3244 934 3511 
C 1069 3703 1235 3840 1523 3840 
C 2112 3840 2208 3000 2214 2746 
z
" transform="scale(0.015625)"/>
       </defs>
       <use xlink:href="#CMSS17-39" transform="scale(0.996264)"/>
      </g>
     </g>
    </g>
    <g id="xtick_10">
     <g id="line2d_32">
      <path d="M 455.086664 199.678787 
L 455.086664 112.303142 
" clip-path="url(#pccf9b8fb54)" style="fill: none; stroke-dasharray: 2.96,1.28; stroke-dashoffset: 0; stroke: #7f7f7f; stroke-opacity: 0.2; stroke-width: 0.8"/>
     </g>
     <g id="line2d_33">
      <g>
       <use xlink:href="#maa4fda78c7" x="455.086664" y="199.678787" style="stroke: #000000; stroke-width: 0.8"/>
      </g>
     </g>
     <g id="text_11">
      <!-- 12 -->
      <g transform="translate(448.258175 216.364664)scale(0.14 -0.14)">
       <use xlink:href="#CMSS17-31" transform="scale(0.996264)"/>
       <use xlink:href="#CMSS17-32" transform="translate(46.843624 0)scale(0.996264)"/>
      </g>
     </g>
    </g>
    <g id="text_12">
     <!-- Time [s] -->
     <g transform="translate(229.354194 233.537464)scale(0.14 -0.14)">
      <defs>
       <path id="CMSS17-54" d="M 2317 3968 
L 2848 3968 
C 2925 3968 3002 3968 3078 3968 
L 3878 3968 
L 3878 4376 
L 218 4376 
L 218 3968 
L 1018 3968 
C 1094 3968 1171 3968 1248 3968 
L 1779 3968 
L 1779 -32 
L 2317 -32 
L 2317 3968 
z
" transform="scale(0.015625)"/>
       <path id="CMSS17-69" d="M 979 4183 
L 442 4183 
L 442 3648 
L 979 3648 
L 979 4183 
z
M 947 2739 
L 474 2739 
L 474 0 
L 947 0 
L 947 2739 
z
" transform="scale(0.015625)"/>
       <path id="CMSS17-6d" d="M 4288 1877 
C 4288 2308 4179 2816 3462 2816 
C 2982 2816 2694 2516 2566 2331 
C 2451 2670 2182 2816 1798 2816 
C 1363 2816 1088 2568 941 2389 
L 941 2758 
L 474 2758 
L 474 0 
L 960 0 
L 960 1559 
C 960 1939 1101 2428 1555 2428 
C 2138 2428 2138 2016 2138 1829 
L 2138 0 
L 2624 0 
L 2624 1559 
C 2624 1939 2765 2428 3219 2428 
C 3802 2428 3802 2016 3802 1829 
L 3802 0 
L 4288 0 
L 4288 1877 
z
" transform="scale(0.015625)"/>
       <path id="CMSS17-73" d="M 2061 2627 
C 1683 2807 1389 2807 1197 2807 
C 742 2807 198 2648 198 2003 
C 198 1359 902 1218 1094 1179 
C 1389 1122 1715 1058 1715 740 
C 1715 337 1254 337 1171 337 
C 915 337 563 407 243 638 
L 166 210 
C 531 0 883 -64 1178 -64 
C 1965 -64 2163 416 2163 781 
C 2163 1094 1984 1305 1862 1401 
C 1651 1568 1574 1587 1050 1696 
C 960 1709 646 1779 646 2066 
C 646 2432 1050 2432 1139 2432 
C 1555 2432 1811 2303 1984 2208 
L 2061 2627 
z
" transform="scale(0.015625)"/>
      </defs>
      <use xlink:href="#CMSS17-54" transform="scale(0.996264)"/>
      <use xlink:href="#CMSS17-69" transform="translate(63.819454 0)scale(0.996264)"/>
      <use xlink:href="#CMSS17-6d" transform="translate(86.000177 0)scale(0.996264)"/>
      <use xlink:href="#CMSS17-65" transform="translate(160.229431 0)scale(0.996264)"/>
      <use xlink:href="#CMSS17-5b" transform="translate(233.097366 0)scale(0.996264)"/>
      <use xlink:href="#CMSS17-73" transform="translate(260.282805 0)scale(0.996264)"/>
      <use xlink:href="#CMSS17-5d" transform="translate(296.196347 0)scale(0.996264)"/>
     </g>
    </g>
   </g>
   <g id="matplotlib.axis_4">
    <g id="ytick_5">
     <g id="line2d_34">
      <path d="M 50.699531 197.965539 
L 455.086664 197.965539 
" clip-path="url(#pccf9b8fb54)" style="fill: none; stroke-dasharray: 2.96,1.28; stroke-dashoffset: 0; stroke: #7f7f7f; stroke-opacity: 0.2; stroke-width: 0.8"/>
     </g>
     <g id="line2d_35">
      <g>
       <use xlink:href="#m5f7a89f33d" x="50.699531" y="197.965539" style="stroke: #000000; stroke-width: 0.8"/>
      </g>
     </g>
     <g id="text_13">
      <!-- 0.0 -->
      <g transform="translate(26.248949 202.808477)scale(0.14 -0.14)">
       <defs>
        <path id="CMSS17-2e" d="M 1088 510 
L 576 510 
L 576 0 
L 1088 0 
L 1088 510 
z
" transform="scale(0.015625)"/>
       </defs>
       <use xlink:href="#CMSS17-30" transform="scale(0.996264)"/>
       <use xlink:href="#CMSS17-2e" transform="translate(46.843624 0)scale(0.996264)"/>
       <use xlink:href="#CMSS17-30" transform="translate(72.867828 0)scale(0.996264)"/>
      </g>
     </g>
    </g>
    <g id="ytick_6">
     <g id="line2d_36">
      <path d="M 50.699531 173.135859 
L 455.086664 173.135859 
" clip-path="url(#pccf9b8fb54)" style="fill: none; stroke-dasharray: 2.96,1.28; stroke-dashoffset: 0; stroke: #7f7f7f; stroke-opacity: 0.2; stroke-width: 0.8"/>
     </g>
     <g id="line2d_37">
      <g>
       <use xlink:href="#m5f7a89f33d" x="50.699531" y="173.135859" style="stroke: #000000; stroke-width: 0.8"/>
      </g>
     </g>
     <g id="text_14">
      <!-- 3.3 -->
      <g transform="translate(26.248949 177.978797)scale(0.14 -0.14)">
       <use xlink:href="#CMSS17-33" transform="scale(0.996264)"/>
       <use xlink:href="#CMSS17-2e" transform="translate(46.843624 0)scale(0.996264)"/>
       <use xlink:href="#CMSS17-33" transform="translate(72.867828 0)scale(0.996264)"/>
      </g>
     </g>
    </g>
    <g id="ytick_7">
     <g id="line2d_38">
      <path d="M 50.699531 148.306178 
L 455.086664 148.306178 
" clip-path="url(#pccf9b8fb54)" style="fill: none; stroke-dasharray: 2.96,1.28; stroke-dashoffset: 0; stroke: #7f7f7f; stroke-opacity: 0.2; stroke-width: 0.8"/>
     </g>
     <g id="line2d_39">
      <g>
       <use xlink:href="#m5f7a89f33d" x="50.699531" y="148.306178" style="stroke: #000000; stroke-width: 0.8"/>
      </g>
     </g>
     <g id="text_15">
      <!-- 6.7 -->
      <g transform="translate(26.248949 153.149117)scale(0.14 -0.14)">
       <defs>
        <path id="CMSS17-37" d="M 1389 3776 
C 1466 3776 1542 3776 1619 3776 
L 2355 3776 
C 1440 2711 915 1365 915 -32 
L 1427 -32 
C 1427 1323 1875 2696 2752 3795 
L 2752 4209 
L 250 4209 
L 250 3776 
L 1389 3776 
z
" transform="scale(0.015625)"/>
       </defs>
       <use xlink:href="#CMSS17-36" transform="scale(0.996264)"/>
       <use xlink:href="#CMSS17-2e" transform="translate(46.843624 0)scale(0.996264)"/>
       <use xlink:href="#CMSS17-37" transform="translate(72.867828 0)scale(0.996264)"/>
      </g>
     </g>
    </g>
    <g id="ytick_8">
     <g id="line2d_40">
      <path d="M 50.699531 123.476498 
L 455.086664 123.476498 
" clip-path="url(#pccf9b8fb54)" style="fill: none; stroke-dasharray: 2.96,1.28; stroke-dashoffset: 0; stroke: #7f7f7f; stroke-opacity: 0.2; stroke-width: 0.8"/>
     </g>
     <g id="line2d_41">
      <g>
       <use xlink:href="#m5f7a89f33d" x="50.699531" y="123.476498" style="stroke: #000000; stroke-width: 0.8"/>
      </g>
     </g>
     <g id="text_16">
      <!-- 10.0 -->
      <g transform="translate(19.42046 128.319436)scale(0.14 -0.14)">
       <use xlink:href="#CMSS17-31" transform="scale(0.996264)"/>
       <use xlink:href="#CMSS17-30" transform="translate(46.843624 0)scale(0.996264)"/>
       <use xlink:href="#CMSS17-2e" transform="translate(93.687247 0)scale(0.996264)"/>
       <use xlink:href="#CMSS17-30" transform="translate(119.711452 0)scale(0.996264)"/>
      </g>
     </g>
    </g>
    <g id="text_17">
     <!-- Control error [deg] -->
     <g transform="translate(11.933536 208.750293)rotate(-90)scale(0.14 -0.14)">
      <use xlink:href="#CMSS17-43" transform="scale(0.996264)"/>
      <use xlink:href="#CMSS17-6f" transform="translate(59.855772 0)scale(0.996264)"/>
      <use xlink:href="#CMSS17-6e" transform="translate(106.699395 0)scale(0.996264)"/>
      <use xlink:href="#CMSS17-74" transform="translate(154.904338 0)scale(0.996264)"/>
      <use xlink:href="#CMSS17-72" transform="translate(188.735905 0)scale(0.996264)"/>
      <use xlink:href="#CMSS17-6f" transform="translate(220.645677 0)scale(0.996264)"/>
      <use xlink:href="#CMSS17-6c" transform="translate(267.489301 0)scale(0.996264)"/>
      <use xlink:href="#CMSS17-65" transform="translate(320.899137 0)scale(0.996264)"/>
      <use xlink:href="#CMSS17-72" transform="translate(362.537959 0)scale(0.996264)"/>
      <use xlink:href="#CMSS17-72" transform="translate(394.447731 0)scale(0.996264)"/>
      <use xlink:href="#CMSS17-6f" transform="translate(426.357504 0)scale(0.996264)"/>
      <use xlink:href="#CMSS17-72" transform="translate(470.598674 0)scale(0.996264)"/>
      <use xlink:href="#CMSS17-5b" transform="translate(533.737559 0)scale(0.996264)"/>
      <use xlink:href="#CMSS17-64" transform="translate(560.922997 0)scale(0.996264)"/>
      <use xlink:href="#CMSS17-65" transform="translate(609.127941 0)scale(0.996264)"/>
      <use xlink:href="#CMSS17-67" transform="translate(650.766763 0)scale(0.996264)"/>
      <use xlink:href="#CMSS17-5d" transform="translate(697.610386 0)scale(0.996264)"/>
     </g>
    </g>
   </g>
   <g id="line2d_42">
    <path d="M 50.699531 189.042759 
L 53.064368 189.757825 
L 55.429205 187.638672 
L 57.794042 189.817764 
L 60.158879 191.057034 
L 62.523716 192.536065 
L 64.888553 193.163447 
L 67.25339 192.247236 
L 69.618227 190.800783 
L 71.983064 190.318863 
L 74.347901 188.743443 
L 76.712738 190.981552 
L 79.077575 191.776119 
L 81.442412 192.885577 
L 83.807249 192.052554 
L 86.172086 192.809964 
L 88.536923 193.28347 
L 90.90176 195.803553 
L 93.266597 196.154049 
L 95.631434 195.822076 
L 97.996271 196.378764 
L 100.361108 197.657546 
L 102.725946 197.367319 
L 112.185294 195.610357 
L 114.550131 195.388178 
L 116.914968 194.675934 
L 119.279805 193.617897 
L 121.644642 195.779663 
L 124.009479 194.402515 
L 126.374316 192.645333 
L 128.739153 186.739061 
L 131.10399 184.01183 
L 133.468827 181.890456 
L 135.833664 184.98835 
L 138.198501 178.396822 
L 140.563338 177.894396 
L 145.293012 178.753206 
L 147.657849 183.758607 
L 150.022686 177.827464 
L 152.387523 178.052542 
L 154.75236 168.391051 
L 157.117197 180.253386 
L 159.482034 181.266498 
L 161.846871 195.486239 
L 164.211708 194.43922 
L 166.576545 175.648503 
L 168.941382 185.192879 
L 171.30622 179.269744 
L 173.671057 180.934522 
L 176.035894 183.539958 
L 178.400731 164.375022 
L 180.765568 178.741194 
L 183.130405 181.778201 
L 185.495242 185.320291 
L 187.860079 177.057281 
L 190.224916 175.90325 
L 192.589753 179.257656 
L 194.95459 185.066017 
L 197.319427 185.120581 
L 199.684264 189.254178 
L 202.049101 195.978311 
L 204.413938 197.583882 
L 206.778775 192.220886 
L 209.143612 190.67456 
L 211.508449 194.827422 
L 213.873286 197.700881 
L 216.238123 196.475176 
L 218.60296 196.26433 
L 220.967797 187.8545 
L 223.332634 186.819166 
L 225.697471 186.59307 
L 228.062308 192.77539 
L 230.427145 192.267729 
L 232.791982 193.978537 
L 235.156819 195.022657 
L 237.521656 194.471812 
L 239.886494 184.956486 
L 242.251331 197.612364 
L 244.616168 196.794169 
L 246.981005 197.4576 
L 249.345842 194.313387 
L 251.710679 176.420007 
L 254.075516 182.614993 
L 256.440353 178.555706 
L 258.80519 168.028397 
L 261.170027 176.157832 
L 263.534864 164.075475 
L 265.899701 179.055018 
L 268.264538 180.457552 
L 270.629375 173.684813 
L 272.994212 177.653221 
L 275.359049 193.630506 
L 277.723886 188.80122 
L 280.088723 184.90098 
L 282.45356 182.521436 
L 284.818397 182.470402 
L 287.183234 176.402713 
L 289.548071 177.263445 
L 291.912908 181.839092 
L 296.642582 188.462356 
L 299.007419 178.850717 
L 301.372256 176.597777 
L 303.737093 188.629832 
L 306.10193 188.99818 
L 308.466768 192.13674 
L 310.831605 196.768277 
L 313.196442 193.061293 
L 315.561279 196.591828 
L 317.926116 193.431984 
L 320.290953 195.77017 
L 322.65579 192.804843 
L 325.020627 195.949811 
L 327.385464 192.893413 
L 329.750301 197.465637 
L 332.115138 197.261022 
L 334.479975 194.876585 
L 336.844812 195.477526 
L 339.209649 192.990114 
L 341.574486 195.094829 
L 343.939323 195.308746 
L 346.30416 195.781876 
L 348.668997 195.271416 
L 351.033834 194.140088 
L 355.763508 192.680404 
L 360.493182 191.563899 
L 362.858019 190.919202 
L 365.222856 190.118799 
L 369.95253 189.700398 
L 372.317367 189.243331 
L 374.682205 188.526839 
L 377.047042 187.622173 
L 379.411879 186.91076 
L 381.776716 187.132897 
L 384.141553 184.915295 
L 386.50639 188.123824 
L 388.871227 188.518605 
L 391.236064 189.475697 
L 398.330575 190.089276 
L 400.695412 193.726344 
L 403.060249 190.749278 
L 405.425086 191.706129 
L 407.789923 193.27616 
L 410.15476 192.623091 
L 412.519597 191.323218 
L 414.884434 190.679597 
L 417.249271 190.178408 
L 419.614108 189.795781 
L 421.978945 189.251756 
L 424.343782 188.522278 
L 426.708619 193.26522 
L 429.073456 183.327667 
L 431.438293 181.011407 
L 433.80313 178.99549 
L 436.167967 176.037811 
L 438.532804 155.995882 
L 440.897641 179.531733 
L 443.262479 170.459462 
L 445.627316 168.476407 
L 447.992153 170.748321 
L 450.35699 169.929349 
L 452.721827 171.600454 
L 455.086664 179.734544 
L 455.086664 179.734544 
" clip-path="url(#pccf9b8fb54)" style="fill: none; stroke: #2e8b57; stroke-width: 2; stroke-linecap: square"/>
   </g>
   <g id="line2d_43">
    <path d="M 50.699531 190.432286 
L 53.064368 191.454713 
L 55.429205 190.260567 
L 57.794042 193.258969 
L 62.523716 196.288544 
L 64.888553 197.55587 
L 67.25339 197.901488 
L 69.618227 197.628141 
L 71.983064 196.767484 
L 74.347901 197.104926 
L 76.712738 193.884839 
L 79.077575 192.086997 
L 81.442412 190.087337 
L 83.807249 190.025839 
L 86.172086 188.310694 
L 88.536923 186.865136 
L 90.90176 183.290408 
L 95.631434 179.68043 
L 97.996271 177.108109 
L 100.361108 173.991553 
L 102.725946 171.086215 
L 114.550131 158.128029 
L 116.914968 155.149067 
L 119.279805 151.913585 
L 121.644642 152.017855 
L 124.009479 148.55064 
L 126.374316 144.682506 
L 128.739153 136.595721 
L 131.10399 132.512404 
L 133.468827 129.406781 
L 135.833664 131.541645 
L 138.198501 124.15767 
L 140.563338 122.86115 
L 142.928175 122.750799 
L 145.293012 122.801684 
L 147.657849 128.242947 
L 150.022686 123.509644 
L 152.387523 125.607575 
L 154.75236 119.033636 
L 157.117197 134.891761 
L 159.482034 141.903346 
L 161.846871 164.220933 
L 164.211708 180.032158 
L 166.576545 165.44613 
L 168.941382 187.81469 
L 171.30622 194.386052 
L 173.671057 197.299708 
L 176.035894 196.416656 
L 178.400731 173.769942 
L 180.765568 184.558171 
L 183.130405 186.421818 
L 185.495242 189.235232 
L 187.860079 181.185451 
L 190.224916 183.15292 
L 192.589753 189.025236 
L 194.95459 195.363492 
L 197.319427 194.922998 
L 199.684264 196.391459 
L 202.049101 189.053602 
L 204.413938 187.439024 
L 206.778775 193.248975 
L 209.143612 196.148485 
L 211.508449 188.579956 
L 213.873286 194.86951 
L 216.238123 193.403744 
L 218.60296 194.722508 
L 220.967797 188.795908 
L 223.332634 186.980892 
L 225.697471 184.454313 
L 228.062308 197.579393 
L 230.427145 185.762266 
L 232.791982 186.267853 
L 235.156819 187.268667 
L 237.521656 189.633659 
L 239.886494 187.569445 
L 242.251331 194.916871 
L 244.616168 197.610465 
L 246.981005 193.583932 
L 249.345842 187.789706 
L 251.710679 167.301139 
L 254.075516 172.844711 
L 256.440353 168.165444 
L 258.80519 158.974912 
L 261.170027 176.742058 
L 263.534864 170.012034 
L 265.899701 183.915414 
L 268.264538 181.41329 
L 270.629375 173.302489 
L 272.994212 174.832412 
L 275.359049 189.862912 
L 277.723886 185.499151 
L 280.088723 182.828701 
L 284.818397 180.851336 
L 287.183234 173.444856 
L 289.548071 179.102612 
L 291.912908 185.049807 
L 294.277745 181.650929 
L 296.642582 186.188025 
L 299.007419 176.360605 
L 301.372256 173.655964 
L 303.737093 185.615233 
L 306.10193 186.300457 
L 308.466768 191.808067 
L 310.831605 195.540761 
L 313.196442 190.641279 
L 315.561279 194.834719 
L 317.926116 192.300188 
L 320.290953 195.075741 
L 322.65579 193.242254 
L 325.020627 197.610223 
L 327.385464 195.334918 
L 329.750301 194.202259 
L 332.115138 194.339972 
L 334.479975 189.919823 
L 336.844812 189.95014 
L 339.209649 186.816597 
L 341.574486 187.523176 
L 343.939323 186.148367 
L 346.30416 185.218106 
L 348.668997 183.411208 
L 353.398671 178.860148 
L 355.763508 176.577599 
L 360.493182 172.844078 
L 367.587693 167.71424 
L 369.95253 166.122926 
L 372.317367 164.233308 
L 379.411879 158.004543 
L 381.776716 156.490447 
L 384.141553 152.671358 
L 386.50639 153.879819 
L 388.871227 152.330026 
L 391.236064 151.245215 
L 398.330575 146.122317 
L 400.695412 147.80044 
L 403.060249 142.750108 
L 405.425086 141.370808 
L 407.789923 140.43772 
L 410.15476 138.618102 
L 412.519597 136.349033 
L 414.884434 134.775357 
L 417.249271 133.585757 
L 419.614108 132.790526 
L 421.978945 132.188718 
L 424.343782 132.297272 
L 426.708619 139.404475 
L 429.073456 133.596086 
L 431.438293 136.615853 
L 433.80313 141.307527 
L 436.167967 147.00739 
L 438.532804 137.407489 
L 440.897641 172.789706 
L 443.262479 178.706731 
L 445.627316 184.932406 
L 447.992153 187.901348 
L 450.35699 185.929267 
L 452.721827 180.319132 
L 455.086664 185.484169 
L 455.086664 185.484169 
" clip-path="url(#pccf9b8fb54)" style="fill: none; stroke: #dc143c; stroke-width: 2; stroke-linecap: square"/>
   </g>
   <g id="line2d_44">
    <path d="M 50.699531 194.058894 
L 53.064368 192.606302 
L 55.429205 189.768968 
L 57.794042 191.84541 
L 60.158879 191.554508 
L 62.523716 187.869283 
L 64.888553 189.481277 
L 67.25339 192.825221 
L 69.618227 196.624882 
L 71.983064 197.389918 
L 74.347901 195.869095 
L 76.712738 197.719697 
L 79.077575 196.607227 
L 81.442412 195.675205 
L 83.807249 196.688963 
L 86.172086 196.935885 
L 88.536923 197.643672 
L 90.90176 194.569177 
L 93.266597 193.092043 
L 95.631434 196.376935 
L 97.996271 197.895829 
L 100.361108 197.372703 
L 102.725946 197.90169 
L 105.090783 195.324059 
L 107.45562 192.128487 
L 109.820457 187.483812 
L 112.185294 181.701793 
L 114.550131 176.58536 
L 119.279805 166.920693 
L 121.644642 164.639071 
L 126.374316 152.634333 
L 128.739153 142.040521 
L 131.10399 136.55937 
L 133.468827 132.593409 
L 135.833664 133.75296 
L 138.198501 125.544763 
L 140.563338 123.427325 
L 142.928175 122.83027 
L 145.293012 122.401305 
L 147.657849 128.234337 
L 150.022686 125.725868 
L 152.387523 129.268825 
L 154.75236 124.937429 
L 157.117197 145.187425 
L 159.482034 155.130774 
L 161.846871 188.044673 
L 164.211708 190.915728 
L 166.576545 174.016121 
L 168.941382 197.572634 
L 171.30622 194.749693 
L 173.671057 197.341359 
L 176.035894 189.136404 
L 178.400731 178.61086 
L 180.765568 181.617491 
L 183.130405 186.828832 
L 185.495242 184.059028 
L 187.860079 171.599672 
L 190.224916 174.811669 
L 192.589753 176.966132 
L 194.95459 182.063988 
L 197.319427 188.910673 
L 199.684264 197.150556 
L 202.049101 188.763126 
L 204.413938 183.955724 
L 206.778775 195.206956 
L 211.508449 190.862662 
L 213.873286 196.624709 
L 216.238123 194.990363 
L 218.60296 193.122073 
L 220.967797 175.961388 
L 223.332634 169.143882 
L 225.697471 168.487492 
L 228.062308 187.755417 
L 230.427145 196.033905 
L 232.791982 197.10095 
L 235.156819 193.652144 
L 237.521656 197.43678 
L 239.886494 190.423998 
L 242.251331 187.816626 
L 244.616168 194.310766 
L 246.981005 195.633474 
L 249.345842 191.039781 
L 251.710679 170.233453 
L 254.075516 171.260422 
L 256.440353 165.367214 
L 258.80519 152.160053 
L 261.170027 170.914586 
L 263.534864 168.354992 
L 265.899701 183.750568 
L 268.264538 185.392796 
L 270.629375 170.593856 
L 272.994212 180.530819 
L 275.359049 192.578841 
L 277.723886 192.136855 
L 280.088723 187.758748 
L 282.45356 176.158991 
L 284.818397 184.379353 
L 287.183234 191.352773 
L 289.548071 192.468509 
L 291.912908 183.547243 
L 294.277745 184.397823 
L 296.642582 197.788147 
L 299.007419 180.526102 
L 301.372256 180.515759 
L 303.737093 187.029807 
L 306.10193 184.643121 
L 308.466768 177.169909 
L 310.831605 179.445755 
L 313.196442 191.789479 
L 315.561279 167.053325 
L 317.926116 185.508213 
L 320.290953 190.409654 
L 322.65579 196.140474 
L 325.020627 193.775581 
L 327.385464 197.880481 
L 329.750301 193.61235 
L 332.115138 196.787822 
L 334.479975 194.093214 
L 336.844812 194.817211 
L 339.209649 192.442881 
L 341.574486 195.568285 
L 343.939323 196.917455 
L 346.30416 196.495182 
L 348.668997 195.139121 
L 351.033834 194.252819 
L 353.398671 195.684464 
L 355.763508 196.429436 
L 358.128345 196.989807 
L 360.493182 197.340765 
L 362.858019 197.208584 
L 365.222856 196.826128 
L 367.587693 197.179998 
L 369.95253 197.781806 
L 372.317367 197.066564 
L 374.682205 192.853099 
L 377.047042 189.514853 
L 379.411879 185.67625 
L 381.776716 183.261076 
L 384.141553 177.573623 
L 386.50639 176.49691 
L 388.871227 172.580143 
L 391.236064 169.52166 
L 393.600901 166.224099 
L 398.330575 159.011731 
L 400.695412 158.614755 
L 403.060249 151.455786 
L 405.425086 147.546279 
L 407.789923 144.106989 
L 410.15476 141.174579 
L 412.519597 137.806362 
L 414.884434 135.151249 
L 417.249271 133.074033 
L 419.614108 131.369043 
L 421.978945 130.336814 
L 424.343782 131.218328 
L 426.708619 141.15056 
L 429.073456 139.561448 
L 431.438293 147.612459 
L 433.80313 157.682242 
L 436.167967 173.022534 
L 438.532804 152.552511 
L 440.897641 174.531859 
L 443.262479 179.680757 
L 445.627316 183.583349 
L 447.992153 183.120058 
L 450.35699 186.162336 
L 452.721827 184.673587 
L 455.086664 173.89423 
L 455.086664 173.89423 
" clip-path="url(#pccf9b8fb54)" style="fill: none; stroke: #000000; stroke-width: 2; stroke-linecap: square"/>
   </g>
   <g id="patch_13">
    <path d="M 50.699531 199.678787 
L 50.699531 112.303142 
" style="fill: none; stroke: #000000; stroke-width: 0.8; stroke-linejoin: miter; stroke-linecap: square"/>
   </g>
   <g id="patch_14">
    <path d="M 455.086664 199.678787 
L 455.086664 112.303142 
" style="fill: none; stroke: #000000; stroke-width: 0.8; stroke-linejoin: miter; stroke-linecap: square"/>
   </g>
   <g id="patch_15">
    <path d="M 50.699531 199.678787 
L 455.086664 199.678787 
" style="fill: none; stroke: #000000; stroke-width: 0.8; stroke-linejoin: miter; stroke-linecap: square"/>
   </g>
   <g id="patch_16">
    <path d="M 50.699531 112.303142 
L 455.086664 112.303142 
" style="fill: none; stroke: #000000; stroke-width: 0.8; stroke-linejoin: miter; stroke-linecap: square"/>
   </g>
   <g id="text_18">
    <!-- (b) -->
    <g transform="translate(60.699531 126.040706)scale(0.18 -0.18)">
     <defs>
      <path id="CMSS17-62" d="M 954 4416 
L 480 4416 
L 480 -13 
L 966 -13 
L 966 274 
C 1210 38 1504 -64 1766 -64 
C 2381 -64 2880 549 2880 1352 
C 2880 2086 2496 2756 1926 2756 
C 1523 2756 1165 2591 954 2419 
L 954 4416 
z
M 966 2046 
C 1107 2222 1306 2368 1587 2368 
C 1965 2368 2394 2097 2394 1352 
C 2394 558 1882 325 1530 325 
C 1402 325 1267 356 1139 464 
C 966 615 966 709 966 797 
L 966 2046 
z
" transform="scale(0.015625)"/>
     </defs>
     <use xlink:href="#CMSS17-28" transform="scale(0.996264)"/>
     <use xlink:href="#CMSS17-62" transform="translate(36.433914 0)scale(0.996264)"/>
     <use xlink:href="#CMSS17-29" transform="translate(84.638857 0)scale(0.996264)"/>
    </g>
   </g>
  </g>
  <g id="axes_3">
   <g id="patch_17">
    <path d="M 477.345471 199.678787 
L 746.936893 199.678787 
L 746.936893 13.022746 
L 477.345471 13.022746 
z
" style="fill: #ffffff"/>
   </g>
   <g id="matplotlib.axis_5">
    <g id="xtick_11">
     <g id="line2d_45">
      <path d="M 477.345471 199.678787 
L 477.345471 13.022746 
" clip-path="url(#pbc430b9655)" style="fill: none; stroke-dasharray: 2.96,1.28; stroke-dashoffset: 0; stroke: #7f7f7f; stroke-opacity: 0.2; stroke-width: 0.8"/>
     </g>
     <g id="line2d_46">
      <g>
       <use xlink:href="#maa4fda78c7" x="477.345471" y="199.678787" style="stroke: #000000; stroke-width: 0.8"/>
      </g>
     </g>
     <g id="text_19">
      <!-- 0.0 -->
      <g transform="translate(468.62018 216.364664)scale(0.14 -0.14)">
       <use xlink:href="#CMSS17-30" transform="scale(0.996264)"/>
       <use xlink:href="#CMSS17-2e" transform="translate(46.843624 0)scale(0.996264)"/>
       <use xlink:href="#CMSS17-30" transform="translate(72.867828 0)scale(0.996264)"/>
      </g>
     </g>
    </g>
    <g id="xtick_12">
     <g id="line2d_47">
      <path d="M 544.743327 199.678787 
L 544.743327 13.022746 
" clip-path="url(#pbc430b9655)" style="fill: none; stroke-dasharray: 2.96,1.28; stroke-dashoffset: 0; stroke: #7f7f7f; stroke-opacity: 0.2; stroke-width: 0.8"/>
     </g>
     <g id="line2d_48">
      <g>
       <use xlink:href="#maa4fda78c7" x="544.743327" y="199.678787" style="stroke: #000000; stroke-width: 0.8"/>
      </g>
     </g>
     <g id="text_20">
      <!-- 0.5 -->
      <g transform="translate(536.018036 216.364664)scale(0.14 -0.14)">
       <defs>
        <path id="CMSS17-35" d="M 934 3752 
L 2502 3752 
L 2502 4160 
L 467 4160 
L 467 1781 
L 896 1781 
C 1011 2046 1248 2240 1555 2240 
C 1843 2240 2163 1989 2163 1266 
C 2163 493 1709 267 1376 267 
C 966 267 589 512 422 851 
L 218 499 
C 512 49 992 -128 1376 -128 
C 2118 -128 2701 497 2701 1253 
C 2701 2030 2182 2629 1562 2629 
C 1338 2629 1120 2553 934 2399 
L 934 3752 
z
" transform="scale(0.015625)"/>
       </defs>
       <use xlink:href="#CMSS17-30" transform="scale(0.996264)"/>
       <use xlink:href="#CMSS17-2e" transform="translate(46.843624 0)scale(0.996264)"/>
       <use xlink:href="#CMSS17-35" transform="translate(72.867828 0)scale(0.996264)"/>
      </g>
     </g>
    </g>
    <g id="xtick_13">
     <g id="line2d_49">
      <path d="M 612.141182 199.678787 
L 612.141182 13.022746 
" clip-path="url(#pbc430b9655)" style="fill: none; stroke-dasharray: 2.96,1.28; stroke-dashoffset: 0; stroke: #7f7f7f; stroke-opacity: 0.2; stroke-width: 0.8"/>
     </g>
     <g id="line2d_50">
      <g>
       <use xlink:href="#maa4fda78c7" x="612.141182" y="199.678787" style="stroke: #000000; stroke-width: 0.8"/>
      </g>
     </g>
     <g id="text_21">
      <!-- 1.0 -->
      <g transform="translate(603.415891 216.364664)scale(0.14 -0.14)">
       <use xlink:href="#CMSS17-31" transform="scale(0.996264)"/>
       <use xlink:href="#CMSS17-2e" transform="translate(46.843624 0)scale(0.996264)"/>
       <use xlink:href="#CMSS17-30" transform="translate(72.867828 0)scale(0.996264)"/>
      </g>
     </g>
    </g>
    <g id="xtick_14">
     <g id="line2d_51">
      <path d="M 679.539038 199.678787 
L 679.539038 13.022746 
" clip-path="url(#pbc430b9655)" style="fill: none; stroke-dasharray: 2.96,1.28; stroke-dashoffset: 0; stroke: #7f7f7f; stroke-opacity: 0.2; stroke-width: 0.8"/>
     </g>
     <g id="line2d_52">
      <g>
       <use xlink:href="#maa4fda78c7" x="679.539038" y="199.678787" style="stroke: #000000; stroke-width: 0.8"/>
      </g>
     </g>
     <g id="text_22">
      <!-- 1.5 -->
      <g transform="translate(670.813747 216.364664)scale(0.14 -0.14)">
       <use xlink:href="#CMSS17-31" transform="scale(0.996264)"/>
       <use xlink:href="#CMSS17-2e" transform="translate(46.843624 0)scale(0.996264)"/>
       <use xlink:href="#CMSS17-35" transform="translate(72.867828 0)scale(0.996264)"/>
      </g>
     </g>
    </g>
    <g id="xtick_15">
     <g id="line2d_53">
      <path d="M 746.936893 199.678787 
L 746.936893 13.022746 
" clip-path="url(#pbc430b9655)" style="fill: none; stroke-dasharray: 2.96,1.28; stroke-dashoffset: 0; stroke: #7f7f7f; stroke-opacity: 0.2; stroke-width: 0.8"/>
     </g>
     <g id="line2d_54">
      <g>
       <use xlink:href="#maa4fda78c7" x="746.936893" y="199.678787" style="stroke: #000000; stroke-width: 0.8"/>
      </g>
     </g>
     <g id="text_23">
      <!-- 2.0 -->
      <g transform="translate(738.211602 216.364664)scale(0.14 -0.14)">
       <use xlink:href="#CMSS17-32" transform="scale(0.996264)"/>
       <use xlink:href="#CMSS17-2e" transform="translate(46.843624 0)scale(0.996264)"/>
       <use xlink:href="#CMSS17-30" transform="translate(72.867828 0)scale(0.996264)"/>
      </g>
     </g>
    </g>
    <g id="text_24">
     <!-- $L_2$-distance to the nearest neighbor -->
     <g transform="translate(511.083214 232.762568)scale(0.14 -0.14)">
      <defs>
       <path id="CMMI12-4c" d="M 2349 3861 
C 2406 4103 2426 4167 2989 4167 
C 3162 4167 3206 4167 3206 4288 
C 3206 4352 3136 4352 3110 4352 
C 2982 4352 2835 4352 2707 4352 
L 1850 4352 
C 1728 4352 1587 4352 1466 4352 
C 1414 4352 1344 4352 1344 4231 
C 1344 4167 1402 4167 1498 4167 
C 1888 4167 1888 4116 1888 4046 
C 1888 4034 1888 3995 1862 3899 
L 998 472 
C 941 249 928 185 480 185 
C 358 185 294 185 294 70 
C 294 0 333 0 461 0 
L 3328 0 
C 3469 0 3475 6 3520 121 
L 4013 1478 
C 4026 1510 4038 1548 4038 1567 
C 4038 1605 4006 1631 3974 1631 
C 3968 1631 3936 1631 3923 1605 
C 3910 1599 3910 1586 3859 1465 
C 3654 905 3366 185 2285 185 
L 1670 185 
C 1581 185 1568 185 1530 192 
C 1459 198 1453 211 1453 262 
C 1453 307 1466 345 1478 401 
L 2349 3861 
z
" transform="scale(0.015625)"/>
       <path id="CMR17-32" d="M 2669 989 
L 2554 989 
C 2490 536 2438 459 2413 420 
C 2381 369 1920 369 1830 369 
L 602 369 
C 832 619 1280 1072 1824 1597 
C 2214 1967 2669 2402 2669 3035 
C 2669 3790 2067 4224 1395 4224 
C 691 4224 262 3604 262 3030 
C 262 2780 448 2748 525 2748 
C 589 2748 781 2787 781 3010 
C 781 3207 614 3264 525 3264 
C 486 3264 448 3258 422 3245 
C 544 3790 915 4058 1306 4058 
C 1862 4058 2227 3617 2227 3035 
C 2227 2479 1901 2000 1536 1584 
L 262 146 
L 262 0 
L 2515 0 
L 2669 989 
z
" transform="scale(0.015625)"/>
       <path id="CMSS17-63" d="M 2464 2541 
C 2464 2585 2170 2714 2093 2739 
C 1882 2816 1613 2816 1542 2816 
C 710 2816 211 2093 211 1363 
C 211 595 768 -64 1517 -64 
C 1946 -64 2253 76 2502 242 
L 2464 664 
C 2189 453 1869 337 1523 337 
C 1024 337 698 774 698 1369 
C 698 1831 909 2414 1549 2414 
C 1901 2414 2099 2343 2394 2145 
L 2464 2541 
z
" transform="scale(0.015625)"/>
       <path id="CMSS17-68" d="M 2618 1891 
C 2618 2292 2522 2820 1798 2820 
C 1395 2820 1133 2623 947 2407 
L 947 4448 
L 474 4448 
L 474 32 
L 960 32 
L 960 1573 
C 960 1973 1114 2432 1549 2432 
C 2112 2432 2131 2056 2131 1839 
L 2131 32 
L 2618 32 
L 2618 1891 
z
" transform="scale(0.015625)"/>
      </defs>
      <use xlink:href="#CMMI12-4c" transform="scale(0.996264)"/>
      <use xlink:href="#CMR17-32" transform="translate(66.370875 -14.943915)scale(0.697382)"/>
      <use xlink:href="#CMSS17-2d" transform="translate(98.852189 0)scale(0.996264)"/>
      <use xlink:href="#CMSS17-64" transform="translate(130.081302 0)scale(0.996264)"/>
      <use xlink:href="#CMSS17-69" transform="translate(178.286245 0)scale(0.996264)"/>
      <use xlink:href="#CMSS17-73" transform="translate(200.466968 0)scale(0.996264)"/>
      <use xlink:href="#CMSS17-74" transform="translate(236.38051 0)scale(0.996264)"/>
      <use xlink:href="#CMSS17-61" transform="translate(270.212077 0)scale(0.996264)"/>
      <use xlink:href="#CMSS17-6e" transform="translate(315.133998 0)scale(0.996264)"/>
      <use xlink:href="#CMSS17-63" transform="translate(363.338941 0)scale(0.996264)"/>
      <use xlink:href="#CMSS17-65" transform="translate(404.977763 0)scale(0.996264)"/>
      <use xlink:href="#CMSS17-74" transform="translate(477.845698 0)scale(0.996264)"/>
      <use xlink:href="#CMSS17-6f" transform="translate(511.677264 0)scale(0.996264)"/>
      <use xlink:href="#CMSS17-74" transform="translate(589.750001 0)scale(0.996264)"/>
      <use xlink:href="#CMSS17-68" transform="translate(623.581567 0)scale(0.996264)"/>
      <use xlink:href="#CMSS17-65" transform="translate(671.78651 0)scale(0.996264)"/>
      <use xlink:href="#CMSS17-6e" transform="translate(744.654445 0)scale(0.996264)"/>
      <use xlink:href="#CMSS17-65" transform="translate(792.859388 0)scale(0.996264)"/>
      <use xlink:href="#CMSS17-61" transform="translate(834.49821 0)scale(0.996264)"/>
      <use xlink:href="#CMSS17-72" transform="translate(876.817677 0)scale(0.996264)"/>
      <use xlink:href="#CMSS17-65" transform="translate(908.72745 0)scale(0.996264)"/>
      <use xlink:href="#CMSS17-73" transform="translate(950.366272 0)scale(0.996264)"/>
      <use xlink:href="#CMSS17-74" transform="translate(986.279814 0)scale(0.996264)"/>
      <use xlink:href="#CMSS17-6e" transform="translate(1051.340493 0)scale(0.996264)"/>
      <use xlink:href="#CMSS17-65" transform="translate(1099.545436 0)scale(0.996264)"/>
      <use xlink:href="#CMSS17-69" transform="translate(1141.184258 0)scale(0.996264)"/>
      <use xlink:href="#CMSS17-67" transform="translate(1163.364981 0)scale(0.996264)"/>
      <use xlink:href="#CMSS17-68" transform="translate(1210.208605 0)scale(0.996264)"/>
      <use xlink:href="#CMSS17-62" transform="translate(1258.413548 0)scale(0.996264)"/>
      <use xlink:href="#CMSS17-6f" transform="translate(1309.22093 0)scale(0.996264)"/>
      <use xlink:href="#CMSS17-72" transform="translate(1353.4621 0)scale(0.996264)"/>
     </g>
    </g>
   </g>
   <g id="matplotlib.axis_6">
    <g id="ytick_9">
     <g id="line2d_55">
      <path d="M 477.345471 197.581528 
L 746.936893 197.581528 
" clip-path="url(#pbc430b9655)" style="fill: none; stroke-dasharray: 2.96,1.28; stroke-dashoffset: 0; stroke: #7f7f7f; stroke-opacity: 0.2; stroke-width: 0.8"/>
     </g>
     <g id="line2d_56">
      <defs>
       <path id="mfc3144a84c" d="M 0 0 
L 3.5 0 
" style="stroke: #000000; stroke-width: 0.8"/>
      </defs>
      <g>
       <use xlink:href="#mfc3144a84c" x="746.936893" y="197.581528" style="stroke: #000000; stroke-width: 0.8"/>
      </g>
     </g>
     <g id="text_25">
      <!-- 0.0 -->
      <g transform="translate(753.936893 202.424467)scale(0.14 -0.14)">
       <use xlink:href="#CMSS17-30" transform="scale(0.996264)"/>
       <use xlink:href="#CMSS17-2e" transform="translate(46.843624 0)scale(0.996264)"/>
       <use xlink:href="#CMSS17-30" transform="translate(72.867828 0)scale(0.996264)"/>
      </g>
     </g>
    </g>
    <g id="ytick_10">
     <g id="line2d_57">
      <path d="M 477.345471 105.302137 
L 746.936893 105.302137 
" clip-path="url(#pbc430b9655)" style="fill: none; stroke-dasharray: 2.96,1.28; stroke-dashoffset: 0; stroke: #7f7f7f; stroke-opacity: 0.2; stroke-width: 0.8"/>
     </g>
     <g id="line2d_58">
      <g>
       <use xlink:href="#mfc3144a84c" x="746.936893" y="105.302137" style="stroke: #000000; stroke-width: 0.8"/>
      </g>
     </g>
     <g id="text_26">
      <!-- 4.4 -->
      <g transform="translate(753.936893 110.145075)scale(0.14 -0.14)">
       <defs>
        <path id="CMSS17-34" d="M 2253 1088 
L 2835 1088 
L 2835 1477 
L 2253 1477 
L 2253 4192 
L 1690 4192 
L 166 1477 
L 166 1088 
L 1747 1088 
L 1747 0 
L 2253 0 
L 2253 1088 
z
M 659 1477 
C 1030 2127 1766 3439 1766 3885 
L 1766 1477 
L 659 1477 
z
" transform="scale(0.015625)"/>
       </defs>
       <use xlink:href="#CMSS17-34" transform="scale(0.996264)"/>
       <use xlink:href="#CMSS17-2e" transform="translate(46.843624 0)scale(0.996264)"/>
       <use xlink:href="#CMSS17-34" transform="translate(72.867828 0)scale(0.996264)"/>
      </g>
     </g>
    </g>
    <g id="ytick_11">
     <g id="line2d_59">
      <path d="M 477.345471 13.022746 
L 746.936893 13.022746 
" clip-path="url(#pbc430b9655)" style="fill: none; stroke-dasharray: 2.96,1.28; stroke-dashoffset: 0; stroke: #7f7f7f; stroke-opacity: 0.2; stroke-width: 0.8"/>
     </g>
     <g id="line2d_60">
      <g>
       <use xlink:href="#mfc3144a84c" x="746.936893" y="13.022746" style="stroke: #000000; stroke-width: 0.8"/>
      </g>
     </g>
     <g id="text_27">
      <!-- 8.8 -->
      <g transform="translate(753.936893 17.865684)scale(0.14 -0.14)">
       <defs>
        <path id="CMSS17-38" d="M 1933 2222 
C 2419 2380 2669 2760 2669 3134 
C 2669 3722 2157 4229 1504 4229 
C 826 4229 333 3708 333 3144 
C 333 2780 576 2403 1069 2241 
C 442 1997 250 1512 250 1149 
C 250 446 819 -128 1498 -128 
C 2202 -128 2752 455 2752 1138 
C 2752 1557 2502 2000 1933 2222 
z
M 1504 2432 
C 1075 2432 787 2712 787 3136 
C 787 3566 1075 3840 1504 3840 
C 1901 3840 2214 3591 2214 3136 
C 2214 2687 1907 2432 1504 2432 
z
M 1504 267 
C 1139 267 749 517 749 1156 
C 749 1813 1184 2043 1498 2043 
C 1843 2043 2253 1800 2253 1156 
C 2253 491 1830 267 1504 267 
z
" transform="scale(0.015625)"/>
       </defs>
       <use xlink:href="#CMSS17-38" transform="scale(0.996264)"/>
       <use xlink:href="#CMSS17-2e" transform="translate(46.843624 0)scale(0.996264)"/>
       <use xlink:href="#CMSS17-38" transform="translate(72.867828 0)scale(0.996264)"/>
      </g>
     </g>
    </g>
    <g id="text_28">
     <!-- Violation degree -->
     <g transform="translate(785.073352 152.366326)rotate(-90)scale(0.14 -0.14)">
      <defs>
       <path id="CMSS17-56" d="M 3910 4416 
L 3411 4416 
L 2304 1362 
C 2272 1273 2074 688 2035 484 
L 2029 484 
C 1978 726 1773 1292 1664 1604 
L 922 3672 
L 646 4416 
L 83 4416 
L 1715 0 
L 2278 0 
L 3910 4416 
z
" transform="scale(0.015625)"/>
      </defs>
      <use xlink:href="#CMSS17-56" transform="scale(0.996264)"/>
      <use xlink:href="#CMSS17-69" transform="translate(62.217855 0)scale(0.996264)"/>
      <use xlink:href="#CMSS17-6f" transform="translate(84.398578 0)scale(0.996264)"/>
      <use xlink:href="#CMSS17-6c" transform="translate(131.242201 0)scale(0.996264)"/>
      <use xlink:href="#CMSS17-61" transform="translate(153.422925 0)scale(0.996264)"/>
      <use xlink:href="#CMSS17-74" transform="translate(198.344845 0)scale(0.996264)"/>
      <use xlink:href="#CMSS17-69" transform="translate(232.176412 0)scale(0.996264)"/>
      <use xlink:href="#CMSS17-6f" transform="translate(254.357135 0)scale(0.996264)"/>
      <use xlink:href="#CMSS17-6e" transform="translate(301.200758 0)scale(0.996264)"/>
      <use xlink:href="#CMSS17-64" transform="translate(380.634814 0)scale(0.996264)"/>
      <use xlink:href="#CMSS17-65" transform="translate(428.839757 0)scale(0.996264)"/>
      <use xlink:href="#CMSS17-67" transform="translate(470.478579 0)scale(0.996264)"/>
      <use xlink:href="#CMSS17-72" transform="translate(517.322203 0)scale(0.996264)"/>
      <use xlink:href="#CMSS17-65" transform="translate(549.231976 0)scale(0.996264)"/>
      <use xlink:href="#CMSS17-65" transform="translate(590.870798 0)scale(0.996264)"/>
     </g>
    </g>
   </g>
   <g id="line2d_61">
    <path d="M 477.345471 103.731155 
L 479.937605 102.79592 
L 482.900043 101.982651 
L 485.862481 101.411527 
L 489.195224 101.018874 
L 492.527967 100.847196 
L 496.601319 100.871439 
L 501.785585 101.151546 
L 515.116557 102.017532 
L 519.560214 102.009041 
L 526.2257 101.980777 
L 529.558442 102.213794 
L 532.150576 102.611376 
L 534.372404 103.148991 
L 536.594233 103.904395 
L 539.186366 105.061984 
L 542.148804 106.67009 
L 545.851852 108.957902 
L 554.739166 114.56477 
L 558.071909 116.311713 
L 562.515566 118.341531 
L 569.551356 121.519004 
L 572.884099 123.292597 
L 575.476232 124.901253 
L 578.43867 127.002975 
L 582.882328 130.471195 
L 589.177508 135.391462 
L 592.139946 137.449495 
L 594.73208 138.997051 
L 596.953908 140.084276 
L 599.175737 140.921713 
L 601.027261 141.410357 
L 602.878784 141.693052 
L 604.730308 141.755029 
L 606.581832 141.581524 
L 608.433356 141.15777 
L 610.28488 140.469001 
L 612.136403 139.50045 
L 613.987927 138.237437 
L 615.839451 136.686051 
L 618.06128 134.520106 
L 621.023718 131.28749 
L 628.429813 123.018456 
L 630.651641 120.913391 
L 632.503165 119.429152 
L 634.354689 118.251857 
L 635.835908 117.547609 
L 637.317127 117.055384 
L 638.798346 116.77573 
L 640.279565 116.709191 
L 641.760784 116.856314 
L 643.242003 117.217644 
L 644.723222 117.793728 
L 646.204441 118.58511 
L 647.68566 119.592337 
L 649.537184 121.155733 
L 651.388708 123.058305 
L 653.240232 125.300216 
L 655.46206 128.368555 
L 663.23846 139.572699 
L 665.089984 141.696585 
L 666.571203 143.076266 
L 668.052422 144.106973 
L 669.163336 144.614876 
L 670.27425 144.867384 
L 671.385165 144.839172 
L 672.496079 144.505603 
L 673.606993 143.868368 
L 674.717908 142.963041 
L 676.199127 141.404252 
L 678.05065 139.016579 
L 680.272479 135.738278 
L 685.086441 128.472784 
L 686.937965 126.123248 
L 688.419184 124.606408 
L 689.530098 123.739217 
L 690.641012 123.145838 
L 691.751926 122.863961 
L 692.862841 122.909152 
L 693.973755 123.249059 
L 695.084669 123.845058 
L 696.565888 124.971338 
L 698.047107 126.392684 
L 700.268936 128.877695 
L 704.712593 133.985571 
L 706.193812 135.393367 
L 707.675031 136.501167 
L 708.785945 137.080073 
L 709.89686 137.400115 
L 711.007774 137.422669 
L 712.118688 137.117843 
L 713.229602 136.488866 
L 714.340517 135.546823 
L 715.451431 134.3028 
L 716.562345 132.767883 
L 718.043564 130.287983 
L 719.524783 127.336921 
L 721.006002 123.940974 
L 722.857526 119.110452 
L 724.70905 113.677176 
L 726.930878 106.43387 
L 729.523012 97.098053 
L 732.48545 85.444784 
L 736.558802 68.339527 
L 743.224288 40.285183 
L 746.186726 28.843988 
L 748.408554 21.045744 
L 750.260078 15.202436 
L 752.111602 10.011664 
L 753.963126 5.399497 
L 756.184954 0.499297 
L 756.922688 -1 
L 756.922688 -1 
" clip-path="url(#pbc430b9655)" style="fill: none; stroke: #2e8b57; stroke-width: 3; stroke-linecap: square"/>
   </g>
   <g id="line2d_62">
    <path d="M 477.345471 197.562979 
L 553.628252 197.131194 
L 578.068366 197.238451 
L 595.472689 197.561851 
L 613.617622 197.548107 
L 616.950365 197.581528 
L 633.614079 197.494701 
L 637.317127 196.715139 
L 641.760784 195.819311 
L 643.982613 195.572161 
L 645.834136 195.545642 
L 647.68566 195.731072 
L 649.537184 196.17422 
L 651.018403 196.745054 
L 652.869927 197.581528 
L 671.75547 197.581528 
L 672.125774 197.399836 
L 673.236689 194.552216 
L 674.717908 190.086482 
L 676.569431 183.650184 
L 679.161565 173.594785 
L 684.716136 151.588619 
L 686.56766 145.218671 
L 688.048879 140.82371 
L 689.159793 138.03949 
L 690.270707 135.767762 
L 691.381622 134.074796 
L 692.122231 133.296913 
L 692.862841 132.793766 
L 693.60345 132.546372 
L 694.34406 132.535706 
L 695.084669 132.742741 
L 695.825279 133.148454 
L 696.936193 134.087925 
L 698.047107 135.367405 
L 699.528326 137.491302 
L 701.37985 140.603805 
L 706.193812 149.035568 
L 707.675031 151.135599 
L 708.785945 152.391486 
L 709.89686 153.302482 
L 710.637469 153.686499 
L 711.378079 153.870307 
L 712.118688 153.848524 
L 712.859298 153.62791 
L 713.599907 153.215688 
L 714.710821 152.253896 
L 715.821736 150.901626 
L 716.93265 149.183262 
L 718.413869 146.364773 
L 719.895088 142.996594 
L 721.746612 138.101417 
L 723.598136 132.550541 
L 725.819964 125.182908 
L 728.782402 114.480637 
L 733.596364 96.028309 
L 739.150936 74.87816 
L 742.483678 63.090513 
L 745.075812 54.749705 
L 747.29764 48.354281 
L 749.149164 43.658802 
L 751.000688 39.61911 
L 752.481907 36.873983 
L 753.963126 34.546575 
L 755.444345 32.622323 
L 756.925564 31.086662 
L 758.406783 29.92503 
L 759.517697 29.290502 
L 760.628612 28.852028 
L 761.739526 28.603466 
L 762.85044 28.538671 
L 763.961354 28.651499 
L 765.442573 29.06762 
L 766.923792 29.77403 
L 768.405011 30.756165 
L 769.88623 31.999624 
L 771.367449 33.500053 
L 772.848669 35.268852 
L 774.700192 37.876716 
L 776.551716 40.948836 
L 778.40324 44.51017 
L 780.254764 48.585676 
L 782.106287 53.200314 
L 783.957811 58.379041 
L 785.809335 64.146817 
L 788.031164 71.880833 
L 790.252992 80.528927 
L 791.56 85.992667 
L 791.56 85.992667 
" clip-path="url(#pbc430b9655)" style="fill: none; stroke: #7ec0ee; stroke-width: 3; stroke-linecap: square"/>
   </g>
   <g id="line2d_63">
    <path d="M 477.345471 197.581528 
L 539.186366 197.505047 
L 562.885871 197.41066 
L 582.882328 197.325718 
L 607.692746 197.288503 
L 638.057737 197.138814 
L 647.315355 197.343677 
L 656.572974 197.581528 
L 670.644555 197.506924 
L 673.606993 196.905635 
L 676.939736 195.977275 
L 688.048879 192.63899 
L 690.641012 192.175316 
L 692.862841 191.973666 
L 695.454974 191.95579 
L 698.787717 192.171541 
L 708.785945 193.020688 
L 711.378079 192.945212 
L 713.970212 192.64885 
L 717.67326 191.964722 
L 725.449659 190.426606 
L 728.041793 190.153448 
L 730.263621 190.110815 
L 732.48545 190.283482 
L 735.077583 190.726635 
L 738.040021 191.472992 
L 742.483678 192.869543 
L 748.778859 194.846226 
L 751.741297 195.549291 
L 755.07404 196.106446 
L 758.777088 196.497717 
L 763.59105 196.767971 
L 788.031164 197.581528 
L 791.56 197.539464 
L 791.56 197.539464 
" clip-path="url(#pbc430b9655)" style="fill: none; stroke: #8e388e; stroke-width: 3; stroke-linecap: square"/>
   </g>
   <g id="line2d_64">
    <path d="M 477.345471 197.581528 
L 599.175737 197.47087 
L 607.692746 197.373176 
L 612.877013 197.535467 
L 615.469146 197.581528 
L 633.243775 197.548107 
L 635.835908 196.796158 
L 641.390479 195.090508 
L 643.612308 194.684739 
L 645.463832 194.593957 
L 646.945051 194.731073 
L 648.42627 195.091474 
L 649.907489 195.709175 
L 651.388708 196.618191 
L 652.499622 197.51159 
L 653.240232 197.581528 
L 671.75547 197.581528 
L 672.125774 197.31688 
L 673.236689 193.168534 
L 674.717908 186.657583 
L 676.569431 177.255661 
L 678.79126 164.691664 
L 685.82705 123.901084 
L 687.678574 114.989485 
L 689.159793 108.988471 
L 690.270707 105.291224 
L 691.381622 102.386529 
L 692.122231 100.931843 
L 692.862841 99.856404 
L 693.60345 99.136269 
L 694.34406 98.747442 
L 695.084669 98.665925 
L 695.825279 98.867723 
L 696.565888 99.328837 
L 697.306498 100.025272 
L 698.417412 101.458658 
L 699.528326 103.286532 
L 701.009545 106.197366 
L 703.231374 111.188673 
L 706.934422 119.57455 
L 708.415641 122.392437 
L 709.526555 124.126202 
L 710.637469 125.444565 
L 711.378079 126.053501 
L 712.118688 126.435761 
L 712.859298 126.599734 
L 713.599907 126.554398 
L 714.340517 126.308728 
L 715.081126 125.871699 
L 716.192041 124.876994 
L 717.302955 123.50222 
L 718.413869 121.777671 
L 719.895088 118.986536 
L 721.376307 115.699238 
L 723.227831 111.001779 
L 725.449659 104.687056 
L 728.412098 95.51519 
L 736.558802 69.869592 
L 739.52124 61.423455 
L 741.743069 55.671268 
L 743.964897 50.548057 
L 745.816421 46.843437 
L 747.29764 44.298038 
L 748.778859 42.161946 
L 750.260078 40.46963 
L 751.370993 39.501872 
L 752.481907 38.77913 
L 753.592821 38.286158 
L 754.703735 38.007711 
L 755.81465 37.928542 
L 756.925564 38.033406 
L 758.406783 38.433147 
L 759.888002 39.096814 
L 761.369221 39.988269 
L 763.220745 41.36786 
L 765.442573 43.319267 
L 768.775316 46.597521 
L 773.589278 51.615791 
L 775.811107 54.248751 
L 777.66263 56.737997 
L 779.514154 59.581872 
L 781.365678 62.861323 
L 783.217202 66.657298 
L 785.068726 71.050746 
L 786.920249 76.122613 
L 788.771773 81.953849 
L 790.623297 88.589178 
L 791.56 92.218647 
L 791.56 92.218647 
" clip-path="url(#pbc430b9655)" style="fill: none; stroke: #dc143c; stroke-width: 3; stroke-linecap: square"/>
   </g>
   <g id="line2d_65">
    <path d="M 477.345471 197.562461 
L 487.714005 197.317743 
L 501.785585 197.22684 
L 576.216842 197.249978 
L 596.213299 197.397091 
L 617.690975 197.215515 
L 636.946822 197.513111 
L 658.794803 197.298774 
L 678.420955 197.581528 
L 712.488993 197.492962 
L 722.857526 196.921524 
L 726.190269 197.022765 
L 729.152707 197.349949 
L 731.004231 197.581528 
L 749.889774 197.581528 
L 751.000688 196.703924 
L 752.481907 195.238594 
L 753.963126 193.478611 
L 755.444345 191.422312 
L 757.295869 188.43271 
L 759.147392 184.974267 
L 760.998916 181.043732 
L 762.85044 176.637856 
L 765.072269 170.71878 
L 767.294097 164.104919 
L 769.515926 156.790668 
L 772.478364 146.097136 
L 778.40324 124.368415 
L 780.625068 117.173839 
L 782.476592 111.977408 
L 783.957811 108.489342 
L 785.068726 106.331751 
L 786.17964 104.615814 
L 787.290554 103.385349 
L 788.031164 102.856385 
L 788.771773 102.575645 
L 789.512383 102.552986 
L 790.252992 102.779629 
L 790.993602 103.239918 
L 791.56 103.746284 
L 791.56 103.746284 
" clip-path="url(#pbc430b9655)" style="fill: none; stroke: #000000; stroke-width: 3; stroke-linecap: square"/>
   </g>
   <g id="patch_18">
    <path d="M 477.345471 199.678787 
L 477.345471 13.022746 
" style="fill: none; stroke: #000000; stroke-width: 0.8; stroke-linejoin: miter; stroke-linecap: square"/>
   </g>
   <g id="patch_19">
    <path d="M 746.936893 199.678787 
L 746.936893 13.022746 
" style="fill: none; stroke: #000000; stroke-width: 0.8; stroke-linejoin: miter; stroke-linecap: square"/>
   </g>
   <g id="patch_20">
    <path d="M 477.345471 199.678787 
L 746.936893 199.678787 
" style="fill: none; stroke: #000000; stroke-width: 0.8; stroke-linejoin: miter; stroke-linecap: square"/>
   </g>
   <g id="patch_21">
    <path d="M 477.345471 13.022746 
L 746.936893 13.022746 
" style="fill: none; stroke: #000000; stroke-width: 0.8; stroke-linejoin: miter; stroke-linecap: square"/>
   </g>
   <g id="text_29">
    <!-- (c) -->
    <g transform="translate(716.49818 36.68835)scale(0.18 -0.18)">
     <use xlink:href="#CMSS17-28" transform="scale(0.996264)"/>
     <use xlink:href="#CMSS17-63" transform="translate(36.433914 0)scale(0.996264)"/>
     <use xlink:href="#CMSS17-29" transform="translate(78.072736 0)scale(0.996264)"/>
    </g>
   </g>
  </g>
  <g id="legend_1">
   <g id="patch_22">
    <path d="M 503.2845 154.308099 
L 682.5555 154.308099 
Q 685.3555 154.308099 685.3555 151.508099 
L 685.3555 16.323901 
Q 685.3555 13.523901 682.5555 13.523901 
L 503.2845 13.523901 
Q 500.4845 13.523901 500.4845 16.323901 
L 500.4845 151.508099 
Q 500.4845 154.308099 503.2845 154.308099 
z
" style="fill: #ffffff; opacity: 0.8; stroke: #cccccc; stroke-linejoin: miter"/>
   </g>
   <g id="line2d_66">
    <path d="M 506.0845 24.023901 
L 520.0845 24.023901 
L 534.0845 24.023901 
" style="fill: none; stroke-dasharray: 7.4,3.2; stroke-dashoffset: 0; stroke: #000000; stroke-width: 2"/>
   </g>
   <g id="text_30">
    <!-- Ref. -->
    <g transform="translate(545.2845 28.923901)scale(0.14 -0.14)">
     <defs>
      <path id="CMSS17-52" d="M 2522 2109 
L 2534 2115 
C 3533 2459 3539 3147 3539 3268 
C 3539 3873 2925 4453 2003 4453 
L 570 4453 
L 570 32 
L 1094 32 
L 1094 2048 
L 2035 2048 
L 3168 32 
L 3706 32 
L 2522 2109 
z
M 1094 2437 
L 1094 4096 
L 1933 4096 
C 2746 4096 3034 3637 3034 3267 
C 3034 2922 2778 2437 1933 2437 
L 1094 2437 
z
" transform="scale(0.015625)"/>
      <path id="CMSS17-66" d="M 1075 2368 
L 1722 2368 
L 1722 2737 
L 1062 2737 
L 1062 3559 
C 1062 4014 1408 4092 1606 4092 
C 1670 4092 1850 4092 2080 4009 
L 2080 4429 
C 1933 4461 1754 4480 1613 4480 
C 1018 4480 602 3993 602 3359 
L 602 2737 
L 160 2737 
L 160 2368 
L 602 2368 
L 602 0 
L 1075 0 
L 1075 2368 
z
" transform="scale(0.015625)"/>
     </defs>
     <use xlink:href="#CMSS17-52" transform="scale(0.996264)"/>
     <use xlink:href="#CMSS17-65" transform="translate(60.416155 0)scale(0.996264)"/>
     <use xlink:href="#CMSS17-66" transform="translate(102.054977 0)scale(0.996264)"/>
     <use xlink:href="#CMSS17-2e" transform="translate(130.681636 0)scale(0.996264)"/>
    </g>
   </g>
   <g id="line2d_67">
    <path d="M 506.0845 43.535929 
L 520.0845 43.535929 
L 534.0845 43.535929 
" style="fill: none; stroke: #2e8b57; stroke-width: 3; stroke-linecap: square"/>
   </g>
   <g id="text_31">
    <!-- Original -->
    <g transform="translate(545.2845 48.435929)scale(0.14 -0.14)">
     <defs>
      <path id="CMSS17-4f" d="M 4096 2178 
C 4096 3503 3219 4497 2214 4497 
C 1210 4497 333 3497 333 2178 
C 333 847 1222 -128 2214 -128 
C 3206 -128 4096 847 4096 2178 
z
M 2214 273 
C 1510 273 870 1057 870 2261 
C 870 3433 1549 4096 2214 4096 
C 2880 4096 3558 3433 3558 2261 
C 3558 1051 2912 273 2214 273 
z
" transform="scale(0.015625)"/>
     </defs>
     <use xlink:href="#CMSS17-4f" transform="scale(0.996264)"/>
     <use xlink:href="#CMSS17-72" transform="translate(69.024255 0)scale(0.996264)"/>
     <use xlink:href="#CMSS17-69" transform="translate(100.934028 0)scale(0.996264)"/>
     <use xlink:href="#CMSS17-67" transform="translate(123.114751 0)scale(0.996264)"/>
     <use xlink:href="#CMSS17-69" transform="translate(169.958374 0)scale(0.996264)"/>
     <use xlink:href="#CMSS17-6e" transform="translate(192.139098 0)scale(0.996264)"/>
     <use xlink:href="#CMSS17-61" transform="translate(240.344041 0)scale(0.996264)"/>
     <use xlink:href="#CMSS17-6c" transform="translate(285.265961 0)scale(0.996264)"/>
    </g>
   </g>
   <g id="line2d_68">
    <path d="M 506.0845 63.047957 
L 520.0845 63.047957 
L 534.0845 63.047957 
" style="fill: none; stroke: #7ec0ee; stroke-width: 3; stroke-linecap: square"/>
   </g>
   <g id="text_32">
    <!-- Fine-tuned -->
    <g transform="translate(545.2845 67.947957)scale(0.14 -0.14)">
     <defs>
      <path id="CMSS17-46" d="M 2918 1984 
L 2918 2373 
L 1101 2373 
L 1101 3968 
L 1882 3968 
C 1958 3968 2035 3968 2112 3968 
L 3168 3968 
L 3168 4375 
L 563 4375 
L 563 -32 
L 1101 -32 
L 1101 1984 
L 2918 1984 
z
" transform="scale(0.015625)"/>
      <path id="CMSS17-75" d="M 2618 2739 
L 2131 2739 
L 2131 972 
C 2131 498 1786 306 1421 306 
C 998 306 960 447 960 709 
L 960 2739 
L 474 2739 
L 474 678 
C 474 179 646 -64 1088 -64 
C 1306 -64 1798 -13 2144 306 
L 2144 0 
L 2618 0 
L 2618 2739 
z
" transform="scale(0.015625)"/>
     </defs>
     <use xlink:href="#CMSS17-46" transform="scale(0.996264)"/>
     <use xlink:href="#CMSS17-69" transform="translate(53.289559 0)scale(0.996264)"/>
     <use xlink:href="#CMSS17-6e" transform="translate(75.470282 0)scale(0.996264)"/>
     <use xlink:href="#CMSS17-65" transform="translate(123.675225 0)scale(0.996264)"/>
     <use xlink:href="#CMSS17-2d" transform="translate(165.314048 0)scale(0.996264)"/>
     <use xlink:href="#CMSS17-74" transform="translate(196.54316 0)scale(0.996264)"/>
     <use xlink:href="#CMSS17-75" transform="translate(230.374727 0)scale(0.996264)"/>
     <use xlink:href="#CMSS17-6e" transform="translate(278.57967 0)scale(0.996264)"/>
     <use xlink:href="#CMSS17-65" transform="translate(326.784613 0)scale(0.996264)"/>
     <use xlink:href="#CMSS17-64" transform="translate(368.423435 0)scale(0.996264)"/>
    </g>
   </g>
   <g id="line2d_69">
    <path d="M 506.0845 82.559986 
L 520.0845 82.559986 
L 534.0845 82.559986 
" style="fill: none; stroke: #8e388e; stroke-width: 3; stroke-linecap: square"/>
   </g>
   <g id="text_33">
    <!-- Retrained -->
    <g transform="translate(545.2845 87.459986)scale(0.14 -0.14)">
     <use xlink:href="#CMSS17-52" transform="scale(0.996264)"/>
     <use xlink:href="#CMSS17-65" transform="translate(60.416155 0)scale(0.996264)"/>
     <use xlink:href="#CMSS17-74" transform="translate(102.054977 0)scale(0.996264)"/>
     <use xlink:href="#CMSS17-72" transform="translate(135.886544 0)scale(0.996264)"/>
     <use xlink:href="#CMSS17-61" transform="translate(167.796316 0)scale(0.996264)"/>
     <use xlink:href="#CMSS17-69" transform="translate(212.718237 0)scale(0.996264)"/>
     <use xlink:href="#CMSS17-6e" transform="translate(234.89896 0)scale(0.996264)"/>
     <use xlink:href="#CMSS17-65" transform="translate(283.103903 0)scale(0.996264)"/>
     <use xlink:href="#CMSS17-64" transform="translate(324.742725 0)scale(0.996264)"/>
    </g>
   </g>
   <g id="line2d_70">
    <path d="M 506.0845 102.072014 
L 520.0845 102.072014 
L 534.0845 102.072014 
" style="fill: none; stroke: #dc143c; stroke-width: 3; stroke-linecap: square"/>
   </g>
   <g id="text_34">
    <!-- Our method - last layer -->
    <g transform="translate(545.2845 106.972014)scale(0.14 -0.14)">
     <defs>
      <path id="CMSS17-79" d="M 2675 2752 
L 2176 2752 
C 1632 1294 1446 702 1434 383 
L 1427 383 
C 1408 696 1126 1460 902 2007 
L 602 2752 
L 83 2752 
L 1216 13 
C 1146 -178 1043 -465 1011 -529 
C 870 -885 774 -885 672 -885 
C 646 -885 442 -885 211 -809 
L 250 -1229 
C 410 -1261 570 -1280 685 -1280 
C 845 -1280 1165 -1280 1459 -497 
L 2675 2752 
z
" transform="scale(0.015625)"/>
     </defs>
     <use xlink:href="#CMSS17-4f" transform="scale(0.996264)"/>
     <use xlink:href="#CMSS17-75" transform="translate(69.024255 0)scale(0.996264)"/>
     <use xlink:href="#CMSS17-72" transform="translate(117.229198 0)scale(0.996264)"/>
     <use xlink:href="#CMSS17-6d" transform="translate(180.368084 0)scale(0.996264)"/>
     <use xlink:href="#CMSS17-65" transform="translate(254.597338 0)scale(0.996264)"/>
     <use xlink:href="#CMSS17-74" transform="translate(296.23616 0)scale(0.996264)"/>
     <use xlink:href="#CMSS17-68" transform="translate(330.067727 0)scale(0.996264)"/>
     <use xlink:href="#CMSS17-6f" transform="translate(378.27267 0)scale(0.996264)"/>
     <use xlink:href="#CMSS17-64" transform="translate(427.718732 0)scale(0.996264)"/>
     <use xlink:href="#CMSS17-2d" transform="translate(507.152788 0)scale(0.996264)"/>
     <use xlink:href="#CMSS17-6c" transform="translate(569.611014 0)scale(0.996264)"/>
     <use xlink:href="#CMSS17-61" transform="translate(591.791737 0)scale(0.996264)"/>
     <use xlink:href="#CMSS17-73" transform="translate(636.713657 0)scale(0.996264)"/>
     <use xlink:href="#CMSS17-74" transform="translate(672.627199 0)scale(0.996264)"/>
     <use xlink:href="#CMSS17-6c" transform="translate(737.687879 0)scale(0.996264)"/>
     <use xlink:href="#CMSS17-61" transform="translate(759.868602 0)scale(0.996264)"/>
     <use xlink:href="#CMSS17-79" transform="translate(802.188069 0)scale(0.996264)"/>
     <use xlink:href="#CMSS17-65" transform="translate(842.585756 0)scale(0.996264)"/>
     <use xlink:href="#CMSS17-72" transform="translate(884.224578 0)scale(0.996264)"/>
    </g>
   </g>
   <g id="line2d_71">
    <path d="M 506.0845 121.584043 
L 520.0845 121.584043 
L 534.0845 121.584043 
" style="fill: none; stroke: #000000; stroke-width: 3; stroke-linecap: square"/>
   </g>
   <g id="text_35">
    <!-- Our method - mid layer -->
    <g transform="translate(545.2845 126.484043)scale(0.14 -0.14)">
     <use xlink:href="#CMSS17-4f" transform="scale(0.996264)"/>
     <use xlink:href="#CMSS17-75" transform="translate(69.024255 0)scale(0.996264)"/>
     <use xlink:href="#CMSS17-72" transform="translate(117.229198 0)scale(0.996264)"/>
     <use xlink:href="#CMSS17-6d" transform="translate(180.368084 0)scale(0.996264)"/>
     <use xlink:href="#CMSS17-65" transform="translate(254.597338 0)scale(0.996264)"/>
     <use xlink:href="#CMSS17-74" transform="translate(296.23616 0)scale(0.996264)"/>
     <use xlink:href="#CMSS17-68" transform="translate(330.067727 0)scale(0.996264)"/>
     <use xlink:href="#CMSS17-6f" transform="translate(378.27267 0)scale(0.996264)"/>
     <use xlink:href="#CMSS17-64" transform="translate(427.718732 0)scale(0.996264)"/>
     <use xlink:href="#CMSS17-2d" transform="translate(507.152788 0)scale(0.996264)"/>
     <use xlink:href="#CMSS17-6d" transform="translate(569.611014 0)scale(0.996264)"/>
     <use xlink:href="#CMSS17-69" transform="translate(643.840268 0)scale(0.996264)"/>
     <use xlink:href="#CMSS17-64" transform="translate(666.020991 0)scale(0.996264)"/>
     <use xlink:href="#CMSS17-6c" transform="translate(745.455047 0)scale(0.996264)"/>
     <use xlink:href="#CMSS17-61" transform="translate(767.63577 0)scale(0.996264)"/>
     <use xlink:href="#CMSS17-79" transform="translate(809.955237 0)scale(0.996264)"/>
     <use xlink:href="#CMSS17-65" transform="translate(850.352925 0)scale(0.996264)"/>
     <use xlink:href="#CMSS17-72" transform="translate(891.991747 0)scale(0.996264)"/>
    </g>
   </g>
   <g id="patch_23">
    <path d="M 506.0845 145.996071 
L 534.0845 145.996071 
L 534.0845 136.196071 
L 506.0845 136.196071 
z
" style="fill: #d4d4d4; opacity: 0.5; stroke: #d4d4d4; stroke-linejoin: miter"/>
   </g>
   <g id="text_36">
    <!-- Violated region -->
    <g transform="translate(545.2845 145.996071)scale(0.14 -0.14)">
     <use xlink:href="#CMSS17-56" transform="scale(0.996264)"/>
     <use xlink:href="#CMSS17-69" transform="translate(62.217855 0)scale(0.996264)"/>
     <use xlink:href="#CMSS17-6f" transform="translate(84.398578 0)scale(0.996264)"/>
     <use xlink:href="#CMSS17-6c" transform="translate(131.242201 0)scale(0.996264)"/>
     <use xlink:href="#CMSS17-61" transform="translate(153.422925 0)scale(0.996264)"/>
     <use xlink:href="#CMSS17-74" transform="translate(198.344845 0)scale(0.996264)"/>
     <use xlink:href="#CMSS17-65" transform="translate(232.176412 0)scale(0.996264)"/>
     <use xlink:href="#CMSS17-64" transform="translate(273.815234 0)scale(0.996264)"/>
     <use xlink:href="#CMSS17-72" transform="translate(353.24929 0)scale(0.996264)"/>
     <use xlink:href="#CMSS17-65" transform="translate(385.159062 0)scale(0.996264)"/>
     <use xlink:href="#CMSS17-67" transform="translate(426.797884 0)scale(0.996264)"/>
     <use xlink:href="#CMSS17-69" transform="translate(473.641508 0)scale(0.996264)"/>
     <use xlink:href="#CMSS17-6f" transform="translate(495.822231 0)scale(0.996264)"/>
     <use xlink:href="#CMSS17-6e" transform="translate(542.665854 0)scale(0.996264)"/>
    </g>
   </g>
  </g>
 </g>
 <defs>
  <clipPath id="p6bf31c4abd">
   <rect x="50.699531" y="13.022746" width="404.387133" height="87.375646"/>
  </clipPath>
  <clipPath id="pccf9b8fb54">
   <rect x="50.699531" y="112.303142" width="404.387133" height="87.375646"/>
  </clipPath>
  <clipPath id="pbc430b9655">
   <rect x="477.345471" y="13.022746" width="269.591422" height="186.656041"/>
  </clipPath>
 </defs>
</svg>
