<?xml version="1.0" encoding="utf-8" standalone="no"?>
<!DOCTYPE svg PUBLIC "-//W3C//DTD SVG 1.1//EN"
  "http://www.w3.org/Graphics/SVG/1.1/DTD/svg11.dtd">
<svg xmlns:xlink="http://www.w3.org/1999/xlink" width="716.4pt" height="209.52pt" viewBox="0 0 716.4 209.52" xmlns="http://www.w3.org/2000/svg" version="1.1">
 <metadata>
  <rdf:RDF xmlns:dc="http://purl.org/dc/elements/1.1/" xmlns:cc="http://creativecommons.org/ns#" xmlns:rdf="http://www.w3.org/1999/02/22-rdf-syntax-ns#">
   <cc:Work>
    <dc:type rdf:resource="http://purl.org/dc/dcmitype/StillImage"/>
    <dc:date>2022-09-29T20:25:13.308966</dc:date>
    <dc:format>image/svg+xml</dc:format>
    <dc:creator>
     <cc:Agent>
      <dc:title>Matplotlib v3.5.2, https://matplotlib.org/</dc:title>
     </cc:Agent>
    </dc:creator>
   </cc:Work>
  </rdf:RDF>
 </metadata>
 <defs>
  <style type="text/css">*{stroke-linejoin: round; stroke-linecap: butt}</style>
 </defs>
 <g id="figure_1">
  <g id="patch_1">
   <path d="M 0 209.52 
L 716.4 209.52 
L 716.4 0 
L 0 0 
z
" style="fill: #ffffff"/>
  </g>
  <g id="axes_1">
   <g id="patch_2">
    <path d="M 45.943564 86.520084 
L 702.907426 86.520084 
L 702.907426 8.949343 
L 45.943564 8.949343 
z
" style="fill: #ffffff"/>
   </g>
   <g id="patch_3">
    <path d="M 133.793383 86.520084 
L 133.793383 8.949343 
L 225.462759 8.949343 
L 225.462759 86.520084 
z
" clip-path="url(#p8facedeacf)" style="fill: #d4d4d4; opacity: 0.5; stroke: #d4d4d4; stroke-linejoin: miter"/>
   </g>
   <g id="patch_4">
    <path d="M 557.764247 86.520084 
L 557.764247 8.949343 
L 676.170525 8.949343 
L 676.170525 86.520084 
z
" clip-path="url(#p8facedeacf)" style="fill: #d4d4d4; opacity: 0.5; stroke: #d4d4d4; stroke-linejoin: miter"/>
   </g>
   <g id="patch_5">
    <path d="M 1309.071176 86.520084 
L 1309.071176 8.949343 
L 1401.886419 8.949343 
L 1401.886419 86.520084 
z
" clip-path="url(#p8facedeacf)" style="fill: #d4d4d4; opacity: 0.5; stroke: #d4d4d4; stroke-linejoin: miter"/>
   </g>
   <g id="matplotlib.axis_1">
    <g id="xtick_1">
     <g id="line2d_1">
      <path d="M 45.943564 86.520084 
L 45.943564 8.949343 
" clip-path="url(#p8facedeacf)" style="fill: none; stroke-dasharray: 2.96,1.28; stroke-dashoffset: 0; stroke: #7f7f7f; stroke-opacity: 0.2; stroke-width: 0.8"/>
     </g>
     <g id="line2d_2">
      <defs>
       <path id="m180162dc61" d="M 0 0 
L 0 3.5 
" style="stroke: #000000; stroke-width: 0.8"/>
      </defs>
      <g>
       <use xlink:href="#m180162dc61" x="45.943564" y="86.520084" style="stroke: #000000; stroke-width: 0.8"/>
      </g>
     </g>
    </g>
    <g id="xtick_2">
     <g id="line2d_3">
      <path d="M 210.184529 86.520084 
L 210.184529 8.949343 
" clip-path="url(#p8facedeacf)" style="fill: none; stroke-dasharray: 2.96,1.28; stroke-dashoffset: 0; stroke: #7f7f7f; stroke-opacity: 0.2; stroke-width: 0.8"/>
     </g>
     <g id="line2d_4">
      <g>
       <use xlink:href="#m180162dc61" x="210.184529" y="86.520084" style="stroke: #000000; stroke-width: 0.8"/>
      </g>
     </g>
    </g>
    <g id="xtick_3">
     <g id="line2d_5">
      <path d="M 374.425495 86.520084 
L 374.425495 8.949343 
" clip-path="url(#p8facedeacf)" style="fill: none; stroke-dasharray: 2.96,1.28; stroke-dashoffset: 0; stroke: #7f7f7f; stroke-opacity: 0.2; stroke-width: 0.8"/>
     </g>
     <g id="line2d_6">
      <g>
       <use xlink:href="#m180162dc61" x="374.425495" y="86.520084" style="stroke: #000000; stroke-width: 0.8"/>
      </g>
     </g>
    </g>
    <g id="xtick_4">
     <g id="line2d_7">
      <path d="M 538.66646 86.520084 
L 538.66646 8.949343 
" clip-path="url(#p8facedeacf)" style="fill: none; stroke-dasharray: 2.96,1.28; stroke-dashoffset: 0; stroke: #7f7f7f; stroke-opacity: 0.2; stroke-width: 0.8"/>
     </g>
     <g id="line2d_8">
      <g>
       <use xlink:href="#m180162dc61" x="538.66646" y="86.520084" style="stroke: #000000; stroke-width: 0.8"/>
      </g>
     </g>
    </g>
    <g id="xtick_5">
     <g id="line2d_9">
      <path d="M 702.907426 86.520084 
L 702.907426 8.949343 
" clip-path="url(#p8facedeacf)" style="fill: none; stroke-dasharray: 2.96,1.28; stroke-dashoffset: 0; stroke: #7f7f7f; stroke-opacity: 0.2; stroke-width: 0.8"/>
     </g>
     <g id="line2d_10">
      <g>
       <use xlink:href="#m180162dc61" x="702.907426" y="86.520084" style="stroke: #000000; stroke-width: 0.8"/>
      </g>
     </g>
    </g>
   </g>
   <g id="matplotlib.axis_2">
    <g id="ytick_1">
     <g id="line2d_11">
      <path d="M 45.943564 75.805893 
L 702.907426 75.805893 
" clip-path="url(#p8facedeacf)" style="fill: none; stroke-dasharray: 2.96,1.28; stroke-dashoffset: 0; stroke: #7f7f7f; stroke-opacity: 0.2; stroke-width: 0.8"/>
     </g>
     <g id="line2d_12">
      <defs>
       <path id="m8e27fa0aa9" d="M 0 0 
L -3.5 0 
" style="stroke: #000000; stroke-width: 0.8"/>
      </defs>
      <g>
       <use xlink:href="#m8e27fa0aa9" x="45.943564" y="75.805893" style="stroke: #000000; stroke-width: 0.8"/>
      </g>
     </g>
     <g id="text_1">
      <!-- -10 -->
      <g transform="translate(20.734261 80.648831)scale(0.14 -0.14)">
       <defs>
        <path id="CMSS17-2d" d="M 1664 1216 
L 1664 1585 
L 64 1585 
L 64 1216 
L 1664 1216 
z
" transform="scale(0.015625)"/>
        <path id="CMSS17-31" d="M 1818 4288 
L 1696 4288 
C 1350 3940 947 3890 538 3890 
L 538 3520 
C 723 3520 1024 3520 1325 3667 
L 1325 369 
L 570 369 
L 570 0 
L 2573 0 
L 2573 369 
L 1818 369 
L 1818 4288 
z
" transform="scale(0.015625)"/>
        <path id="CMSS17-30" d="M 2758 2044 
C 2758 2405 2752 3077 2490 3596 
C 2227 4096 1805 4229 1504 4229 
C 1069 4229 698 3975 506 3570 
C 301 3146 243 2709 243 2044 
C 243 1589 262 1031 493 543 
C 755 5 1197 -128 1498 -128 
C 1894 -128 2278 81 2496 518 
C 2720 974 2758 1474 2758 2044 
z
M 1498 261 
C 1011 261 864 811 819 995 
C 742 1310 730 1614 730 2114 
C 730 2506 730 2948 851 3297 
C 998 3701 1254 3840 1498 3840 
C 1971 3840 2125 3372 2176 3208 
C 2272 2873 2272 2481 2272 2114 
C 2272 1526 2272 261 1498 261 
z
" transform="scale(0.015625)"/>
       </defs>
       <use xlink:href="#CMSS17-2d" transform="scale(0.996264)"/>
       <use xlink:href="#CMSS17-31" transform="translate(31.229113 0)scale(0.996264)"/>
       <use xlink:href="#CMSS17-30" transform="translate(78.072736 0)scale(0.996264)"/>
      </g>
     </g>
    </g>
    <g id="ytick_2">
     <g id="line2d_13">
      <path d="M 45.943564 54.377512 
L 702.907426 54.377512 
" clip-path="url(#p8facedeacf)" style="fill: none; stroke-dasharray: 2.96,1.28; stroke-dashoffset: 0; stroke: #7f7f7f; stroke-opacity: 0.2; stroke-width: 0.8"/>
     </g>
     <g id="line2d_14">
      <g>
       <use xlink:href="#m8e27fa0aa9" x="45.943564" y="54.377512" style="stroke: #000000; stroke-width: 0.8"/>
      </g>
     </g>
     <g id="text_2">
      <!-- 0 -->
      <g transform="translate(32.115075 59.22045)scale(0.14 -0.14)">
       <use xlink:href="#CMSS17-30" transform="scale(0.996264)"/>
      </g>
     </g>
    </g>
    <g id="ytick_3">
     <g id="line2d_15">
      <path d="M 45.943564 32.94913 
L 702.907426 32.94913 
" clip-path="url(#p8facedeacf)" style="fill: none; stroke-dasharray: 2.96,1.28; stroke-dashoffset: 0; stroke: #7f7f7f; stroke-opacity: 0.2; stroke-width: 0.8"/>
     </g>
     <g id="line2d_16">
      <g>
       <use xlink:href="#m8e27fa0aa9" x="45.943564" y="32.94913" style="stroke: #000000; stroke-width: 0.8"/>
      </g>
     </g>
     <g id="text_3">
      <!-- 10 -->
      <g transform="translate(25.286587 37.792068)scale(0.14 -0.14)">
       <use xlink:href="#CMSS17-31" transform="scale(0.996264)"/>
       <use xlink:href="#CMSS17-30" transform="translate(46.843624 0)scale(0.996264)"/>
      </g>
     </g>
    </g>
    <g id="ytick_4">
     <g id="line2d_17">
      <path d="M 45.943564 11.520748 
L 702.907426 11.520748 
" clip-path="url(#p8facedeacf)" style="fill: none; stroke-dasharray: 2.96,1.28; stroke-dashoffset: 0; stroke: #7f7f7f; stroke-opacity: 0.2; stroke-width: 0.8"/>
     </g>
     <g id="line2d_18">
      <g>
       <use xlink:href="#m8e27fa0aa9" x="45.943564" y="11.520748" style="stroke: #000000; stroke-width: 0.8"/>
      </g>
     </g>
     <g id="text_4">
      <!-- 20 -->
      <g transform="translate(25.286587 16.363687)scale(0.14 -0.14)">
       <defs>
        <path id="CMSS17-32" d="M 1651 1357 
C 1830 1541 2099 1764 2285 1987 
C 2464 2204 2701 2511 2701 2957 
C 2701 3657 2227 4288 1421 4288 
C 787 4288 422 3893 250 3274 
L 499 2929 
C 640 3510 838 3880 1338 3880 
C 1888 3880 2195 3433 2195 2942 
C 2195 2355 1747 1901 1408 1563 
C 1030 1187 659 804 301 408 
L 301 0 
L 2701 0 
L 2701 433 
L 1613 433 
C 1536 433 1459 433 1382 433 
L 742 433 
L 742 439 
L 1651 1357 
z
" transform="scale(0.015625)"/>
       </defs>
       <use xlink:href="#CMSS17-32" transform="scale(0.996264)"/>
       <use xlink:href="#CMSS17-30" transform="translate(46.843624 0)scale(0.996264)"/>
      </g>
     </g>
    </g>
    <g id="text_5">
     <!-- Control [deg] -->
     <g transform="translate(13.247337 84.996775)rotate(-90)scale(0.14 -0.14)">
      <defs>
       <path id="CMSS17-43" d="M 3501 714 
C 3072 427 2874 344 2355 344 
C 1459 344 934 1303 934 2179 
C 934 3112 1472 4032 2381 4032 
C 2790 4032 3059 3918 3386 3715 
L 3475 4217 
C 3168 4370 2778 4440 2387 4440 
C 1158 4440 397 3316 397 2179 
C 397 927 1299 -64 2323 -64 
C 2874 -64 3066 -19 3539 280 
L 3501 714 
z
" transform="scale(0.015625)"/>
       <path id="CMSS17-6f" d="M 2829 1356 
C 2829 2176 2221 2816 1504 2816 
C 768 2816 173 2157 173 1356 
C 173 544 787 -64 1498 -64 
C 2227 -64 2829 563 2829 1356 
z
M 1504 337 
C 1050 337 659 709 659 1408 
C 659 2151 1114 2427 1498 2427 
C 1914 2427 2342 2126 2342 1408 
C 2342 683 1926 337 1504 337 
z
" transform="scale(0.015625)"/>
       <path id="CMSS17-6e" d="M 2618 1877 
C 2618 2283 2522 2816 1798 2816 
C 1389 2816 1120 2606 941 2389 
L 941 2758 
L 474 2758 
L 474 0 
L 960 0 
L 960 1559 
C 960 1964 1114 2428 1549 2428 
C 2112 2428 2131 2048 2131 1829 
L 2131 0 
L 2618 0 
L 2618 1877 
z
" transform="scale(0.015625)"/>
       <path id="CMSS17-74" d="M 1069 2368 
L 1901 2368 
L 1901 2737 
L 1069 2737 
L 1069 3520 
L 614 3520 
L 614 2737 
L 109 2737 
L 109 2368 
L 602 2368 
L 602 749 
C 602 384 685 -64 1107 -64 
C 1427 -64 1722 25 2003 172 
L 1901 548 
C 1747 414 1562 337 1363 337 
C 1082 337 1069 696 1069 856 
L 1069 2368 
z
" transform="scale(0.015625)"/>
       <path id="CMSS17-72" d="M 954 1363 
C 954 1965 1395 2368 1958 2368 
L 1958 2789 
C 1549 2789 1165 2585 934 2253 
L 934 2758 
L 480 2758 
L 480 0 
L 954 0 
L 954 1363 
z
" transform="scale(0.015625)"/>
       <path id="CMSS17-6c" d="M 947 4416 
L 474 4416 
L 474 0 
L 947 0 
L 947 4416 
z
" transform="scale(0.015625)"/>
       <path id="CMSS17-5b" d="M 1613 -1600 
L 1613 -1212 
L 1062 -1212 
L 1062 4352 
L 1613 4352 
L 1613 4741 
L 595 4741 
L 595 -1600 
L 1613 -1600 
z
" transform="scale(0.015625)"/>
       <path id="CMSS17-64" d="M 2611 4416 
L 2138 4416 
L 2138 2438 
C 1939 2603 1613 2756 1254 2756 
C 672 2756 211 2131 211 1347 
C 211 562 666 -64 1235 -64 
C 1677 -64 1971 172 2125 306 
L 2125 -13 
L 2611 -13 
L 2611 4416 
z
M 2125 836 
C 2125 747 2125 653 1926 482 
C 1798 375 1645 325 1498 325 
C 1152 325 698 576 698 1340 
C 698 2134 1210 2368 1562 2368 
C 1798 2368 1990 2254 2125 2065 
L 2125 836 
z
" transform="scale(0.015625)"/>
       <path id="CMSS17-65" d="M 2502 1377 
C 2502 1590 2490 2003 2285 2345 
C 2061 2713 1696 2816 1421 2816 
C 755 2816 192 2188 192 1375 
C 192 582 774 -64 1510 -64 
C 1798 -64 2150 19 2470 248 
C 2470 274 2458 414 2451 420 
C 2451 433 2432 630 2432 656 
C 2125 407 1773 325 1517 325 
C 1107 325 666 667 646 1377 
L 2502 1377 
z
M 698 1728 
C 781 2084 1062 2421 1421 2421 
C 1517 2421 1965 2421 2080 1728 
L 698 1728 
z
" transform="scale(0.015625)"/>
       <path id="CMSS17-67" d="M 2848 2808 
C 2483 2808 2170 2738 1914 2617 
C 1702 2777 1485 2808 1338 2808 
C 781 2808 358 2349 358 1814 
C 358 1468 550 1207 563 1195 
C 448 1035 384 863 384 672 
C 384 448 474 289 544 200 
C 211 -3 166 -314 166 -435 
C 166 -898 749 -1280 1498 -1280 
C 2253 -1280 2835 -898 2835 -428 
C 2835 448 1856 448 1587 448 
L 1069 448 
C 973 448 717 448 717 791 
C 717 921 774 1004 781 1010 
C 877 940 1075 832 1338 832 
C 1869 832 2310 1278 2310 1827 
C 2310 2132 2170 2355 2112 2432 
L 2131 2432 
C 2150 2432 2419 2432 2515 2432 
C 2720 2432 2739 2429 2918 2419 
L 2848 2808 
z
M 1338 1182 
C 1120 1182 813 1315 813 1823 
C 813 2375 1165 2464 1331 2464 
C 1549 2464 1856 2331 1856 1823 
C 1856 1271 1504 1182 1338 1182 
z
M 1581 -10 
C 1734 -10 2381 -10 2381 -442 
C 2381 -714 1984 -929 1504 -929 
C 1018 -929 621 -720 621 -435 
C 621 -403 621 -10 1062 -10 
L 1581 -10 
z
" transform="scale(0.015625)"/>
       <path id="CMSS17-5d" d="M 1146 4741 
L 128 4741 
L 128 4352 
L 678 4352 
L 678 -1212 
L 128 -1212 
L 128 -1600 
L 1146 -1600 
L 1146 4741 
z
" transform="scale(0.015625)"/>
      </defs>
      <use xlink:href="#CMSS17-43" transform="scale(0.996264)"/>
      <use xlink:href="#CMSS17-6f" transform="translate(59.855772 0)scale(0.996264)"/>
      <use xlink:href="#CMSS17-6e" transform="translate(106.699395 0)scale(0.996264)"/>
      <use xlink:href="#CMSS17-74" transform="translate(154.904338 0)scale(0.996264)"/>
      <use xlink:href="#CMSS17-72" transform="translate(188.735905 0)scale(0.996264)"/>
      <use xlink:href="#CMSS17-6f" transform="translate(220.645677 0)scale(0.996264)"/>
      <use xlink:href="#CMSS17-6c" transform="translate(267.489301 0)scale(0.996264)"/>
      <use xlink:href="#CMSS17-5b" transform="translate(320.899137 0)scale(0.996264)"/>
      <use xlink:href="#CMSS17-64" transform="translate(348.084575 0)scale(0.996264)"/>
      <use xlink:href="#CMSS17-65" transform="translate(396.289519 0)scale(0.996264)"/>
      <use xlink:href="#CMSS17-67" transform="translate(437.928341 0)scale(0.996264)"/>
      <use xlink:href="#CMSS17-5d" transform="translate(484.771964 0)scale(0.996264)"/>
     </g>
    </g>
   </g>
   <g id="line2d_19">
    <path d="M 45.943564 32.94913 
L 702.907426 32.94913 
" clip-path="url(#p8facedeacf)" style="fill: none; stroke-dasharray: 5,7; stroke-dashoffset: 0; stroke: #696969"/>
   </g>
   <g id="line2d_20">
    <path d="M 45.943564 53.602804 
L 49.785458 51.850479 
L 53.627352 51.530848 
L 57.469246 50.363396 
L 65.153033 49.095991 
L 80.520609 46.673552 
L 84.362503 46.380067 
L 88.204397 45.128515 
L 95.888185 43.46669 
L 99.730079 43.165515 
L 107.413867 41.627181 
L 111.255761 40.260041 
L 115.097655 39.314854 
L 118.939549 38.195103 
L 126.623336 35.526443 
L 149.6747 27.10064 
L 157.358488 24.00007 
L 161.200382 23.418103 
L 165.042276 21.798978 
L 168.88417 20.058701 
L 172.726064 17.069228 
L 176.567957 15.469877 
L 180.409851 14.26863 
L 184.251745 14.579261 
L 188.093639 12.200697 
L 191.935533 11.567305 
L 199.619321 11.206742 
L 203.461215 12.891898 
L 207.303109 11.880049 
L 211.145003 13.001306 
L 214.986897 11.99717 
L 218.828791 17.683848 
L 222.670685 21.449015 
L 226.512579 30.295403 
L 230.354473 37.688111 
L 234.196366 36.555123 
L 238.03826 44.900604 
L 241.880154 50.803079 
L 245.722048 57.261912 
L 249.563942 64.760064 
L 253.405836 66.152135 
L 257.24773 75.667486 
L 261.089624 78.972919 
L 264.931518 79.97395 
L 268.773412 76.505611 
L 272.615306 72.760116 
L 276.4572 70.100075 
L 280.299094 68.790629 
L 284.140988 67.061074 
L 287.982881 66.311983 
L 291.824775 66.287624 
L 295.666669 64.722895 
L 299.508563 61.186187 
L 303.350457 58.708596 
L 307.192351 59.255153 
L 311.034245 56.534597 
L 314.876139 54.392593 
L 318.718033 52.984631 
L 322.559927 48.691659 
L 326.401821 47.118944 
L 330.243715 46.086038 
L 334.085609 49.582688 
L 337.927503 45.505055 
L 341.769397 45.451452 
L 345.61129 45.755296 
L 349.453184 46.551298 
L 353.295078 52.847466 
L 357.136972 51.406327 
L 368.662654 57.154531 
L 372.504548 63.109998 
L 376.346442 61.887287 
L 380.188336 63.544317 
L 384.03023 66.436547 
L 387.872124 61.802462 
L 391.714018 62.715162 
L 395.555912 56.514464 
L 399.397805 53.667678 
L 403.239699 52.220814 
L 407.081593 48.79667 
L 410.923487 43.12397 
L 414.765381 42.877249 
L 418.607275 43.578002 
L 422.449169 44.932439 
L 426.291063 46.8276 
L 430.132957 50.367885 
L 433.974851 52.347532 
L 437.816745 55.103011 
L 441.658639 57.121658 
L 445.500533 57.884367 
L 449.342427 61.56538 
L 453.184321 62.966036 
L 457.026214 59.236887 
L 464.710002 57.880027 
L 468.551896 56.437869 
L 472.39379 56.631728 
L 476.235684 55.076929 
L 480.077578 55.041874 
L 483.919472 54.12814 
L 487.761366 53.816896 
L 491.60326 51.58605 
L 495.445154 50.998637 
L 499.287048 48.174175 
L 503.128942 47.820187 
L 506.970836 46.283586 
L 510.812729 45.991096 
L 514.654623 44.813779 
L 518.496517 44.573048 
L 522.338411 43.736314 
L 526.180305 43.04501 
L 530.022199 42.141175 
L 545.389775 37.940976 
L 556.915457 35.372387 
L 564.599245 33.626737 
L 572.283032 31.637236 
L 579.96682 29.584535 
L 583.808714 28.621583 
L 587.650608 27.047211 
L 591.492502 26.798725 
L 610.701972 21.679773 
L 614.543866 21.582673 
L 618.38576 19.517216 
L 626.069547 17.417346 
L 637.595229 14.817435 
L 641.437123 14.215395 
L 645.279017 13.786695 
L 649.120911 13.530526 
L 652.962805 13.783045 
L 656.804699 16.504116 
L 660.646593 16.014239 
L 664.488487 18.404971 
L 668.330381 21.753895 
L 672.172275 25.902411 
L 676.014168 26.269166 
L 679.856062 39.057131 
L 683.697956 42.929581 
L 695.223638 62.387643 
L 699.065532 69.419623 
L 702.907426 76.148477 
L 702.907426 76.148477 
" clip-path="url(#p8facedeacf)" style="fill: none; stroke-dasharray: 7.4,3.2; stroke-dashoffset: 0; stroke: #000000; stroke-width: 2"/>
   </g>
   <g id="line2d_21">
    <path d="M 45.943564 51.035974 
L 49.785458 49.489353 
L 53.627352 48.560101 
L 57.469246 48.019512 
L 61.31114 47.705187 
L 65.153033 47.534086 
L 68.994927 47.108776 
L 72.836821 46.280208 
L 76.678715 45.274301 
L 84.362503 43.727132 
L 95.888185 42.00533 
L 107.413867 40.280283 
L 111.255761 39.638099 
L 115.097655 38.793739 
L 122.781442 36.455544 
L 130.46523 34.312671 
L 138.149018 31.852818 
L 145.832806 29.238097 
L 153.516594 26.519052 
L 165.042276 22.823959 
L 172.726064 20.298767 
L 176.567957 19.483963 
L 184.251745 18.31243 
L 191.935533 17.341203 
L 199.619321 16.733584 
L 203.461215 16.978829 
L 207.303109 17.673201 
L 211.145003 18.72971 
L 214.986897 20.50491 
L 218.828791 22.779132 
L 222.670685 26.252855 
L 226.512579 31.008628 
L 230.354473 36.673689 
L 234.196366 42.975101 
L 238.03826 48.574936 
L 241.880154 56.181329 
L 245.722048 62.161252 
L 253.405836 75.815173 
L 257.24773 81.197784 
L 261.089624 83.629557 
L 264.931518 83.611628 
L 268.773412 82.520323 
L 272.615306 79.10681 
L 276.4572 75.481801 
L 280.299094 72.501455 
L 284.140988 70.756204 
L 295.666669 64.832687 
L 303.350457 60.806004 
L 307.192351 58.352406 
L 311.034245 56.610732 
L 314.876139 53.963858 
L 318.718033 52.495241 
L 322.559927 51.600318 
L 326.401821 50.325439 
L 330.243715 49.357574 
L 334.085609 48.089629 
L 337.927503 47.144153 
L 341.769397 46.5984 
L 345.61129 46.60188 
L 349.453184 47.556344 
L 353.295078 49.105131 
L 357.136972 51.507925 
L 360.978866 53.622801 
L 364.82076 55.413018 
L 368.662654 56.10391 
L 372.504548 56.91196 
L 380.188336 57.96066 
L 384.03023 57.824481 
L 387.872124 55.529004 
L 391.714018 52.965953 
L 395.555912 51.074444 
L 399.397805 48.631127 
L 403.239699 45.235939 
L 407.081593 42.953393 
L 410.923487 41.876904 
L 414.765381 40.240935 
L 418.607275 39.819699 
L 422.449169 40.489609 
L 430.132957 44.164872 
L 433.974851 46.392127 
L 437.816745 50.463891 
L 441.658639 53.460393 
L 445.500533 55.150571 
L 449.342427 56.066589 
L 453.184321 56.819138 
L 457.026214 56.55127 
L 460.868108 55.976796 
L 464.710002 56.203247 
L 468.551896 56.093451 
L 472.39379 55.220916 
L 476.235684 54.681752 
L 480.077578 53.737699 
L 483.919472 53.496594 
L 487.761366 52.33231 
L 491.60326 51.006183 
L 495.445154 49.53953 
L 499.287048 48.317983 
L 503.128942 47.617518 
L 514.654623 46.245068 
L 530.022199 42.916198 
L 533.864093 42.181231 
L 545.389775 39.615265 
L 553.073563 38.261592 
L 556.915457 37.629671 
L 564.599245 36.004383 
L 579.96682 32.764681 
L 591.492502 29.629907 
L 618.38576 21.593129 
L 626.069547 18.766347 
L 633.753335 17.508853 
L 637.595229 16.913394 
L 641.437123 16.455532 
L 645.279017 16.136903 
L 649.120911 16.037234 
L 652.962805 16.499603 
L 656.804699 17.856264 
L 660.646593 20.225139 
L 664.488487 23.282193 
L 668.330381 27.21104 
L 672.172275 32.210396 
L 679.856062 44.360013 
L 683.697956 50.842299 
L 687.53985 57.915145 
L 691.381744 63.786942 
L 699.065532 77.00411 
L 702.907426 81.393017 
L 702.907426 81.393017 
" clip-path="url(#p8facedeacf)" style="fill: none; stroke: #2e8b57; stroke-width: 2; stroke-linecap: square"/>
   </g>
   <g id="line2d_22">
    <path d="M 45.943564 51.435701 
L 49.785458 49.9775 
L 53.627352 49.314346 
L 61.31114 48.766048 
L 68.994927 48.372352 
L 88.204397 46.302417 
L 115.097655 44.042442 
L 122.781442 42.912104 
L 130.46523 41.872998 
L 161.200382 36.635946 
L 172.726064 34.723582 
L 176.567957 34.298885 
L 191.935533 33.172705 
L 199.619321 32.829248 
L 203.461215 32.949107 
L 207.303109 33.298895 
L 211.145003 33.816638 
L 214.986897 34.703637 
L 218.828791 35.828383 
L 222.670685 37.576516 
L 226.512579 40.002768 
L 230.354473 42.847035 
L 234.196366 45.910034 
L 238.03826 47.820715 
L 241.880154 51.832796 
L 245.722048 57.453453 
L 249.563942 64.314494 
L 253.405836 73.112521 
L 257.24773 79.524405 
L 261.089624 82.29372 
L 264.931518 82.485411 
L 268.773412 81.332766 
L 276.4572 72.671946 
L 280.299094 69.539164 
L 284.140988 67.936327 
L 295.666669 61.694716 
L 299.508563 59.829366 
L 307.192351 56.555187 
L 311.034245 55.643958 
L 314.876139 53.080294 
L 318.718033 52.051703 
L 322.559927 51.329501 
L 326.401821 50.278915 
L 330.243715 49.972834 
L 337.927503 49.01559 
L 341.769397 48.816544 
L 349.453184 48.948143 
L 353.295078 49.856805 
L 357.136972 52.283342 
L 360.978866 53.387976 
L 364.82076 54.006434 
L 368.662654 54.227233 
L 372.504548 54.28872 
L 380.188336 54.971676 
L 384.03023 55.220051 
L 387.872124 55.69707 
L 391.714018 54.673732 
L 395.555912 52.472642 
L 399.397805 48.906066 
L 403.239699 45.125955 
L 407.081593 42.141926 
L 410.923487 40.793074 
L 414.765381 39.291024 
L 418.607275 39.223563 
L 422.449169 40.305057 
L 426.291063 41.90433 
L 430.132957 43.313981 
L 433.974851 46.921203 
L 437.816745 51.387522 
L 441.658639 52.428408 
L 445.500533 54.496311 
L 449.342427 55.350254 
L 453.184321 55.972862 
L 457.026214 55.684055 
L 460.868108 55.200737 
L 464.710002 56.108697 
L 468.551896 55.740329 
L 472.39379 54.524747 
L 476.235684 54.176281 
L 480.077578 53.412113 
L 483.919472 53.296827 
L 487.761366 52.458141 
L 491.60326 51.483836 
L 495.445154 50.241881 
L 499.287048 49.256764 
L 503.128942 48.86316 
L 514.654623 48.021013 
L 530.022199 46.328043 
L 537.705987 45.50762 
L 545.389775 44.642023 
L 568.441138 42.368668 
L 587.650608 40.07706 
L 622.227653 34.707162 
L 626.069547 33.966466 
L 637.595229 32.995456 
L 645.279017 32.535695 
L 649.120911 32.452649 
L 652.962805 32.673941 
L 656.804699 33.350471 
L 660.646593 34.531503 
L 664.488487 36.053533 
L 668.330381 38.052796 
L 672.172275 40.561623 
L 676.014168 43.689997 
L 679.856062 46.299503 
L 683.697956 48.469793 
L 687.53985 53.181221 
L 691.381744 58.852504 
L 695.223638 65.850136 
L 699.065532 74.495994 
L 702.907426 79.739013 
L 702.907426 79.739013 
" clip-path="url(#p8facedeacf)" style="fill: none; stroke: #dc143c; stroke-width: 2; stroke-linecap: square"/>
   </g>
   <g id="line2d_23">
    <path d="M 45.943564 52.478974 
L 49.785458 50.308779 
L 53.627352 49.172927 
L 57.469246 48.602809 
L 61.31114 47.848296 
L 65.153033 46.191585 
L 68.994927 46.04952 
L 76.678715 46.949729 
L 80.520609 46.839141 
L 84.362503 45.77698 
L 88.204397 45.057793 
L 92.046291 44.693225 
L 99.730079 43.53275 
L 107.413867 41.719774 
L 115.097655 40.71682 
L 118.939549 38.652099 
L 122.781442 36.891961 
L 126.623336 35.355901 
L 130.46523 34.158948 
L 134.307124 33.490784 
L 138.149018 33.106581 
L 141.990912 33.030484 
L 145.832806 33.239196 
L 149.6747 33.25111 
L 157.358488 32.930791 
L 172.726064 33.157267 
L 203.461215 32.951584 
L 207.303109 32.66135 
L 211.145003 32.7634 
L 214.986897 33.005283 
L 218.828791 32.866613 
L 222.670685 33.77136 
L 226.512579 33.149355 
L 230.354473 35.66008 
L 234.196366 43.44469 
L 238.03826 44.787576 
L 241.880154 49.877972 
L 245.722048 57.082353 
L 249.563942 62.220172 
L 253.405836 71.719927 
L 257.24773 80.370355 
L 264.931518 83.974458 
L 268.773412 84.090322 
L 272.615306 79.420827 
L 276.4572 76.141008 
L 280.299094 73.365053 
L 287.982881 66.077536 
L 291.824775 63.640351 
L 295.666669 60.692669 
L 303.350457 60.1101 
L 307.192351 57.211857 
L 311.034245 56.148879 
L 318.718033 54.377958 
L 322.559927 55.021628 
L 326.401821 55.410116 
L 330.243715 54.566035 
L 334.085609 52.51985 
L 337.927503 46.060731 
L 341.769397 45.70017 
L 345.61129 44.514455 
L 349.453184 46.399189 
L 353.295078 50.677979 
L 357.136972 54.325881 
L 360.978866 54.337206 
L 364.82076 54.596029 
L 368.662654 55.162187 
L 372.504548 55.132264 
L 376.346442 54.204983 
L 380.188336 54.166705 
L 384.03023 53.25961 
L 387.872124 54.020671 
L 391.714018 54.197048 
L 395.555912 52.425221 
L 399.397805 50.050857 
L 403.239699 44.346758 
L 407.081593 43.781196 
L 410.923487 41.574369 
L 414.765381 41.200502 
L 418.607275 40.641798 
L 422.449169 38.659314 
L 426.291063 42.919241 
L 430.132957 48.46558 
L 433.974851 50.766192 
L 437.816745 50.955277 
L 441.658639 53.218611 
L 445.500533 57.935398 
L 449.342427 56.548549 
L 453.184321 57.94623 
L 457.026214 56.090988 
L 460.868108 54.723969 
L 464.710002 51.897715 
L 468.551896 51.110253 
L 472.39379 54.855051 
L 476.235684 46.184363 
L 480.077578 51.458255 
L 483.919472 51.954526 
L 487.761366 54.341915 
L 491.60326 52.791382 
L 495.445154 50.974168 
L 499.287048 49.426464 
L 503.128942 48.158983 
L 506.970836 47.397544 
L 514.654623 46.402491 
L 522.338411 44.037818 
L 526.180305 42.62203 
L 533.864093 40.012713 
L 537.705987 39.355341 
L 545.389775 37.660286 
L 553.073563 36.016806 
L 556.915457 35.04461 
L 568.441138 32.923473 
L 572.283032 33.10794 
L 576.124926 33.015879 
L 579.96682 33.119815 
L 583.808714 32.851639 
L 599.17629 33.035837 
L 606.860078 32.907214 
L 622.227653 32.930654 
L 641.437123 32.882839 
L 652.962805 32.984322 
L 660.646593 32.815438 
L 664.488487 32.890122 
L 668.330381 33.342256 
L 672.172275 33.077805 
L 679.856062 45.798335 
L 683.697956 48.189594 
L 687.53985 53.569306 
L 691.381744 60.227945 
L 695.223638 65.783089 
L 699.065532 73.24334 
L 702.907426 83.073109 
L 702.907426 83.073109 
" clip-path="url(#p8facedeacf)" style="fill: none; stroke: #000000; stroke-width: 2; stroke-linecap: square"/>
   </g>
   <g id="patch_6">
    <path d="M 45.943564 86.520084 
L 45.943564 8.949343 
" style="fill: none; stroke: #000000; stroke-width: 0.8; stroke-linejoin: miter; stroke-linecap: square"/>
   </g>
   <g id="patch_7">
    <path d="M 702.907426 86.520084 
L 702.907426 8.949343 
" style="fill: none; stroke: #000000; stroke-width: 0.8; stroke-linejoin: miter; stroke-linecap: square"/>
   </g>
   <g id="patch_8">
    <path d="M 45.943564 86.520084 
L 702.907426 86.520084 
" style="fill: none; stroke: #000000; stroke-width: 0.8; stroke-linejoin: miter; stroke-linecap: square"/>
   </g>
   <g id="patch_9">
    <path d="M 45.943564 8.949343 
L 702.907426 8.949343 
" style="fill: none; stroke: #000000; stroke-width: 0.8; stroke-linejoin: miter; stroke-linecap: square"/>
   </g>
   <g id="text_6">
    <!-- (a) -->
    <g transform="translate(55.943564 21.706417)scale(0.18 -0.18)">
     <defs>
      <path id="CMSS17-28" d="M 1613 4768 
C 1267 4417 474 3601 474 1588 
C 474 -433 1267 -1243 1613 -1600 
L 2003 -1600 
C 1216 -784 960 357 960 1581 
C 960 2798 1203 3946 2003 4768 
L 1613 4768 
z
" transform="scale(0.015625)"/>
      <path id="CMSS17-61" d="M 2406 1791 
C 2406 2392 1978 2808 1402 2808 
C 1120 2808 813 2757 461 2553 
L 499 2135 
C 659 2248 934 2432 1395 2432 
C 1722 2432 1920 2180 1920 1782 
L 1920 1536 
C 896 1536 256 1238 256 726 
C 256 461 416 -64 947 -64 
C 1043 -64 1562 -64 1933 217 
L 1933 -19 
L 2406 -19 
L 2406 1791 
z
M 1920 816 
C 1920 701 1920 548 1728 434 
C 1562 325 1350 325 1261 325 
C 941 325 723 511 723 744 
C 723 1211 1722 1211 1920 1211 
L 1920 816 
z
" transform="scale(0.015625)"/>
      <path id="CMSS17-29" d="M 723 -1600 
C 1069 -1249 1862 -433 1862 1581 
C 1862 3601 1069 4411 723 4768 
L 333 4768 
C 1120 3952 1376 2811 1376 1588 
C 1376 370 1133 -778 333 -1600 
L 723 -1600 
z
" transform="scale(0.015625)"/>
     </defs>
     <use xlink:href="#CMSS17-28" transform="scale(0.996264)"/>
     <use xlink:href="#CMSS17-61" transform="translate(36.433914 0)scale(0.996264)"/>
     <use xlink:href="#CMSS17-29" transform="translate(81.355835 0)scale(0.996264)"/>
    </g>
   </g>
  </g>
  <g id="axes_2">
   <g id="patch_10">
    <path d="M 45.943564 174.494075 
L 702.907426 174.494075 
L 702.907426 96.923334 
L 45.943564 96.923334 
z
" style="fill: #ffffff"/>
   </g>
   <g id="patch_11">
    <path d="M 133.793383 174.494075 
L 133.793383 96.923334 
L 225.462759 96.923334 
L 225.462759 174.494075 
z
" clip-path="url(#p46323910be)" style="fill: #d4d4d4; opacity: 0.5; stroke: #d4d4d4; stroke-linejoin: miter"/>
   </g>
   <g id="patch_12">
    <path d="M 557.764247 174.494075 
L 557.764247 96.923334 
L 676.170525 96.923334 
L 676.170525 174.494075 
z
" clip-path="url(#p46323910be)" style="fill: #d4d4d4; opacity: 0.5; stroke: #d4d4d4; stroke-linejoin: miter"/>
   </g>
   <g id="matplotlib.axis_3">
    <g id="xtick_6">
     <g id="line2d_24">
      <path d="M 45.943564 174.494075 
L 45.943564 96.923334 
" clip-path="url(#p46323910be)" style="fill: none; stroke-dasharray: 2.96,1.28; stroke-dashoffset: 0; stroke: #7f7f7f; stroke-opacity: 0.2; stroke-width: 0.8"/>
     </g>
     <g id="line2d_25">
      <g>
       <use xlink:href="#m180162dc61" x="45.943564" y="174.494075" style="stroke: #000000; stroke-width: 0.8"/>
      </g>
     </g>
     <g id="text_7">
      <!-- 0 -->
      <g transform="translate(42.52932 191.179952)scale(0.14 -0.14)">
       <use xlink:href="#CMSS17-30" transform="scale(0.996264)"/>
      </g>
     </g>
    </g>
    <g id="xtick_7">
     <g id="line2d_26">
      <path d="M 210.184529 174.494075 
L 210.184529 96.923334 
" clip-path="url(#p46323910be)" style="fill: none; stroke-dasharray: 2.96,1.28; stroke-dashoffset: 0; stroke: #7f7f7f; stroke-opacity: 0.2; stroke-width: 0.8"/>
     </g>
     <g id="line2d_27">
      <g>
       <use xlink:href="#m180162dc61" x="210.184529" y="174.494075" style="stroke: #000000; stroke-width: 0.8"/>
      </g>
     </g>
     <g id="text_8">
      <!-- 3 -->
      <g transform="translate(206.770285 191.179952)scale(0.14 -0.14)">
       <defs>
        <path id="CMSS17-33" d="M 1005 2025 
L 1440 2025 
C 2042 2025 2214 1507 2214 1146 
C 2214 653 1933 267 1472 267 
C 1114 267 608 444 320 912 
C 275 691 275 678 250 526 
C 550 88 1037 -128 1485 -128 
C 2214 -128 2752 473 2752 1138 
C 2752 1638 2400 2057 1920 2215 
C 2304 2424 2586 2816 2586 3273 
C 2586 3805 2093 4229 1491 4229 
C 941 4229 512 3892 333 3530 
C 378 3468 493 3284 550 3189 
C 691 3562 1056 3840 1485 3840 
C 1843 3840 2080 3607 2080 3271 
C 2080 2923 1856 2543 1478 2455 
C 1453 2455 1056 2417 1005 2411 
L 1005 2025 
z
" transform="scale(0.015625)"/>
       </defs>
       <use xlink:href="#CMSS17-33" transform="scale(0.996264)"/>
      </g>
     </g>
    </g>
    <g id="xtick_8">
     <g id="line2d_28">
      <path d="M 374.425495 174.494075 
L 374.425495 96.923334 
" clip-path="url(#p46323910be)" style="fill: none; stroke-dasharray: 2.96,1.28; stroke-dashoffset: 0; stroke: #7f7f7f; stroke-opacity: 0.2; stroke-width: 0.8"/>
     </g>
     <g id="line2d_29">
      <g>
       <use xlink:href="#m180162dc61" x="374.425495" y="174.494075" style="stroke: #000000; stroke-width: 0.8"/>
      </g>
     </g>
     <g id="text_9">
      <!-- 6 -->
      <g transform="translate(371.011251 191.179952)scale(0.14 -0.14)">
       <defs>
        <path id="CMSS17-36" d="M 2496 4101 
C 2227 4210 2035 4229 1856 4229 
C 1024 4229 250 3368 250 2006 
C 250 265 986 -128 1510 -128 
C 1798 -128 2086 -39 2362 280 
C 2643 617 2752 898 2752 1389 
C 2752 2179 2362 2880 1779 2880 
C 1357 2880 992 2657 768 2376 
C 832 3258 1254 3840 1862 3840 
C 2029 3840 2246 3816 2496 3710 
L 2496 4101 
z
M 774 1369 
C 774 1420 774 1452 781 1548 
C 781 2045 1069 2491 1536 2491 
C 1837 2491 1990 2332 2106 2135 
C 2240 1886 2246 1650 2246 1388 
C 2246 1140 2246 891 2099 637 
C 1978 439 1818 267 1510 267 
C 902 267 800 1114 774 1369 
z
" transform="scale(0.015625)"/>
       </defs>
       <use xlink:href="#CMSS17-36" transform="scale(0.996264)"/>
      </g>
     </g>
    </g>
    <g id="xtick_9">
     <g id="line2d_30">
      <path d="M 538.66646 174.494075 
L 538.66646 96.923334 
" clip-path="url(#p46323910be)" style="fill: none; stroke-dasharray: 2.96,1.28; stroke-dashoffset: 0; stroke: #7f7f7f; stroke-opacity: 0.2; stroke-width: 0.8"/>
     </g>
     <g id="line2d_31">
      <g>
       <use xlink:href="#m180162dc61" x="538.66646" y="174.494075" style="stroke: #000000; stroke-width: 0.8"/>
      </g>
     </g>
     <g id="text_10">
      <!-- 9 -->
      <g transform="translate(535.252216 191.179952)scale(0.14 -0.14)">
       <defs>
        <path id="CMSS17-39" d="M 435 174 
C 614 21 845 -128 1235 -128 
C 2010 -128 2752 721 2752 2095 
C 2752 3932 1952 4229 1523 4229 
C 1094 4229 819 4041 582 3741 
C 301 3397 250 3090 250 2733 
C 250 2307 326 2045 506 1745 
C 749 1357 973 1275 1222 1275 
C 1600 1275 1978 1459 2234 1776 
C 2189 902 1798 267 1235 267 
C 1005 267 819 339 634 516 
L 435 174 
z
M 2214 2746 
C 2221 2703 2221 2622 2221 2596 
C 2221 2074 1914 1664 1466 1664 
C 1171 1664 1018 1813 902 2006 
C 762 2249 755 2485 755 2733 
C 755 2976 755 3244 934 3511 
C 1069 3703 1235 3840 1523 3840 
C 2112 3840 2208 3000 2214 2746 
z
" transform="scale(0.015625)"/>
       </defs>
       <use xlink:href="#CMSS17-39" transform="scale(0.996264)"/>
      </g>
     </g>
    </g>
    <g id="xtick_10">
     <g id="line2d_32">
      <path d="M 702.907426 174.494075 
L 702.907426 96.923334 
" clip-path="url(#p46323910be)" style="fill: none; stroke-dasharray: 2.96,1.28; stroke-dashoffset: 0; stroke: #7f7f7f; stroke-opacity: 0.2; stroke-width: 0.8"/>
     </g>
     <g id="line2d_33">
      <g>
       <use xlink:href="#m180162dc61" x="702.907426" y="174.494075" style="stroke: #000000; stroke-width: 0.8"/>
      </g>
     </g>
     <g id="text_11">
      <!-- 12 -->
      <g transform="translate(696.078937 191.179952)scale(0.14 -0.14)">
       <use xlink:href="#CMSS17-31" transform="scale(0.996264)"/>
       <use xlink:href="#CMSS17-32" transform="translate(46.843624 0)scale(0.996264)"/>
      </g>
     </g>
    </g>
    <g id="text_12">
     <!-- Time [s] -->
     <g transform="translate(350.886591 208.352752)scale(0.14 -0.14)">
      <defs>
       <path id="CMSS17-54" d="M 2317 3968 
L 2848 3968 
C 2925 3968 3002 3968 3078 3968 
L 3878 3968 
L 3878 4376 
L 218 4376 
L 218 3968 
L 1018 3968 
C 1094 3968 1171 3968 1248 3968 
L 1779 3968 
L 1779 -32 
L 2317 -32 
L 2317 3968 
z
" transform="scale(0.015625)"/>
       <path id="CMSS17-69" d="M 979 4183 
L 442 4183 
L 442 3648 
L 979 3648 
L 979 4183 
z
M 947 2739 
L 474 2739 
L 474 0 
L 947 0 
L 947 2739 
z
" transform="scale(0.015625)"/>
       <path id="CMSS17-6d" d="M 4288 1877 
C 4288 2308 4179 2816 3462 2816 
C 2982 2816 2694 2516 2566 2331 
C 2451 2670 2182 2816 1798 2816 
C 1363 2816 1088 2568 941 2389 
L 941 2758 
L 474 2758 
L 474 0 
L 960 0 
L 960 1559 
C 960 1939 1101 2428 1555 2428 
C 2138 2428 2138 2016 2138 1829 
L 2138 0 
L 2624 0 
L 2624 1559 
C 2624 1939 2765 2428 3219 2428 
C 3802 2428 3802 2016 3802 1829 
L 3802 0 
L 4288 0 
L 4288 1877 
z
" transform="scale(0.015625)"/>
       <path id="CMSS17-73" d="M 2061 2627 
C 1683 2807 1389 2807 1197 2807 
C 742 2807 198 2648 198 2003 
C 198 1359 902 1218 1094 1179 
C 1389 1122 1715 1058 1715 740 
C 1715 337 1254 337 1171 337 
C 915 337 563 407 243 638 
L 166 210 
C 531 0 883 -64 1178 -64 
C 1965 -64 2163 416 2163 781 
C 2163 1094 1984 1305 1862 1401 
C 1651 1568 1574 1587 1050 1696 
C 960 1709 646 1779 646 2066 
C 646 2432 1050 2432 1139 2432 
C 1555 2432 1811 2303 1984 2208 
L 2061 2627 
z
" transform="scale(0.015625)"/>
      </defs>
      <use xlink:href="#CMSS17-54" transform="scale(0.996264)"/>
      <use xlink:href="#CMSS17-69" transform="translate(63.819454 0)scale(0.996264)"/>
      <use xlink:href="#CMSS17-6d" transform="translate(86.000177 0)scale(0.996264)"/>
      <use xlink:href="#CMSS17-65" transform="translate(160.229431 0)scale(0.996264)"/>
      <use xlink:href="#CMSS17-5b" transform="translate(233.097366 0)scale(0.996264)"/>
      <use xlink:href="#CMSS17-73" transform="translate(260.282805 0)scale(0.996264)"/>
      <use xlink:href="#CMSS17-5d" transform="translate(296.196347 0)scale(0.996264)"/>
     </g>
    </g>
   </g>
   <g id="matplotlib.axis_4">
    <g id="ytick_5">
     <g id="line2d_34">
      <path d="M 45.943564 172.97308 
L 702.907426 172.97308 
" clip-path="url(#p46323910be)" style="fill: none; stroke-dasharray: 2.96,1.28; stroke-dashoffset: 0; stroke: #7f7f7f; stroke-opacity: 0.2; stroke-width: 0.8"/>
     </g>
     <g id="line2d_35">
      <g>
       <use xlink:href="#m8e27fa0aa9" x="45.943564" y="172.97308" style="stroke: #000000; stroke-width: 0.8"/>
      </g>
     </g>
     <g id="text_13">
      <!-- 0.0 -->
      <g transform="translate(21.492982 177.816019)scale(0.14 -0.14)">
       <defs>
        <path id="CMSS17-2e" d="M 1088 510 
L 576 510 
L 576 0 
L 1088 0 
L 1088 510 
z
" transform="scale(0.015625)"/>
       </defs>
       <use xlink:href="#CMSS17-30" transform="scale(0.996264)"/>
       <use xlink:href="#CMSS17-2e" transform="translate(46.843624 0)scale(0.996264)"/>
       <use xlink:href="#CMSS17-30" transform="translate(72.867828 0)scale(0.996264)"/>
      </g>
     </g>
    </g>
    <g id="ytick_6">
     <g id="line2d_36">
      <path d="M 45.943564 150.929676 
L 702.907426 150.929676 
" clip-path="url(#p46323910be)" style="fill: none; stroke-dasharray: 2.96,1.28; stroke-dashoffset: 0; stroke: #7f7f7f; stroke-opacity: 0.2; stroke-width: 0.8"/>
     </g>
     <g id="line2d_37">
      <g>
       <use xlink:href="#m8e27fa0aa9" x="45.943564" y="150.929676" style="stroke: #000000; stroke-width: 0.8"/>
      </g>
     </g>
     <g id="text_14">
      <!-- 3.3 -->
      <g transform="translate(21.492982 155.772614)scale(0.14 -0.14)">
       <use xlink:href="#CMSS17-33" transform="scale(0.996264)"/>
       <use xlink:href="#CMSS17-2e" transform="translate(46.843624 0)scale(0.996264)"/>
       <use xlink:href="#CMSS17-33" transform="translate(72.867828 0)scale(0.996264)"/>
      </g>
     </g>
    </g>
    <g id="ytick_7">
     <g id="line2d_38">
      <path d="M 45.943564 128.886271 
L 702.907426 128.886271 
" clip-path="url(#p46323910be)" style="fill: none; stroke-dasharray: 2.96,1.28; stroke-dashoffset: 0; stroke: #7f7f7f; stroke-opacity: 0.2; stroke-width: 0.8"/>
     </g>
     <g id="line2d_39">
      <g>
       <use xlink:href="#m8e27fa0aa9" x="45.943564" y="128.886271" style="stroke: #000000; stroke-width: 0.8"/>
      </g>
     </g>
     <g id="text_15">
      <!-- 6.7 -->
      <g transform="translate(21.492982 133.729209)scale(0.14 -0.14)">
       <defs>
        <path id="CMSS17-37" d="M 1389 3776 
C 1466 3776 1542 3776 1619 3776 
L 2355 3776 
C 1440 2711 915 1365 915 -32 
L 1427 -32 
C 1427 1323 1875 2696 2752 3795 
L 2752 4209 
L 250 4209 
L 250 3776 
L 1389 3776 
z
" transform="scale(0.015625)"/>
       </defs>
       <use xlink:href="#CMSS17-36" transform="scale(0.996264)"/>
       <use xlink:href="#CMSS17-2e" transform="translate(46.843624 0)scale(0.996264)"/>
       <use xlink:href="#CMSS17-37" transform="translate(72.867828 0)scale(0.996264)"/>
      </g>
     </g>
    </g>
    <g id="ytick_8">
     <g id="line2d_40">
      <path d="M 45.943564 106.842866 
L 702.907426 106.842866 
" clip-path="url(#p46323910be)" style="fill: none; stroke-dasharray: 2.96,1.28; stroke-dashoffset: 0; stroke: #7f7f7f; stroke-opacity: 0.2; stroke-width: 0.8"/>
     </g>
     <g id="line2d_41">
      <g>
       <use xlink:href="#m8e27fa0aa9" x="45.943564" y="106.842866" style="stroke: #000000; stroke-width: 0.8"/>
      </g>
     </g>
     <g id="text_16">
      <!-- 10.0 -->
      <g transform="translate(14.664493 111.685804)scale(0.14 -0.14)">
       <use xlink:href="#CMSS17-31" transform="scale(0.996264)"/>
       <use xlink:href="#CMSS17-30" transform="translate(46.843624 0)scale(0.996264)"/>
       <use xlink:href="#CMSS17-2e" transform="translate(93.687247 0)scale(0.996264)"/>
       <use xlink:href="#CMSS17-30" transform="translate(119.711452 0)scale(0.996264)"/>
      </g>
     </g>
    </g>
    <g id="text_17">
     <!-- Control error [deg] -->
     <g transform="translate(7.177569 188.468033)rotate(-90)scale(0.14 -0.14)">
      <use xlink:href="#CMSS17-43" transform="scale(0.996264)"/>
      <use xlink:href="#CMSS17-6f" transform="translate(59.855772 0)scale(0.996264)"/>
      <use xlink:href="#CMSS17-6e" transform="translate(106.699395 0)scale(0.996264)"/>
      <use xlink:href="#CMSS17-74" transform="translate(154.904338 0)scale(0.996264)"/>
      <use xlink:href="#CMSS17-72" transform="translate(188.735905 0)scale(0.996264)"/>
      <use xlink:href="#CMSS17-6f" transform="translate(220.645677 0)scale(0.996264)"/>
      <use xlink:href="#CMSS17-6c" transform="translate(267.489301 0)scale(0.996264)"/>
      <use xlink:href="#CMSS17-65" transform="translate(320.899137 0)scale(0.996264)"/>
      <use xlink:href="#CMSS17-72" transform="translate(362.537959 0)scale(0.996264)"/>
      <use xlink:href="#CMSS17-72" transform="translate(394.447731 0)scale(0.996264)"/>
      <use xlink:href="#CMSS17-6f" transform="translate(426.357504 0)scale(0.996264)"/>
      <use xlink:href="#CMSS17-72" transform="translate(470.598674 0)scale(0.996264)"/>
      <use xlink:href="#CMSS17-5b" transform="translate(533.737559 0)scale(0.996264)"/>
      <use xlink:href="#CMSS17-64" transform="translate(560.922997 0)scale(0.996264)"/>
      <use xlink:href="#CMSS17-65" transform="translate(609.127941 0)scale(0.996264)"/>
      <use xlink:href="#CMSS17-67" transform="translate(650.766763 0)scale(0.996264)"/>
      <use xlink:href="#CMSS17-5d" transform="translate(697.610386 0)scale(0.996264)"/>
     </g>
    </g>
   </g>
   <g id="line2d_42">
    <path d="M 45.943564 165.051575 
L 49.785458 165.6864 
L 53.627352 163.805048 
L 57.469246 165.739612 
L 61.31114 166.839817 
L 65.153033 168.152878 
L 68.994927 168.709857 
L 72.836821 167.89646 
L 76.678715 166.612321 
L 80.520609 166.18448 
L 84.362503 164.785847 
L 88.204397 166.772805 
L 92.046291 167.478209 
L 95.888185 168.463169 
L 99.730079 167.723624 
L 103.571973 168.396041 
L 107.413867 168.816412 
L 111.255761 171.053703 
L 115.097655 171.364867 
L 118.939549 171.070147 
L 122.781442 171.564366 
L 126.623336 172.699648 
L 130.46523 172.441989 
L 145.832806 170.882186 
L 149.6747 170.684939 
L 153.516594 170.05262 
L 157.358488 169.113311 
L 161.200382 171.032493 
L 165.042276 169.809882 
L 168.88417 168.249884 
L 172.726064 163.006387 
L 176.567957 160.585194 
L 180.409851 158.701871 
L 184.251745 161.452134 
L 188.093639 155.600277 
L 191.935533 155.154231 
L 199.619321 155.91667 
L 203.461215 160.360386 
L 207.303109 155.09481 
L 211.145003 155.29463 
L 214.986897 146.717309 
L 218.828791 157.248506 
L 222.670685 158.147931 
L 226.512579 170.771996 
L 230.354473 169.842469 
L 234.196366 153.160362 
L 238.03826 161.633711 
L 241.880154 156.375243 
L 245.722048 157.853208 
L 249.563942 160.166273 
L 253.405836 143.151941 
L 257.24773 155.906005 
L 261.089624 158.602213 
L 264.931518 161.746825 
L 268.773412 154.411053 
L 272.615306 153.386522 
L 276.4572 156.364513 
L 280.299094 161.521084 
L 284.140988 161.569526 
L 287.982881 165.239269 
L 291.824775 171.20885 
L 295.666669 172.634251 
L 299.508563 167.873067 
L 303.350457 166.500262 
L 307.192351 170.187109 
L 311.034245 172.738121 
L 314.876139 171.649959 
L 318.718033 171.462774 
L 322.559927 163.996657 
L 326.401821 163.077503 
L 330.243715 162.876779 
L 334.085609 168.365346 
L 337.927503 167.914653 
L 341.769397 169.433481 
L 345.61129 170.360436 
L 349.453184 169.871404 
L 353.295078 161.423845 
L 357.136972 172.659536 
L 360.978866 171.933156 
L 364.82076 172.52214 
L 368.662654 169.730757 
L 372.504548 153.845292 
L 376.346442 159.345104 
L 380.188336 155.741332 
L 384.03023 146.39535 
L 387.872124 153.612536 
L 391.714018 142.886007 
L 395.555912 156.184613 
L 399.397805 157.429761 
L 403.239699 151.417029 
L 407.081593 154.94012 
L 410.923487 169.124505 
L 414.765381 164.83714 
L 418.607275 161.374568 
L 422.449169 159.262045 
L 426.291063 159.216738 
L 430.132957 153.829938 
L 433.974851 154.594082 
L 437.816745 158.656271 
L 441.658639 161.674037 
L 445.500533 164.536302 
L 449.342427 156.003238 
L 453.184321 154.003113 
L 457.026214 164.684985 
L 460.868108 165.011998 
L 464.710002 167.798363 
L 468.551896 171.910169 
L 472.39379 168.619167 
L 476.235684 171.75352 
L 480.077578 168.948261 
L 483.919472 171.024066 
L 487.761366 168.391494 
L 491.60326 171.183548 
L 495.445154 168.470125 
L 499.287048 172.529275 
L 503.128942 172.347621 
L 506.970836 170.230755 
L 510.812729 170.764261 
L 514.654623 168.555975 
L 518.496517 170.424508 
L 522.338411 170.614421 
L 526.180305 171.034458 
L 530.022199 170.581279 
L 533.864093 169.576905 
L 541.547881 168.28102 
L 549.231669 167.289804 
L 553.073563 166.717452 
L 556.915457 166.006867 
L 568.441138 165.229639 
L 572.283032 164.593548 
L 576.124926 163.7904 
L 579.96682 163.158819 
L 583.808714 163.356029 
L 587.650608 161.387276 
L 591.492502 164.235758 
L 595.334396 164.586239 
L 599.17629 165.43593 
L 610.701972 165.980656 
L 614.543866 169.209588 
L 618.38576 166.566596 
L 622.227653 167.416073 
L 626.069547 168.809922 
L 629.911441 168.230138 
L 633.753335 167.076131 
L 637.595229 166.504734 
L 649.120911 165.237119 
L 652.962805 164.5895 
L 656.804699 168.80021 
L 660.646593 159.977805 
L 664.488487 157.921465 
L 668.330381 156.131765 
L 672.172275 153.505983 
L 676.014168 135.71307 
L 679.856062 156.607833 
L 683.697956 148.553612 
L 687.53985 146.793086 
L 691.381744 148.810057 
L 695.223638 148.082986 
L 699.065532 149.566567 
L 702.907426 156.787885 
L 702.907426 156.787885 
" clip-path="url(#p46323910be)" style="fill: none; stroke: #2e8b57; stroke-width: 2; stroke-linecap: square"/>
   </g>
   <g id="line2d_43">
    <path d="M 45.943564 166.285175 
L 49.785458 167.19287 
L 53.627352 166.132726 
L 57.469246 168.79466 
L 65.153033 171.48427 
L 68.994927 172.609383 
L 72.836821 172.916216 
L 76.678715 172.673544 
L 80.520609 171.909465 
L 84.362503 172.209042 
L 88.204397 169.350298 
L 92.046291 167.754202 
L 95.888185 165.978934 
L 99.730079 165.924338 
L 103.571973 164.401659 
L 107.413867 163.118315 
L 111.255761 159.944726 
L 118.939549 156.739844 
L 122.781442 154.456178 
L 126.623336 151.689347 
L 130.46523 149.110034 
L 134.307124 146.809424 
L 138.149018 144.643222 
L 149.6747 137.605957 
L 153.516594 134.961281 
L 157.358488 132.088871 
L 161.200382 132.18144 
L 165.042276 129.1033 
L 168.88417 125.669231 
L 172.726064 118.489908 
L 176.567957 114.864804 
L 180.409851 112.107679 
L 184.251745 114.002978 
L 188.093639 107.4476 
L 191.935533 106.29657 
L 195.777427 106.198602 
L 199.619321 106.243777 
L 203.461215 111.074445 
L 207.303109 106.872293 
L 211.145003 108.734804 
L 214.986897 102.898562 
L 218.828791 116.977159 
L 222.670685 123.201936 
L 226.512579 143.015143 
L 230.354473 157.052103 
L 234.196366 144.102854 
L 238.03826 163.961314 
L 241.880154 169.795267 
L 245.722048 172.381966 
L 249.563942 171.598006 
L 253.405836 151.492605 
L 257.24773 161.070227 
L 261.089624 162.724744 
L 264.931518 165.222449 
L 268.773412 158.075978 
L 272.615306 159.822667 
L 276.4572 165.036018 
L 280.299094 170.663023 
L 284.140988 170.271959 
L 287.982881 171.575636 
L 291.824775 165.061201 
L 295.666669 163.627804 
L 299.508563 168.785788 
L 303.350457 171.359928 
L 307.192351 164.640705 
L 311.034245 170.224473 
L 314.876139 168.92319 
L 318.718033 170.093968 
L 322.559927 164.832424 
L 326.401821 163.221081 
L 330.243715 160.978024 
L 334.085609 172.630266 
L 337.927503 162.139204 
L 341.769397 162.588056 
L 345.61129 163.476563 
L 349.453184 165.576167 
L 353.295078 163.743589 
L 357.136972 170.26652 
L 360.978866 172.657851 
L 364.82076 169.083158 
L 368.662654 163.939134 
L 372.504548 145.749702 
L 376.346442 150.671199 
L 380.188336 146.517018 
L 384.03023 138.357807 
L 387.872124 154.131203 
L 391.714018 148.156393 
L 395.555912 160.499597 
L 399.397805 158.278251 
L 403.239699 151.077607 
L 407.081593 152.435849 
L 410.923487 165.779694 
L 414.765381 161.905615 
L 418.607275 159.534831 
L 426.291063 157.779357 
L 430.132957 151.203999 
L 433.974851 156.226866 
L 437.816745 161.506694 
L 441.658639 158.489223 
L 445.500533 162.517187 
L 449.342427 153.792555 
L 453.184321 151.391417 
L 457.026214 162.00867 
L 460.868108 162.617001 
L 464.710002 167.506572 
L 468.551896 170.8204 
L 472.39379 166.470716 
L 476.235684 170.193587 
L 480.077578 167.94347 
L 483.919472 170.407562 
L 487.761366 168.779821 
L 491.60326 172.657637 
L 495.445154 170.637656 
L 499.287048 169.632099 
L 503.128942 169.754358 
L 506.970836 165.830218 
L 510.812729 165.857134 
L 514.654623 163.075223 
L 518.496517 163.702512 
L 522.338411 162.481978 
L 526.180305 161.656107 
L 530.022199 160.051971 
L 533.864093 157.96514 
L 541.547881 153.985199 
L 549.231669 150.670638 
L 560.757351 146.116447 
L 564.599245 144.703703 
L 568.441138 143.026129 
L 579.96682 137.496328 
L 583.808714 136.152138 
L 587.650608 132.761609 
L 591.492502 133.834462 
L 595.334396 132.45858 
L 599.17629 131.495502 
L 610.701972 126.947473 
L 614.543866 128.437284 
L 618.38576 123.953678 
L 622.227653 122.729156 
L 626.069547 121.900775 
L 629.911441 120.285347 
L 633.753335 118.270903 
L 637.595229 116.873818 
L 641.437123 115.81771 
L 645.279017 115.111716 
L 649.120911 114.57744 
L 652.962805 114.673812 
L 656.804699 120.983477 
L 660.646593 115.82688 
L 664.488487 118.507781 
L 668.330381 122.672977 
L 672.172275 127.733227 
L 676.014168 119.210584 
L 679.856062 150.622366 
L 683.697956 155.87541 
L 687.53985 161.402467 
L 691.381744 164.038248 
L 695.223638 162.287465 
L 699.065532 157.306874 
L 702.907426 161.892314 
L 702.907426 161.892314 
" clip-path="url(#p46323910be)" style="fill: none; stroke: #dc143c; stroke-width: 2; stroke-linecap: square"/>
   </g>
   <g id="line2d_44">
    <path d="M 45.943564 169.504822 
L 49.785458 168.215233 
L 53.627352 165.696292 
L 57.469246 167.539724 
L 61.31114 167.281466 
L 65.153033 164.009781 
L 68.994927 165.440884 
L 72.836821 168.409586 
L 76.678715 171.782865 
L 80.520609 172.462053 
L 84.362503 171.111889 
L 88.204397 172.754825 
L 92.046291 171.767192 
L 95.888185 170.939757 
L 99.730079 171.839756 
L 103.571973 172.05897 
L 107.413867 172.687332 
L 111.255761 169.957843 
L 115.097655 168.646466 
L 118.939549 171.562742 
L 122.781442 172.911193 
L 126.623336 172.44677 
L 130.46523 172.916396 
L 134.307124 170.628015 
L 138.149018 167.791036 
L 141.990912 163.667565 
L 145.832806 158.534379 
L 149.6747 153.992089 
L 157.358488 145.411948 
L 161.200382 143.38636 
L 168.88417 132.728739 
L 172.726064 123.323718 
L 176.567957 118.457637 
L 180.409851 114.936719 
L 184.251745 115.96615 
L 188.093639 108.67904 
L 191.935533 106.799211 
L 195.777427 106.269155 
L 199.619321 105.888327 
L 203.461215 111.066802 
L 207.303109 108.839822 
L 211.145003 111.985204 
L 214.986897 108.139858 
L 218.828791 126.11749 
L 222.670685 134.945041 
L 226.512579 164.16549 
L 230.354473 166.714368 
L 234.196366 151.711159 
L 238.03826 172.624265 
L 241.880154 170.118102 
L 245.722048 172.418943 
L 249.563942 165.134711 
L 253.405836 155.790297 
L 257.24773 158.459537 
L 261.089624 163.086084 
L 264.931518 160.627095 
L 268.773412 149.565873 
L 272.615306 152.417433 
L 276.4572 154.330133 
L 280.299094 158.85593 
L 284.140988 164.93431 
L 287.982881 172.249551 
L 291.824775 164.803321 
L 295.666669 160.535384 
L 299.508563 170.524053 
L 307.192351 166.667256 
L 311.034245 171.782712 
L 314.876139 170.331765 
L 318.718033 168.673127 
L 322.559927 153.438136 
L 326.401821 147.385661 
L 330.243715 146.802928 
L 334.085609 163.908692 
L 337.927503 171.258206 
L 341.769397 172.205511 
L 345.61129 169.143715 
L 349.453184 172.503656 
L 353.295078 166.277817 
L 357.136972 163.963033 
L 360.978866 169.728429 
L 364.82076 170.902709 
L 368.662654 166.8245 
L 372.504548 148.352965 
L 376.346442 149.264692 
L 380.188336 144.032793 
L 384.03023 132.307681 
L 387.872124 148.957664 
L 391.714018 146.685296 
L 395.555912 160.353249 
L 399.397805 161.811194 
L 403.239699 148.672925 
L 407.081593 157.494806 
L 410.923487 168.190853 
L 414.765381 167.798465 
L 418.607275 163.911649 
L 422.449169 153.613566 
L 426.291063 160.911476 
L 430.132957 167.10237 
L 433.974851 168.092902 
L 437.816745 160.172741 
L 441.658639 160.927873 
L 445.500533 172.815594 
L 449.342427 157.490619 
L 453.184321 157.481436 
L 457.026214 163.264507 
L 460.868108 161.145645 
L 464.710002 154.511042 
L 468.551896 156.531504 
L 472.39379 167.49007 
L 476.235684 145.529697 
L 480.077578 161.91366 
L 483.919472 166.265083 
L 487.761366 171.352816 
L 491.60326 169.253301 
L 495.445154 172.897567 
L 499.287048 169.108387 
L 503.128942 171.927521 
L 506.970836 169.53529 
L 510.812729 170.178044 
L 514.654623 168.07015 
L 518.496517 170.844835 
L 522.338411 172.042607 
L 526.180305 171.66772 
L 530.022199 170.46383 
L 533.864093 169.676985 
L 537.705987 170.947978 
L 541.547881 171.609352 
L 545.389775 172.106841 
L 549.231669 172.418415 
L 553.073563 172.301067 
L 556.915457 171.961529 
L 560.757351 172.275689 
L 564.599245 172.809965 
L 568.441138 172.174984 
L 572.283032 168.434335 
L 576.124926 165.470693 
L 579.96682 162.06284 
L 583.808714 159.918686 
L 587.650608 154.869454 
L 591.492502 153.913564 
L 595.334396 150.43632 
L 599.17629 147.721046 
L 603.018184 144.793522 
L 610.701972 138.390494 
L 614.543866 138.038065 
L 618.38576 131.682444 
L 622.227653 128.211644 
L 626.069547 125.158296 
L 629.911441 122.554947 
L 633.753335 119.564697 
L 637.595229 117.207529 
L 641.437123 115.363409 
L 645.279017 113.849745 
L 649.120911 112.933348 
L 652.962805 113.715943 
L 656.804699 122.533624 
L 660.646593 121.122835 
L 664.488487 128.270397 
L 668.330381 137.210195 
L 672.172275 150.829067 
L 676.014168 132.656099 
L 679.856062 152.169023 
L 683.697956 156.740135 
L 687.53985 160.204795 
L 691.381744 159.793492 
L 695.223638 162.49438 
L 699.065532 161.172691 
L 702.907426 151.602946 
L 702.907426 151.602946 
" clip-path="url(#p46323910be)" style="fill: none; stroke: #000000; stroke-width: 2; stroke-linecap: square"/>
   </g>
   <g id="patch_13">
    <path d="M 45.943564 174.494075 
L 45.943564 96.923334 
" style="fill: none; stroke: #000000; stroke-width: 0.8; stroke-linejoin: miter; stroke-linecap: square"/>
   </g>
   <g id="patch_14">
    <path d="M 702.907426 174.494075 
L 702.907426 96.923334 
" style="fill: none; stroke: #000000; stroke-width: 0.8; stroke-linejoin: miter; stroke-linecap: square"/>
   </g>
   <g id="patch_15">
    <path d="M 45.943564 174.494075 
L 702.907426 174.494075 
" style="fill: none; stroke: #000000; stroke-width: 0.8; stroke-linejoin: miter; stroke-linecap: square"/>
   </g>
   <g id="patch_16">
    <path d="M 45.943564 96.923334 
L 702.907426 96.923334 
" style="fill: none; stroke: #000000; stroke-width: 0.8; stroke-linejoin: miter; stroke-linecap: square"/>
   </g>
   <g id="text_18">
    <!-- (b) -->
    <g transform="translate(55.943564 109.680408)scale(0.18 -0.18)">
     <defs>
      <path id="CMSS17-62" d="M 954 4416 
L 480 4416 
L 480 -13 
L 966 -13 
L 966 274 
C 1210 38 1504 -64 1766 -64 
C 2381 -64 2880 549 2880 1352 
C 2880 2086 2496 2756 1926 2756 
C 1523 2756 1165 2591 954 2419 
L 954 4416 
z
M 966 2046 
C 1107 2222 1306 2368 1587 2368 
C 1965 2368 2394 2097 2394 1352 
C 2394 558 1882 325 1530 325 
C 1402 325 1267 356 1139 464 
C 966 615 966 709 966 797 
L 966 2046 
z
" transform="scale(0.015625)"/>
     </defs>
     <use xlink:href="#CMSS17-28" transform="scale(0.996264)"/>
     <use xlink:href="#CMSS17-62" transform="translate(36.433914 0)scale(0.996264)"/>
     <use xlink:href="#CMSS17-29" transform="translate(84.638857 0)scale(0.996264)"/>
    </g>
   </g>
  </g>
  <g id="legend_1">
   <g id="patch_17">
    <path d="M 10.684481 221.376014 
L 705.715519 221.376014 
Q 708.515519 221.376014 708.515519 218.576014 
L 708.515519 200.463986 
Q 708.515519 197.663986 705.715519 197.663986 
L 10.684481 197.663986 
Q 7.884481 197.663986 7.884481 200.463986 
L 7.884481 218.576014 
Q 7.884481 221.376014 10.684481 221.376014 
z
" style="fill: #ffffff; opacity: 0.8; stroke: #cccccc; stroke-linejoin: miter"/>
   </g>
   <g id="line2d_45">
    <path d="M 13.484481 208.163986 
L 27.484481 208.163986 
L 41.484481 208.163986 
" style="fill: none; stroke-dasharray: 7.4,3.2; stroke-dashoffset: 0; stroke: #000000; stroke-width: 2"/>
   </g>
   <g id="text_19">
    <!-- Ref. -->
    <g transform="translate(52.684481 213.063986)scale(0.14 -0.14)">
     <defs>
      <path id="CMSS17-52" d="M 2522 2109 
L 2534 2115 
C 3533 2459 3539 3147 3539 3268 
C 3539 3873 2925 4453 2003 4453 
L 570 4453 
L 570 32 
L 1094 32 
L 1094 2048 
L 2035 2048 
L 3168 32 
L 3706 32 
L 2522 2109 
z
M 1094 2437 
L 1094 4096 
L 1933 4096 
C 2746 4096 3034 3637 3034 3267 
C 3034 2922 2778 2437 1933 2437 
L 1094 2437 
z
" transform="scale(0.015625)"/>
      <path id="CMSS17-66" d="M 1075 2368 
L 1722 2368 
L 1722 2737 
L 1062 2737 
L 1062 3559 
C 1062 4014 1408 4092 1606 4092 
C 1670 4092 1850 4092 2080 4009 
L 2080 4429 
C 1933 4461 1754 4480 1613 4480 
C 1018 4480 602 3993 602 3359 
L 602 2737 
L 160 2737 
L 160 2368 
L 602 2368 
L 602 0 
L 1075 0 
L 1075 2368 
z
" transform="scale(0.015625)"/>
     </defs>
     <use xlink:href="#CMSS17-52" transform="scale(0.996264)"/>
     <use xlink:href="#CMSS17-65" transform="translate(60.416155 0)scale(0.996264)"/>
     <use xlink:href="#CMSS17-66" transform="translate(102.054977 0)scale(0.996264)"/>
     <use xlink:href="#CMSS17-2e" transform="translate(130.681636 0)scale(0.996264)"/>
    </g>
   </g>
   <g id="line2d_46">
    <path d="M 103.510657 208.163986 
L 117.510657 208.163986 
L 131.510657 208.163986 
" style="fill: none; stroke: #2e8b57; stroke-width: 2; stroke-linecap: square"/>
   </g>
   <g id="text_20">
    <!-- Original -->
    <g transform="translate(142.710657 213.063986)scale(0.14 -0.14)">
     <defs>
      <path id="CMSS17-4f" d="M 4096 2178 
C 4096 3503 3219 4497 2214 4497 
C 1210 4497 333 3497 333 2178 
C 333 847 1222 -128 2214 -128 
C 3206 -128 4096 847 4096 2178 
z
M 2214 273 
C 1510 273 870 1057 870 2261 
C 870 3433 1549 4096 2214 4096 
C 2880 4096 3558 3433 3558 2261 
C 3558 1051 2912 273 2214 273 
z
" transform="scale(0.015625)"/>
     </defs>
     <use xlink:href="#CMSS17-4f" transform="scale(0.996264)"/>
     <use xlink:href="#CMSS17-72" transform="translate(69.024255 0)scale(0.996264)"/>
     <use xlink:href="#CMSS17-69" transform="translate(100.934028 0)scale(0.996264)"/>
     <use xlink:href="#CMSS17-67" transform="translate(123.114751 0)scale(0.996264)"/>
     <use xlink:href="#CMSS17-69" transform="translate(169.958374 0)scale(0.996264)"/>
     <use xlink:href="#CMSS17-6e" transform="translate(192.139098 0)scale(0.996264)"/>
     <use xlink:href="#CMSS17-61" transform="translate(240.344041 0)scale(0.996264)"/>
     <use xlink:href="#CMSS17-6c" transform="translate(285.265961 0)scale(0.996264)"/>
    </g>
   </g>
   <g id="line2d_47">
    <path d="M 215.434741 208.163986 
L 229.434741 208.163986 
L 243.434741 208.163986 
" style="fill: none; stroke: #dc143c; stroke-width: 2; stroke-linecap: square"/>
   </g>
   <g id="text_21">
    <!-- Repaired - last layer -->
    <g transform="translate(254.634741 213.063986)scale(0.14 -0.14)">
     <defs>
      <path id="CMSS17-70" d="M 966 333 
C 1178 129 1466 -5 1773 -5 
C 2368 -5 2880 603 2880 1412 
C 2880 2159 2496 2816 1946 2816 
C 1626 2816 1242 2702 954 2472 
L 954 2765 
L 480 2765 
L 480 -1216 
L 966 -1216 
L 966 333 
z
M 966 2100 
C 1018 2176 1235 2415 1587 2415 
C 2035 2415 2394 1960 2394 1412 
C 2394 787 1958 384 1530 384 
C 1402 384 1267 415 1139 523 
C 966 674 966 768 966 857 
L 966 2100 
z
" transform="scale(0.015625)"/>
      <path id="CMSS17-79" d="M 2675 2752 
L 2176 2752 
C 1632 1294 1446 702 1434 383 
L 1427 383 
C 1408 696 1126 1460 902 2007 
L 602 2752 
L 83 2752 
L 1216 13 
C 1146 -178 1043 -465 1011 -529 
C 870 -885 774 -885 672 -885 
C 646 -885 442 -885 211 -809 
L 250 -1229 
C 410 -1261 570 -1280 685 -1280 
C 845 -1280 1165 -1280 1459 -497 
L 2675 2752 
z
" transform="scale(0.015625)"/>
     </defs>
     <use xlink:href="#CMSS17-52" transform="scale(0.996264)"/>
     <use xlink:href="#CMSS17-65" transform="translate(60.416155 0)scale(0.996264)"/>
     <use xlink:href="#CMSS17-70" transform="translate(102.054977 0)scale(0.996264)"/>
     <use xlink:href="#CMSS17-61" transform="translate(150.25992 0)scale(0.996264)"/>
     <use xlink:href="#CMSS17-69" transform="translate(195.181841 0)scale(0.996264)"/>
     <use xlink:href="#CMSS17-72" transform="translate(217.362564 0)scale(0.996264)"/>
     <use xlink:href="#CMSS17-65" transform="translate(249.272336 0)scale(0.996264)"/>
     <use xlink:href="#CMSS17-64" transform="translate(290.911158 0)scale(0.996264)"/>
     <use xlink:href="#CMSS17-2d" transform="translate(370.345214 0)scale(0.996264)"/>
     <use xlink:href="#CMSS17-6c" transform="translate(432.80344 0)scale(0.996264)"/>
     <use xlink:href="#CMSS17-61" transform="translate(454.984163 0)scale(0.996264)"/>
     <use xlink:href="#CMSS17-73" transform="translate(499.906083 0)scale(0.996264)"/>
     <use xlink:href="#CMSS17-74" transform="translate(535.819625 0)scale(0.996264)"/>
     <use xlink:href="#CMSS17-6c" transform="translate(600.880305 0)scale(0.996264)"/>
     <use xlink:href="#CMSS17-61" transform="translate(623.061028 0)scale(0.996264)"/>
     <use xlink:href="#CMSS17-79" transform="translate(665.380495 0)scale(0.996264)"/>
     <use xlink:href="#CMSS17-65" transform="translate(705.778182 0)scale(0.996264)"/>
     <use xlink:href="#CMSS17-72" transform="translate(747.417004 0)scale(0.996264)"/>
    </g>
   </g>
   <g id="line2d_48">
    <path d="M 396.04399 208.163986 
L 410.04399 208.163986 
L 424.04399 208.163986 
" style="fill: none; stroke: #000000; stroke-width: 2; stroke-linecap: square"/>
   </g>
   <g id="text_22">
    <!-- Repaired - mid layer -->
    <g transform="translate(435.24399 213.063986)scale(0.14 -0.14)">
     <use xlink:href="#CMSS17-52" transform="scale(0.996264)"/>
     <use xlink:href="#CMSS17-65" transform="translate(60.416155 0)scale(0.996264)"/>
     <use xlink:href="#CMSS17-70" transform="translate(102.054977 0)scale(0.996264)"/>
     <use xlink:href="#CMSS17-61" transform="translate(150.25992 0)scale(0.996264)"/>
     <use xlink:href="#CMSS17-69" transform="translate(195.181841 0)scale(0.996264)"/>
     <use xlink:href="#CMSS17-72" transform="translate(217.362564 0)scale(0.996264)"/>
     <use xlink:href="#CMSS17-65" transform="translate(249.272336 0)scale(0.996264)"/>
     <use xlink:href="#CMSS17-64" transform="translate(290.911158 0)scale(0.996264)"/>
     <use xlink:href="#CMSS17-2d" transform="translate(370.345214 0)scale(0.996264)"/>
     <use xlink:href="#CMSS17-6d" transform="translate(432.80344 0)scale(0.996264)"/>
     <use xlink:href="#CMSS17-69" transform="translate(507.032694 0)scale(0.996264)"/>
     <use xlink:href="#CMSS17-64" transform="translate(529.213417 0)scale(0.996264)"/>
     <use xlink:href="#CMSS17-6c" transform="translate(608.647473 0)scale(0.996264)"/>
     <use xlink:href="#CMSS17-61" transform="translate(630.828196 0)scale(0.996264)"/>
     <use xlink:href="#CMSS17-79" transform="translate(673.147663 0)scale(0.996264)"/>
     <use xlink:href="#CMSS17-65" transform="translate(713.545351 0)scale(0.996264)"/>
     <use xlink:href="#CMSS17-72" transform="translate(755.184173 0)scale(0.996264)"/>
    </g>
   </g>
   <g id="patch_18">
    <path d="M 577.754167 213.063986 
L 605.754167 213.063986 
L 605.754167 203.263986 
L 577.754167 203.263986 
z
" style="fill: #d4d4d4; opacity: 0.5; stroke: #d4d4d4; stroke-linejoin: miter"/>
   </g>
   <g id="text_23">
    <!-- Violated region -->
    <g transform="translate(616.954167 213.063986)scale(0.14 -0.14)">
     <defs>
      <path id="CMSS17-56" d="M 3910 4416 
L 3411 4416 
L 2304 1362 
C 2272 1273 2074 688 2035 484 
L 2029 484 
C 1978 726 1773 1292 1664 1604 
L 922 3672 
L 646 4416 
L 83 4416 
L 1715 0 
L 2278 0 
L 3910 4416 
z
" transform="scale(0.015625)"/>
     </defs>
     <use xlink:href="#CMSS17-56" transform="scale(0.996264)"/>
     <use xlink:href="#CMSS17-69" transform="translate(62.217855 0)scale(0.996264)"/>
     <use xlink:href="#CMSS17-6f" transform="translate(84.398578 0)scale(0.996264)"/>
     <use xlink:href="#CMSS17-6c" transform="translate(131.242201 0)scale(0.996264)"/>
     <use xlink:href="#CMSS17-61" transform="translate(153.422925 0)scale(0.996264)"/>
     <use xlink:href="#CMSS17-74" transform="translate(198.344845 0)scale(0.996264)"/>
     <use xlink:href="#CMSS17-65" transform="translate(232.176412 0)scale(0.996264)"/>
     <use xlink:href="#CMSS17-64" transform="translate(273.815234 0)scale(0.996264)"/>
     <use xlink:href="#CMSS17-72" transform="translate(353.24929 0)scale(0.996264)"/>
     <use xlink:href="#CMSS17-65" transform="translate(385.159062 0)scale(0.996264)"/>
     <use xlink:href="#CMSS17-67" transform="translate(426.797884 0)scale(0.996264)"/>
     <use xlink:href="#CMSS17-69" transform="translate(473.641508 0)scale(0.996264)"/>
     <use xlink:href="#CMSS17-6f" transform="translate(495.822231 0)scale(0.996264)"/>
     <use xlink:href="#CMSS17-6e" transform="translate(542.665854 0)scale(0.996264)"/>
    </g>
   </g>
  </g>
 </g>
 <defs>
  <clipPath id="p8facedeacf">
   <rect x="45.943564" y="8.949343" width="656.963862" height="77.570741"/>
  </clipPath>
  <clipPath id="p46323910be">
   <rect x="45.943564" y="96.923334" width="656.963862" height="77.570741"/>
  </clipPath>
 </defs>
</svg>
