<?xml version="1.0" encoding="UTF-8" standalone="no"?>
<!DOCTYPE svg PUBLIC "-//W3C//DTD SVG 1.1//EN" "http://www.w3.org/Graphics/SVG/1.1/DTD/svg11.dtd">
<!-- Created with Vectornator (http://vectornator.io/) -->
<svg height="100%" stroke-miterlimit="10" style="fill-rule:nonzero;clip-rule:evenodd;stroke-linecap:round;stroke-linejoin:round;" version="1.1" viewBox="0 0 419.58 297.675" width="100%" xml:space="preserve" xmlns="http://www.w3.org/2000/svg" xmlns:vectornator="http://vectornator.io" xmlns:xlink="http://www.w3.org/1999/xlink">
<defs>
<clipPath id="TextBounds">
<rect height="1" width="0" x="115.943" y="152.973"/>
</clipPath>
</defs>
<g id="Layer-1" vectornator:layerName="Layer 1">
<path d="M89.7056 73.9945L208.314 73.9945L208.314 275L89.7056 275L89.7056 73.9945Z" fill="#ffffff" fill-rule="evenodd" opacity="1" stroke="#ffffff" stroke-linecap="round" stroke-linejoin="round" stroke-width="0.8"/>
<path d="M96.2732 113.187C96.2732 106.553 101.726 101.176 108.453 101.176C115.179 101.176 120.632 106.553 120.632 113.187C120.632 119.821 115.179 125.198 108.453 125.198C101.726 125.198 96.2732 119.821 96.2732 113.187Z" fill="#000000" fill-rule="evenodd" opacity="1" stroke="#000000" stroke-linecap="round" stroke-linejoin="round" stroke-width="0.8"/>
<path d="M119.571 108.334L147.344 164.487" fill="none" fill-rule="evenodd" opacity="1" stroke="#000000" stroke-linecap="round" stroke-linejoin="round" stroke-width="0.8"/>
<path d="M97.7089 118.589L143.618 173.244" fill="none" fill-rule="evenodd" opacity="1" stroke="#000000" stroke-linecap="round" stroke-linejoin="round" stroke-width="0.8"/>
<path d="M136.814 165.269L127.232 214.489" fill="none" fill-rule="evenodd" opacity="1" stroke="#000000" stroke-linecap="round" stroke-linejoin="round" stroke-width="0.8"/>
<path d="M127.09 215.013L158.383 215.288" fill="none" fill-rule="evenodd" opacity="1" stroke="#000000" stroke-linecap="round" stroke-linejoin="round" stroke-width="0.8"/>
<path d="M158.694 214.99L132.711 203.71" fill="none" fill-rule="evenodd" opacity="1" stroke="#000000" stroke-linecap="round" stroke-linejoin="round" stroke-width="0.8"/>
<path d="M146.978 165.461L127.746 214.524" fill="none" fill-rule="evenodd" opacity="1" stroke="#000000" stroke-linecap="round" stroke-linejoin="round" stroke-width="0.8"/>
<path d="M147.307 164.621L146.978 165.461" fill="none" fill-rule="evenodd" opacity="1" stroke="#000000" stroke-linecap="round" stroke-linejoin="round" stroke-width="0.8"/>
<path d="M108.692 112.817L158.674 188.844" fill="#5e5e5e" fill-rule="evenodd" opacity="1" stroke="#6677b4" stroke-dasharray="3.0,2.0" stroke-linecap="round" stroke-linejoin="round" stroke-width="0.8"/>
<path d="M129.513 207.89L142.052 164.894" fill="#5e5e5e" fill-rule="evenodd" opacity="1" stroke="#6677b4" stroke-dasharray="3.0,2.0" stroke-linecap="round" stroke-linejoin="round" stroke-width="0.8"/>
<path d="M156.112 214.573L129.425 208.099" fill="#5e5e5e" fill-rule="evenodd" opacity="1" stroke="#6677b4" stroke-dasharray="3.0,2.0" stroke-linecap="round" stroke-linejoin="bevel" stroke-width="0.8"/>
<path d="M108.485 112.724L108.485 165.938" fill="none" fill-rule="evenodd" opacity="1" stroke="#6677b4" stroke-dasharray="3.0,2.0" stroke-linecap="round" stroke-linejoin="round" stroke-width="0.8"/>
<path d="M127.787 143.701C124.309 146.728 120.444 149.124 114.658 148.81C113.249 148.733 111.389 148.745 110.218 148.066C109.811 147.83 109.183 147.574 108.839 147.29C108.685 147.163 108.466 146.68 108.487 146.849" fill="#5e5e5e" fill-opacity="0" fill-rule="evenodd" opacity="1" stroke="#da3c77" stroke-dasharray="3.0,2.0" stroke-linecap="round" stroke-linejoin="bevel" stroke-width="0.8"/>
<path d="M120.452 214.845L156.203 214.691" fill="#5e5e5e" fill-rule="evenodd" opacity="1" stroke="#6677b4" stroke-dasharray="3.0,2.0" stroke-linecap="round" stroke-linejoin="round" stroke-width="0.8"/>
<path d="M152.255 180.451C149.317 183.3 146.174 185.456 141.956 184.618C140.93 184.414 139.559 184.262 138.782 183.45C138.513 183.168 138.083 182.846 137.866 182.519C137.768 182.373 137.667 181.85 137.661 182.028" fill="#5e5e5e" fill-opacity="0" fill-rule="evenodd" opacity="1" stroke="#da3c77" stroke-dasharray="3.0,2.0" stroke-linecap="round" stroke-linejoin="bevel" stroke-width="0.8"/>
<path d="M136.842 210.075C135.309 210.399 134.934 214.193 135.898 214.193" fill="#5e5e5e" fill-opacity="0" fill-rule="evenodd" opacity="1" stroke="#da3c77" stroke-dasharray="1.0,1.0" stroke-linecap="round" stroke-linejoin="round" stroke-width="0.8"/>
<path d="M132.838 198.406C133.895 198.406 135.003 199.769 135.56 200.539C137.483 203.199 138.337 206.319 138.337 209.61" fill="#5e5e5e" fill-opacity="0" fill-rule="evenodd" opacity="1" stroke="#da3c77" stroke-dasharray="3.0,2.0" stroke-linecap="round" stroke-linejoin="round" stroke-width="0.8"/>
<g fill="#ffffff" opacity="1" stroke="none"/>
</g>
</svg>
