<?xml version="1.0" encoding="UTF-8" standalone="no"?>
<!-- Created with Vectornator (http://vectornator.io/) -->

<svg
   height="60072.441"
   stroke-miterlimit="10"
   style="clip-rule:evenodd;fill-rule:nonzero;stroke-linecap:round;stroke-linejoin:round"
   version="1.1"
   viewBox="0 0 50101.377 60072.444"
   width="50101.375"
   xml:space="preserve"
   id="svg46"
   sodipodi:docname="foot.svg"
   inkscape:version="1.2 (dc2aedaf03, 2022-05-15)"
   inkscape:export-filename="foot.svg"
   inkscape:export-xdpi="600"
   inkscape:export-ydpi="600"
   xmlns:inkscape="http://www.inkscape.org/namespaces/inkscape"
   xmlns:sodipodi="http://sodipodi.sourceforge.net/DTD/sodipodi-0.dtd"
   xmlns="http://www.w3.org/2000/svg"
   xmlns:svg="http://www.w3.org/2000/svg"
   xmlns:vectornator="http://vectornator.io"
   xmlns:ns3="http://www.iki.fi/pav/software/textext/"><sodipodi:namedview
   id="namedview48"
   pagecolor="#ffffff"
   bordercolor="#666666"
   borderopacity="1.0"
   inkscape:showpageshadow="2"
   inkscape:pageopacity="0.0"
   inkscape:pagecheckerboard="0"
   inkscape:deskcolor="#d1d1d1"
   showgrid="false"
   inkscape:zoom="4.0783603"
   inkscape:cx="57.866393"
   inkscape:cy="193.7053"
   inkscape:window-width="1080"
   inkscape:window-height="1857"
   inkscape:window-x="-8"
   inkscape:window-y="-8"
   inkscape:window-maximized="1"
   inkscape:current-layer="svg46" />
<defs
   id="defs5" />
<g
   id="Layer-1"
   vectornator:layerName="Layer 1"
   transform="translate(-37470.843,-21907.241)">
<path
   d="M 89.7056,73.9945 H 208.314 V 275 H 89.7056 Z"
   fill="#ffffff"
   fill-rule="evenodd"
   opacity="1"
   stroke="#ffffff"
   stroke-linecap="round"
   stroke-linejoin="round"
   stroke-width="0.8"
   id="path7" />
<path
   d="m 96.2732,113.187 c 0,-6.634 5.4528,-12.011 12.1798,-12.011 6.726,0 12.179,5.377 12.179,12.011 0,6.634 -5.453,12.011 -12.179,12.011 -6.727,0 -12.1798,-5.377 -12.1798,-12.011 z"
   fill="#000000"
   fill-rule="evenodd"
   opacity="1"
   stroke="#000000"
   stroke-linecap="round"
   stroke-linejoin="round"
   stroke-width="0.8"
   id="path9" />
<path
   d="m 119.571,108.334 27.773,56.153"
   fill="none"
   fill-rule="evenodd"
   opacity="1"
   stroke="#000000"
   stroke-linecap="round"
   stroke-linejoin="round"
   stroke-width="0.8"
   id="path11" />
<path
   d="m 97.7089,118.589 45.9091,54.655"
   fill="none"
   fill-rule="evenodd"
   opacity="1"
   stroke="#000000"
   stroke-linecap="round"
   stroke-linejoin="round"
   stroke-width="0.8"
   id="path13" />
<path
   d="m 136.814,165.269 -9.582,49.22"
   fill="none"
   fill-rule="evenodd"
   opacity="1"
   stroke="#000000"
   stroke-linecap="round"
   stroke-linejoin="round"
   stroke-width="0.8"
   id="path15" />
<path
   d="m 127.09,215.013 31.293,0.275"
   fill="none"
   fill-rule="evenodd"
   opacity="1"
   stroke="#000000"
   stroke-linecap="round"
   stroke-linejoin="round"
   stroke-width="0.8"
   id="path17" />
<path
   d="M 158.694,214.99 132.711,203.71"
   fill="none"
   fill-rule="evenodd"
   opacity="1"
   stroke="#000000"
   stroke-linecap="round"
   stroke-linejoin="round"
   stroke-width="0.8"
   id="path19" />
<path
   d="m 146.978,165.461 -19.232,49.063"
   fill="none"
   fill-rule="evenodd"
   opacity="1"
   stroke="#000000"
   stroke-linecap="round"
   stroke-linejoin="round"
   stroke-width="0.8"
   id="path21" />
<path
   d="m 147.307,164.621 -0.329,0.84"
   fill="none"
   fill-rule="evenodd"
   opacity="1"
   stroke="#000000"
   stroke-linecap="round"
   stroke-linejoin="round"
   stroke-width="0.8"
   id="path23" />
<path
   d="m 108.692,112.817 49.982,76.027"
   fill="#5e5e5e"
   fill-rule="evenodd"
   opacity="1"
   stroke="#6677b4"
   stroke-dasharray="3, 2"
   stroke-linecap="round"
   stroke-linejoin="round"
   stroke-width="0.8"
   id="path25" />
<path
   d="m 129.513,207.89 12.539,-42.996"
   fill="#5e5e5e"
   fill-rule="evenodd"
   opacity="1"
   stroke="#6677b4"
   stroke-dasharray="3, 2"
   stroke-linecap="round"
   stroke-linejoin="round"
   stroke-width="0.8"
   id="path27" />
<path
   d="m 156.112,214.573 -26.687,-6.474"
   fill="#5e5e5e"
   fill-rule="evenodd"
   opacity="1"
   stroke="#6677b4"
   stroke-dasharray="3, 2"
   stroke-linecap="round"
   stroke-linejoin="bevel"
   stroke-width="0.8"
   id="path29" />
<path
   d="m 108.485,112.724 v 53.214"
   fill="none"
   fill-rule="evenodd"
   opacity="1"
   stroke="#6677b4"
   stroke-dasharray="3, 2"
   stroke-linecap="round"
   stroke-linejoin="round"
   stroke-width="0.8"
   id="path31" />
<path
   d="m 127.787,143.701 c -3.478,3.027 -7.343,5.423 -13.129,5.109 -1.409,-0.077 -3.269,-0.065 -4.44,-0.744 -0.407,-0.236 -1.035,-0.492 -1.379,-0.776 -0.154,-0.127 -0.373,-0.61 -0.352,-0.441"
   fill="#5e5e5e"
   fill-opacity="0"
   fill-rule="evenodd"
   opacity="1"
   stroke="#da3c77"
   stroke-dasharray="3, 2"
   stroke-linecap="round"
   stroke-linejoin="bevel"
   stroke-width="0.8"
   id="path33" />
<path
   d="m 120.452,214.845 35.751,-0.154"
   fill="#5e5e5e"
   fill-rule="evenodd"
   opacity="1"
   stroke="#6677b4"
   stroke-dasharray="3, 2"
   stroke-linecap="round"
   stroke-linejoin="round"
   stroke-width="0.8"
   id="path35" />
<path
   d="m 152.255,180.451 c -2.938,2.849 -6.081,5.005 -10.299,4.167 -1.026,-0.204 -2.397,-0.356 -3.174,-1.168 -0.269,-0.282 -0.699,-0.604 -0.916,-0.931 -0.098,-0.146 -0.199,-0.669 -0.205,-0.491"
   fill="#5e5e5e"
   fill-opacity="0"
   fill-rule="evenodd"
   opacity="1"
   stroke="#da3c77"
   stroke-dasharray="3, 2"
   stroke-linecap="round"
   stroke-linejoin="bevel"
   stroke-width="0.8"
   id="path37" />
<path
   d="m 136.842,210.075 c -1.533,0.324 -1.908,4.118 -0.944,4.118"
   fill="#5e5e5e"
   fill-opacity="0"
   fill-rule="evenodd"
   opacity="1"
   stroke="#da3c77"
   stroke-dasharray="1, 1"
   stroke-linecap="round"
   stroke-linejoin="round"
   stroke-width="0.8"
   id="path39" />
<path
   d="m 132.838,198.406 c 1.057,0 2.165,1.363 2.722,2.133 1.923,2.66 2.777,5.78 2.777,9.071"
   fill="#5e5e5e"
   fill-opacity="0"
   fill-rule="evenodd"
   opacity="1"
   stroke="#da3c77"
   stroke-dasharray="3, 2"
   stroke-linecap="round"
   stroke-linejoin="round"
   stroke-width="0.8"
   id="path41" />
<g
   fill="#ffffff"
   opacity="1"
   stroke="none"
   id="g43" />
</g>
<g
   transform="matrix(0.87144951,0,0,0.8953486,-37324.557,-21722.285)"
   ns3:version="1.8.1"
   ns3:texconverter="pdflatex"
   ns3:pdfconverter="inkscape"
   ns3:text="$\\theta_{s}$"
   ns3:preamble="C:\Users\kmajd1\AppData\Roaming\inkscape\extensions\textext\default_packages.tex"
   ns3:scale="0.8"
   ns3:alignment="middle center"
   ns3:stroke-to-path="0"
   ns3:jacobian_sqrt="1.06666"
   id="g996"
   style="stroke-width:1.20756"><defs
   id="id-9c774efe-4377-4feb-9157-b4e80797127f" />
  <g
   fill="#000000"
   fill-opacity="1"
   id="id-c1923e46-bf55-46de-895c-d5f56a9630d1"
   transform="translate(-149.134,-127.734)"
   style="stroke-width:1.4582">
    <g
   transform="translate(148.712,134.765)"
   id="g989"
   style="stroke-width:1.20756"><path
   d="m 4.53125,-4.984375 c 0,-0.65625 -0.171875,-2.046875 -1.1875,-2.046875 -1.390625,0 -2.921875,2.8125 -2.921875,5.09375 0,0.9375 0.28125,2.046875 1.1875,2.046875 1.40625,0 2.921875,-2.859375 2.921875,-5.09375 z M 1.46875,-3.625 C 1.640625,-4.25 1.84375,-5.046875 2.25,-5.765625 2.515625,-6.25 2.875,-6.8125 3.328125,-6.8125 c 0.484375,0 0.546875,0.640625 0.546875,1.203125 0,0.5 -0.078125,1 -0.3125,1.984375 z m 2,0.328125 C 3.359375,-2.84375 3.15625,-2 2.765625,-1.28125 c -0.34375,0.6875 -0.71875,1.171875 -1.15625,1.171875 -0.328125,0 -0.53125,-0.296875 -0.53125,-1.21875 0,-0.421875 0.0625,-1 0.3125,-1.96875 z m 0,0"
   id="id-f0841129-176e-4f9b-8b34-b9c08d313691"
   style="stroke-width:1.20756" />
      </g></g>
  <g
   fill="#000000"
   fill-opacity="1"
   id="id-6ece057a-d45a-475a-a5b8-0405ba8e2093"
   transform="translate(-149.134,-127.734)"
   style="stroke-width:1.4582">
    <g
   transform="translate(153.389,136.259)"
   id="g993"
   style="stroke-width:1.20756"><path
   d="m 3,-2.625 c -0.171875,0.046875 -0.296875,0.1875 -0.296875,0.328125 0,0.171875 0.140625,0.234375 0.234375,0.234375 0.078125,0 0.34375,-0.046875 0.34375,-0.40625 0,-0.453125 -0.5,-0.609375 -0.9375,-0.609375 -1.078125,0 -1.28125,0.8125 -1.28125,1.015625 0,0.265625 0.15625,0.4375 0.25,0.515625 0.171875,0.140625 0.296875,0.171875 0.78125,0.25 0.15625,0.03125 0.59375,0.109375 0.59375,0.453125 0,0.125 -0.078125,0.390625 -0.359375,0.5625 C 2.046875,-0.125 1.703125,-0.125 1.625,-0.125 1.34375,-0.125 0.953125,-0.1875 0.78125,-0.421875 1.015625,-0.453125 1.171875,-0.625 1.171875,-0.8125 c 0,-0.171875 -0.125,-0.265625 -0.265625,-0.265625 -0.203125,0 -0.40625,0.171875 -0.40625,0.46875 0,0.421875 0.4375,0.671875 1.109375,0.671875 1.296875,0 1.53125,-0.875 1.53125,-1.140625 0,-0.640625 -0.703125,-0.765625 -0.96875,-0.8125 -0.0625,-0.015625 -0.234375,-0.046875 -0.28125,-0.0625 -0.25,-0.046875 -0.375,-0.1875 -0.375,-0.34375 0,-0.15625 0.125,-0.34375 0.28125,-0.453125 0.1875,-0.109375 0.421875,-0.125 0.546875,-0.125 0.140625,0 0.5,0.015625 0.65625,0.25 z m 0,0"
   id="id-5033f34c-0ee9-417b-abfd-b82f10b17fb2"
   style="stroke-width:1.20756" />
      </g></g>
</g><g
   transform="matrix(0.9477696,0,0,0.94341003,-37359.257,-21754.15)"
   ns3:version="1.8.1"
   ns3:texconverter="pdflatex"
   ns3:pdfconverter="inkscape"
   ns3:text="$\\theta_{fe}$"
   ns3:preamble="C:\Users\kmajd1\AppData\Roaming\inkscape\extensions\textext\default_packages.tex"
   ns3:scale="0.8"
   ns3:alignment="middle center"
   ns3:stroke-to-path="0"
   ns3:jacobian_sqrt="1.06666"
   id="g1115"
   style="stroke-width:1.12804"><defs
   id="id-4ca33ef4-7886-4c0e-b03b-4ccec07f1932" />
  <g
   fill="#000000"
   fill-opacity="1"
   id="id-ba0710bf-6e17-4a9a-8046-5b93dd2b956d"
   transform="translate(-149.134,-127.734)"
   style="stroke-width:1.27247">
    <g
   transform="translate(148.712,134.765)"
   id="g1104"
   style="stroke-width:1.12804"><path
   d="m 4.53125,-4.984375 c 0,-0.65625 -0.171875,-2.046875 -1.1875,-2.046875 -1.390625,0 -2.921875,2.8125 -2.921875,5.09375 0,0.9375 0.28125,2.046875 1.1875,2.046875 1.40625,0 2.921875,-2.859375 2.921875,-5.09375 z M 1.46875,-3.625 C 1.640625,-4.25 1.84375,-5.046875 2.25,-5.765625 2.515625,-6.25 2.875,-6.8125 3.328125,-6.8125 c 0.484375,0 0.546875,0.640625 0.546875,1.203125 0,0.5 -0.078125,1 -0.3125,1.984375 z m 2,0.328125 C 3.359375,-2.84375 3.15625,-2 2.765625,-1.28125 c -0.34375,0.6875 -0.71875,1.171875 -1.15625,1.171875 -0.328125,0 -0.53125,-0.296875 -0.53125,-1.21875 0,-0.421875 0.0625,-1 0.3125,-1.96875 z m 0,0"
   id="id-20f99992-14ee-4555-9510-d1a8e8de89b1"
   style="stroke-width:1.12804" />
      </g></g>
  <g
   fill="#000000"
   fill-opacity="1"
   id="id-afe03823-ea11-4f26-9b14-c771518ef06a"
   transform="translate(-149.134,-127.734)"
   style="stroke-width:1.27247">
    <g
   transform="translate(153.389,136.259)"
   id="g1108"
   style="stroke-width:1.12804"><path
   d="M 2.84375,-2.75 H 3.515625 C 3.65625,-2.75 3.75,-2.75 3.75,-2.90625 3.75,-3 3.65625,-3 3.53125,-3 H 2.890625 c 0.15625,-0.890625 0.203125,-1.203125 0.265625,-1.40625 0.03125,-0.15625 0.1875,-0.296875 0.359375,-0.296875 0,0 0.1875,0 0.328125,0.078125 -0.296875,0.09375 -0.3125,0.34375 -0.3125,0.375 0,0.15625 0.125,0.265625 0.28125,0.265625 0.1875,0 0.390625,-0.15625 0.390625,-0.421875 0,-0.328125 -0.328125,-0.5 -0.6875,-0.5 -0.3125,0 -0.65625,0.171875 -0.84375,0.515625 C 2.53125,-4.125 2.484375,-3.8125 2.328125,-3 H 1.78125 c -0.140625,0 -0.234375,0 -0.234375,0.15625 0,0.09375 0.09375,0.09375 0.21875,0.09375 H 2.28125 c 0,0.046875 -0.4375,2.546875 -0.609375,3.296875 -0.03125,0.15625 -0.15625,0.671875 -0.484375,0.671875 -0.015625,0 -0.171875,0 -0.3125,-0.078125 0.28125,-0.09375 0.3125,-0.34375 0.3125,-0.375 C 1.1875,0.609375 1.0625,0.5 0.90625,0.5 c -0.1875,0 -0.390625,0.15625 -0.390625,0.421875 0,0.3125 0.328125,0.5 0.671875,0.5 0.4375,0 0.75,-0.453125 0.828125,-0.609375 0.25,-0.46875 0.421875,-1.328125 0.4375,-1.40625 z m 0,0"
   id="id-1a8e114d-9ead-4af2-9bd7-cdfa0ec9ef79"
   style="stroke-width:1.12804" />
      </g></g>
  <g
   fill="#000000"
   fill-opacity="1"
   id="id-cb680e87-7164-492e-ab57-7859a5c5bb36"
   transform="translate(-149.134,-127.734)"
   style="stroke-width:1.27247">
    <g
   transform="translate(158.055,136.259)"
   id="g1112"
   style="stroke-width:1.12804"><path
   d="m 1.5625,-1.59375 c 0.1875,0 0.75,-0.015625 1.125,-0.140625 0.515625,-0.1875 0.609375,-0.515625 0.609375,-0.71875 0,-0.390625 -0.390625,-0.625 -0.859375,-0.625 -0.84375,0 -1.96875,0.640625 -1.96875,1.84375 0,0.703125 0.4375,1.296875 1.25,1.296875 1.1875,0 1.734375,-0.6875 1.734375,-0.78125 0,-0.046875 -0.0625,-0.125 -0.125,-0.125 -0.03125,0 -0.046875,0.015625 -0.109375,0.078125 C 2.671875,-0.125 1.859375,-0.125 1.734375,-0.125 1.3125,-0.125 1.03125,-0.40625 1.03125,-0.96875 c 0,-0.09375 0,-0.234375 0.09375,-0.625 z M 1.171875,-1.78125 C 1.46875,-2.796875 2.234375,-2.875 2.4375,-2.875 2.734375,-2.875 3,-2.71875 3,-2.453125 3,-1.78125 1.8125,-1.78125 1.515625,-1.78125 Z m 0,0"
   id="id-ea4753e8-2d9a-4df1-881d-c67ff10e9a36"
   style="stroke-width:1.12804" />
      </g></g>
</g><g
   transform="matrix(0.89272574,0,0,0.94341003,-37353.49,-21703.149)"
   ns3:version="1.8.1"
   ns3:texconverter="pdflatex"
   ns3:pdfconverter="inkscape"
   ns3:text="$\\theta_{f}$"
   ns3:preamble="C:\Users\kmajd1\AppData\Roaming\inkscape\extensions\textext\default_packages.tex"
   ns3:scale="0.8"
   ns3:alignment="middle center"
   ns3:stroke-to-path="0"
   ns3:jacobian_sqrt="1.06666"
   id="g1273"
   style="stroke-width:1.1623"><defs
   id="id-a2c33306-a4cb-49e0-95e9-d13d9c3af723" />
  <g
   fill="#000000"
   fill-opacity="1"
   id="id-3b4787d8-6de9-405e-9ed6-47d52f24448f"
   transform="translate(-149.134,-127.734)"
   style="stroke-width:1.35093">
    <g
   transform="translate(148.712,134.765)"
   id="g1266"
   style="stroke-width:1.1623"><path
   d="m 4.53125,-4.984375 c 0,-0.65625 -0.171875,-2.046875 -1.1875,-2.046875 -1.390625,0 -2.921875,2.8125 -2.921875,5.09375 0,0.9375 0.28125,2.046875 1.1875,2.046875 1.40625,0 2.921875,-2.859375 2.921875,-5.09375 z M 1.46875,-3.625 C 1.640625,-4.25 1.84375,-5.046875 2.25,-5.765625 2.515625,-6.25 2.875,-6.8125 3.328125,-6.8125 c 0.484375,0 0.546875,0.640625 0.546875,1.203125 0,0.5 -0.078125,1 -0.3125,1.984375 z m 2,0.328125 C 3.359375,-2.84375 3.15625,-2 2.765625,-1.28125 c -0.34375,0.6875 -0.71875,1.171875 -1.15625,1.171875 -0.328125,0 -0.53125,-0.296875 -0.53125,-1.21875 0,-0.421875 0.0625,-1 0.3125,-1.96875 z m 0,0"
   id="id-4b52ae49-f681-4913-acc9-5ea8766ad9bc"
   style="stroke-width:1.1623" />
      </g></g>
  <g
   fill="#000000"
   fill-opacity="1"
   id="id-0a536695-0542-4253-b54f-a369d8272e7f"
   transform="translate(-149.134,-127.734)"
   style="stroke-width:1.35093">
    <g
   transform="translate(153.389,136.259)"
   id="g1270"
   style="stroke-width:1.1623"><path
   d="M 2.84375,-2.75 H 3.515625 C 3.65625,-2.75 3.75,-2.75 3.75,-2.90625 3.75,-3 3.65625,-3 3.53125,-3 H 2.890625 c 0.15625,-0.890625 0.203125,-1.203125 0.265625,-1.40625 0.03125,-0.15625 0.1875,-0.296875 0.359375,-0.296875 0,0 0.1875,0 0.328125,0.078125 -0.296875,0.09375 -0.3125,0.34375 -0.3125,0.375 0,0.15625 0.125,0.265625 0.28125,0.265625 0.1875,0 0.390625,-0.15625 0.390625,-0.421875 0,-0.328125 -0.328125,-0.5 -0.6875,-0.5 -0.3125,0 -0.65625,0.171875 -0.84375,0.515625 C 2.53125,-4.125 2.484375,-3.8125 2.328125,-3 H 1.78125 c -0.140625,0 -0.234375,0 -0.234375,0.15625 0,0.09375 0.09375,0.09375 0.21875,0.09375 H 2.28125 c 0,0.046875 -0.4375,2.546875 -0.609375,3.296875 -0.03125,0.15625 -0.15625,0.671875 -0.484375,0.671875 -0.015625,0 -0.171875,0 -0.3125,-0.078125 0.28125,-0.09375 0.3125,-0.34375 0.3125,-0.375 C 1.1875,0.609375 1.0625,0.5 0.90625,0.5 c -0.1875,0 -0.390625,0.15625 -0.390625,0.421875 0,0.3125 0.328125,0.5 0.671875,0.5 0.4375,0 0.75,-0.453125 0.828125,-0.609375 0.25,-0.46875 0.421875,-1.328125 0.4375,-1.40625 z m 0,0"
   id="id-ac61d777-c9e8-4d59-8448-034125af2b3b"
   style="stroke-width:1.1623" />
      </g></g>
</g><g
   transform="matrix(0.91786664,0,0,0.9524524,-37332.288,-21709.535)"
   ns3:version="1.8.1"
   ns3:texconverter="pdflatex"
   ns3:pdfconverter="inkscape"
   ns3:text="$\\theta_{a}$"
   ns3:preamble="C:\Users\kmajd1\AppData\Roaming\inkscape\extensions\textext\default_packages.tex"
   ns3:scale="0.8"
   ns3:alignment="middle center"
   ns3:stroke-to-path="0"
   ns3:jacobian_sqrt="1.06666"
   id="g1456"
   style="stroke-width:1.14081"><defs
   id="id-3e4b1822-236c-4401-af9a-6a696696a1fc" />
  <g
   fill="#000000"
   fill-opacity="1"
   id="id-9e207580-de96-4c1f-985c-bd840bac0890"
   transform="translate(-149.134,-127.734)"
   style="stroke-width:1.30146">
    <g
   transform="translate(148.712,134.765)"
   id="g1449"
   style="stroke-width:1.14081"><path
   d="m 4.53125,-4.984375 c 0,-0.65625 -0.171875,-2.046875 -1.1875,-2.046875 -1.390625,0 -2.921875,2.8125 -2.921875,5.09375 0,0.9375 0.28125,2.046875 1.1875,2.046875 1.40625,0 2.921875,-2.859375 2.921875,-5.09375 z M 1.46875,-3.625 C 1.640625,-4.25 1.84375,-5.046875 2.25,-5.765625 2.515625,-6.25 2.875,-6.8125 3.328125,-6.8125 c 0.484375,0 0.546875,0.640625 0.546875,1.203125 0,0.5 -0.078125,1 -0.3125,1.984375 z m 2,0.328125 C 3.359375,-2.84375 3.15625,-2 2.765625,-1.28125 c -0.34375,0.6875 -0.71875,1.171875 -1.15625,1.171875 -0.328125,0 -0.53125,-0.296875 -0.53125,-1.21875 0,-0.421875 0.0625,-1 0.3125,-1.96875 z m 0,0"
   id="id-648ed2d4-dc2e-4356-b035-135d22cd8011"
   style="stroke-width:1.14081" />
      </g></g>
  <g
   fill="#000000"
   fill-opacity="1"
   id="id-c0fe6074-0e41-4391-a74b-5589b89fac2c"
   transform="translate(-149.134,-127.734)"
   style="stroke-width:1.30146">
    <g
   transform="translate(153.389,136.259)"
   id="g1453"
   style="stroke-width:1.14081"><path
   d="m 2.9375,-2.65625 c -0.140625,-0.234375 -0.375,-0.421875 -0.71875,-0.421875 -0.890625,0 -1.796875,0.984375 -1.796875,1.984375 0,0.6875 0.453125,1.15625 1.0625,1.15625 0.375,0 0.703125,-0.203125 0.984375,-0.484375 C 2.59375,0 3,0.0625 3.1875,0.0625 c 0.25,0 0.421875,-0.140625 0.546875,-0.359375 0.15625,-0.28125 0.25,-0.671875 0.25,-0.703125 0,-0.09375 -0.09375,-0.09375 -0.109375,-0.09375 -0.109375,0 -0.109375,0.03125 -0.15625,0.21875 C 3.625,-0.53125 3.5,-0.125 3.203125,-0.125 3.03125,-0.125 2.96875,-0.28125 2.96875,-0.46875 c 0,-0.109375 0.0625,-0.375 0.109375,-0.546875 0.046875,-0.1875 0.125,-0.46875 0.15625,-0.625 L 3.375,-2.171875 C 3.421875,-2.359375 3.5,-2.6875 3.5,-2.71875 3.5,-2.875 3.375,-2.9375 3.265625,-2.9375 c -0.125,0 -0.28125,0.078125 -0.328125,0.28125 z M 2.5,-0.875 C 2.453125,-0.671875 2.296875,-0.53125 2.140625,-0.40625 2.078125,-0.34375 1.796875,-0.125 1.5,-0.125 c -0.265625,0 -0.515625,-0.1875 -0.515625,-0.671875 0,-0.375 0.203125,-1.140625 0.375,-1.421875 0.3125,-0.5625 0.671875,-0.65625 0.859375,-0.65625 0.484375,0 0.625,0.53125 0.625,0.609375 0,0.015625 -0.015625,0.078125 -0.015625,0.09375 z m 0,0"
   id="id-5138bfaf-8381-45ad-a5c8-7575e6082d99"
   style="stroke-width:1.14081" />
      </g></g>
</g></svg>
