<?xml version="1.0" encoding="utf-8" standalone="no"?>
<!DOCTYPE svg PUBLIC "-//W3C//DTD SVG 1.1//EN"
  "http://www.w3.org/Graphics/SVG/1.1/DTD/svg11.dtd">
<svg xmlns:xlink="http://www.w3.org/1999/xlink" width="936pt" height="288pt" viewBox="0 0 936 288" xmlns="http://www.w3.org/2000/svg" version="1.1">
 <metadata>
  <rdf:RDF xmlns:dc="http://purl.org/dc/elements/1.1/" xmlns:cc="http://creativecommons.org/ns#" xmlns:rdf="http://www.w3.org/1999/02/22-rdf-syntax-ns#">
   <cc:Work>
    <dc:type rdf:resource="http://purl.org/dc/dcmitype/StillImage"/>
    <dc:date>2022-09-29T20:21:32.468155</dc:date>
    <dc:format>image/svg+xml</dc:format>
    <dc:creator>
     <cc:Agent>
      <dc:title>Matplotlib v3.5.2, https://matplotlib.org/</dc:title>
     </cc:Agent>
    </dc:creator>
   </cc:Work>
  </rdf:RDF>
 </metadata>
 <defs>
  <style type="text/css">*{stroke-linejoin: round; stroke-linecap: butt}</style>
 </defs>
 <g id="figure_1">
  <g id="patch_1">
   <path d="M 0 288 
L 936 288 
L 936 0 
L 0 0 
z
" style="fill: #ffffff"/>
  </g>
  <g id="axes_1">
   <g id="patch_2">
    <path d="M 60.026767 118.92795 
L 918.371511 118.92795 
L 918.371511 12.301502 
L 60.026767 12.301502 
z
" style="fill: #ffffff"/>
   </g>
   <g id="patch_3">
    <path d="M 174.805425 118.92795 
L 174.805425 12.301502 
L 294.574459 12.301502 
L 294.574459 118.92795 
z
" clip-path="url(#pf4708ef2f1)" style="fill: #d4d4d4; opacity: 0.5; stroke: #d4d4d4; stroke-linejoin: miter"/>
   </g>
   <g id="patch_4">
    <path d="M 728.737207 118.92795 
L 728.737207 12.301502 
L 883.438876 12.301502 
L 883.438876 118.92795 
z
" clip-path="url(#pf4708ef2f1)" style="fill: #d4d4d4; opacity: 0.5; stroke: #d4d4d4; stroke-linejoin: miter"/>
   </g>
   <g id="patch_5">
    <path d="M 1710.34425 118.92795 
L 1710.34425 12.301502 
L 1831.610397 12.301502 
L 1831.610397 118.92795 
z
" clip-path="url(#pf4708ef2f1)" style="fill: #d4d4d4; opacity: 0.5; stroke: #d4d4d4; stroke-linejoin: miter"/>
   </g>
   <g id="matplotlib.axis_1">
    <g id="xtick_1">
     <g id="line2d_1">
      <path d="M 60.026767 118.92795 
L 60.026767 12.301502 
" clip-path="url(#pf4708ef2f1)" style="fill: none; stroke-dasharray: 2.96,1.28; stroke-dashoffset: 0; stroke: #7f7f7f; stroke-opacity: 0.2; stroke-width: 0.8"/>
     </g>
     <g id="line2d_2">
      <defs>
       <path id="m2cac026775" d="M 0 0 
L 0 3.5 
" style="stroke: #000000; stroke-width: 0.8"/>
      </defs>
      <g>
       <use xlink:href="#m2cac026775" x="60.026767" y="118.92795" style="stroke: #000000; stroke-width: 0.8"/>
      </g>
     </g>
    </g>
    <g id="xtick_2">
     <g id="line2d_3">
      <path d="M 274.612953 118.92795 
L 274.612953 12.301502 
" clip-path="url(#pf4708ef2f1)" style="fill: none; stroke-dasharray: 2.96,1.28; stroke-dashoffset: 0; stroke: #7f7f7f; stroke-opacity: 0.2; stroke-width: 0.8"/>
     </g>
     <g id="line2d_4">
      <g>
       <use xlink:href="#m2cac026775" x="274.612953" y="118.92795" style="stroke: #000000; stroke-width: 0.8"/>
      </g>
     </g>
    </g>
    <g id="xtick_3">
     <g id="line2d_5">
      <path d="M 489.199139 118.92795 
L 489.199139 12.301502 
" clip-path="url(#pf4708ef2f1)" style="fill: none; stroke-dasharray: 2.96,1.28; stroke-dashoffset: 0; stroke: #7f7f7f; stroke-opacity: 0.2; stroke-width: 0.8"/>
     </g>
     <g id="line2d_6">
      <g>
       <use xlink:href="#m2cac026775" x="489.199139" y="118.92795" style="stroke: #000000; stroke-width: 0.8"/>
      </g>
     </g>
    </g>
    <g id="xtick_4">
     <g id="line2d_7">
      <path d="M 703.785325 118.92795 
L 703.785325 12.301502 
" clip-path="url(#pf4708ef2f1)" style="fill: none; stroke-dasharray: 2.96,1.28; stroke-dashoffset: 0; stroke: #7f7f7f; stroke-opacity: 0.2; stroke-width: 0.8"/>
     </g>
     <g id="line2d_8">
      <g>
       <use xlink:href="#m2cac026775" x="703.785325" y="118.92795" style="stroke: #000000; stroke-width: 0.8"/>
      </g>
     </g>
    </g>
    <g id="xtick_5">
     <g id="line2d_9">
      <path d="M 918.371511 118.92795 
L 918.371511 12.301502 
" clip-path="url(#pf4708ef2f1)" style="fill: none; stroke-dasharray: 2.96,1.28; stroke-dashoffset: 0; stroke: #7f7f7f; stroke-opacity: 0.2; stroke-width: 0.8"/>
     </g>
     <g id="line2d_10">
      <g>
       <use xlink:href="#m2cac026775" x="918.371511" y="118.92795" style="stroke: #000000; stroke-width: 0.8"/>
      </g>
     </g>
    </g>
   </g>
   <g id="matplotlib.axis_2">
    <g id="ytick_1">
     <g id="line2d_11">
      <path d="M 60.026767 104.20054 
L 918.371511 104.20054 
" clip-path="url(#pf4708ef2f1)" style="fill: none; stroke-dasharray: 2.96,1.28; stroke-dashoffset: 0; stroke: #7f7f7f; stroke-opacity: 0.2; stroke-width: 0.8"/>
     </g>
     <g id="line2d_12">
      <defs>
       <path id="m377b318863" d="M 0 0 
L -3.5 0 
" style="stroke: #000000; stroke-width: 0.8"/>
      </defs>
      <g>
       <use xlink:href="#m377b318863" x="60.026767" y="104.20054" style="stroke: #000000; stroke-width: 0.8"/>
      </g>
     </g>
     <g id="text_1">
      <!-- -10 -->
      <g transform="translate(34.817464 109.043479)scale(0.14 -0.14)">
       <defs>
        <path id="CMSS17-2d" d="M 1664 1216 
L 1664 1585 
L 64 1585 
L 64 1216 
L 1664 1216 
z
" transform="scale(0.015625)"/>
        <path id="CMSS17-31" d="M 1818 4288 
L 1696 4288 
C 1350 3940 947 3890 538 3890 
L 538 3520 
C 723 3520 1024 3520 1325 3667 
L 1325 369 
L 570 369 
L 570 0 
L 2573 0 
L 2573 369 
L 1818 369 
L 1818 4288 
z
" transform="scale(0.015625)"/>
        <path id="CMSS17-30" d="M 2758 2044 
C 2758 2405 2752 3077 2490 3596 
C 2227 4096 1805 4229 1504 4229 
C 1069 4229 698 3975 506 3570 
C 301 3146 243 2709 243 2044 
C 243 1589 262 1031 493 543 
C 755 5 1197 -128 1498 -128 
C 1894 -128 2278 81 2496 518 
C 2720 974 2758 1474 2758 2044 
z
M 1498 261 
C 1011 261 864 811 819 995 
C 742 1310 730 1614 730 2114 
C 730 2506 730 2948 851 3297 
C 998 3701 1254 3840 1498 3840 
C 1971 3840 2125 3372 2176 3208 
C 2272 2873 2272 2481 2272 2114 
C 2272 1526 2272 261 1498 261 
z
" transform="scale(0.015625)"/>
       </defs>
       <use xlink:href="#CMSS17-2d" transform="scale(0.996264)"/>
       <use xlink:href="#CMSS17-31" transform="translate(31.229113 0)scale(0.996264)"/>
       <use xlink:href="#CMSS17-30" transform="translate(78.072736 0)scale(0.996264)"/>
      </g>
     </g>
    </g>
    <g id="ytick_2">
     <g id="line2d_13">
      <path d="M 60.026767 74.74572 
L 918.371511 74.74572 
" clip-path="url(#pf4708ef2f1)" style="fill: none; stroke-dasharray: 2.96,1.28; stroke-dashoffset: 0; stroke: #7f7f7f; stroke-opacity: 0.2; stroke-width: 0.8"/>
     </g>
     <g id="line2d_14">
      <g>
       <use xlink:href="#m377b318863" x="60.026767" y="74.74572" style="stroke: #000000; stroke-width: 0.8"/>
      </g>
     </g>
     <g id="text_2">
      <!-- 0 -->
      <g transform="translate(46.198278 79.588659)scale(0.14 -0.14)">
       <use xlink:href="#CMSS17-30" transform="scale(0.996264)"/>
      </g>
     </g>
    </g>
    <g id="ytick_3">
     <g id="line2d_15">
      <path d="M 60.026767 45.2909 
L 918.371511 45.2909 
" clip-path="url(#pf4708ef2f1)" style="fill: none; stroke-dasharray: 2.96,1.28; stroke-dashoffset: 0; stroke: #7f7f7f; stroke-opacity: 0.2; stroke-width: 0.8"/>
     </g>
     <g id="line2d_16">
      <g>
       <use xlink:href="#m377b318863" x="60.026767" y="45.2909" style="stroke: #000000; stroke-width: 0.8"/>
      </g>
     </g>
     <g id="text_3">
      <!-- 10 -->
      <g transform="translate(39.36979 50.133838)scale(0.14 -0.14)">
       <use xlink:href="#CMSS17-31" transform="scale(0.996264)"/>
       <use xlink:href="#CMSS17-30" transform="translate(46.843624 0)scale(0.996264)"/>
      </g>
     </g>
    </g>
    <g id="ytick_4">
     <g id="line2d_17">
      <path d="M 60.026767 15.83608 
L 918.371511 15.83608 
" clip-path="url(#pf4708ef2f1)" style="fill: none; stroke-dasharray: 2.96,1.28; stroke-dashoffset: 0; stroke: #7f7f7f; stroke-opacity: 0.2; stroke-width: 0.8"/>
     </g>
     <g id="line2d_18">
      <g>
       <use xlink:href="#m377b318863" x="60.026767" y="15.83608" style="stroke: #000000; stroke-width: 0.8"/>
      </g>
     </g>
     <g id="text_4">
      <!-- 20 -->
      <g transform="translate(39.36979 20.679018)scale(0.14 -0.14)">
       <defs>
        <path id="CMSS17-32" d="M 1651 1357 
C 1830 1541 2099 1764 2285 1987 
C 2464 2204 2701 2511 2701 2957 
C 2701 3657 2227 4288 1421 4288 
C 787 4288 422 3893 250 3274 
L 499 2929 
C 640 3510 838 3880 1338 3880 
C 1888 3880 2195 3433 2195 2942 
C 2195 2355 1747 1901 1408 1563 
C 1030 1187 659 804 301 408 
L 301 0 
L 2701 0 
L 2701 433 
L 1613 433 
C 1536 433 1459 433 1382 433 
L 742 433 
L 742 439 
L 1651 1357 
z
" transform="scale(0.015625)"/>
       </defs>
       <use xlink:href="#CMSS17-32" transform="scale(0.996264)"/>
       <use xlink:href="#CMSS17-30" transform="translate(46.843624 0)scale(0.996264)"/>
      </g>
     </g>
    </g>
    <g id="text_5">
     <!-- Control [deg] -->
     <g transform="translate(27.33054 102.876788)rotate(-90)scale(0.14 -0.14)">
      <defs>
       <path id="CMSS17-43" d="M 3501 714 
C 3072 427 2874 344 2355 344 
C 1459 344 934 1303 934 2179 
C 934 3112 1472 4032 2381 4032 
C 2790 4032 3059 3918 3386 3715 
L 3475 4217 
C 3168 4370 2778 4440 2387 4440 
C 1158 4440 397 3316 397 2179 
C 397 927 1299 -64 2323 -64 
C 2874 -64 3066 -19 3539 280 
L 3501 714 
z
" transform="scale(0.015625)"/>
       <path id="CMSS17-6f" d="M 2829 1356 
C 2829 2176 2221 2816 1504 2816 
C 768 2816 173 2157 173 1356 
C 173 544 787 -64 1498 -64 
C 2227 -64 2829 563 2829 1356 
z
M 1504 337 
C 1050 337 659 709 659 1408 
C 659 2151 1114 2427 1498 2427 
C 1914 2427 2342 2126 2342 1408 
C 2342 683 1926 337 1504 337 
z
" transform="scale(0.015625)"/>
       <path id="CMSS17-6e" d="M 2618 1877 
C 2618 2283 2522 2816 1798 2816 
C 1389 2816 1120 2606 941 2389 
L 941 2758 
L 474 2758 
L 474 0 
L 960 0 
L 960 1559 
C 960 1964 1114 2428 1549 2428 
C 2112 2428 2131 2048 2131 1829 
L 2131 0 
L 2618 0 
L 2618 1877 
z
" transform="scale(0.015625)"/>
       <path id="CMSS17-74" d="M 1069 2368 
L 1901 2368 
L 1901 2737 
L 1069 2737 
L 1069 3520 
L 614 3520 
L 614 2737 
L 109 2737 
L 109 2368 
L 602 2368 
L 602 749 
C 602 384 685 -64 1107 -64 
C 1427 -64 1722 25 2003 172 
L 1901 548 
C 1747 414 1562 337 1363 337 
C 1082 337 1069 696 1069 856 
L 1069 2368 
z
" transform="scale(0.015625)"/>
       <path id="CMSS17-72" d="M 954 1363 
C 954 1965 1395 2368 1958 2368 
L 1958 2789 
C 1549 2789 1165 2585 934 2253 
L 934 2758 
L 480 2758 
L 480 0 
L 954 0 
L 954 1363 
z
" transform="scale(0.015625)"/>
       <path id="CMSS17-6c" d="M 947 4416 
L 474 4416 
L 474 0 
L 947 0 
L 947 4416 
z
" transform="scale(0.015625)"/>
       <path id="CMSS17-5b" d="M 1613 -1600 
L 1613 -1212 
L 1062 -1212 
L 1062 4352 
L 1613 4352 
L 1613 4741 
L 595 4741 
L 595 -1600 
L 1613 -1600 
z
" transform="scale(0.015625)"/>
       <path id="CMSS17-64" d="M 2611 4416 
L 2138 4416 
L 2138 2438 
C 1939 2603 1613 2756 1254 2756 
C 672 2756 211 2131 211 1347 
C 211 562 666 -64 1235 -64 
C 1677 -64 1971 172 2125 306 
L 2125 -13 
L 2611 -13 
L 2611 4416 
z
M 2125 836 
C 2125 747 2125 653 1926 482 
C 1798 375 1645 325 1498 325 
C 1152 325 698 576 698 1340 
C 698 2134 1210 2368 1562 2368 
C 1798 2368 1990 2254 2125 2065 
L 2125 836 
z
" transform="scale(0.015625)"/>
       <path id="CMSS17-65" d="M 2502 1377 
C 2502 1590 2490 2003 2285 2345 
C 2061 2713 1696 2816 1421 2816 
C 755 2816 192 2188 192 1375 
C 192 582 774 -64 1510 -64 
C 1798 -64 2150 19 2470 248 
C 2470 274 2458 414 2451 420 
C 2451 433 2432 630 2432 656 
C 2125 407 1773 325 1517 325 
C 1107 325 666 667 646 1377 
L 2502 1377 
z
M 698 1728 
C 781 2084 1062 2421 1421 2421 
C 1517 2421 1965 2421 2080 1728 
L 698 1728 
z
" transform="scale(0.015625)"/>
       <path id="CMSS17-67" d="M 2848 2808 
C 2483 2808 2170 2738 1914 2617 
C 1702 2777 1485 2808 1338 2808 
C 781 2808 358 2349 358 1814 
C 358 1468 550 1207 563 1195 
C 448 1035 384 863 384 672 
C 384 448 474 289 544 200 
C 211 -3 166 -314 166 -435 
C 166 -898 749 -1280 1498 -1280 
C 2253 -1280 2835 -898 2835 -428 
C 2835 448 1856 448 1587 448 
L 1069 448 
C 973 448 717 448 717 791 
C 717 921 774 1004 781 1010 
C 877 940 1075 832 1338 832 
C 1869 832 2310 1278 2310 1827 
C 2310 2132 2170 2355 2112 2432 
L 2131 2432 
C 2150 2432 2419 2432 2515 2432 
C 2720 2432 2739 2429 2918 2419 
L 2848 2808 
z
M 1338 1182 
C 1120 1182 813 1315 813 1823 
C 813 2375 1165 2464 1331 2464 
C 1549 2464 1856 2331 1856 1823 
C 1856 1271 1504 1182 1338 1182 
z
M 1581 -10 
C 1734 -10 2381 -10 2381 -442 
C 2381 -714 1984 -929 1504 -929 
C 1018 -929 621 -720 621 -435 
C 621 -403 621 -10 1062 -10 
L 1581 -10 
z
" transform="scale(0.015625)"/>
       <path id="CMSS17-5d" d="M 1146 4741 
L 128 4741 
L 128 4352 
L 678 4352 
L 678 -1212 
L 128 -1212 
L 128 -1600 
L 1146 -1600 
L 1146 4741 
z
" transform="scale(0.015625)"/>
      </defs>
      <use xlink:href="#CMSS17-43" transform="scale(0.996264)"/>
      <use xlink:href="#CMSS17-6f" transform="translate(59.855772 0)scale(0.996264)"/>
      <use xlink:href="#CMSS17-6e" transform="translate(106.699395 0)scale(0.996264)"/>
      <use xlink:href="#CMSS17-74" transform="translate(154.904338 0)scale(0.996264)"/>
      <use xlink:href="#CMSS17-72" transform="translate(188.735905 0)scale(0.996264)"/>
      <use xlink:href="#CMSS17-6f" transform="translate(220.645677 0)scale(0.996264)"/>
      <use xlink:href="#CMSS17-6c" transform="translate(267.489301 0)scale(0.996264)"/>
      <use xlink:href="#CMSS17-5b" transform="translate(320.899137 0)scale(0.996264)"/>
      <use xlink:href="#CMSS17-64" transform="translate(348.084575 0)scale(0.996264)"/>
      <use xlink:href="#CMSS17-65" transform="translate(396.289519 0)scale(0.996264)"/>
      <use xlink:href="#CMSS17-67" transform="translate(437.928341 0)scale(0.996264)"/>
      <use xlink:href="#CMSS17-5d" transform="translate(484.771964 0)scale(0.996264)"/>
     </g>
    </g>
   </g>
   <g id="line2d_19">
    <path d="M 60.026767 45.2909 
L 918.371511 45.2909 
" clip-path="url(#pf4708ef2f1)" style="fill: none; stroke-dasharray: 5,7; stroke-dashoffset: 0; stroke: #696969"/>
   </g>
   <g id="line2d_20">
    <path d="M 60.026767 73.680831 
L 65.046327 71.272136 
L 70.065887 70.83278 
L 75.085447 69.228036 
L 85.124566 67.485899 
L 105.202806 64.156085 
L 110.222366 63.75267 
L 115.241926 62.032323 
L 125.281046 59.748028 
L 130.300606 59.334042 
L 140.339725 57.219493 
L 145.359285 55.340263 
L 150.378845 54.041036 
L 155.398405 52.50186 
L 160.417965 50.738164 
L 190.535324 39.258527 
L 200.574444 35.151513 
L 205.594004 32.989788 
L 210.613564 32.189832 
L 215.633124 29.964231 
L 220.652684 27.572097 
L 225.672244 23.462857 
L 230.691804 21.264436 
L 235.711364 19.613237 
L 240.730924 20.040221 
L 245.750483 16.770718 
L 250.770043 15.900076 
L 260.809163 15.404456 
L 265.828723 17.720822 
L 270.848283 16.329964 
L 275.867843 17.871212 
L 280.887403 16.490955 
L 285.906963 24.307695 
L 290.926523 29.483182 
L 295.946083 41.643166 
L 300.965642 51.804963 
L 305.985202 50.247592 
L 311.004762 61.719043 
L 316.024322 69.832411 
L 321.043882 78.710532 
L 326.063442 89.01727 
L 331.083002 90.93077 
L 336.102562 104.01029 
L 341.122122 108.553841 
L 346.141682 109.929828 
L 351.161242 105.162352 
L 356.180801 100.013905 
L 361.200361 96.357491 
L 366.219921 94.557565 
L 371.239481 92.180171 
L 376.259041 91.150492 
L 381.278601 91.117009 
L 386.298161 88.966179 
L 391.317721 84.104725 
L 396.337281 80.699101 
L 401.356841 81.450382 
L 406.376401 77.710787 
L 411.39596 74.766451 
L 416.41552 72.831108 
L 421.43508 66.930115 
L 426.45464 64.768308 
L 431.4742 63.348506 
L 436.49376 68.154898 
L 441.51332 62.549904 
L 446.53288 62.476223 
L 451.55244 62.893878 
L 456.572 63.988038 
L 461.59156 72.642565 
L 466.611119 70.661617 
L 471.630679 73.245129 
L 476.650239 75.968245 
L 481.669799 78.562929 
L 486.689359 86.749138 
L 491.708919 85.068436 
L 496.728479 87.346141 
L 501.748039 91.321714 
L 506.767599 84.951838 
L 511.787159 86.206408 
L 516.806719 77.683112 
L 521.826279 73.770004 
L 526.845838 71.781187 
L 531.865398 67.07446 
L 536.884958 59.276934 
L 541.904518 58.9378 
L 546.924078 59.901033 
L 551.943638 61.762803 
L 556.963198 64.367836 
L 561.982758 69.234206 
L 567.002318 71.95537 
L 572.021878 75.742971 
L 577.041438 78.517743 
L 582.060997 79.56614 
L 587.080557 84.625952 
L 592.100117 86.551253 
L 597.119677 81.425275 
L 607.158797 79.560174 
L 612.178357 77.577827 
L 617.197917 77.8443 
L 622.217477 75.707119 
L 627.237037 75.658933 
L 632.256597 74.402941 
L 637.276156 73.975115 
L 642.295716 70.90866 
L 647.315276 70.101219 
L 652.334836 66.218798 
L 657.354396 65.732216 
L 662.373956 63.620049 
L 667.393516 63.218001 
L 672.413076 61.599696 
L 677.432636 61.268795 
L 682.452196 60.118645 
L 687.471756 59.168399 
L 692.491315 57.926014 
L 712.569555 52.152544 
L 722.608675 49.806956 
L 737.667355 46.222319 
L 747.706474 43.487609 
L 757.745594 40.666028 
L 762.765154 39.342382 
L 767.784714 37.178296 
L 772.804274 36.836735 
L 777.823834 35.428619 
L 782.843394 34.162667 
L 797.902074 29.800375 
L 802.921633 29.666904 
L 807.941193 26.827789 
L 817.980313 23.941369 
L 833.038993 20.367608 
L 838.058553 19.540062 
L 843.078113 18.950784 
L 848.097673 18.598661 
L 853.117233 18.945767 
L 858.136792 22.68607 
L 863.156352 22.0127 
L 868.175912 25.298929 
L 873.195472 29.902261 
L 878.215032 35.604689 
L 883.234592 36.10882 
L 888.254152 53.686778 
L 893.273712 59.009733 
L 908.332392 85.75621 
L 913.351951 95.422163 
L 918.371511 104.671446 
L 918.371511 104.671446 
" clip-path="url(#pf4708ef2f1)" style="fill: none; stroke-dasharray: 7.4,3.2; stroke-dashoffset: 0; stroke: #000000; stroke-width: 2"/>
   </g>
   <g id="line2d_21">
    <path d="M 60.026767 70.152542 
L 65.046327 68.026602 
L 70.065887 66.74928 
L 75.085447 66.006203 
L 80.105006 65.57414 
L 85.124566 65.33895 
L 90.144126 64.754332 
L 95.163686 63.615406 
L 100.183246 62.232717 
L 110.222366 60.106024 
L 120.261486 58.449425 
L 130.300606 56.9959 
L 145.359285 54.48536 
L 150.378845 53.324728 
L 155.398405 51.654281 
L 160.417965 50.110713 
L 165.437525 48.711811 
L 170.457085 47.165184 
L 175.476645 45.400848 
L 185.515765 42.058653 
L 200.574444 36.452305 
L 210.613564 33.054182 
L 225.672244 27.902085 
L 230.691804 26.78208 
L 240.730924 25.171725 
L 250.770043 23.836705 
L 260.809163 23.00149 
L 265.828723 23.338596 
L 270.848283 24.29306 
L 275.867843 25.745306 
L 280.887403 28.185444 
L 285.906963 31.311521 
L 290.926523 36.086398 
L 295.946083 42.623543 
L 300.965642 50.410569 
L 305.985202 59.072303 
L 311.004762 66.769671 
L 316.024322 77.225194 
L 321.043882 85.44502 
L 331.083002 104.213296 
L 336.102562 111.612075 
L 341.122122 114.954717 
L 346.141682 114.930074 
L 351.161242 113.429998 
L 356.180801 108.737883 
L 361.200361 103.755053 
L 366.219921 99.658358 
L 371.239481 97.259387 
L 381.278601 91.902808 
L 396.337281 83.582135 
L 401.356841 80.209492 
L 406.376401 77.815439 
L 411.39596 74.177124 
L 416.41552 72.158407 
L 421.43508 70.928272 
L 426.45464 69.175861 
L 431.4742 67.845463 
L 436.49376 66.102583 
L 441.51332 64.80296 
L 446.53288 64.052783 
L 451.55244 64.057567 
L 456.572 65.369544 
L 461.59156 67.498462 
L 466.611119 70.801272 
L 471.630679 73.708318 
L 476.650239 76.169096 
L 481.669799 77.118777 
L 486.689359 78.229499 
L 496.728479 79.67101 
L 501.748039 79.483823 
L 506.767599 76.328528 
L 511.787159 72.805434 
L 516.806719 70.205422 
L 521.826279 66.84691 
L 526.845838 62.179984 
L 531.865398 59.042464 
L 536.884958 57.562754 
L 541.904518 55.314 
L 546.924078 54.734982 
L 551.943638 55.65582 
L 561.982758 60.707728 
L 567.002318 63.769247 
L 572.021878 69.366173 
L 577.041438 73.485077 
L 582.060997 75.808345 
L 587.080557 77.067476 
L 592.100117 78.101907 
L 597.119677 77.733704 
L 602.139237 76.944049 
L 607.158797 77.255322 
L 612.178357 77.1044 
L 617.197917 75.905039 
L 622.217477 75.16392 
L 627.237037 73.866253 
L 632.256597 73.534838 
L 637.276156 71.934447 
L 642.295716 70.111591 
L 647.315276 68.095574 
L 652.334836 66.416471 
L 657.354396 65.453633 
L 672.413076 63.567103 
L 692.491315 58.991337 
L 697.510875 57.981074 
L 712.569555 54.453972 
L 717.589115 53.465237 
L 727.628235 51.724634 
L 732.647795 50.674382 
L 747.706474 47.219906 
L 757.745594 45.037363 
L 762.765154 43.625878 
L 767.784714 42.338688 
L 787.862954 35.993931 
L 802.921633 31.343187 
L 807.941193 29.681278 
L 812.960753 27.803601 
L 817.980313 25.795666 
L 822.999873 24.856506 
L 833.038993 23.248651 
L 838.058553 22.619288 
L 843.078113 22.181309 
L 848.097673 22.044307 
L 853.117233 22.679867 
L 858.136792 24.544693 
L 863.156352 27.800879 
L 868.175912 32.003014 
L 873.195472 37.403491 
L 878.215032 44.275458 
L 888.254152 60.975964 
L 893.273712 69.886321 
L 898.293272 79.608446 
L 903.312832 87.679646 
L 913.351951 105.847573 
L 918.371511 111.880435 
L 918.371511 111.880435 
" clip-path="url(#pf4708ef2f1)" style="fill: none; stroke: #2e8b57; stroke-width: 2; stroke-linecap: square"/>
   </g>
   <g id="line2d_22">
    <path d="M 60.026767 70.701995 
L 65.046327 68.697594 
L 70.065887 67.786042 
L 80.105006 67.032369 
L 85.124566 66.822773 
L 90.144126 66.491205 
L 95.163686 65.901893 
L 100.183246 65.199255 
L 110.222366 64.092978 
L 125.281046 62.863265 
L 140.339725 61.608869 
L 145.359285 61.143175 
L 150.378845 60.539439 
L 160.417965 58.985711 
L 170.457085 57.557386 
L 180.496205 55.817512 
L 190.535324 53.983746 
L 200.574444 52.082212 
L 225.672244 47.73001 
L 230.691804 47.146234 
L 245.750483 45.956185 
L 250.770043 45.598219 
L 260.809163 45.126114 
L 265.828723 45.290869 
L 270.848283 45.771677 
L 275.867843 46.483351 
L 280.887403 47.702593 
L 285.906963 49.248636 
L 290.926523 51.651568 
L 295.946083 54.986623 
L 300.965642 58.896268 
L 305.985202 63.106576 
L 311.004762 65.732942 
L 316.024322 71.247829 
L 321.043882 78.973818 
L 326.063442 88.404803 
L 331.083002 100.498311 
L 336.102562 109.311897 
L 341.122122 113.118516 
L 346.141682 113.382008 
L 351.161242 111.797617 
L 361.200361 99.892709 
L 366.219921 95.58648 
L 371.239481 93.383267 
L 386.298161 84.803733 
L 391.317721 82.239678 
L 401.356841 77.739089 
L 406.376401 76.48654 
L 411.39596 72.962604 
L 416.41552 71.548732 
L 421.43508 70.556016 
L 426.45464 69.111911 
L 431.4742 68.691181 
L 441.51332 67.375382 
L 446.53288 67.101779 
L 451.55244 67.123688 
L 456.572 67.28267 
L 461.59156 68.531691 
L 466.611119 71.867137 
L 471.630679 73.385534 
L 476.650239 74.235648 
L 481.669799 74.539151 
L 486.689359 74.623671 
L 496.728479 75.562441 
L 501.748039 75.903851 
L 506.767599 76.559546 
L 511.787159 75.152896 
L 516.806719 72.127343 
L 521.826279 67.224832 
L 526.845838 62.028804 
L 531.865398 57.927046 
L 536.884958 56.072954 
L 541.904518 54.00828 
L 546.924078 53.915551 
L 551.943638 55.40214 
L 556.963198 57.600454 
L 561.982758 59.538118 
L 567.002318 64.496499 
L 572.021878 70.635769 
L 577.041438 72.06654 
L 582.060997 74.909018 
L 587.080557 76.082823 
L 592.100117 76.938642 
L 597.119677 76.541656 
L 602.139237 75.877302 
L 607.158797 77.125356 
L 612.178357 76.619009 
L 617.197917 74.948105 
L 622.217477 74.469115 
L 627.237037 73.418713 
L 632.256597 73.260243 
L 637.276156 72.10741 
L 642.295716 70.76816 
L 647.315276 69.061005 
L 652.334836 67.706892 
L 657.354396 67.165855 
L 672.413076 66.008265 
L 687.471756 64.209051 
L 702.530435 62.553429 
L 712.569555 61.363606 
L 737.667355 58.81368 
L 757.745594 56.4676 
L 777.823834 53.474036 
L 787.862954 51.862138 
L 807.941193 48.661344 
L 817.980313 46.6893 
L 833.038993 45.354578 
L 843.078113 44.722605 
L 848.097673 44.608452 
L 853.117233 44.912633 
L 858.136792 45.842571 
L 863.156352 47.465983 
L 868.175912 49.558121 
L 873.195472 52.306249 
L 878.215032 55.754809 
L 883.234592 60.054979 
L 888.254152 63.641929 
L 893.273712 66.625145 
L 898.293272 73.101334 
L 903.312832 80.896912 
L 908.332392 90.515651 
L 913.351951 102.399991 
L 918.371511 109.60689 
L 918.371511 109.60689 
" clip-path="url(#pf4708ef2f1)" style="fill: none; stroke: #dc143c; stroke-width: 2; stroke-linecap: square"/>
   </g>
   <g id="line2d_23">
    <path d="M 60.026767 72.136046 
L 65.046327 69.152961 
L 70.065887 67.591652 
L 75.085447 66.807984 
L 80.105006 65.770854 
L 85.124566 63.493588 
L 90.144126 63.29831 
L 95.163686 63.843956 
L 100.183246 64.53571 
L 105.202806 64.3837 
L 110.222366 62.923684 
L 115.241926 61.935111 
L 120.261486 61.433986 
L 130.300606 59.838831 
L 140.339725 57.346768 
L 150.378845 55.968138 
L 155.398405 53.130034 
L 160.417965 50.710599 
L 165.437525 48.599177 
L 170.457085 46.95388 
L 175.476645 46.035442 
L 180.496205 45.507328 
L 185.515765 45.402728 
L 190.535324 45.689617 
L 195.554884 45.705993 
L 205.594004 45.265692 
L 225.672244 45.577 
L 265.828723 45.294274 
L 270.848283 44.895327 
L 275.867843 45.035601 
L 280.887403 45.368087 
L 285.906963 45.177474 
L 290.926523 46.421114 
L 295.946083 45.566123 
L 300.965642 49.017293 
L 305.985202 59.717788 
L 311.004762 61.563679 
L 316.024322 68.560786 
L 321.043882 78.463716 
L 326.063442 85.52601 
L 331.083002 98.584092 
L 336.102562 110.474715 
L 346.141682 115.428808 
L 351.161242 115.588072 
L 356.180801 109.169522 
L 361.200361 104.661179 
L 366.219921 100.845434 
L 376.259041 90.828228 
L 381.278601 87.478146 
L 386.298161 83.426349 
L 396.337281 82.625566 
L 401.356841 78.641727 
L 406.376401 77.180589 
L 416.41552 74.746334 
L 421.43508 75.631104 
L 426.45464 76.165108 
L 431.4742 75.004859 
L 436.49376 72.192234 
L 441.51332 63.31372 
L 446.53288 62.818103 
L 451.55244 61.188255 
L 456.572 63.778953 
L 461.59156 69.660452 
L 466.611119 74.67475 
L 471.630679 74.690317 
L 476.650239 75.046088 
L 481.669799 75.824312 
L 486.689359 75.783181 
L 491.708919 74.508568 
L 496.728479 74.455952 
L 501.748039 73.209085 
L 506.767599 74.255218 
L 511.787159 74.497661 
L 516.806719 72.062159 
L 521.826279 68.798428 
L 526.845838 60.957743 
L 531.865398 60.180338 
L 536.884958 57.1469 
L 541.904518 56.632993 
L 546.924078 55.865014 
L 551.943638 53.139951 
L 556.963198 58.99552 
L 561.982758 66.619354 
L 567.002318 69.781707 
L 572.021878 70.041618 
L 577.041438 73.15273 
L 582.060997 79.636286 
L 587.080557 77.729964 
L 592.100117 79.651175 
L 597.119677 77.101014 
L 602.139237 75.22195 
L 607.158797 71.337065 
L 612.178357 70.254643 
L 617.197917 75.402132 
L 622.217477 63.483661 
L 627.237037 70.732997 
L 632.256597 71.415156 
L 637.276156 74.696791 
L 642.295716 72.565474 
L 647.315276 70.067584 
L 652.334836 67.940157 
L 657.354396 66.197915 
L 662.373956 65.151263 
L 672.413076 63.783493 
L 677.432636 62.216729 
L 682.452196 60.533083 
L 687.471756 58.586983 
L 697.510875 55.000293 
L 702.530435 54.096688 
L 707.549995 52.855079 
L 722.608675 49.507637 
L 727.628235 48.171286 
L 737.667355 46.149666 
L 742.686915 45.255633 
L 747.706474 45.509196 
L 752.726034 45.382652 
L 757.745594 45.525519 
L 762.765154 45.156893 
L 782.843394 45.410085 
L 792.882514 45.233284 
L 807.941193 45.218902 
L 817.980313 45.23838 
L 833.038993 45.205941 
L 843.078113 45.284695 
L 853.117233 45.339275 
L 858.136792 45.152126 
L 863.156352 45.107131 
L 868.175912 45.209789 
L 873.195472 45.831279 
L 878.215032 45.467774 
L 883.234592 54.066261 
L 888.254152 62.953038 
L 893.273712 66.239991 
L 898.293272 73.634785 
L 903.312832 82.787553 
L 908.332392 90.42349 
L 913.351951 100.678131 
L 918.371511 114.189841 
L 918.371511 114.189841 
" clip-path="url(#pf4708ef2f1)" style="fill: none; stroke: #000000; stroke-width: 2; stroke-linecap: square"/>
   </g>
   <g id="patch_6">
    <path d="M 60.026767 118.92795 
L 60.026767 12.301502 
" style="fill: none; stroke: #000000; stroke-width: 0.8; stroke-linejoin: miter; stroke-linecap: square"/>
   </g>
   <g id="patch_7">
    <path d="M 918.371511 118.92795 
L 918.371511 12.301502 
" style="fill: none; stroke: #000000; stroke-width: 0.8; stroke-linejoin: miter; stroke-linecap: square"/>
   </g>
   <g id="patch_8">
    <path d="M 60.026767 118.92795 
L 918.371511 118.92795 
" style="fill: none; stroke: #000000; stroke-width: 0.8; stroke-linejoin: miter; stroke-linecap: square"/>
   </g>
   <g id="patch_9">
    <path d="M 60.026767 12.301502 
L 918.371511 12.301502 
" style="fill: none; stroke: #000000; stroke-width: 0.8; stroke-linejoin: miter; stroke-linecap: square"/>
   </g>
   <g id="text_6">
    <!-- (a) -->
    <g transform="translate(70.026767 27.964147)scale(0.18 -0.18)">
     <defs>
      <path id="CMSS17-28" d="M 1613 4768 
C 1267 4417 474 3601 474 1588 
C 474 -433 1267 -1243 1613 -1600 
L 2003 -1600 
C 1216 -784 960 357 960 1581 
C 960 2798 1203 3946 2003 4768 
L 1613 4768 
z
" transform="scale(0.015625)"/>
      <path id="CMSS17-61" d="M 2406 1791 
C 2406 2392 1978 2808 1402 2808 
C 1120 2808 813 2757 461 2553 
L 499 2135 
C 659 2248 934 2432 1395 2432 
C 1722 2432 1920 2180 1920 1782 
L 1920 1536 
C 896 1536 256 1238 256 726 
C 256 461 416 -64 947 -64 
C 1043 -64 1562 -64 1933 217 
L 1933 -19 
L 2406 -19 
L 2406 1791 
z
M 1920 816 
C 1920 701 1920 548 1728 434 
C 1562 325 1350 325 1261 325 
C 941 325 723 511 723 744 
C 723 1211 1722 1211 1920 1211 
L 1920 816 
z
" transform="scale(0.015625)"/>
      <path id="CMSS17-29" d="M 723 -1600 
C 1069 -1249 1862 -433 1862 1581 
C 1862 3601 1069 4411 723 4768 
L 333 4768 
C 1120 3952 1376 2811 1376 1588 
C 1376 370 1133 -778 333 -1600 
L 723 -1600 
z
" transform="scale(0.015625)"/>
     </defs>
     <use xlink:href="#CMSS17-28" transform="scale(0.996264)"/>
     <use xlink:href="#CMSS17-61" transform="translate(36.433914 0)scale(0.996264)"/>
     <use xlink:href="#CMSS17-29" transform="translate(81.355835 0)scale(0.996264)"/>
    </g>
   </g>
  </g>
  <g id="axes_2">
   <g id="patch_10">
    <path d="M 60.026767 239.854399 
L 918.371511 239.854399 
L 918.371511 133.22795 
L 60.026767 133.22795 
z
" style="fill: #ffffff"/>
   </g>
   <g id="patch_11">
    <path d="M 174.805425 239.854399 
L 174.805425 133.22795 
L 294.574459 133.22795 
L 294.574459 239.854399 
z
" clip-path="url(#pb6a168a43c)" style="fill: #d4d4d4; opacity: 0.5; stroke: #d4d4d4; stroke-linejoin: miter"/>
   </g>
   <g id="patch_12">
    <path d="M 728.737207 239.854399 
L 728.737207 133.22795 
L 883.438876 133.22795 
L 883.438876 239.854399 
z
" clip-path="url(#pb6a168a43c)" style="fill: #d4d4d4; opacity: 0.5; stroke: #d4d4d4; stroke-linejoin: miter"/>
   </g>
   <g id="matplotlib.axis_3">
    <g id="xtick_6">
     <g id="line2d_24">
      <path d="M 60.026767 239.854399 
L 60.026767 133.22795 
" clip-path="url(#pb6a168a43c)" style="fill: none; stroke-dasharray: 2.96,1.28; stroke-dashoffset: 0; stroke: #7f7f7f; stroke-opacity: 0.2; stroke-width: 0.8"/>
     </g>
     <g id="line2d_25">
      <g>
       <use xlink:href="#m2cac026775" x="60.026767" y="239.854399" style="stroke: #000000; stroke-width: 0.8"/>
      </g>
     </g>
     <g id="text_7">
      <!-- 0 -->
      <g transform="translate(56.612522 256.540275)scale(0.14 -0.14)">
       <use xlink:href="#CMSS17-30" transform="scale(0.996264)"/>
      </g>
     </g>
    </g>
    <g id="xtick_7">
     <g id="line2d_26">
      <path d="M 274.612953 239.854399 
L 274.612953 133.22795 
" clip-path="url(#pb6a168a43c)" style="fill: none; stroke-dasharray: 2.96,1.28; stroke-dashoffset: 0; stroke: #7f7f7f; stroke-opacity: 0.2; stroke-width: 0.8"/>
     </g>
     <g id="line2d_27">
      <g>
       <use xlink:href="#m2cac026775" x="274.612953" y="239.854399" style="stroke: #000000; stroke-width: 0.8"/>
      </g>
     </g>
     <g id="text_8">
      <!-- 3 -->
      <g transform="translate(271.198709 256.540275)scale(0.14 -0.14)">
       <defs>
        <path id="CMSS17-33" d="M 1005 2025 
L 1440 2025 
C 2042 2025 2214 1507 2214 1146 
C 2214 653 1933 267 1472 267 
C 1114 267 608 444 320 912 
C 275 691 275 678 250 526 
C 550 88 1037 -128 1485 -128 
C 2214 -128 2752 473 2752 1138 
C 2752 1638 2400 2057 1920 2215 
C 2304 2424 2586 2816 2586 3273 
C 2586 3805 2093 4229 1491 4229 
C 941 4229 512 3892 333 3530 
C 378 3468 493 3284 550 3189 
C 691 3562 1056 3840 1485 3840 
C 1843 3840 2080 3607 2080 3271 
C 2080 2923 1856 2543 1478 2455 
C 1453 2455 1056 2417 1005 2411 
L 1005 2025 
z
" transform="scale(0.015625)"/>
       </defs>
       <use xlink:href="#CMSS17-33" transform="scale(0.996264)"/>
      </g>
     </g>
    </g>
    <g id="xtick_8">
     <g id="line2d_28">
      <path d="M 489.199139 239.854399 
L 489.199139 133.22795 
" clip-path="url(#pb6a168a43c)" style="fill: none; stroke-dasharray: 2.96,1.28; stroke-dashoffset: 0; stroke: #7f7f7f; stroke-opacity: 0.2; stroke-width: 0.8"/>
     </g>
     <g id="line2d_29">
      <g>
       <use xlink:href="#m2cac026775" x="489.199139" y="239.854399" style="stroke: #000000; stroke-width: 0.8"/>
      </g>
     </g>
     <g id="text_9">
      <!-- 6 -->
      <g transform="translate(485.784895 256.540275)scale(0.14 -0.14)">
       <defs>
        <path id="CMSS17-36" d="M 2496 4101 
C 2227 4210 2035 4229 1856 4229 
C 1024 4229 250 3368 250 2006 
C 250 265 986 -128 1510 -128 
C 1798 -128 2086 -39 2362 280 
C 2643 617 2752 898 2752 1389 
C 2752 2179 2362 2880 1779 2880 
C 1357 2880 992 2657 768 2376 
C 832 3258 1254 3840 1862 3840 
C 2029 3840 2246 3816 2496 3710 
L 2496 4101 
z
M 774 1369 
C 774 1420 774 1452 781 1548 
C 781 2045 1069 2491 1536 2491 
C 1837 2491 1990 2332 2106 2135 
C 2240 1886 2246 1650 2246 1388 
C 2246 1140 2246 891 2099 637 
C 1978 439 1818 267 1510 267 
C 902 267 800 1114 774 1369 
z
" transform="scale(0.015625)"/>
       </defs>
       <use xlink:href="#CMSS17-36" transform="scale(0.996264)"/>
      </g>
     </g>
    </g>
    <g id="xtick_9">
     <g id="line2d_30">
      <path d="M 703.785325 239.854399 
L 703.785325 133.22795 
" clip-path="url(#pb6a168a43c)" style="fill: none; stroke-dasharray: 2.96,1.28; stroke-dashoffset: 0; stroke: #7f7f7f; stroke-opacity: 0.2; stroke-width: 0.8"/>
     </g>
     <g id="line2d_31">
      <g>
       <use xlink:href="#m2cac026775" x="703.785325" y="239.854399" style="stroke: #000000; stroke-width: 0.8"/>
      </g>
     </g>
     <g id="text_10">
      <!-- 9 -->
      <g transform="translate(700.371081 256.540275)scale(0.14 -0.14)">
       <defs>
        <path id="CMSS17-39" d="M 435 174 
C 614 21 845 -128 1235 -128 
C 2010 -128 2752 721 2752 2095 
C 2752 3932 1952 4229 1523 4229 
C 1094 4229 819 4041 582 3741 
C 301 3397 250 3090 250 2733 
C 250 2307 326 2045 506 1745 
C 749 1357 973 1275 1222 1275 
C 1600 1275 1978 1459 2234 1776 
C 2189 902 1798 267 1235 267 
C 1005 267 819 339 634 516 
L 435 174 
z
M 2214 2746 
C 2221 2703 2221 2622 2221 2596 
C 2221 2074 1914 1664 1466 1664 
C 1171 1664 1018 1813 902 2006 
C 762 2249 755 2485 755 2733 
C 755 2976 755 3244 934 3511 
C 1069 3703 1235 3840 1523 3840 
C 2112 3840 2208 3000 2214 2746 
z
" transform="scale(0.015625)"/>
       </defs>
       <use xlink:href="#CMSS17-39" transform="scale(0.996264)"/>
      </g>
     </g>
    </g>
    <g id="xtick_10">
     <g id="line2d_32">
      <path d="M 918.371511 239.854399 
L 918.371511 133.22795 
" clip-path="url(#pb6a168a43c)" style="fill: none; stroke-dasharray: 2.96,1.28; stroke-dashoffset: 0; stroke: #7f7f7f; stroke-opacity: 0.2; stroke-width: 0.8"/>
     </g>
     <g id="line2d_33">
      <g>
       <use xlink:href="#m2cac026775" x="918.371511" y="239.854399" style="stroke: #000000; stroke-width: 0.8"/>
      </g>
     </g>
     <g id="text_11">
      <!-- 12 -->
      <g transform="translate(911.543023 256.540275)scale(0.14 -0.14)">
       <use xlink:href="#CMSS17-31" transform="scale(0.996264)"/>
       <use xlink:href="#CMSS17-32" transform="translate(46.843624 0)scale(0.996264)"/>
      </g>
     </g>
    </g>
    <g id="text_12">
     <!-- Time [s] -->
     <g transform="translate(465.660236 273.713076)scale(0.14 -0.14)">
      <defs>
       <path id="CMSS17-54" d="M 2317 3968 
L 2848 3968 
C 2925 3968 3002 3968 3078 3968 
L 3878 3968 
L 3878 4376 
L 218 4376 
L 218 3968 
L 1018 3968 
C 1094 3968 1171 3968 1248 3968 
L 1779 3968 
L 1779 -32 
L 2317 -32 
L 2317 3968 
z
" transform="scale(0.015625)"/>
       <path id="CMSS17-69" d="M 979 4183 
L 442 4183 
L 442 3648 
L 979 3648 
L 979 4183 
z
M 947 2739 
L 474 2739 
L 474 0 
L 947 0 
L 947 2739 
z
" transform="scale(0.015625)"/>
       <path id="CMSS17-6d" d="M 4288 1877 
C 4288 2308 4179 2816 3462 2816 
C 2982 2816 2694 2516 2566 2331 
C 2451 2670 2182 2816 1798 2816 
C 1363 2816 1088 2568 941 2389 
L 941 2758 
L 474 2758 
L 474 0 
L 960 0 
L 960 1559 
C 960 1939 1101 2428 1555 2428 
C 2138 2428 2138 2016 2138 1829 
L 2138 0 
L 2624 0 
L 2624 1559 
C 2624 1939 2765 2428 3219 2428 
C 3802 2428 3802 2016 3802 1829 
L 3802 0 
L 4288 0 
L 4288 1877 
z
" transform="scale(0.015625)"/>
       <path id="CMSS17-73" d="M 2061 2627 
C 1683 2807 1389 2807 1197 2807 
C 742 2807 198 2648 198 2003 
C 198 1359 902 1218 1094 1179 
C 1389 1122 1715 1058 1715 740 
C 1715 337 1254 337 1171 337 
C 915 337 563 407 243 638 
L 166 210 
C 531 0 883 -64 1178 -64 
C 1965 -64 2163 416 2163 781 
C 2163 1094 1984 1305 1862 1401 
C 1651 1568 1574 1587 1050 1696 
C 960 1709 646 1779 646 2066 
C 646 2432 1050 2432 1139 2432 
C 1555 2432 1811 2303 1984 2208 
L 2061 2627 
z
" transform="scale(0.015625)"/>
      </defs>
      <use xlink:href="#CMSS17-54" transform="scale(0.996264)"/>
      <use xlink:href="#CMSS17-69" transform="translate(63.819454 0)scale(0.996264)"/>
      <use xlink:href="#CMSS17-6d" transform="translate(86.000177 0)scale(0.996264)"/>
      <use xlink:href="#CMSS17-65" transform="translate(160.229431 0)scale(0.996264)"/>
      <use xlink:href="#CMSS17-5b" transform="translate(233.097366 0)scale(0.996264)"/>
      <use xlink:href="#CMSS17-73" transform="translate(260.282805 0)scale(0.996264)"/>
      <use xlink:href="#CMSS17-5d" transform="translate(296.196347 0)scale(0.996264)"/>
     </g>
    </g>
   </g>
   <g id="matplotlib.axis_4">
    <g id="ytick_5">
     <g id="line2d_34">
      <path d="M 60.026767 237.763684 
L 918.371511 237.763684 
" clip-path="url(#pb6a168a43c)" style="fill: none; stroke-dasharray: 2.96,1.28; stroke-dashoffset: 0; stroke: #7f7f7f; stroke-opacity: 0.2; stroke-width: 0.8"/>
     </g>
     <g id="line2d_35">
      <g>
       <use xlink:href="#m377b318863" x="60.026767" y="237.763684" style="stroke: #000000; stroke-width: 0.8"/>
      </g>
     </g>
     <g id="text_13">
      <!-- 0.0 -->
      <g transform="translate(35.576185 242.606623)scale(0.14 -0.14)">
       <defs>
        <path id="CMSS17-2e" d="M 1088 510 
L 576 510 
L 576 0 
L 1088 0 
L 1088 510 
z
" transform="scale(0.015625)"/>
       </defs>
       <use xlink:href="#CMSS17-30" transform="scale(0.996264)"/>
       <use xlink:href="#CMSS17-2e" transform="translate(46.843624 0)scale(0.996264)"/>
       <use xlink:href="#CMSS17-30" transform="translate(72.867828 0)scale(0.996264)"/>
      </g>
     </g>
    </g>
    <g id="ytick_6">
     <g id="line2d_36">
      <path d="M 60.026767 207.463472 
L 918.371511 207.463472 
" clip-path="url(#pb6a168a43c)" style="fill: none; stroke-dasharray: 2.96,1.28; stroke-dashoffset: 0; stroke: #7f7f7f; stroke-opacity: 0.2; stroke-width: 0.8"/>
     </g>
     <g id="line2d_37">
      <g>
       <use xlink:href="#m377b318863" x="60.026767" y="207.463472" style="stroke: #000000; stroke-width: 0.8"/>
      </g>
     </g>
     <g id="text_14">
      <!-- 3.3 -->
      <g transform="translate(35.576185 212.30641)scale(0.14 -0.14)">
       <use xlink:href="#CMSS17-33" transform="scale(0.996264)"/>
       <use xlink:href="#CMSS17-2e" transform="translate(46.843624 0)scale(0.996264)"/>
       <use xlink:href="#CMSS17-33" transform="translate(72.867828 0)scale(0.996264)"/>
      </g>
     </g>
    </g>
    <g id="ytick_7">
     <g id="line2d_38">
      <path d="M 60.026767 177.163259 
L 918.371511 177.163259 
" clip-path="url(#pb6a168a43c)" style="fill: none; stroke-dasharray: 2.96,1.28; stroke-dashoffset: 0; stroke: #7f7f7f; stroke-opacity: 0.2; stroke-width: 0.8"/>
     </g>
     <g id="line2d_39">
      <g>
       <use xlink:href="#m377b318863" x="60.026767" y="177.163259" style="stroke: #000000; stroke-width: 0.8"/>
      </g>
     </g>
     <g id="text_15">
      <!-- 6.7 -->
      <g transform="translate(35.576185 182.006197)scale(0.14 -0.14)">
       <defs>
        <path id="CMSS17-37" d="M 1389 3776 
C 1466 3776 1542 3776 1619 3776 
L 2355 3776 
C 1440 2711 915 1365 915 -32 
L 1427 -32 
C 1427 1323 1875 2696 2752 3795 
L 2752 4209 
L 250 4209 
L 250 3776 
L 1389 3776 
z
" transform="scale(0.015625)"/>
       </defs>
       <use xlink:href="#CMSS17-36" transform="scale(0.996264)"/>
       <use xlink:href="#CMSS17-2e" transform="translate(46.843624 0)scale(0.996264)"/>
       <use xlink:href="#CMSS17-37" transform="translate(72.867828 0)scale(0.996264)"/>
      </g>
     </g>
    </g>
    <g id="ytick_8">
     <g id="line2d_40">
      <path d="M 60.026767 146.863046 
L 918.371511 146.863046 
" clip-path="url(#pb6a168a43c)" style="fill: none; stroke-dasharray: 2.96,1.28; stroke-dashoffset: 0; stroke: #7f7f7f; stroke-opacity: 0.2; stroke-width: 0.8"/>
     </g>
     <g id="line2d_41">
      <g>
       <use xlink:href="#m377b318863" x="60.026767" y="146.863046" style="stroke: #000000; stroke-width: 0.8"/>
      </g>
     </g>
     <g id="text_16">
      <!-- 10.0 -->
      <g transform="translate(28.747696 151.705984)scale(0.14 -0.14)">
       <use xlink:href="#CMSS17-31" transform="scale(0.996264)"/>
       <use xlink:href="#CMSS17-30" transform="translate(46.843624 0)scale(0.996264)"/>
       <use xlink:href="#CMSS17-2e" transform="translate(93.687247 0)scale(0.996264)"/>
       <use xlink:href="#CMSS17-30" transform="translate(119.711452 0)scale(0.996264)"/>
      </g>
     </g>
    </g>
    <g id="text_17">
     <!-- Control error [deg] -->
     <g transform="translate(21.260772 239.300503)rotate(-90)scale(0.14 -0.14)">
      <use xlink:href="#CMSS17-43" transform="scale(0.996264)"/>
      <use xlink:href="#CMSS17-6f" transform="translate(59.855772 0)scale(0.996264)"/>
      <use xlink:href="#CMSS17-6e" transform="translate(106.699395 0)scale(0.996264)"/>
      <use xlink:href="#CMSS17-74" transform="translate(154.904338 0)scale(0.996264)"/>
      <use xlink:href="#CMSS17-72" transform="translate(188.735905 0)scale(0.996264)"/>
      <use xlink:href="#CMSS17-6f" transform="translate(220.645677 0)scale(0.996264)"/>
      <use xlink:href="#CMSS17-6c" transform="translate(267.489301 0)scale(0.996264)"/>
      <use xlink:href="#CMSS17-65" transform="translate(320.899137 0)scale(0.996264)"/>
      <use xlink:href="#CMSS17-72" transform="translate(362.537959 0)scale(0.996264)"/>
      <use xlink:href="#CMSS17-72" transform="translate(394.447731 0)scale(0.996264)"/>
      <use xlink:href="#CMSS17-6f" transform="translate(426.357504 0)scale(0.996264)"/>
      <use xlink:href="#CMSS17-72" transform="translate(470.598674 0)scale(0.996264)"/>
      <use xlink:href="#CMSS17-5b" transform="translate(533.737559 0)scale(0.996264)"/>
      <use xlink:href="#CMSS17-64" transform="translate(560.922997 0)scale(0.996264)"/>
      <use xlink:href="#CMSS17-65" transform="translate(609.127941 0)scale(0.996264)"/>
      <use xlink:href="#CMSS17-67" transform="translate(650.766763 0)scale(0.996264)"/>
      <use xlink:href="#CMSS17-5d" transform="translate(697.610386 0)scale(0.996264)"/>
     </g>
    </g>
   </g>
   <g id="line2d_42">
    <path d="M 60.026767 226.875017 
L 65.046327 227.747628 
L 70.065887 225.161578 
L 75.085447 227.820773 
L 80.105006 229.333081 
L 85.124566 231.137976 
L 90.144126 231.903584 
L 95.163686 230.785511 
L 100.183246 229.020372 
L 105.202806 228.432275 
L 110.222366 226.509755 
L 115.241926 229.240969 
L 120.261486 230.210597 
L 125.281046 231.564493 
L 130.300606 230.547936 
L 135.320165 231.472221 
L 140.339725 232.050051 
L 145.359285 235.125364 
L 150.378845 235.553082 
L 155.398405 235.147969 
L 160.417965 235.827307 
L 165.437525 237.387833 
L 170.457085 237.033663 
L 180.496205 235.959145 
L 185.515765 235.292762 
L 190.535324 234.889603 
L 195.554884 234.618473 
L 200.574444 233.749306 
L 205.594004 232.458159 
L 210.613564 235.096211 
L 215.633124 233.415646 
L 220.652684 231.271318 
L 225.672244 224.063762 
L 230.691804 220.735662 
L 235.711364 218.146902 
L 240.730924 221.927332 
L 245.750483 213.883542 
L 250.770043 213.270421 
L 260.809163 214.318446 
L 265.828723 220.426648 
L 270.848283 213.188742 
L 275.867843 213.463409 
L 280.887403 201.673276 
L 285.906963 216.149149 
L 290.926523 217.385472 
L 295.946083 234.738139 
L 300.965642 233.460438 
L 305.985202 210.529707 
L 311.004762 222.176922 
L 316.024322 214.948788 
L 321.043882 216.980355 
L 326.063442 220.159826 
L 331.083002 196.772427 
L 336.102562 214.303787 
L 341.122122 218.009915 
L 346.141682 222.332406 
L 351.161242 212.248871 
L 356.180801 210.840581 
L 361.200361 214.934038 
L 366.219921 222.022109 
L 371.239481 222.088696 
L 376.259041 227.133016 
L 381.278601 235.338625 
L 386.298161 237.29794 
L 391.317721 230.753356 
L 396.337281 228.86634 
L 401.356841 233.93417 
L 406.376401 237.440716 
L 411.39596 235.944961 
L 416.41552 235.687661 
L 421.43508 225.424958 
L 426.45464 224.161517 
L 431.4742 223.885606 
L 436.49376 231.430029 
L 441.51332 230.810519 
L 446.53288 232.898256 
L 451.55244 234.17242 
L 456.572 233.500212 
L 461.59156 221.888447 
L 466.611119 237.332696 
L 471.630679 236.334235 
L 476.650239 237.143835 
L 481.669799 233.306882 
L 486.689359 211.471191 
L 491.708919 219.031071 
L 496.728479 214.077432 
L 501.748039 201.230722 
L 506.767599 211.151252 
L 511.787159 196.406883 
L 516.806719 214.686754 
L 521.826279 216.398297 
L 526.845838 208.133373 
L 531.865398 212.97611 
L 536.884958 232.473547 
L 541.904518 226.580262 
L 546.924078 221.820712 
L 551.943638 218.916901 
L 556.963198 218.854623 
L 561.982758 211.450087 
L 567.002318 212.500457 
L 572.021878 218.084221 
L 577.041438 222.232353 
L 582.060997 226.166738 
L 587.080557 214.437441 
L 592.100117 211.688128 
L 597.119677 226.371113 
L 602.139237 226.820616 
L 607.158797 230.650671 
L 612.178357 236.302638 
L 617.197917 231.778923 
L 622.217477 236.087313 
L 627.237037 232.231286 
L 632.256597 235.084626 
L 637.276156 231.465972 
L 642.295716 235.303846 
L 647.315276 231.574055 
L 652.334836 237.153643 
L 657.354396 236.903947 
L 662.373956 233.994165 
L 667.393516 234.727507 
L 672.413076 231.692062 
L 677.432636 234.260492 
L 682.452196 234.521541 
L 687.471756 235.098911 
L 692.491315 234.475985 
L 697.510875 233.095401 
L 707.549995 231.314117 
L 717.589115 229.95162 
L 722.608675 229.164882 
L 727.628235 228.188133 
L 737.667355 227.677548 
L 742.686915 227.119779 
L 747.706474 226.245427 
L 752.726034 225.141444 
L 757.745594 224.273291 
L 762.765154 224.544369 
L 767.784714 221.83818 
L 772.804274 225.75362 
L 777.823834 226.23538 
L 782.843394 227.40334 
L 797.902074 228.152105 
L 802.921633 232.5905 
L 807.941193 228.95752 
L 812.960753 230.125186 
L 817.980313 232.04113 
L 822.999873 231.244175 
L 828.019433 229.657912 
L 833.038993 228.872486 
L 838.058553 228.260874 
L 843.078113 227.793946 
L 848.097673 227.13006 
L 853.117233 226.239862 
L 858.136792 232.02778 
L 863.156352 219.900763 
L 868.175912 217.074179 
L 873.195472 214.61411 
L 878.215032 211.004788 
L 883.234592 186.547176 
L 888.254152 215.268499 
L 893.273712 204.197405 
L 898.293272 201.777438 
L 903.312832 204.549906 
L 908.332392 203.550496 
L 913.351951 205.589783 
L 918.371511 215.515994 
L 918.371511 215.515994 
" clip-path="url(#pb6a168a43c)" style="fill: none; stroke: #2e8b57; stroke-width: 2; stroke-linecap: square"/>
   </g>
   <g id="line2d_43">
    <path d="M 60.026767 228.570687 
L 65.046327 229.818378 
L 70.065887 228.361135 
L 75.085447 232.020151 
L 85.124566 235.717209 
L 90.144126 237.263756 
L 95.163686 237.685521 
L 100.183246 237.35195 
L 105.202806 236.301671 
L 110.222366 236.713459 
L 115.241926 232.783915 
L 120.261486 230.589968 
L 125.281046 228.149738 
L 130.300606 228.074691 
L 135.320165 225.981661 
L 140.339725 224.217615 
L 145.359285 219.855294 
L 155.398405 215.449958 
L 160.417965 212.310897 
L 165.437525 208.507694 
L 170.457085 204.962245 
L 175.476645 201.799895 
L 180.496205 198.822298 
L 190.535324 192.320127 
L 195.554884 189.149082 
L 200.574444 185.513788 
L 205.594004 181.565458 
L 210.613564 181.692701 
L 215.633124 177.461581 
L 220.652684 172.741211 
L 225.672244 162.872726 
L 230.691804 157.889764 
L 235.711364 154.099903 
L 240.730924 156.705125 
L 245.750483 147.694295 
L 250.770043 146.112123 
L 255.789603 145.97746 
L 260.809163 146.039556 
L 265.828723 152.67965 
L 270.848283 146.903495 
L 275.867843 149.463648 
L 280.887403 141.441322 
L 285.906963 160.793346 
L 290.926523 169.34974 
L 295.946083 196.584389 
L 300.965642 215.87918 
L 305.985202 198.079524 
L 311.004762 225.376377 
L 316.024322 233.395557 
L 321.043882 236.951156 
L 326.063442 235.873548 
L 331.083002 208.237257 
L 336.102562 221.402374 
L 341.122122 223.676624 
L 346.141682 227.109896 
L 351.161242 217.286568 
L 356.180801 219.687515 
L 361.200361 226.853633 
L 366.219921 234.588348 
L 371.239481 234.050803 
L 376.259041 235.842799 
L 381.278601 226.888248 
L 386.298161 224.917943 
L 391.317721 232.007956 
L 396.337281 235.546292 
L 401.356841 226.310247 
L 406.376401 233.98553 
L 411.39596 232.196824 
L 416.41552 233.806141 
L 421.43508 226.573778 
L 426.45464 224.358874 
L 431.4742 221.275634 
L 436.49376 237.292461 
L 441.51332 222.871758 
L 446.53288 223.488737 
L 451.55244 224.710053 
L 456.572 227.596106 
L 461.59156 225.077099 
L 466.611119 234.043326 
L 471.630679 237.330379 
L 476.650239 232.416712 
L 481.669799 225.345888 
L 486.689359 200.343233 
L 491.708919 207.108177 
L 496.728479 201.397963 
L 501.748039 190.182552 
L 506.767599 211.864196 
L 511.787159 203.651399 
L 516.806719 220.618003 
L 521.826279 217.564606 
L 526.845838 207.666814 
L 531.865398 209.533813 
L 536.884958 227.875868 
L 541.904518 222.550673 
L 546.924078 219.291864 
L 556.963198 216.878841 
L 561.982758 207.840548 
L 567.002318 214.744833 
L 572.021878 222.002329 
L 577.041438 217.854602 
L 582.060997 223.391322 
L 587.080557 211.398701 
L 592.100117 208.098168 
L 597.119677 222.69233 
L 602.139237 223.528524 
L 607.158797 230.249583 
L 612.178357 234.804673 
L 617.197917 228.825726 
L 622.217477 233.943075 
L 627.237037 230.85013 
L 632.256597 234.237199 
L 637.276156 231.999754 
L 642.295716 237.330085 
L 647.315276 234.553478 
L 652.334836 233.17127 
L 657.354396 233.339324 
L 662.373956 227.945317 
L 667.393516 227.982314 
L 672.413076 224.158382 
L 677.432636 225.020635 
L 682.452196 223.342925 
L 687.471756 222.207707 
L 692.491315 220.00271 
L 697.510875 217.134213 
L 707.549995 211.663503 
L 717.589115 207.107406 
L 722.608675 204.977355 
L 727.628235 202.710171 
L 737.667355 198.905433 
L 742.686915 196.59949 
L 747.706474 194.09195 
L 752.726034 191.430709 
L 757.745594 188.998389 
L 762.765154 187.150705 
L 767.784714 182.490185 
L 772.804274 183.964896 
L 777.823834 182.07365 
L 782.843394 180.74983 
L 797.902074 174.498244 
L 802.921633 176.546095 
L 807.941193 170.383063 
L 812.960753 168.699871 
L 817.980313 167.561203 
L 822.999873 165.340684 
L 828.019433 162.571688 
L 833.038993 160.651296 
L 838.058553 159.199601 
L 843.078113 158.229163 
L 848.097673 157.494763 
L 853.117233 157.627234 
L 858.136792 166.300312 
L 863.156352 159.212206 
L 868.175912 162.897294 
L 873.195472 168.622648 
L 878.215032 175.578319 
L 883.234592 163.863346 
L 888.254152 207.041053 
L 893.273712 214.261732 
L 898.293272 221.859061 
L 903.312832 225.482128 
L 908.332392 223.075553 
L 913.351951 216.22938 
L 918.371511 222.53239 
L 918.371511 222.53239 
" clip-path="url(#pb6a168a43c)" style="fill: none; stroke: #dc143c; stroke-width: 2; stroke-linecap: square"/>
   </g>
   <g id="line2d_44">
    <path d="M 60.026767 232.996319 
L 65.046327 231.223687 
L 70.065887 227.761225 
L 75.085447 230.295154 
L 80.105006 229.94016 
L 85.124566 225.442998 
L 90.144126 227.41015 
L 95.163686 231.49084 
L 100.183246 236.12765 
L 105.202806 237.061241 
L 110.222366 235.205346 
L 115.241926 237.463678 
L 120.261486 236.106105 
L 125.281046 234.968738 
L 130.300606 236.20585 
L 135.320165 236.507175 
L 140.339725 237.370902 
L 145.359285 233.619028 
L 150.378845 231.816448 
L 155.398405 235.825075 
L 160.417965 237.678616 
L 165.437525 237.040234 
L 170.457085 237.685768 
L 175.476645 234.540227 
L 180.496205 230.640599 
L 185.515765 224.972599 
L 190.535324 217.916672 
L 195.554884 211.672974 
L 205.594004 199.878966 
L 210.613564 197.094652 
L 220.652684 182.445002 
L 225.672244 169.517138 
L 230.691804 162.828367 
L 235.711364 157.988617 
L 240.730924 159.403642 
L 245.750483 149.386997 
L 250.770043 146.80304 
L 255.789603 146.074439 
L 260.809163 145.550964 
L 265.828723 152.669143 
L 270.848283 149.608003 
L 275.867843 153.931552 
L 280.887403 148.645853 
L 285.906963 173.357374 
L 290.926523 185.491466 
L 295.946083 225.65703 
L 300.965642 229.160643 
L 305.985202 208.537676 
L 311.004762 237.284213 
L 316.024322 233.839315 
L 321.043882 237.001983 
L 326.063442 226.989294 
L 331.083002 214.144738 
L 336.102562 217.813797 
L 341.122122 224.173312 
L 346.141682 220.793258 
L 351.161242 205.588829 
L 356.180801 209.5085 
L 361.200361 212.137639 
L 366.219921 218.358667 
L 371.239481 226.713829 
L 376.259041 236.769142 
L 381.278601 226.533774 
L 386.298161 220.667194 
L 391.317721 234.397323 
L 396.337281 231.818412 
L 401.356841 229.095885 
L 406.376401 236.12744 
L 411.39596 234.13301 
L 416.41552 231.853095 
L 421.43508 210.911527 
L 426.45464 202.591974 
L 431.4742 201.790966 
L 436.49376 225.304044 
L 441.51332 235.406468 
L 446.53288 236.708607 
L 451.55244 232.499952 
L 456.572 237.118428 
L 461.59156 228.560573 
L 466.611119 225.378739 
L 471.630679 233.303682 
L 476.650239 234.917813 
L 481.669799 229.312028 
L 486.689359 203.921602 
L 491.708919 205.174834 
L 496.728479 197.983221 
L 501.748039 181.866228 
L 506.767599 204.752803 
L 511.787159 201.629273 
L 516.806719 220.416838 
L 521.826279 222.420886 
L 526.845838 204.361408 
L 531.865398 216.487706 
L 536.884958 231.190176 
L 541.904518 230.650811 
L 546.924078 225.308109 
L 551.943638 211.152668 
L 556.963198 221.184159 
L 561.982758 229.693979 
L 567.002318 231.055536 
L 572.021878 220.168716 
L 577.041438 221.206698 
L 582.060997 237.547208 
L 587.080557 216.48195 
L 592.100117 216.469328 
L 597.119677 224.418566 
L 602.139237 221.506041 
L 607.158797 212.386313 
L 612.178357 215.163579 
L 617.197917 230.2269 
L 622.217477 200.04082 
L 627.237037 222.561731 
L 632.256597 228.543069 
L 637.276156 235.536516 
L 642.295716 232.650585 
L 647.315276 237.659885 
L 652.334836 232.451391 
L 657.354396 236.32649 
L 662.373956 233.038199 
L 667.393516 233.921709 
L 672.413076 231.024261 
L 677.432636 234.838261 
L 682.452196 236.484683 
L 687.471756 235.969374 
L 692.491315 234.314543 
L 697.510875 233.232969 
L 702.530435 234.980038 
L 707.549995 235.889143 
L 712.569555 236.572977 
L 717.589115 237.001258 
L 722.608675 236.839955 
L 727.628235 236.373235 
L 732.647795 236.805071 
L 737.667355 237.53947 
L 742.686915 236.666645 
L 747.706474 231.524859 
L 752.726034 227.451124 
L 757.745594 222.76679 
L 762.765154 219.8195 
L 767.784714 212.878974 
L 772.804274 211.565037 
L 777.823834 206.785319 
L 782.843394 203.052985 
L 787.862954 199.028897 
L 797.902074 190.227483 
L 802.921633 189.743044 
L 807.941193 181.006796 
L 812.960753 176.235937 
L 817.980313 172.038895 
L 822.999873 168.460409 
L 828.019433 164.350099 
L 833.038993 161.110006 
L 838.058553 158.575132 
L 843.078113 156.494495 
L 848.097673 155.234843 
L 853.117233 156.310575 
L 858.136792 168.431099 
L 863.156352 166.49187 
L 868.175912 176.316697 
L 873.195472 188.605079 
L 878.215032 207.325179 
L 883.234592 182.345153 
L 888.254152 209.167042 
L 893.273712 215.450357 
L 898.293272 220.212777 
L 903.312832 219.647412 
L 908.332392 223.359973 
L 913.351951 221.543219 
L 918.371511 208.388929 
L 918.371511 208.388929 
" clip-path="url(#pb6a168a43c)" style="fill: none; stroke: #000000; stroke-width: 2; stroke-linecap: square"/>
   </g>
   <g id="patch_13">
    <path d="M 60.026767 239.854399 
L 60.026767 133.22795 
" style="fill: none; stroke: #000000; stroke-width: 0.8; stroke-linejoin: miter; stroke-linecap: square"/>
   </g>
   <g id="patch_14">
    <path d="M 918.371511 239.854399 
L 918.371511 133.22795 
" style="fill: none; stroke: #000000; stroke-width: 0.8; stroke-linejoin: miter; stroke-linecap: square"/>
   </g>
   <g id="patch_15">
    <path d="M 60.026767 239.854399 
L 918.371511 239.854399 
" style="fill: none; stroke: #000000; stroke-width: 0.8; stroke-linejoin: miter; stroke-linecap: square"/>
   </g>
   <g id="patch_16">
    <path d="M 60.026767 133.22795 
L 918.371511 133.22795 
" style="fill: none; stroke: #000000; stroke-width: 0.8; stroke-linejoin: miter; stroke-linecap: square"/>
   </g>
   <g id="text_18">
    <!-- (b) -->
    <g transform="translate(70.026767 148.890595)scale(0.18 -0.18)">
     <defs>
      <path id="CMSS17-62" d="M 954 4416 
L 480 4416 
L 480 -13 
L 966 -13 
L 966 274 
C 1210 38 1504 -64 1766 -64 
C 2381 -64 2880 549 2880 1352 
C 2880 2086 2496 2756 1926 2756 
C 1523 2756 1165 2591 954 2419 
L 954 4416 
z
M 966 2046 
C 1107 2222 1306 2368 1587 2368 
C 1965 2368 2394 2097 2394 1352 
C 2394 558 1882 325 1530 325 
C 1402 325 1267 356 1139 464 
C 966 615 966 709 966 797 
L 966 2046 
z
" transform="scale(0.015625)"/>
     </defs>
     <use xlink:href="#CMSS17-28" transform="scale(0.996264)"/>
     <use xlink:href="#CMSS17-62" transform="translate(36.433914 0)scale(0.996264)"/>
     <use xlink:href="#CMSS17-29" transform="translate(84.638857 0)scale(0.996264)"/>
    </g>
   </g>
  </g>
  <g id="legend_1">
   <g id="patch_17">
    <path d="M 120.484481 299.856014 
L 815.515519 299.856014 
Q 818.315519 299.856014 818.315519 297.056014 
L 818.315519 278.943986 
Q 818.315519 276.143986 815.515519 276.143986 
L 120.484481 276.143986 
Q 117.684481 276.143986 117.684481 278.943986 
L 117.684481 297.056014 
Q 117.684481 299.856014 120.484481 299.856014 
z
" style="fill: #ffffff; opacity: 0.8; stroke: #cccccc; stroke-linejoin: miter"/>
   </g>
   <g id="line2d_45">
    <path d="M 123.284481 286.643986 
L 137.284481 286.643986 
L 151.284481 286.643986 
" style="fill: none; stroke-dasharray: 7.4,3.2; stroke-dashoffset: 0; stroke: #000000; stroke-width: 2"/>
   </g>
   <g id="text_19">
    <!-- Ref. -->
    <g transform="translate(162.484481 291.543986)scale(0.14 -0.14)">
     <defs>
      <path id="CMSS17-52" d="M 2522 2109 
L 2534 2115 
C 3533 2459 3539 3147 3539 3268 
C 3539 3873 2925 4453 2003 4453 
L 570 4453 
L 570 32 
L 1094 32 
L 1094 2048 
L 2035 2048 
L 3168 32 
L 3706 32 
L 2522 2109 
z
M 1094 2437 
L 1094 4096 
L 1933 4096 
C 2746 4096 3034 3637 3034 3267 
C 3034 2922 2778 2437 1933 2437 
L 1094 2437 
z
" transform="scale(0.015625)"/>
      <path id="CMSS17-66" d="M 1075 2368 
L 1722 2368 
L 1722 2737 
L 1062 2737 
L 1062 3559 
C 1062 4014 1408 4092 1606 4092 
C 1670 4092 1850 4092 2080 4009 
L 2080 4429 
C 1933 4461 1754 4480 1613 4480 
C 1018 4480 602 3993 602 3359 
L 602 2737 
L 160 2737 
L 160 2368 
L 602 2368 
L 602 0 
L 1075 0 
L 1075 2368 
z
" transform="scale(0.015625)"/>
     </defs>
     <use xlink:href="#CMSS17-52" transform="scale(0.996264)"/>
     <use xlink:href="#CMSS17-65" transform="translate(60.416155 0)scale(0.996264)"/>
     <use xlink:href="#CMSS17-66" transform="translate(102.054977 0)scale(0.996264)"/>
     <use xlink:href="#CMSS17-2e" transform="translate(130.681636 0)scale(0.996264)"/>
    </g>
   </g>
   <g id="line2d_46">
    <path d="M 213.310657 286.643986 
L 227.310657 286.643986 
L 241.310657 286.643986 
" style="fill: none; stroke: #2e8b57; stroke-width: 2; stroke-linecap: square"/>
   </g>
   <g id="text_20">
    <!-- Original -->
    <g transform="translate(252.510657 291.543986)scale(0.14 -0.14)">
     <defs>
      <path id="CMSS17-4f" d="M 4096 2178 
C 4096 3503 3219 4497 2214 4497 
C 1210 4497 333 3497 333 2178 
C 333 847 1222 -128 2214 -128 
C 3206 -128 4096 847 4096 2178 
z
M 2214 273 
C 1510 273 870 1057 870 2261 
C 870 3433 1549 4096 2214 4096 
C 2880 4096 3558 3433 3558 2261 
C 3558 1051 2912 273 2214 273 
z
" transform="scale(0.015625)"/>
     </defs>
     <use xlink:href="#CMSS17-4f" transform="scale(0.996264)"/>
     <use xlink:href="#CMSS17-72" transform="translate(69.024255 0)scale(0.996264)"/>
     <use xlink:href="#CMSS17-69" transform="translate(100.934028 0)scale(0.996264)"/>
     <use xlink:href="#CMSS17-67" transform="translate(123.114751 0)scale(0.996264)"/>
     <use xlink:href="#CMSS17-69" transform="translate(169.958374 0)scale(0.996264)"/>
     <use xlink:href="#CMSS17-6e" transform="translate(192.139098 0)scale(0.996264)"/>
     <use xlink:href="#CMSS17-61" transform="translate(240.344041 0)scale(0.996264)"/>
     <use xlink:href="#CMSS17-6c" transform="translate(285.265961 0)scale(0.996264)"/>
    </g>
   </g>
   <g id="line2d_47">
    <path d="M 325.234741 286.643986 
L 339.234741 286.643986 
L 353.234741 286.643986 
" style="fill: none; stroke: #dc143c; stroke-width: 2; stroke-linecap: square"/>
   </g>
   <g id="text_21">
    <!-- Repaired - last layer -->
    <g transform="translate(364.434741 291.543986)scale(0.14 -0.14)">
     <defs>
      <path id="CMSS17-70" d="M 966 333 
C 1178 129 1466 -5 1773 -5 
C 2368 -5 2880 603 2880 1412 
C 2880 2159 2496 2816 1946 2816 
C 1626 2816 1242 2702 954 2472 
L 954 2765 
L 480 2765 
L 480 -1216 
L 966 -1216 
L 966 333 
z
M 966 2100 
C 1018 2176 1235 2415 1587 2415 
C 2035 2415 2394 1960 2394 1412 
C 2394 787 1958 384 1530 384 
C 1402 384 1267 415 1139 523 
C 966 674 966 768 966 857 
L 966 2100 
z
" transform="scale(0.015625)"/>
      <path id="CMSS17-79" d="M 2675 2752 
L 2176 2752 
C 1632 1294 1446 702 1434 383 
L 1427 383 
C 1408 696 1126 1460 902 2007 
L 602 2752 
L 83 2752 
L 1216 13 
C 1146 -178 1043 -465 1011 -529 
C 870 -885 774 -885 672 -885 
C 646 -885 442 -885 211 -809 
L 250 -1229 
C 410 -1261 570 -1280 685 -1280 
C 845 -1280 1165 -1280 1459 -497 
L 2675 2752 
z
" transform="scale(0.015625)"/>
     </defs>
     <use xlink:href="#CMSS17-52" transform="scale(0.996264)"/>
     <use xlink:href="#CMSS17-65" transform="translate(60.416155 0)scale(0.996264)"/>
     <use xlink:href="#CMSS17-70" transform="translate(102.054977 0)scale(0.996264)"/>
     <use xlink:href="#CMSS17-61" transform="translate(150.25992 0)scale(0.996264)"/>
     <use xlink:href="#CMSS17-69" transform="translate(195.181841 0)scale(0.996264)"/>
     <use xlink:href="#CMSS17-72" transform="translate(217.362564 0)scale(0.996264)"/>
     <use xlink:href="#CMSS17-65" transform="translate(249.272336 0)scale(0.996264)"/>
     <use xlink:href="#CMSS17-64" transform="translate(290.911158 0)scale(0.996264)"/>
     <use xlink:href="#CMSS17-2d" transform="translate(370.345214 0)scale(0.996264)"/>
     <use xlink:href="#CMSS17-6c" transform="translate(432.80344 0)scale(0.996264)"/>
     <use xlink:href="#CMSS17-61" transform="translate(454.984163 0)scale(0.996264)"/>
     <use xlink:href="#CMSS17-73" transform="translate(499.906083 0)scale(0.996264)"/>
     <use xlink:href="#CMSS17-74" transform="translate(535.819625 0)scale(0.996264)"/>
     <use xlink:href="#CMSS17-6c" transform="translate(600.880305 0)scale(0.996264)"/>
     <use xlink:href="#CMSS17-61" transform="translate(623.061028 0)scale(0.996264)"/>
     <use xlink:href="#CMSS17-79" transform="translate(665.380495 0)scale(0.996264)"/>
     <use xlink:href="#CMSS17-65" transform="translate(705.778182 0)scale(0.996264)"/>
     <use xlink:href="#CMSS17-72" transform="translate(747.417004 0)scale(0.996264)"/>
    </g>
   </g>
   <g id="line2d_48">
    <path d="M 505.84399 286.643986 
L 519.84399 286.643986 
L 533.84399 286.643986 
" style="fill: none; stroke: #000000; stroke-width: 2; stroke-linecap: square"/>
   </g>
   <g id="text_22">
    <!-- Repaired - mid layer -->
    <g transform="translate(545.04399 291.543986)scale(0.14 -0.14)">
     <use xlink:href="#CMSS17-52" transform="scale(0.996264)"/>
     <use xlink:href="#CMSS17-65" transform="translate(60.416155 0)scale(0.996264)"/>
     <use xlink:href="#CMSS17-70" transform="translate(102.054977 0)scale(0.996264)"/>
     <use xlink:href="#CMSS17-61" transform="translate(150.25992 0)scale(0.996264)"/>
     <use xlink:href="#CMSS17-69" transform="translate(195.181841 0)scale(0.996264)"/>
     <use xlink:href="#CMSS17-72" transform="translate(217.362564 0)scale(0.996264)"/>
     <use xlink:href="#CMSS17-65" transform="translate(249.272336 0)scale(0.996264)"/>
     <use xlink:href="#CMSS17-64" transform="translate(290.911158 0)scale(0.996264)"/>
     <use xlink:href="#CMSS17-2d" transform="translate(370.345214 0)scale(0.996264)"/>
     <use xlink:href="#CMSS17-6d" transform="translate(432.80344 0)scale(0.996264)"/>
     <use xlink:href="#CMSS17-69" transform="translate(507.032694 0)scale(0.996264)"/>
     <use xlink:href="#CMSS17-64" transform="translate(529.213417 0)scale(0.996264)"/>
     <use xlink:href="#CMSS17-6c" transform="translate(608.647473 0)scale(0.996264)"/>
     <use xlink:href="#CMSS17-61" transform="translate(630.828196 0)scale(0.996264)"/>
     <use xlink:href="#CMSS17-79" transform="translate(673.147663 0)scale(0.996264)"/>
     <use xlink:href="#CMSS17-65" transform="translate(713.545351 0)scale(0.996264)"/>
     <use xlink:href="#CMSS17-72" transform="translate(755.184173 0)scale(0.996264)"/>
    </g>
   </g>
   <g id="patch_18">
    <path d="M 687.554167 291.543986 
L 715.554167 291.543986 
L 715.554167 281.743986 
L 687.554167 281.743986 
z
" style="fill: #d4d4d4; opacity: 0.5; stroke: #d4d4d4; stroke-linejoin: miter"/>
   </g>
   <g id="text_23">
    <!-- Violated region -->
    <g transform="translate(726.754167 291.543986)scale(0.14 -0.14)">
     <defs>
      <path id="CMSS17-56" d="M 3910 4416 
L 3411 4416 
L 2304 1362 
C 2272 1273 2074 688 2035 484 
L 2029 484 
C 1978 726 1773 1292 1664 1604 
L 922 3672 
L 646 4416 
L 83 4416 
L 1715 0 
L 2278 0 
L 3910 4416 
z
" transform="scale(0.015625)"/>
     </defs>
     <use xlink:href="#CMSS17-56" transform="scale(0.996264)"/>
     <use xlink:href="#CMSS17-69" transform="translate(62.217855 0)scale(0.996264)"/>
     <use xlink:href="#CMSS17-6f" transform="translate(84.398578 0)scale(0.996264)"/>
     <use xlink:href="#CMSS17-6c" transform="translate(131.242201 0)scale(0.996264)"/>
     <use xlink:href="#CMSS17-61" transform="translate(153.422925 0)scale(0.996264)"/>
     <use xlink:href="#CMSS17-74" transform="translate(198.344845 0)scale(0.996264)"/>
     <use xlink:href="#CMSS17-65" transform="translate(232.176412 0)scale(0.996264)"/>
     <use xlink:href="#CMSS17-64" transform="translate(273.815234 0)scale(0.996264)"/>
     <use xlink:href="#CMSS17-72" transform="translate(353.24929 0)scale(0.996264)"/>
     <use xlink:href="#CMSS17-65" transform="translate(385.159062 0)scale(0.996264)"/>
     <use xlink:href="#CMSS17-67" transform="translate(426.797884 0)scale(0.996264)"/>
     <use xlink:href="#CMSS17-69" transform="translate(473.641508 0)scale(0.996264)"/>
     <use xlink:href="#CMSS17-6f" transform="translate(495.822231 0)scale(0.996264)"/>
     <use xlink:href="#CMSS17-6e" transform="translate(542.665854 0)scale(0.996264)"/>
    </g>
   </g>
  </g>
 </g>
 <defs>
  <clipPath id="pf4708ef2f1">
   <rect x="60.026767" y="12.301502" width="858.344745" height="106.626449"/>
  </clipPath>
  <clipPath id="pb6a168a43c">
   <rect x="60.026767" y="133.22795" width="858.344745" height="106.626449"/>
  </clipPath>
 </defs>
</svg>
