<?xml version="1.0" encoding="utf-8" standalone="no"?>
<!DOCTYPE svg PUBLIC "-//W3C//DTD SVG 1.1//EN"
  "http://www.w3.org/Graphics/SVG/1.1/DTD/svg11.dtd">
<!-- Created with matplotlib (https://matplotlib.org/) -->
<svg height="396pt" version="1.1" viewBox="0 0 576 396" width="576pt" xmlns="http://www.w3.org/2000/svg" xmlns:xlink="http://www.w3.org/1999/xlink">
 <metadata>
  <rdf:RDF xmlns:cc="http://creativecommons.org/ns#" xmlns:dc="http://purl.org/dc/elements/1.1/" xmlns:rdf="http://www.w3.org/1999/02/22-rdf-syntax-ns#">
   <cc:Work>
    <dc:type rdf:resource="http://purl.org/dc/dcmitype/StillImage"/>
    <dc:date>2022-02-18T16:04:44.118936</dc:date>
    <dc:format>image/svg+xml</dc:format>
    <dc:creator>
     <cc:Agent>
      <dc:title>Matplotlib v3.3.3, https://matplotlib.org/</dc:title>
     </cc:Agent>
    </dc:creator>
   </cc:Work>
  </rdf:RDF>
 </metadata>
 <defs>
  <style type="text/css">*{stroke-linecap:butt;stroke-linejoin:round;}</style>
 </defs>
 <g id="figure_1">
  <g id="patch_1">
   <path d="M 0 396 
L 576 396 
L 576 0 
L 0 0 
z
" style="fill:#ffffff;"/>
  </g>
  <g id="axes_1">
   <g id="patch_2">
    <path d="M 72 352.44 
L 518.4 352.44 
L 518.4 47.52 
L 72 47.52 
z
" style="fill:#eaeaf2;"/>
   </g>
   <g id="matplotlib.axis_1">
    <g id="xtick_1">
     <g id="line2d_1">
      <path clip-path="url(#pf3cb8d19cd)" d="M 92.290909 352.44 
L 92.290909 47.52 
" style="fill:none;stroke:#ffffff;stroke-linecap:round;"/>
     </g>
     <g id="line2d_2"/>
     <g id="text_1">
      <!-- $\mathdefault{0}$ -->
      <g style="fill:#262626;" transform="translate(89.800241 366.358498)scale(0.1 -0.1)">
       <defs>
        <path d="M 42 31.640625 
C 42 37.75 41.90625 48.125 37.703125 56.109375 
C 34 63.109375 28.09375 65.59375 22.90625 65.59375 
C 18.09375 65.59375 12 63.40625 8.203125 56.203125 
C 4.203125 48.71875 3.796875 39.4375 3.796875 31.640625 
C 3.796875 25.953125 3.90625 17.28125 7 9.671875 
C 11.296875 -0.609375 19 -2 22.90625 -2 
C 27.5 -2 34.5 -0.109375 38.59375 9.375 
C 41.59375 16.28125 42 24.359375 42 31.640625 
z
M 22.90625 -0.40625 
C 16.5 -0.40625 12.703125 5.078125 11.296875 12.6875 
C 10.203125 18.5625 10.203125 27.15625 10.203125 32.75 
C 10.203125 40.4375 10.203125 46.828125 11.5 52.921875 
C 13.40625 61.390625 19 64 22.90625 64 
C 27 64 32.296875 61.296875 34.203125 53.125 
C 35.5 47.4375 35.59375 40.734375 35.59375 32.75 
C 35.59375 26.25 35.59375 18.265625 34.40625 12.375 
C 32.296875 1.484375 26.40625 -0.40625 22.90625 -0.40625 
z
" id="CMR17-48"/>
       </defs>
       <use transform="scale(0.996264)" xlink:href="#CMR17-48"/>
      </g>
     </g>
    </g>
    <g id="xtick_2">
     <g id="line2d_3">
      <path clip-path="url(#pf3cb8d19cd)" d="M 173.74779 352.44 
L 173.74779 47.52 
" style="fill:none;stroke:#ffffff;stroke-linecap:round;"/>
     </g>
     <g id="line2d_4"/>
     <g id="text_2">
      <!-- $\mathdefault{500}$ -->
      <g style="fill:#262626;" transform="translate(166.275787 366.358498)scale(0.1 -0.1)">
       <defs>
        <path d="M 11.40625 57.6875 
C 12.40625 57.28125 16.5 56 20.703125 56 
C 30 56 35.09375 61.109375 38 64.0625 
C 38 64.953125 38 65.5 37.40625 65.5 
C 37.296875 65.5 37.09375 65.5 36.296875 65.046875 
C 32.796875 63.40625 28.703125 62.078125 23.703125 62.078125 
C 20.703125 62.078125 16.203125 62.484375 11.296875 64.671875 
C 10.203125 65.171875 10 65.171875 9.90625 65.171875 
C 9.40625 65.171875 9.296875 65.0625 9.296875 63.078125 
L 9.296875 34.421875 
C 9.296875 32.640625 9.296875 32.140625 10.296875 32.140625 
C 10.796875 32.140625 11 32.34375 11.5 33.03125 
C 14.703125 37.515625 19.09375 39.40625 24.09375 39.40625 
C 27.59375 39.40625 35.09375 37.21875 35.09375 20.140625 
C 35.09375 16.953125 35.09375 11.171875 32.09375 6.578125 
C 29.59375 2.484375 25.703125 0.390625 21.40625 0.390625 
C 14.796875 0.390625 8.09375 5 6.296875 12.71875 
C 6.703125 12.609375 7.5 12.421875 7.90625 12.421875 
C 9.203125 12.421875 11.703125 13.125 11.703125 16.21875 
C 11.703125 18.90625 9.796875 20 7.90625 20 
C 5.59375 20 4.09375 18.59375 4.09375 15.796875 
C 4.09375 7.09375 11 -2 21.59375 -2 
C 31.90625 -2 41.703125 6.875 41.703125 19.75 
C 41.703125 31.71875 33.90625 41 24.203125 41 
C 19.09375 41 14.796875 39.109375 11.40625 35.53125 
z
" id="CMR17-53"/>
       </defs>
       <use transform="scale(0.996264)" xlink:href="#CMR17-53"/>
       <use transform="translate(45.690477 0)scale(0.996264)" xlink:href="#CMR17-48"/>
       <use transform="translate(91.380954 0)scale(0.996264)" xlink:href="#CMR17-48"/>
      </g>
     </g>
    </g>
    <g id="xtick_3">
     <g id="line2d_5">
      <path clip-path="url(#pf3cb8d19cd)" d="M 255.204671 352.44 
L 255.204671 47.52 
" style="fill:none;stroke:#ffffff;stroke-linecap:round;"/>
     </g>
     <g id="line2d_6"/>
     <g id="text_3">
      <!-- $\mathdefault{1000}$ -->
      <g style="fill:#262626;" transform="translate(245.242001 366.358498)scale(0.1 -0.1)">
       <defs>
        <path d="M 26.59375 63.40625 
C 26.59375 65.5 26.5 65.5 25.09375 65.5 
C 21.203125 61.1875 15.296875 59.796875 9.703125 59.796875 
C 9.40625 59.796875 8.90625 59.796875 8.796875 59.5 
C 8.703125 59.296875 8.703125 59.09375 8.703125 57 
C 11.796875 57 17 57.59375 21 59.984375 
L 21 7.203125 
C 21 3.6875 20.796875 2.5 12.203125 2.5 
L 9.203125 2.5 
L 9.203125 0 
C 14 0 19 0 23.796875 0 
C 28.59375 0 33.59375 0 38.40625 0 
L 38.40625 2.5 
L 35.40625 2.5 
C 26.796875 2.5 26.59375 3.59375 26.59375 7.15625 
z
" id="CMR17-49"/>
       </defs>
       <use transform="scale(0.996264)" xlink:href="#CMR17-49"/>
       <use transform="translate(45.690477 0)scale(0.996264)" xlink:href="#CMR17-48"/>
       <use transform="translate(91.380954 0)scale(0.996264)" xlink:href="#CMR17-48"/>
       <use transform="translate(137.071431 0)scale(0.996264)" xlink:href="#CMR17-48"/>
      </g>
     </g>
    </g>
    <g id="xtick_4">
     <g id="line2d_7">
      <path clip-path="url(#pf3cb8d19cd)" d="M 336.661552 352.44 
L 336.661552 47.52 
" style="fill:none;stroke:#ffffff;stroke-linecap:round;"/>
     </g>
     <g id="line2d_8"/>
     <g id="text_4">
      <!-- $\mathdefault{1500}$ -->
      <g style="fill:#262626;" transform="translate(326.698882 366.358498)scale(0.1 -0.1)">
       <use transform="scale(0.996264)" xlink:href="#CMR17-49"/>
       <use transform="translate(45.690477 0)scale(0.996264)" xlink:href="#CMR17-53"/>
       <use transform="translate(91.380954 0)scale(0.996264)" xlink:href="#CMR17-48"/>
       <use transform="translate(137.071431 0)scale(0.996264)" xlink:href="#CMR17-48"/>
      </g>
     </g>
    </g>
    <g id="xtick_5">
     <g id="line2d_9">
      <path clip-path="url(#pf3cb8d19cd)" d="M 418.118434 352.44 
L 418.118434 47.52 
" style="fill:none;stroke:#ffffff;stroke-linecap:round;"/>
     </g>
     <g id="line2d_10"/>
     <g id="text_5">
      <!-- $\mathdefault{2000}$ -->
      <g style="fill:#262626;" transform="translate(408.155763 366.358498)scale(0.1 -0.1)">
       <defs>
        <path d="M 41.703125 15.453125 
L 39.90625 15.453125 
C 38.90625 8.375 38.09375 7.171875 37.703125 6.5625 
C 37.203125 5.765625 30 5.765625 28.59375 5.765625 
L 9.40625 5.765625 
C 13 9.671875 20 16.75 28.5 24.953125 
C 34.59375 30.734375 41.703125 37.53125 41.703125 47.421875 
C 41.703125 59.21875 32.296875 66 21.796875 66 
C 10.796875 66 4.09375 56.3125 4.09375 47.34375 
C 4.09375 43.4375 7 42.9375 8.203125 42.9375 
C 9.203125 42.9375 12.203125 43.546875 12.203125 47.03125 
C 12.203125 50.109375 9.59375 51 8.203125 51 
C 7.59375 51 7 50.90625 6.59375 50.703125 
C 8.5 59.21875 14.296875 63.40625 20.40625 63.40625 
C 29.09375 63.40625 34.796875 56.515625 34.796875 47.421875 
C 34.796875 38.734375 29.703125 31.25 24 24.75 
L 4.09375 2.28125 
L 4.09375 0 
L 39.296875 0 
z
" id="CMR17-50"/>
       </defs>
       <use transform="scale(0.996264)" xlink:href="#CMR17-50"/>
       <use transform="translate(45.690477 0)scale(0.996264)" xlink:href="#CMR17-48"/>
       <use transform="translate(91.380954 0)scale(0.996264)" xlink:href="#CMR17-48"/>
       <use transform="translate(137.071431 0)scale(0.996264)" xlink:href="#CMR17-48"/>
      </g>
     </g>
    </g>
    <g id="xtick_6">
     <g id="line2d_11">
      <path clip-path="url(#pf3cb8d19cd)" d="M 499.575315 352.44 
L 499.575315 47.52 
" style="fill:none;stroke:#ffffff;stroke-linecap:round;"/>
     </g>
     <g id="line2d_12"/>
     <g id="text_6">
      <!-- $\mathdefault{2500}$ -->
      <g style="fill:#262626;" transform="translate(489.612644 366.358498)scale(0.1 -0.1)">
       <use transform="scale(0.996264)" xlink:href="#CMR17-50"/>
       <use transform="translate(45.690477 0)scale(0.996264)" xlink:href="#CMR17-53"/>
       <use transform="translate(91.380954 0)scale(0.996264)" xlink:href="#CMR17-48"/>
       <use transform="translate(137.071431 0)scale(0.996264)" xlink:href="#CMR17-48"/>
      </g>
     </g>
    </g>
    <g id="text_7">
     <!-- epoch -->
     <g style="fill:#262626;" transform="translate(281.623098 379.906023)scale(0.11 -0.11)">
      <defs>
       <path d="M 39.09375 21.515625 
C 39.09375 24.84375 38.90625 31.296875 35.703125 36.640625 
C 32.203125 42.390625 26.5 44 22.203125 44 
C 11.796875 44 3 34.1875 3 21.484375 
C 3 9.09375 12.09375 -1 23.59375 -1 
C 28.09375 -1 33.59375 0.296875 38.59375 3.875 
C 38.59375 4.28125 38.40625 6.46875 38.296875 6.5625 
C 38.296875 6.765625 38 9.84375 38 10.25 
C 33.203125 6.359375 27.703125 5.078125 23.703125 5.078125 
C 17.296875 5.078125 10.40625 10.421875 10.09375 21.515625 
z
M 10.90625 27 
C 12.203125 32.5625 16.59375 37.828125 22.203125 37.828125 
C 23.703125 37.828125 30.703125 37.828125 32.5 27 
z
" id="CMSS17-101"/>
       <path d="M 15.09375 5.203125 
C 18.40625 2.015625 22.90625 -0.078125 27.703125 -0.078125 
C 37 -0.078125 45 9.421875 45 22.0625 
C 45 33.734375 39 44 30.40625 44 
C 25.40625 44 19.40625 42.21875 14.90625 38.625 
L 14.90625 43.203125 
L 7.5 43.203125 
L 7.5 -19 
L 15.09375 -19 
z
M 15.09375 32.8125 
C 15.90625 34 19.296875 37.734375 24.796875 37.734375 
C 31.796875 37.734375 37.40625 30.625 37.40625 22.0625 
C 37.40625 12.296875 30.59375 6 23.90625 6 
C 21.90625 6 19.796875 6.484375 17.796875 8.171875 
C 15.09375 10.53125 15.09375 12 15.09375 13.390625 
z
" id="CMSS17-112"/>
       <path d="M 44.203125 21.1875 
C 44.203125 34 34.703125 44 23.5 44 
C 12 44 2.703125 33.703125 2.703125 21.1875 
C 2.703125 8.5 12.296875 -1 23.40625 -1 
C 34.796875 -1 44.203125 8.796875 44.203125 21.1875 
z
M 23.5 5.265625 
C 16.40625 5.265625 10.296875 11.078125 10.296875 22 
C 10.296875 33.609375 17.40625 37.921875 23.40625 37.921875 
C 29.90625 37.921875 36.59375 33.21875 36.59375 22 
C 36.59375 10.671875 30.09375 5.265625 23.5 5.265625 
z
" id="CMSS17-111"/>
       <path d="M 38.5 39.703125 
C 38.5 40.390625 33.90625 42.40625 32.703125 42.796875 
C 29.40625 44 25.203125 44 24.09375 44 
C 11.09375 44 3.296875 32.703125 3.296875 21.296875 
C 3.296875 9.296875 12 -1 23.703125 -1 
C 30.40625 -1 35.203125 1.1875 39.09375 3.78125 
L 38.5 10.375 
C 34.203125 7.078125 29.203125 5.265625 23.796875 5.265625 
C 16 5.265625 10.90625 12.09375 10.90625 21.390625 
C 10.90625 28.609375 14.203125 37.71875 24.203125 37.71875 
C 29.703125 37.71875 32.796875 36.609375 37.40625 33.515625 
z
" id="CMSS17-99"/>
       <path d="M 40.90625 29.546875 
C 40.90625 35.8125 39.40625 44.0625 28.09375 44.0625 
C 21.796875 44.0625 17.703125 40.984375 14.796875 37.609375 
L 14.796875 69.5 
L 7.40625 69.5 
L 7.40625 0.5 
L 15 0.5 
L 15 24.578125 
C 15 30.828125 17.40625 38 24.203125 38 
C 33 38 33.296875 32.125 33.296875 28.734375 
L 33.296875 0.5 
L 40.90625 0.5 
z
" id="CMSS17-104"/>
      </defs>
      <use transform="scale(0.996264)" xlink:href="#CMSS17-101"/>
      <use transform="translate(41.638822 0)scale(0.996264)" xlink:href="#CMSS17-112"/>
      <use transform="translate(92.446204 0)scale(0.996264)" xlink:href="#CMSS17-111"/>
      <use transform="translate(141.892266 0)scale(0.996264)" xlink:href="#CMSS17-99"/>
      <use transform="translate(183.531088 0)scale(0.996264)" xlink:href="#CMSS17-104"/>
     </g>
    </g>
   </g>
   <g id="matplotlib.axis_2">
    <g id="ytick_1">
     <g id="line2d_13">
      <path clip-path="url(#pf3cb8d19cd)" d="M 72 340.797599 
L 518.4 340.797599 
" style="fill:none;stroke:#ffffff;stroke-linecap:round;"/>
     </g>
     <g id="line2d_14"/>
     <g id="text_8">
      <!-- $\mathdefault{0.3}$ -->
      <g style="fill:#262626;" transform="translate(52.269921 344.256848)scale(0.1 -0.1)">
       <defs>
        <path d="M 18.40625 4.796875 
C 18.40625 7.6875 16 9.671875 13.59375 9.671875 
C 10.703125 9.671875 8.703125 7.28125 8.703125 4.890625 
C 8.703125 2 11.09375 0 13.5 0 
C 16.40625 0 18.40625 2.390625 18.40625 4.796875 
z
" id="CMMI12-58"/>
        <path d="M 22.09375 33.703125 
C 31 33.703125 34.90625 25.96875 34.90625 17.03125 
C 34.90625 5 28.5 0.390625 22.703125 0.390625 
C 17.40625 0.390625 8.796875 3.03125 6.09375 10.828125 
C 6.59375 10.625 7.09375 10.625 7.59375 10.625 
C 10 10.625 11.796875 12.21875 11.796875 14.8125 
C 11.796875 17.703125 9.59375 19 7.59375 19 
C 5.90625 19 3.296875 18.203125 3.296875 14.46875 
C 3.296875 5.234375 12.296875 -2 22.90625 -2 
C 34 -2 42.5 6.71875 42.5 16.953125 
C 42.5 26.671875 34.5 33.703125 25 34.796875 
C 32.59375 36.375 39.90625 43.0625 39.90625 52.015625 
C 39.90625 59.6875 32 65.296875 23 65.296875 
C 13.90625 65.296875 5.90625 59.828125 5.90625 52.015625 
C 5.90625 48.59375 8.5 48 9.796875 48 
C 11.90625 48 13.703125 49.296875 13.703125 51.890625 
C 13.703125 54.46875 11.90625 55.765625 9.796875 55.765625 
C 9.40625 55.765625 8.90625 55.765625 8.5 55.578125 
C 11.40625 61.859375 19.296875 63 22.796875 63 
C 26.296875 63 32.90625 61.328125 32.90625 51.875 
C 32.90625 49.109375 32.5 44.1875 29.09375 39.84375 
C 26.09375 36 22.703125 36 19.40625 35.6875 
C 18.90625 35.6875 16.59375 35.453125 16.203125 35.453125 
C 15.5 35.359375 15.09375 35.265625 15.09375 34.5 
C 15.09375 33.796875 15.203125 33.703125 17.203125 33.703125 
z
" id="CMR17-51"/>
       </defs>
       <use transform="scale(0.996264)" xlink:href="#CMR17-48"/>
       <use transform="translate(45.690477 0)scale(0.996264)" xlink:href="#CMMI12-58"/>
       <use transform="translate(72.787654 0)scale(0.996264)" xlink:href="#CMR17-51"/>
      </g>
     </g>
    </g>
    <g id="ytick_2">
     <g id="line2d_15">
      <path clip-path="url(#pf3cb8d19cd)" d="M 72 300.880799 
L 518.4 300.880799 
" style="fill:none;stroke:#ffffff;stroke-linecap:round;"/>
     </g>
     <g id="line2d_16"/>
     <g id="text_9">
      <!-- $\mathdefault{0.4}$ -->
      <g style="fill:#262626;" transform="translate(52.269921 304.340048)scale(0.1 -0.1)">
       <defs>
        <path d="M 33.59375 64.40625 
C 33.59375 66.5 33.5 66.5 31.703125 66.5 
L 2 19.59375 
L 2 17 
L 27.796875 17 
L 27.796875 7.140625 
C 27.796875 3.5 27.59375 2.5 20.59375 2.5 
L 18.703125 2.5 
L 18.703125 0 
C 21.90625 0 27.296875 0 30.703125 0 
C 34.09375 0 39.5 0 42.703125 0 
L 42.703125 2.5 
L 40.796875 2.5 
C 33.796875 2.5 33.59375 3.5 33.59375 7.140625 
L 33.59375 17 
L 43.796875 17 
L 43.796875 19.59375 
L 33.59375 19.59375 
z
M 28.09375 57.859375 
L 28.09375 19.59375 
L 4 19.59375 
z
" id="CMR17-52"/>
       </defs>
       <use transform="scale(0.996264)" xlink:href="#CMR17-48"/>
       <use transform="translate(45.690477 0)scale(0.996264)" xlink:href="#CMMI12-58"/>
       <use transform="translate(72.787654 0)scale(0.996264)" xlink:href="#CMR17-52"/>
      </g>
     </g>
    </g>
    <g id="ytick_3">
     <g id="line2d_17">
      <path clip-path="url(#pf3cb8d19cd)" d="M 72 260.963999 
L 518.4 260.963999 
" style="fill:none;stroke:#ffffff;stroke-linecap:round;"/>
     </g>
     <g id="line2d_18"/>
     <g id="text_10">
      <!-- $\mathdefault{0.5}$ -->
      <g style="fill:#262626;" transform="translate(52.269921 264.423248)scale(0.1 -0.1)">
       <use transform="scale(0.996264)" xlink:href="#CMR17-48"/>
       <use transform="translate(45.690477 0)scale(0.996264)" xlink:href="#CMMI12-58"/>
       <use transform="translate(72.787654 0)scale(0.996264)" xlink:href="#CMR17-53"/>
      </g>
     </g>
    </g>
    <g id="ytick_4">
     <g id="line2d_19">
      <path clip-path="url(#pf3cb8d19cd)" d="M 72 221.047199 
L 518.4 221.047199 
" style="fill:none;stroke:#ffffff;stroke-linecap:round;"/>
     </g>
     <g id="line2d_20"/>
     <g id="text_11">
      <!-- $\mathdefault{0.6}$ -->
      <g style="fill:#262626;" transform="translate(52.269921 224.506448)scale(0.1 -0.1)">
       <defs>
        <path d="M 10.59375 34 
C 10.59375 57.65625 21.796875 63 28.296875 63 
C 30.40625 63 35.5 62.640625 37.5 59 
C 35.90625 59 32.90625 59 32.90625 55.515625 
C 32.90625 52.828125 35.09375 51.921875 36.5 51.921875 
C 37.40625 51.921875 40.09375 52.3125 40.09375 55.625 
C 40.09375 61.78125 35.09375 65.296875 28.203125 65.296875 
C 16.296875 65.296875 3.796875 52.96875 3.796875 31 
C 3.796875 3.953125 15.09375 -2 23.09375 -2 
C 32.796875 -2 42 6.671875 42 20.046875 
C 42 32.515625 33.90625 41.59375 23.703125 41.59375 
C 17.59375 41.59375 13.09375 37.609375 10.59375 30.625 
z
M 23.09375 0.390625 
C 10.796875 0.390625 10.796875 18.75 10.796875 22.4375 
C 10.796875 29.625 14.203125 40 23.5 40 
C 25.203125 40 30.09375 40 33.40625 33.125 
C 35.203125 29.21875 35.203125 25.140625 35.203125 20.140625 
C 35.203125 14.75 35.203125 10.78125 33.09375 6.78125 
C 30.90625 2.671875 27.703125 0.390625 23.09375 0.390625 
z
" id="CMR17-54"/>
       </defs>
       <use transform="scale(0.996264)" xlink:href="#CMR17-48"/>
       <use transform="translate(45.690477 0)scale(0.996264)" xlink:href="#CMMI12-58"/>
       <use transform="translate(72.787654 0)scale(0.996264)" xlink:href="#CMR17-54"/>
      </g>
     </g>
    </g>
    <g id="ytick_5">
     <g id="line2d_21">
      <path clip-path="url(#pf3cb8d19cd)" d="M 72 181.130399 
L 518.4 181.130399 
" style="fill:none;stroke:#ffffff;stroke-linecap:round;"/>
     </g>
     <g id="line2d_22"/>
     <g id="text_12">
      <!-- $\mathdefault{0.7}$ -->
      <g style="fill:#262626;" transform="translate(52.269921 184.589649)scale(0.1 -0.1)">
       <defs>
        <path d="M 45.09375 61.578125 
L 45.09375 63.765625 
L 21.59375 63.765625 
C 9.90625 63.765625 9.703125 65.078125 9.296875 67 
L 7.5 67 
L 4.59375 48.34375 
L 6.40625 48.34375 
C 6.703125 50.234375 7.40625 55.3125 8.59375 57.203125 
C 9.203125 58 16.59375 58 18.296875 58 
L 40.296875 58 
L 29.203125 41.578125 
C 21.796875 30.53125 16.703125 15.609375 16.703125 2.578125 
C 16.703125 1.390625 16.703125 -2 20.296875 -2 
C 23.90625 -2 23.90625 1.390625 23.90625 2.671875 
L 23.90625 7.265625 
C 23.90625 23.5625 26.703125 34.3125 31.296875 41.1875 
z
" id="CMR17-55"/>
       </defs>
       <use transform="scale(0.996264)" xlink:href="#CMR17-48"/>
       <use transform="translate(45.690477 0)scale(0.996264)" xlink:href="#CMMI12-58"/>
       <use transform="translate(72.787654 0)scale(0.996264)" xlink:href="#CMR17-55"/>
      </g>
     </g>
    </g>
    <g id="ytick_6">
     <g id="line2d_23">
      <path clip-path="url(#pf3cb8d19cd)" d="M 72 141.2136 
L 518.4 141.2136 
" style="fill:none;stroke:#ffffff;stroke-linecap:round;"/>
     </g>
     <g id="line2d_24"/>
     <g id="text_13">
      <!-- $\mathdefault{0.8}$ -->
      <g style="fill:#262626;" transform="translate(52.269921 144.672849)scale(0.1 -0.1)">
       <defs>
        <path d="M 27.203125 35.375 
C 33.5 38.546875 39.90625 43.328125 39.90625 50.984375 
C 39.90625 60.015625 31.09375 65.296875 23 65.296875 
C 13.90625 65.296875 5.90625 58.734375 5.90625 49.6875 
C 5.90625 47.203125 6.5 42.921875 10.40625 39.140625 
C 11.40625 38.15625 15.59375 35.171875 18.296875 33.28125 
C 13.796875 30.984375 3.296875 25.53125 3.296875 14.59375 
C 3.296875 4.359375 13.09375 -2 22.796875 -2 
C 33.5 -2 42.5 5.65625 42.5 15.78125 
C 42.5 24.84375 36.40625 29.015625 32.40625 31.703125 
z
M 14.09375 44.09375 
C 13.296875 44.59375 9.296875 47.671875 9.296875 52.359375 
C 9.296875 58.421875 15.59375 63 22.796875 63 
C 30.703125 63 36.5 57.4375 36.5 50.96875 
C 36.5 41.703125 26.09375 36.421875 25.59375 36.421875 
C 25.5 36.421875 25.40625 36.421875 24.59375 37.03125 
z
M 32.5 23.734375 
C 34 22.640625 38.796875 19.375 38.796875 13.296875 
C 38.796875 5.953125 31.40625 0.390625 23 0.390625 
C 13.90625 0.390625 7 6.84375 7 14.6875 
C 7 22.546875 13.09375 29.09375 20 32.1875 
z
" id="CMR17-56"/>
       </defs>
       <use transform="scale(0.996264)" xlink:href="#CMR17-48"/>
       <use transform="translate(45.690477 0)scale(0.996264)" xlink:href="#CMMI12-58"/>
       <use transform="translate(72.787654 0)scale(0.996264)" xlink:href="#CMR17-56"/>
      </g>
     </g>
    </g>
    <g id="ytick_7">
     <g id="line2d_25">
      <path clip-path="url(#pf3cb8d19cd)" d="M 72 101.2968 
L 518.4 101.2968 
" style="fill:none;stroke:#ffffff;stroke-linecap:round;"/>
     </g>
     <g id="line2d_26"/>
     <g id="text_14">
      <!-- $\mathdefault{0.9}$ -->
      <g style="fill:#262626;" transform="translate(52.269921 104.756049)scale(0.1 -0.1)">
       <defs>
        <path d="M 35.203125 29.125 
C 35.203125 7.25 26.09375 0.484375 18.59375 0.484375 
C 16.296875 0.484375 10.703125 0.484375 8.40625 4.59375 
C 11 4.1875 12.90625 5.578125 12.90625 8.09375 
C 12.90625 10.8125 10.703125 11.703125 9.296875 11.703125 
C 8.40625 11.703125 5.703125 11.296875 5.703125 7.90625 
C 5.703125 1.109375 11.59375 -2 18.796875 -2 
C 30.296875 -2 42 10.53125 42 32.390625 
C 42 59.640625 30.796875 65.296875 23.203125 65.296875 
C 13.296875 65.296875 3.796875 56.6875 3.796875 43.40625 
C 3.796875 31.109375 11.90625 22 22.09375 22 
C 30.5 22 34.203125 29.734375 35.203125 33 
z
M 22.296875 23.59375 
C 19.59375 23.59375 15.796875 24.09375 12.703125 30.03125 
C 10.59375 33.890625 10.59375 38.453125 10.59375 43.296875 
C 10.59375 49.15625 10.59375 53.203125 13.40625 57.5625 
C 14.796875 59.640625 17.40625 63 23.203125 63 
C 35 63 35 45.078125 35 41.125 
C 35 34.09375 31.796875 23.59375 22.296875 23.59375 
z
" id="CMR17-57"/>
       </defs>
       <use transform="scale(0.996264)" xlink:href="#CMR17-48"/>
       <use transform="translate(45.690477 0)scale(0.996264)" xlink:href="#CMMI12-58"/>
       <use transform="translate(72.787654 0)scale(0.996264)" xlink:href="#CMR17-57"/>
      </g>
     </g>
    </g>
    <g id="ytick_8">
     <g id="line2d_27">
      <path clip-path="url(#pf3cb8d19cd)" d="M 72 61.38 
L 518.4 61.38 
" style="fill:none;stroke:#ffffff;stroke-linecap:round;"/>
     </g>
     <g id="line2d_28"/>
     <g id="text_15">
      <!-- $\mathdefault{1.0}$ -->
      <g style="fill:#262626;" transform="translate(52.269921 64.839249)scale(0.1 -0.1)">
       <use transform="scale(0.996264)" xlink:href="#CMR17-49"/>
       <use transform="translate(45.690477 0)scale(0.996264)" xlink:href="#CMMI12-58"/>
       <use transform="translate(72.787654 0)scale(0.996264)" xlink:href="#CMR17-48"/>
      </g>
     </g>
    </g>
    <g id="text_16">
     <!-- accuracy -->
     <g style="fill:#262626;" transform="translate(46.139026 219.782176)rotate(-90)scale(0.11 -0.11)">
      <defs>
       <path d="M 37.59375 27.984375 
C 37.59375 37.375 30.90625 43.875 21.90625 43.875 
C 17.5 43.875 12.703125 43.078125 7.203125 39.890625 
L 7.796875 33.359375 
C 10.296875 35.125 14.59375 38 21.796875 38 
C 26.90625 38 30 34.0625 30 27.84375 
L 30 24 
C 14 24 4 19.34375 4 11.34375 
C 4 7.203125 6.5 -1 14.796875 -1 
C 16.296875 -1 24.40625 -1 30.203125 3.390625 
L 30.203125 -0.296875 
L 37.59375 -0.296875 
z
M 30 12.75 
C 30 10.953125 30 8.5625 27 6.78125 
C 24.40625 5.078125 21.09375 5.078125 19.703125 5.078125 
C 14.703125 5.078125 11.296875 7.984375 11.296875 11.625 
C 11.296875 18.921875 26.90625 18.921875 30 18.921875 
z
" id="CMSS17-97"/>
       <path d="M 40.90625 42.796875 
L 33.296875 42.796875 
L 33.296875 15.1875 
C 33.296875 7.78125 27.90625 4.78125 22.203125 4.78125 
C 15.59375 4.78125 15 6.984375 15 11.078125 
L 15 42.796875 
L 7.40625 42.796875 
L 7.40625 10.59375 
C 7.40625 2.796875 10.09375 -1 17 -1 
C 20.40625 -1 28.09375 -0.203125 33.5 4.78125 
L 33.5 0 
L 40.90625 0 
z
" id="CMSS17-117"/>
       <path d="M 14.90625 21.296875 
C 14.90625 30.703125 21.796875 37 30.59375 37 
L 30.59375 43.578125 
C 24.203125 43.578125 18.203125 40.390625 14.59375 35.203125 
L 14.59375 43.09375 
L 7.5 43.09375 
L 7.5 0 
L 14.90625 0 
z
" id="CMSS17-114"/>
       <path d="M 41.796875 43 
L 34 43 
C 25.5 20.21875 22.59375 10.96875 22.40625 5.984375 
L 22.296875 5.984375 
C 22 10.875 17.59375 22.8125 14.09375 31.359375 
L 9.40625 43 
L 1.296875 43 
L 19 0.203125 
C 17.90625 -2.78125 16.296875 -7.265625 15.796875 -8.265625 
C 13.59375 -13.828125 12.09375 -13.828125 10.5 -13.828125 
C 10.09375 -13.828125 6.90625 -13.828125 3.296875 -12.640625 
L 3.90625 -19.203125 
C 6.40625 -19.703125 8.90625 -20 10.703125 -20 
C 13.203125 -20 18.203125 -20 22.796875 -7.765625 
z
" id="CMSS17-121"/>
      </defs>
      <use transform="scale(0.996264)" xlink:href="#CMSS17-97"/>
      <use transform="translate(44.921921 0)scale(0.996264)" xlink:href="#CMSS17-99"/>
      <use transform="translate(86.560743 0)scale(0.996264)" xlink:href="#CMSS17-99"/>
      <use transform="translate(128.199565 0)scale(0.996264)" xlink:href="#CMSS17-117"/>
      <use transform="translate(176.404508 0)scale(0.996264)" xlink:href="#CMSS17-114"/>
      <use transform="translate(208.31428 0)scale(0.996264)" xlink:href="#CMSS17-97"/>
      <use transform="translate(253.236201 0)scale(0.996264)" xlink:href="#CMSS17-99"/>
      <use transform="translate(294.875023 0)scale(0.996264)" xlink:href="#CMSS17-121"/>
     </g>
    </g>
   </g>
   <g id="line2d_29">
    <path clip-path="url(#pf3cb8d19cd)" d="M 92.290909 338.58 
L 92.77965 150.083994 
L 93.105478 116.820002 
L 93.268392 105.731997 
L 93.431305 105.731997 
L 93.594219 94.643992 
L 93.757133 94.643992 
L 94.08296 72.468005 
L 94.408788 72.468005 
L 94.571702 61.38 
L 94.734616 61.38 
L 94.897529 72.468005 
L 95.223357 72.468005 
L 95.386271 83.55601 
L 96.526667 83.55601 
L 96.689581 94.643992 
L 97.667063 94.643992 
L 97.829977 83.55601 
L 98.80746 83.55601 
L 98.970373 82.956659 
L 99.296201 82.956659 
L 99.459115 77.562477 
L 113.795526 77.562477 
L 113.958439 72.168318 
L 115.098836 72.168318 
L 115.26175 75.635993 
L 117.379628 75.635993 
L 117.542542 74.957152 
L 118.357111 74.957152 
L 118.520025 72.40674 
L 122.267041 72.40674 
L 122.429955 70.201387 
L 132.041867 70.201387 
L 132.204781 67.996035 
L 134.648487 67.996035 
L 134.811401 66.89845 
L 135.463056 66.89845 
L 135.62597 68.737925 
L 136.92928 68.737925 
L 137.092194 66.89845 
L 150.288208 66.89845 
L 150.451122 65.058974 
L 150.939864 65.058974 
L 151.102777 67.666107 
L 152.731915 67.666107 
L 152.894829 66.09458 
L 165.765016 66.09458 
L 166.090843 62.951527 
L 167.23124 62.951527 
L 167.394153 64.10469 
L 172.281566 64.10469 
L 172.44448 65.467036 
L 177.168979 65.467036 
L 177.331893 66.829381 
L 177.820634 66.829381 
L 177.983548 68.19175 
L 178.635203 68.19175 
L 178.798117 69.554095 
L 183.033875 69.554095 
L 183.196788 68.19175 
L 183.522616 68.19175 
L 183.68553 68.659648 
L 199.813992 68.659648 
L 199.976906 68.972874 
L 204.375578 68.972874 
L 204.538491 70.057563 
L 205.35306 70.057563 
L 205.515974 72.226966 
L 205.678888 71.142253 
L 205.841801 71.142253 
L 206.004715 72.226966 
L 211.706697 72.226966 
L 211.869611 71.142253 
L 212.032524 72.226966 
L 212.195438 72.226966 
L 212.358352 71.142253 
L 212.521266 72.226966 
L 212.847093 72.226966 
L 213.010007 70.057563 
L 213.335834 70.057563 
L 213.498748 71.142253 
L 213.824576 71.142253 
L 213.98749 70.057563 
L 214.313317 70.057563 
L 214.476231 68.972874 
L 216.105368 68.972874 
L 216.268282 68.313447 
L 216.431196 69.303919 
L 216.59411 68.313447 
L 216.919937 72.275407 
L 217.082851 71.284911 
L 217.245765 68.313447 
L 217.408679 69.303919 
L 218.060334 69.303919 
L 218.223247 68.588462 
L 220.015299 68.588462 
L 220.178212 67.687401 
L 221.644436 67.687401 
L 221.80735 66.786341 
L 223.599401 66.786341 
L 223.762315 67.687401 
L 223.925229 66.786341 
L 224.088143 66.786341 
L 224.251057 67.687401 
L 224.902712 67.687401 
L 225.065625 66.786341 
L 234.35171 66.786341 
L 234.514624 66.369595 
L 236.469589 66.369595 
L 236.632502 65.538008 
L 237.121244 65.538008 
L 237.284158 66.369595 
L 237.447071 65.538008 
L 240.053691 65.538008 
L 240.216605 64.706397 
L 241.682829 64.706397 
L 241.845743 63.87481 
L 242.008657 63.87481 
L 242.17157 64.706397 
L 242.334484 64.706397 
L 242.497398 63.87481 
L 250.643086 63.87481 
L 250.968914 65.218145 
L 251.131827 64.450535 
L 251.457655 64.450535 
L 251.620569 65.218145 
L 257.485464 65.218145 
L 257.648378 65.985778 
L 257.811292 65.218145 
L 258.137119 65.218145 
L 258.300033 65.985778 
L 258.462947 65.218145 
L 258.62586 65.985778 
L 258.951688 65.985778 
L 259.277515 67.521046 
L 259.440429 66.753412 
L 259.766257 66.753412 
L 259.92917 67.521046 
L 260.092084 67.521046 
L 260.417912 65.985778 
L 260.743739 67.521046 
L 260.906653 67.521046 
L 261.069567 66.753412 
L 261.232481 67.521046 
L 264.490756 67.521046 
L 264.65367 68.288679 
L 264.979497 68.288679 
L 265.142411 67.521046 
L 265.305325 68.288679 
L 265.468238 66.753412 
L 265.631152 68.288679 
L 265.95698 68.288679 
L 266.119893 67.521046 
L 266.282807 68.288679 
L 266.934462 68.288679 
L 267.097376 67.806672 
L 268.237772 67.806672 
L 268.400686 67.092595 
L 268.5636 67.806672 
L 270.029824 67.806672 
L 270.192737 67.092595 
L 270.681479 67.092595 
L 270.844393 67.806672 
L 271.007306 67.092595 
L 272.310616 67.092595 
L 272.47353 67.806672 
L 272.636444 67.092595 
L 272.799358 67.092595 
L 272.962271 67.806672 
L 273.288099 67.806672 
L 273.451013 67.092595 
L 273.77684 67.092595 
L 273.939754 67.806672 
L 274.428495 67.806672 
L 274.591409 67.092595 
L 275.08015 67.092595 
L 275.243064 67.806672 
L 275.731805 67.806672 
L 275.894719 67.092595 
L 276.057633 67.806672 
L 276.546374 67.806672 
L 276.709288 67.092595 
L 276.872202 67.806672 
L 283.225838 67.806672 
L 283.388752 68.055039 
L 285.995372 68.055039 
L 286.158286 67.656233 
L 300.005956 67.656233 
L 300.16887 67.904292 
L 301.798007 67.904292 
L 301.960921 67.546932 
L 313.364884 67.546932 
L 313.527798 67.758183 
L 314.994022 67.758183 
L 315.156936 67.45871 
L 331.285398 67.45871 
L 331.448312 67.179056 
L 333.240363 67.179056 
L 333.403277 66.695787 
L 333.566191 67.179056 
L 334.217846 67.179056 
L 334.38076 66.695787 
L 334.543674 67.179056 
L 334.706587 66.695787 
L 334.869501 67.179056 
L 335.032415 66.212542 
L 335.195329 67.179056 
L 335.358242 66.695787 
L 335.521156 66.695787 
L 335.68407 67.179056 
L 335.846984 67.179056 
L 336.009897 66.695787 
L 336.335725 67.365206 
L 336.498639 67.365206 
L 336.661552 66.904826 
L 339.594 66.904826 
L 339.756914 67.120241 
L 341.386052 67.120241 
L 341.548965 66.678681 
L 341.874793 66.678681 
L 342.037707 67.120241 
L 342.20062 66.678681 
L 342.363534 66.678681 
L 342.526448 67.120241 
L 342.689362 66.882842 
L 348.880085 66.882842 
L 349.042998 67.09407 
L 349.53174 67.09407 
L 349.694653 67.502202 
L 349.857567 67.09407 
L 350.509222 67.09407 
L 350.672136 67.502202 
L 350.83505 67.09407 
L 352.464187 67.09407 
L 352.627101 67.502202 
L 352.790015 67.09407 
L 353.44167 67.09407 
L 353.604584 67.261639 
L 353.930411 67.261639 
L 354.093325 66.869542 
L 354.256239 67.261639 
L 355.396635 67.261639 
L 355.559549 67.653759 
L 355.722463 67.653759 
L 355.885376 67.261639 
L 356.04829 67.653759 
L 356.211204 66.869542 
L 356.374118 67.261639 
L 357.188687 67.261639 
L 357.3516 66.869542 
L 357.514514 67.653759 
L 357.677428 66.869542 
L 357.840342 67.261639 
L 358.329083 67.261639 
L 358.491997 66.869542 
L 358.817824 66.869542 
L 358.980738 67.653759 
L 359.143652 66.869542 
L 359.306565 67.044629 
L 359.469479 66.666999 
L 359.632393 67.044629 
L 359.795307 66.666999 
L 359.958221 67.044629 
L 360.121134 67.044629 
L 360.284048 66.666999 
L 360.609876 66.666999 
L 360.772789 67.044629 
L 360.935703 66.666999 
L 361.098617 66.666999 
L 361.261531 67.044629 
L 361.750272 65.911713 
L 361.913186 65.911713 
L 362.076099 66.85805 
L 362.564841 66.85805 
L 362.727754 66.127652 
L 362.890668 66.85805 
L 363.216496 66.127652 
L 363.542323 67.036945 
L 363.705237 66.329815 
L 363.868151 67.036945 
L 364.031065 66.329815 
L 364.519806 66.329815 
L 364.68272 66.683391 
L 364.845633 66.329815 
L 365.497288 66.329815 
L 365.823116 65.622708 
L 365.98603 66.329815 
L 366.311857 65.622708 
L 366.474771 65.976261 
L 366.637685 65.622708 
L 366.800599 65.622708 
L 366.963512 66.329815 
L 367.126426 65.622708 
L 367.28934 65.622708 
L 367.452254 65.826608 
L 367.615167 65.484547 
L 367.778081 65.826608 
L 367.940995 65.484547 
L 368.103909 65.826608 
L 368.266822 65.484547 
L 368.429736 65.826608 
L 368.59265 65.142509 
L 368.755564 65.484547 
L 369.407219 65.484547 
L 369.570132 65.142509 
L 369.733046 66.168646 
L 369.89596 65.142509 
L 370.058874 65.484547 
L 370.221788 65.142509 
L 370.384701 65.484547 
L 370.547615 65.35181 
L 370.710529 65.682808 
L 370.873443 65.020835 
L 371.036356 65.020835 
L 371.19927 65.682808 
L 371.362184 65.35181 
L 372.176753 65.35181 
L 372.339666 65.020835 
L 372.50258 65.020835 
L 372.665494 65.35181 
L 372.828408 65.35181 
L 372.991321 65.551379 
L 373.317149 65.551379 
L 373.480063 65.230493 
L 373.642977 65.551379 
L 373.80589 65.551379 
L 373.968804 65.230493 
L 374.457545 65.230493 
L 374.620459 65.551379 
L 374.783373 65.119288 
L 374.946287 65.119288 
L 375.1092 65.430895 
L 375.272114 65.119288 
L 375.597942 65.119288 
L 375.760855 64.80768 
L 375.923769 65.317168 
L 376.086683 64.711441 
L 376.249597 65.014316 
L 376.41251 65.014316 
L 376.575424 64.711441 
L 376.738338 64.711441 
L 376.901252 65.014316 
L 377.064166 64.711441 
L 377.552907 64.622862 
L 377.715821 64.917672 
L 377.878734 64.622862 
L 378.204562 64.622862 
L 378.367476 64.328076 
L 378.693303 64.917672 
L 378.856217 64.622862 
L 379.182044 64.622862 
L 379.344958 65.391733 
L 379.507872 64.818625 
L 379.670786 64.818625 
L 379.8337 64.532071 
L 379.996613 64.818625 
L 380.159527 64.532071 
L 380.322441 64.532071 
L 380.485355 64.818625 
L 380.648268 64.818625 
L 380.811182 64.532071 
L 380.974096 64.818625 
L 381.13701 64.444087 
L 381.299923 64.722647 
L 381.462837 64.444087 
L 381.625751 64.722647 
L 381.788665 64.444087 
L 381.951578 64.444087 
L 382.114492 64.722647 
L 382.44032 64.165551 
L 382.603233 64.444087 
L 383.091975 64.444087 
L 383.254889 64.165551 
L 383.417802 64.444087 
L 383.580716 64.444087 
L 383.74363 64.165551 
L 383.906544 64.165551 
L 384.069457 64.722647 
L 384.395285 64.165551 
L 384.558199 64.36493 
L 384.721112 64.36493 
L 384.884026 64.093579 
L 385.04694 64.36493 
L 385.698595 64.36493 
L 385.861509 64.093579 
L 386.024422 64.558504 
L 386.187336 64.028769 
L 386.35025 64.293625 
L 386.513164 64.028769 
L 392.378059 63.960271 
L 392.540973 64.148516 
L 393.192628 64.148516 
L 393.355542 63.896817 
L 393.518456 64.080398 
L 394.170111 64.080398 
L 394.333024 63.83491 
L 394.495938 63.83491 
L 394.658852 64.080398 
L 394.984679 64.080398 
L 395.147593 63.83491 
L 395.310507 64.080398 
L 396.287989 64.017135 
L 396.450903 63.537673 
L 396.613817 64.017135 
L 396.776731 64.017135 
L 396.939645 63.777404 
L 397.102558 64.017135 
L 397.428386 64.017135 
L 397.754213 63.537673 
L 397.917127 63.537673 
L 398.080041 64.017135 
L 398.568782 64.017135 
L 398.89461 63.722539 
L 399.057523 63.722539 
L 399.220437 63.956798 
L 399.383351 63.722539 
L 399.546265 63.956798 
L 399.709178 63.48828 
L 399.872092 63.722539 
L 400.035006 63.722539 
L 400.19792 63.48828 
L 400.360834 63.48828 
L 400.523747 63.254022 
L 400.686661 63.722539 
L 401.012489 63.722539 
L 401.175402 63.48828 
L 401.50123 63.48828 
L 401.664144 63.254022 
L 401.827057 63.671433 
L 401.989971 63.44229 
L 402.152885 63.44229 
L 402.315799 63.671433 
L 402.478712 63.44229 
L 402.80454 63.44229 
L 402.967454 63.618733 
L 403.456195 63.618733 
L 403.619109 63.842619 
L 403.944936 63.394872 
L 404.10785 64.066504 
L 404.270764 63.394872 
L 404.433678 63.394872 
L 404.596591 63.618733 
L 405.41116 63.618733 
L 405.574074 63.394872 
L 405.736988 63.394872 
L 405.899901 63.618733 
L 406.062815 63.618733 
L 406.225729 63.394872 
L 406.388643 63.394872 
L 406.551557 63.570816 
L 406.71447 64.008998 
L 406.877384 63.570816 
L 407.040298 63.570816 
L 407.203212 63.351737 
L 407.366125 63.351737 
L 407.529039 63.570816 
L 408.01778 63.52492 
L 408.669435 63.52492 
L 408.832349 63.310409 
L 408.995263 63.52492 
L 409.32109 63.478668 
L 409.484004 63.268797 
L 409.646918 63.478668 
L 409.809832 63.268797 
L 409.972746 63.268797 
L 410.135659 63.478668 
L 410.298573 63.268797 
L 411.601883 63.232775 
L 411.764797 63.438626 
L 412.090624 63.438626 
L 412.253538 63.232775 
L 412.579366 63.232775 
L 412.742279 63.438626 
L 412.905193 63.232775 
L 413.068107 63.232775 
L 413.231021 63.438626 
L 413.393935 63.19623 
L 413.719762 63.19623 
L 413.882676 63.398036 
L 414.04559 63.19623 
L 414.208503 63.398036 
L 414.371417 63.19623 
L 414.534331 63.19623 
L 414.697245 63.398036 
L 414.860158 63.19623 
L 415.023072 63.398036 
L 416.326382 63.358041 
L 416.489296 63.55585 
L 416.65221 63.358041 
L 417.140951 63.358041 
L 417.303865 63.124782 
L 417.466779 63.318641 
L 418.281347 63.318641 
L 418.444261 63.124782 
L 418.607175 63.285332 
L 419.747571 63.285332 
L 419.910485 63.475861 
L 420.073399 63.285332 
L 420.56214 63.285332 
L 420.725054 63.475861 
L 420.887968 63.285332 
L 421.050881 63.475861 
L 421.376709 63.475861 
L 421.539623 63.285332 
L 421.702536 63.475861 
L 422.028364 63.475861 
L 422.191278 63.285332 
L 422.354191 63.285332 
L 422.517105 63.475861 
L 422.680019 63.436604 
L 422.842933 63.623563 
L 423.005847 63.436604 
L 423.16876 63.623563 
L 423.331674 63.436604 
L 423.494588 63.623563 
L 423.657502 63.436604 
L 423.983329 63.436604 
L 424.146243 63.623563 
L 425.612467 63.582307 
L 425.77538 63.398774 
L 425.938294 63.582307 
L 426.752863 63.582307 
L 426.915777 63.363228 
L 427.078691 63.363228 
L 427.241604 63.543502 
L 427.404518 63.543502 
L 427.567432 63.363228 
L 427.730346 63.543502 
L 428.382001 63.506053 
L 428.544914 63.328896 
L 428.707828 63.506053 
L 428.870742 63.506053 
L 429.033656 63.328896 
L 429.196569 63.506053 
L 429.522397 63.506053 
L 429.685311 63.328896 
L 429.848225 63.506053 
L 430.174052 63.506053 
L 430.336966 63.328896 
L 430.49988 63.506053 
L 433.432327 63.435795 
L 433.595241 63.064968 
L 433.758155 63.401962 
L 434.246896 63.401962 
L 434.40981 63.233465 
L 434.735637 63.535865 
L 434.898551 63.370033 
L 435.061465 63.370033 
L 435.224379 63.535865 
L 435.387292 63.535865 
L 435.550206 63.204201 
L 435.876034 63.535865 
L 436.038947 63.370033 
L 436.201861 63.501509 
L 436.364775 63.338318 
L 436.853516 63.338318 
L 437.01643 63.501509 
L 437.179344 63.338318 
L 437.342258 63.338318 
L 437.505171 63.501509 
L 437.668085 63.338318 
L 437.830999 63.338318 
L 437.993913 63.501509 
L 438.31974 63.501509 
L 438.482654 63.305246 
L 438.645568 63.465678 
L 438.971395 63.144815 
L 439.134309 63.465678 
L 439.297223 63.305246 
L 439.460136 63.626133 
L 439.62305 63.305246 
L 440.274705 63.276291 
L 440.437619 63.434319 
L 440.600533 63.118263 
L 441.089274 63.559538 
L 441.252188 63.559538 
L 441.415102 63.403865 
L 441.578015 63.559538 
L 441.740929 63.559538 
L 441.903843 63.715235 
L 442.066757 63.403865 
L 442.22967 63.715235 
L 442.392584 63.372008 
L 442.555498 63.678476 
L 442.881325 63.372008 
L 443.044239 63.372008 
L 443.370067 63.678476 
L 443.532981 63.52523 
L 443.695894 63.678476 
L 443.858808 63.52523 
L 444.184636 63.52523 
L 444.347549 63.678476 
L 444.510463 63.52523 
L 444.836291 63.643715 
L 444.999204 63.643715 
L 445.162118 63.79463 
L 445.325032 63.341887 
L 445.650859 63.945544 
L 446.139601 63.643715 
L 446.302515 63.79463 
L 446.465428 63.608336 
L 446.628342 63.90543 
L 446.95417 63.756895 
L 447.117083 64.202548 
L 447.605825 63.756895 
L 447.768738 63.90543 
L 447.931652 63.871145 
L 448.094566 63.578072 
L 448.25748 63.578072 
L 448.420393 63.724609 
L 448.583307 63.431536 
L 448.746221 63.724609 
L 449.234962 63.724609 
L 449.397876 64.017682 
L 449.723704 63.688992 
L 449.886617 63.688992 
L 450.212445 63.977616 
L 450.375359 63.400368 
L 450.538272 63.688992 
L 450.8641 63.799198 
L 451.189927 64.083801 
L 451.352841 63.656896 
L 451.515755 63.799198 
L 451.841582 63.514595 
L 452.004496 63.941499 
L 452.16741 63.514595 
L 452.330324 63.799198 
L 452.493237 63.799198 
L 452.656151 63.941499 
L 452.819065 63.372293 
L 453.47072 63.799198 
L 453.796548 63.229968 
L 453.959461 63.656896 
L 454.122375 63.768553 
L 454.285289 63.487543 
L 454.611116 63.909047 
L 454.77403 63.909047 
L 455.099858 63.487543 
L 455.262771 63.628036 
L 455.425685 63.487543 
L 455.588599 63.768553 
L 455.751513 63.768553 
L 456.07734 63.598367 
L 456.403168 64.014304 
L 456.566082 63.321068 
L 456.728995 63.737028 
L 456.891909 63.737028 
L 457.054823 63.875666 
L 457.217737 63.430513 
L 457.706478 63.84062 
L 457.869392 63.567223 
L 458.358133 63.673289 
L 458.521047 63.943093 
L 458.68396 63.808191 
L 458.846874 64.212898 
L 459.009788 63.943093 
L 459.172702 63.943093 
L 459.335615 63.673289 
L 459.498529 63.943093 
L 460.150184 63.538387 
L 460.313098 63.538387 
L 460.476012 63.90976 
L 460.801839 63.90976 
L 461.290581 63.643454 
L 461.616408 63.745832 
L 461.779322 63.745832 
L 461.942236 63.614403 
L 462.105149 63.87726 
L 462.268063 63.482951 
L 462.430977 64.008689 
L 462.756804 63.614403 
L 462.919718 63.844807 
L 463.082632 63.585353 
L 463.245546 63.585353 
L 463.571373 63.974523 
L 463.734287 63.715068 
L 463.897201 63.974523 
L 464.223028 63.585353 
L 464.548856 64.104262 
L 464.71177 63.807715 
L 464.874683 63.807715 
L 465.037597 64.063268 
L 465.200511 64.063268 
L 465.689252 63.777785 
L 465.852166 64.156391 
L 466.177994 64.156391 
L 466.340907 64.030173 
L 466.503821 64.156391 
L 466.829649 63.903979 
L 466.992562 64.156391 
L 467.155476 63.873239 
L 467.31839 63.873239 
L 467.481304 64.122558 
L 467.644217 63.997911 
L 467.807131 64.122558 
L 468.132959 63.873239 
L 468.458786 63.997911 
L 468.784614 63.748568 
L 469.436269 64.213611 
L 469.599183 63.597606 
L 469.762096 64.090391 
L 469.92501 64.213611 
L 470.250838 64.090391 
L 470.413751 64.090391 
L 470.739579 64.213611 
L 470.902493 64.29629 
L 471.22832 64.053275 
L 471.554148 64.29629 
L 471.717061 63.810237 
L 471.879975 64.174782 
L 472.042889 64.174782 
L 472.205803 64.382156 
L 472.368716 64.382156 
L 472.53163 63.781734 
L 472.694544 64.141997 
L 472.857458 64.021917 
L 473.020372 64.262076 
L 473.183285 64.262076 
L 473.672027 64.021917 
L 473.997854 64.262076 
L 474.323682 64.021917 
L 474.486595 64.22527 
L 474.649509 64.22527 
L 474.975337 64.343826 
L 475.301164 64.106713 
L 475.626992 64.307305 
L 476.115733 64.073118 
L 476.278647 64.307305 
L 476.441561 63.956036 
L 476.604474 64.307305 
L 476.930302 64.190224 
L 477.419043 64.154416 
L 478.070698 64.616819 
L 478.233612 64.385606 
L 478.885267 64.237737 
L 479.211094 64.352035 
L 479.374008 64.352035 
L 479.536922 64.580655 
L 480.188577 64.206164 
L 480.351491 64.319225 
L 480.514405 64.206164 
L 480.840232 64.319225 
L 481.328973 64.319225 
L 481.491887 64.206164 
L 481.654801 64.319225 
L 481.980628 64.175306 
L 482.143542 64.287106 
L 482.46937 64.175306 
L 482.795197 64.287106 
L 482.958111 64.063482 
L 483.121025 64.287106 
L 483.283939 64.175306 
L 483.446852 64.398929 
L 483.609766 64.398929 
L 483.77268 64.287106 
L 483.935594 64.398929 
L 484.261421 64.175306 
L 484.424335 64.398929 
L 484.913076 64.47861 
L 485.07599 64.257294 
L 485.401817 64.367952 
L 485.564731 64.367952 
L 485.727645 64.589291 
L 485.890559 64.367952 
L 486.053473 64.33519 
L 486.216386 64.444634 
L 486.3793 64.33519 
L 486.542214 64.554079 
L 486.705128 64.33519 
L 486.868041 64.444634 
L 487.193869 64.33519 
L 487.519696 64.41468 
L 487.68261 64.523054 
L 487.845524 64.306282 
L 488.008438 64.523054 
L 488.334265 64.41468 
L 488.497179 64.523054 
L 488.823006 64.41468 
L 488.98592 64.523054 
L 489.148834 64.197908 
L 489.311748 64.306282 
L 489.474662 64.598237 
L 489.637575 64.276399 
L 490.28923 64.169144 
L 490.452144 64.705516 
L 490.615058 64.276399 
L 490.777972 64.383679 
L 491.103799 64.169144 
L 491.266713 64.383679 
L 491.59254 64.169144 
L 491.755454 64.458696 
L 491.918368 64.246373 
L 492.081282 64.246373 
L 492.244195 64.458696 
L 492.407109 64.246373 
L 493.384592 64.140212 
L 493.547506 64.417487 
L 493.873333 64.312754 
L 494.036247 64.626978 
L 494.199161 64.312754 
L 494.524988 64.312754 
L 494.687902 64.522221 
L 494.850816 64.312754 
L 495.176643 64.383607 
L 496.479953 64.356579 
L 496.642867 64.253939 
L 496.968695 64.356579 
L 497.294522 64.151276 
L 497.457436 64.561859 
L 497.62035 64.664499 
L 497.783263 64.356579 
L 497.946177 64.561859 
L 498.109091 64.459219 
L 498.109091 64.459219 
" style="fill:none;stroke:#ff0000;stroke-linecap:round;stroke-width:1.75;"/>
   </g>
   <g id="line2d_30">
    <path clip-path="url(#pf3cb8d19cd)" d="M 92.290909 268.697878 
L 92.942564 165.163676 
L 94.408788 77.097243 
L 94.571702 74.602433 
L 94.734616 74.602433 
L 94.897529 74.851919 
L 95.386271 77.346728 
L 95.712098 80.589971 
L 96.200839 82.585809 
L 96.363753 82.835271 
L 96.526667 84.082676 
L 96.689581 84.332162 
L 97.015408 85.330081 
L 97.178322 85.080595 
L 97.504149 84.332162 
L 97.667063 83.084757 
L 97.829977 82.835271 
L 98.481632 80.340486 
L 98.80746 79.841514 
L 98.970373 81.58789 
L 99.133287 80.589971 
L 99.459115 80.589971 
L 99.622028 79.841514 
L 99.784942 80.091 
L 100.273683 78.594109 
L 100.436597 78.594109 
L 100.599511 79.093081 
L 100.762425 79.093081 
L 100.925338 79.342567 
L 101.088252 79.093081 
L 101.902821 79.093081 
L 102.228649 78.594109 
L 102.391562 78.594109 
L 102.554476 78.843595 
L 102.71739 78.843595 
L 103.043217 78.344648 
L 103.369045 77.59619 
L 104.0207 77.59619 
L 104.183614 77.097243 
L 104.835269 77.097243 
L 104.998183 76.847757 
L 106.790234 76.847757 
L 107.116061 76.348809 
L 107.278975 76.348809 
L 107.441889 76.099324 
L 109.23394 76.099324 
L 109.396854 75.600352 
L 109.559768 75.600352 
L 109.722682 75.35089 
L 110.374337 75.35089 
L 110.53725 75.101405 
L 110.863078 75.101405 
L 111.025992 74.851919 
L 111.351819 74.851919 
L 111.514733 74.602433 
L 112.655129 74.602433 
L 112.818043 74.352971 
L 114.935922 74.352971 
L 115.26175 73.854 
L 116.076318 73.854 
L 116.239232 73.604514 
L 116.890887 73.604514 
L 117.053801 73.355029 
L 117.379628 73.355029 
L 117.542542 73.604514 
L 117.705456 73.604514 
L 117.86837 73.355029 
L 118.357111 73.355029 
L 118.520025 73.604514 
L 119.334594 73.604514 
L 119.497507 73.854 
L 122.104128 73.854 
L 122.267041 73.355029 
L 127.154454 73.355029 
L 127.317368 73.105567 
L 128.294851 73.105567 
L 128.457764 72.856081 
L 128.946506 72.856081 
L 129.109419 72.606595 
L 129.923988 72.606595 
L 130.086902 72.357109 
L 130.575643 72.357109 
L 130.738557 71.858162 
L 131.878953 71.858162 
L 132.204781 71.35919 
L 132.693522 71.35919 
L 132.856436 71.109729 
L 133.182263 71.109729 
L 133.345177 70.860243 
L 133.671005 70.860243 
L 133.833918 70.610757 
L 134.811401 70.610757 
L 134.974315 70.860243 
L 135.300142 70.860243 
L 135.788884 71.608676 
L 136.114711 71.608676 
L 136.277625 71.35919 
L 137.255107 71.35919 
L 137.418021 71.109729 
L 138.395504 71.109729 
L 138.558418 70.610757 
L 139.210073 70.610757 
L 139.372986 70.361271 
L 140.024641 70.361271 
L 140.187555 70.111809 
L 140.676296 70.111809 
L 141.002124 69.612838 
L 141.816693 69.612838 
L 141.979607 69.363352 
L 144.586227 69.363352 
L 144.749141 69.11389 
L 144.912054 69.363352 
L 145.237882 69.363352 
L 145.400796 69.11389 
L 145.563709 69.11389 
L 145.889537 68.614919 
L 146.052451 68.864405 
L 146.215364 68.864405 
L 146.541192 68.365433 
L 147.518675 68.365433 
L 147.681588 68.115971 
L 147.844502 68.115971 
L 148.007416 67.866486 
L 148.496157 67.866486 
L 148.659071 67.617 
L 149.147812 67.617 
L 149.310726 67.866486 
L 149.47364 67.617 
L 149.636553 67.866486 
L 149.962381 67.866486 
L 150.125295 67.617 
L 150.451122 67.617 
L 150.614036 67.367514 
L 150.939864 67.367514 
L 151.102777 67.617 
L 151.265691 67.617 
L 151.428605 67.367514 
L 151.591519 67.367514 
L 151.754432 67.617 
L 152.08026 67.118029 
L 154.361053 67.118029 
L 154.68688 66.12011 
L 154.849794 66.12011 
L 155.175621 66.868567 
L 155.338535 66.619081 
L 155.501449 66.619081 
L 155.827276 65.870648 
L 155.99019 65.870648 
L 156.153104 66.12011 
L 156.316018 65.870648 
L 156.478931 66.12011 
L 156.641845 65.870648 
L 156.967673 65.870648 
L 157.130586 65.621162 
L 158.922638 65.621162 
L 159.085552 65.371676 
L 159.574293 65.371676 
L 159.737207 65.12219 
L 159.90012 65.12219 
L 160.063034 65.371676 
L 160.225948 65.12219 
L 160.714689 65.12219 
L 161.040517 64.623243 
L 161.855086 64.623243 
L 162.017999 64.872729 
L 162.180913 64.872729 
L 162.343827 64.623243 
L 163.810051 64.623243 
L 163.972964 64.872729 
L 164.135878 64.623243 
L 167.068326 64.623243 
L 167.23124 64.872729 
L 167.882895 64.872729 
L 168.045809 64.623243 
L 168.208722 64.872729 
L 168.371636 64.872729 
L 168.53455 64.623243 
L 168.860377 64.623243 
L 169.023291 64.124271 
L 169.83786 64.124271 
L 170.163687 63.625324 
L 170.978256 63.625324 
L 171.14117 63.87481 
L 172.281566 63.87481 
L 172.44448 64.124271 
L 174.236532 64.124271 
L 174.399445 64.373757 
L 175.0511 64.373757 
L 175.214014 64.623243 
L 175.376928 64.623243 
L 175.539842 64.872729 
L 175.702755 64.872729 
L 175.865669 64.623243 
L 177.168979 64.623243 
L 177.331893 64.373757 
L 179.775599 64.373757 
L 179.938513 64.124271 
L 180.427254 64.124271 
L 180.590168 63.87481 
L 180.753082 64.124271 
L 181.404737 64.124271 
L 181.567651 64.373757 
L 182.38222 64.373757 
L 182.545133 64.623243 
L 188.572943 64.623243 
L 188.735856 64.872729 
L 189.061684 64.872729 
L 189.224598 65.12219 
L 189.550425 65.12219 
L 189.713339 65.371676 
L 190.039166 65.371676 
L 190.20208 65.621162 
L 190.364994 65.621162 
L 190.527908 65.870648 
L 190.690822 66.369595 
L 190.853735 66.369595 
L 191.016649 66.619081 
L 193.623269 66.619081 
L 193.786183 66.868567 
L 195.904062 66.868567 
L 196.066976 67.118029 
L 196.881544 67.118029 
L 197.044458 67.367514 
L 197.370286 67.367514 
L 197.5332 67.617 
L 198.510682 67.617 
L 198.673596 67.866486 
L 199.325251 67.866486 
L 199.488165 68.115971 
L 200.791475 68.115971 
L 200.954389 68.365433 
L 201.117302 68.365433 
L 201.280216 68.614919 
L 201.606044 68.614919 
L 201.768957 68.864405 
L 201.931871 68.864405 
L 202.094785 69.11389 
L 202.257699 68.864405 
L 202.420612 68.864405 
L 202.583526 69.11389 
L 203.235181 69.11389 
L 203.398095 68.864405 
L 204.864319 68.864405 
L 205.027233 68.614919 
L 205.190146 68.864405 
L 205.841801 68.864405 
L 206.004715 68.614919 
L 206.167629 68.614919 
L 206.330543 68.864405 
L 206.65637 68.864405 
L 206.819284 68.614919 
L 206.982198 68.614919 
L 207.145111 68.864405 
L 207.308025 68.614919 
L 207.95968 68.614919 
L 208.448422 69.363352 
L 208.611335 69.11389 
L 208.774249 69.363352 
L 208.937163 69.11389 
L 210.5663 69.11389 
L 210.729214 69.363352 
L 211.217956 69.363352 
L 211.380869 69.11389 
L 212.847093 69.11389 
L 213.010007 68.864405 
L 213.335834 68.864405 
L 213.498748 69.11389 
L 213.661662 69.11389 
L 213.824576 68.864405 
L 214.313317 68.864405 
L 214.639145 68.365433 
L 214.802058 68.614919 
L 215.127886 68.614919 
L 215.2908 68.365433 
L 215.453713 68.614919 
L 215.942455 68.614919 
L 216.105368 68.365433 
L 216.268282 68.864405 
L 216.919937 68.864405 
L 217.082851 68.614919 
L 217.245765 68.864405 
L 218.060334 68.864405 
L 218.223247 68.115971 
L 218.386161 68.115971 
L 218.549075 68.614919 
L 218.711989 68.115971 
L 218.874902 68.365433 
L 219.037816 68.115971 
L 222.296091 68.115971 
L 222.459005 67.866486 
L 222.621919 68.115971 
L 222.784833 67.367514 
L 222.947746 67.866486 
L 223.11066 67.367514 
L 224.088143 67.367514 
L 224.251057 67.118029 
L 225.228539 67.118029 
L 225.391453 66.868567 
L 226.531849 66.868567 
L 226.857677 66.369595 
L 227.02059 66.369595 
L 227.183504 66.619081 
L 227.346418 66.369595 
L 227.672246 66.369595 
L 227.835159 66.12011 
L 228.160987 66.12011 
L 228.323901 66.369595 
L 228.486814 66.12011 
L 228.649728 66.12011 
L 228.812642 65.621162 
L 228.975556 66.12011 
L 229.138469 65.621162 
L 229.464297 65.621162 
L 229.627211 66.12011 
L 229.790124 65.621162 
L 230.604693 65.621162 
L 230.767607 65.371676 
L 230.930521 65.621162 
L 231.093435 65.621162 
L 231.256348 65.371676 
L 232.885486 65.371676 
L 233.0484 65.621162 
L 233.211313 65.621162 
L 233.374227 65.371676 
L 233.537141 65.621162 
L 233.700055 65.371676 
L 233.862969 65.371676 
L 234.025882 65.621162 
L 234.188796 65.371676 
L 234.35171 65.371676 
L 234.514624 65.621162 
L 235.003365 65.621162 
L 235.166279 65.371676 
L 235.980847 65.371676 
L 236.143761 65.12219 
L 236.795416 65.12219 
L 236.95833 64.872729 
L 237.772899 64.872729 
L 237.935813 65.12219 
L 238.098726 64.872729 
L 238.26164 64.872729 
L 238.424554 65.12219 
L 238.913295 65.12219 
L 239.076209 64.872729 
L 239.239123 65.12219 
L 239.402036 64.872729 
L 239.56495 64.872729 
L 239.727864 65.12219 
L 239.890778 65.12219 
L 240.053691 64.872729 
L 240.379519 64.872729 
L 240.542433 65.12219 
L 240.705347 64.872729 
L 240.86826 65.12219 
L 242.497398 65.12219 
L 242.660312 65.621162 
L 242.823225 65.12219 
L 242.986139 65.621162 
L 243.149053 65.371676 
L 243.311967 65.621162 
L 243.47488 65.12219 
L 243.800708 65.621162 
L 244.615277 65.621162 
L 244.778191 65.371676 
L 244.941104 65.621162 
L 245.104018 65.371676 
L 245.755673 65.371676 
L 245.918587 65.621162 
L 246.081501 66.12011 
L 246.244414 65.371676 
L 246.407328 65.621162 
L 246.570242 66.12011 
L 246.733156 66.12011 
L 246.896069 65.870648 
L 247.058983 65.870648 
L 247.221897 66.12011 
L 249.013948 66.12011 
L 249.176862 65.870648 
L 249.339776 66.12011 
L 249.50269 66.12011 
L 249.665603 65.870648 
L 249.828517 66.12011 
L 249.991431 66.12011 
L 250.154345 65.870648 
L 250.317258 65.870648 
L 250.480172 66.12011 
L 250.643086 65.870648 
L 250.968914 65.870648 
L 251.131827 66.12011 
L 251.294741 65.870648 
L 251.457655 65.870648 
L 251.620569 66.12011 
L 251.946396 66.12011 
L 252.10931 65.870648 
L 252.272224 65.870648 
L 252.435137 66.12011 
L 252.598051 65.621162 
L 252.760965 65.621162 
L 252.923879 65.870648 
L 253.249706 65.870648 
L 253.41262 65.621162 
L 253.575534 66.12011 
L 253.738448 65.621162 
L 253.901361 66.12011 
L 254.064275 66.12011 
L 254.227189 65.870648 
L 254.390103 66.12011 
L 254.553016 65.870648 
L 254.71593 66.12011 
L 254.878844 65.870648 
L 255.041758 66.12011 
L 255.204671 65.870648 
L 256.182154 65.870648 
L 256.345068 66.369595 
L 256.507981 66.369595 
L 256.670895 65.870648 
L 256.996723 65.870648 
L 257.159637 66.369595 
L 257.648378 66.369595 
L 257.811292 65.870648 
L 257.974205 66.369595 
L 258.951688 66.369595 
L 259.114602 66.619081 
L 259.277515 66.619081 
L 259.440429 66.369595 
L 259.603343 66.369595 
L 259.766257 66.619081 
L 264.327842 66.619081 
L 264.490756 66.369595 
L 265.142411 66.369595 
L 265.305325 66.619081 
L 265.468238 66.619081 
L 265.631152 66.369595 
L 265.794066 66.619081 
L 265.95698 66.369595 
L 266.445721 66.369595 
L 266.608635 66.619081 
L 271.821875 66.619081 
L 271.984789 67.118029 
L 272.147703 66.619081 
L 272.47353 66.619081 
L 272.636444 67.118029 
L 272.799358 66.619081 
L 272.962271 67.118029 
L 273.451013 67.118029 
L 273.613926 66.868567 
L 273.77684 67.118029 
L 273.939754 67.118029 
L 274.102668 66.619081 
L 274.265582 67.118029 
L 274.428495 67.118029 
L 274.591409 66.619081 
L 275.08015 66.619081 
L 275.243064 67.118029 
L 275.731805 67.118029 
L 275.894719 66.619081 
L 276.057633 67.118029 
L 276.546374 67.118029 
L 276.709288 66.619081 
L 276.872202 67.118029 
L 280.130477 67.118029 
L 280.293391 66.868567 
L 280.456305 67.118029 
L 280.945046 67.118029 
L 281.10796 66.868567 
L 281.270873 67.118029 
L 281.596701 67.118029 
L 281.759615 66.868567 
L 281.922528 67.118029 
L 282.085442 66.868567 
L 282.248356 67.118029 
L 284.692062 67.118029 
L 284.854976 66.868567 
L 285.01789 67.118029 
L 285.180804 67.118029 
L 285.343717 66.868567 
L 285.506631 67.118029 
L 286.158286 67.118029 
L 286.3212 66.868567 
L 286.484114 67.118029 
L 288.276165 67.118029 
L 288.439079 66.868567 
L 288.601993 67.118029 
L 289.090734 67.118029 
L 289.253648 66.868567 
L 289.416561 67.118029 
L 289.579475 67.118029 
L 289.742389 66.868567 
L 289.905303 66.868567 
L 290.068216 67.118029 
L 290.882785 67.118029 
L 291.045699 66.868567 
L 291.208613 67.118029 
L 291.371527 66.868567 
L 291.53444 66.868567 
L 291.697354 67.118029 
L 291.860268 66.868567 
L 300.005956 66.868567 
L 300.16887 66.619081 
L 300.331784 66.619081 
L 300.494697 66.868567 
L 300.657611 66.619081 
L 300.820525 66.619081 
L 300.983439 66.868567 
L 301.146352 66.619081 
L 302.123835 66.619081 
L 302.286749 66.868567 
L 302.449662 66.619081 
L 305.056283 66.619081 
L 305.219196 66.369595 
L 305.38211 66.369595 
L 305.545024 66.619081 
L 306.033765 66.619081 
L 306.196679 66.369595 
L 306.359593 66.619081 
L 308.966213 66.619081 
L 309.129127 66.369595 
L 309.29204 66.619081 
L 309.454954 66.369595 
L 309.617868 66.619081 
L 309.780782 66.619081 
L 309.943695 66.369595 
L 310.106609 66.619081 
L 310.269523 66.369595 
L 310.432437 66.619081 
L 310.595351 66.369595 
L 310.758264 66.619081 
L 310.921178 66.369595 
L 311.084092 66.619081 
L 311.247006 66.619081 
L 311.409919 66.369595 
L 311.572833 66.619081 
L 312.061574 66.619081 
L 312.224488 66.369595 
L 312.387402 66.369595 
L 312.550316 66.619081 
L 312.713229 66.369595 
L 312.876143 66.619081 
L 313.039057 66.619081 
L 313.201971 66.369595 
L 313.527798 66.369595 
L 313.690712 66.619081 
L 314.179453 66.619081 
L 314.342367 66.369595 
L 314.505281 66.369595 
L 314.668195 66.619081 
L 314.831108 66.619081 
L 314.994022 66.369595 
L 315.156936 66.619081 
L 315.31985 66.369595 
L 315.482763 66.369595 
L 315.645677 66.619081 
L 316.297332 66.619081 
L 316.460246 66.369595 
L 316.62316 66.619081 
L 316.786074 66.369595 
L 316.948987 66.619081 
L 317.111901 66.369595 
L 317.274815 66.369595 
L 317.437729 66.619081 
L 317.600642 66.369595 
L 317.763556 66.369595 
L 317.92647 66.619081 
L 318.089384 66.369595 
L 318.252297 66.619081 
L 318.903952 66.619081 
L 319.066866 66.369595 
L 319.22978 66.619081 
L 319.881435 66.619081 
L 320.044349 66.369595 
L 320.207263 66.619081 
L 320.370176 66.619081 
L 320.53309 66.369595 
L 320.696004 66.369595 
L 320.858918 66.619081 
L 321.021831 66.369595 
L 321.184745 66.619081 
L 321.347659 66.619081 
L 321.510573 66.369595 
L 322.325141 66.369595 
L 322.488055 66.619081 
L 322.650969 66.369595 
L 322.813883 66.369595 
L 322.976796 66.619081 
L 323.13971 66.369595 
L 323.791365 66.369595 
L 323.954279 66.619081 
L 324.117193 66.369595 
L 334.869501 66.369595 
L 335.032415 66.619081 
L 335.195329 66.369595 
L 335.358242 66.619081 
L 335.521156 66.369595 
L 336.661552 66.369595 
L 336.824466 66.619081 
L 336.98738 66.619081 
L 337.150294 66.369595 
L 337.313208 66.619081 
L 337.476121 66.619081 
L 337.639035 66.369595 
L 337.801949 66.619081 
L 337.964863 66.619081 
L 338.127776 66.369595 
L 338.29069 66.619081 
L 338.453604 66.619081 
L 338.616518 66.369595 
L 338.779431 66.619081 
L 339.756914 66.619081 
L 339.919828 66.369595 
L 340.082742 66.619081 
L 340.571483 66.619081 
L 340.734397 66.369595 
L 340.89731 66.619081 
L 342.363534 66.619081 
L 342.526448 66.369595 
L 343.178103 66.369595 
L 343.341017 66.619081 
L 343.503931 66.619081 
L 343.666844 66.369595 
L 343.829758 66.619081 
L 344.155586 66.619081 
L 344.318499 66.369595 
L 344.481413 66.619081 
L 344.970154 66.619081 
L 345.133068 66.369595 
L 345.295982 66.619081 
L 347.088033 66.619081 
L 347.250947 66.369595 
L 347.413861 66.619081 
L 348.22843 66.619081 
L 348.391343 66.369595 
L 349.042998 66.369595 
L 349.205912 66.12011 
L 349.368826 66.369595 
L 349.53174 66.369595 
L 349.694653 66.12011 
L 349.857567 66.12011 
L 350.020481 66.369595 
L 350.183395 66.12011 
L 351.160877 66.12011 
L 351.323791 66.369595 
L 351.486705 66.12011 
L 351.649619 66.369595 
L 351.812532 66.12011 
L 352.464187 66.12011 
L 352.627101 66.369595 
L 352.790015 66.12011 
L 356.04829 66.12011 
L 356.211204 66.369595 
L 356.374118 66.12011 
L 356.537031 66.12011 
L 356.699945 66.369595 
L 356.862859 66.12011 
L 357.3516 66.12011 
L 357.514514 66.369595 
L 357.677428 66.369595 
L 357.840342 66.12011 
L 358.003255 66.12011 
L 358.166169 66.369595 
L 358.329083 66.12011 
L 358.491997 66.369595 
L 358.65491 66.12011 
L 358.817824 66.369595 
L 358.980738 66.12011 
L 359.143652 66.12011 
L 359.306565 66.369595 
L 359.469479 66.12011 
L 359.795307 66.12011 
L 359.958221 66.369595 
L 360.121134 66.12011 
L 360.609876 66.12011 
L 360.772789 66.369595 
L 360.935703 66.369595 
L 361.098617 66.12011 
L 361.750272 66.12011 
L 361.913186 66.369595 
L 362.076099 66.12011 
L 362.239013 66.369595 
L 362.727754 66.369595 
L 362.890668 66.12011 
L 364.193978 66.12011 
L 364.356892 65.870648 
L 364.519806 66.12011 
L 365.334375 66.12011 
L 365.497288 65.870648 
L 365.660202 66.12011 
L 365.98603 66.12011 
L 366.148943 65.870648 
L 366.311857 65.870648 
L 366.474771 66.12011 
L 366.637685 66.12011 
L 366.800599 65.870648 
L 367.778081 65.870648 
L 367.940995 66.12011 
L 368.103909 65.870648 
L 368.266822 65.870648 
L 368.429736 65.621162 
L 368.59265 65.870648 
L 368.918477 65.870648 
L 369.081391 65.621162 
L 369.244305 65.621162 
L 369.407219 65.870648 
L 369.570132 65.870648 
L 369.733046 65.621162 
L 370.221788 65.621162 
L 370.384701 65.371676 
L 370.547615 65.621162 
L 370.873443 65.621162 
L 371.036356 65.870648 
L 371.19927 65.371676 
L 371.362184 65.621162 
L 371.688011 65.621162 
L 371.850925 65.371676 
L 372.013839 65.870648 
L 372.176753 65.371676 
L 372.339666 65.621162 
L 372.50258 65.371676 
L 372.665494 65.621162 
L 372.828408 65.371676 
L 372.991321 65.621162 
L 373.154235 65.12219 
L 373.317149 65.621162 
L 373.480063 65.371676 
L 373.642977 64.623243 
L 373.80589 65.621162 
L 373.968804 65.371676 
L 374.457545 65.371676 
L 374.620459 64.872729 
L 374.783373 65.621162 
L 374.946287 65.621162 
L 375.1092 65.371676 
L 375.272114 64.872729 
L 375.435028 65.371676 
L 375.597942 65.371676 
L 375.760855 64.872729 
L 375.923769 65.371676 
L 376.086683 64.872729 
L 376.41251 64.872729 
L 376.575424 65.371676 
L 376.901252 65.371676 
L 377.064166 64.872729 
L 377.227079 64.872729 
L 377.389993 64.373757 
L 377.552907 65.12219 
L 377.715821 64.373757 
L 377.878734 64.373757 
L 378.041648 64.124271 
L 378.204562 64.373757 
L 378.367476 65.371676 
L 378.530389 65.371676 
L 378.693303 64.373757 
L 378.856217 64.124271 
L 379.019131 64.373757 
L 379.182044 64.373757 
L 379.344958 63.625324 
L 379.670786 64.373757 
L 379.8337 64.124271 
L 379.996613 64.373757 
L 380.322441 64.373757 
L 380.485355 64.124271 
L 380.648268 63.625324 
L 380.811182 63.87481 
L 380.974096 63.625324 
L 381.13701 64.373757 
L 381.299923 64.373757 
L 381.462837 64.124271 
L 381.625751 63.375838 
L 381.788665 64.373757 
L 381.951578 64.373757 
L 382.277406 63.625324 
L 382.603233 64.124271 
L 382.766147 64.124271 
L 382.929061 63.375838 
L 383.091975 64.124271 
L 383.417802 63.625324 
L 383.580716 64.373757 
L 383.74363 63.625324 
L 383.906544 63.87481 
L 384.069457 63.625324 
L 384.232371 63.625324 
L 384.395285 63.375838 
L 384.558199 64.124271 
L 384.721112 63.625324 
L 384.884026 64.124271 
L 385.04694 63.87481 
L 385.209854 63.87481 
L 385.372767 63.625324 
L 385.861509 63.625324 
L 386.024422 63.87481 
L 386.187336 63.625324 
L 386.35025 63.87481 
L 386.513164 63.87481 
L 386.676078 63.625324 
L 386.838991 63.87481 
L 387.001905 63.87481 
L 387.164819 63.625324 
L 387.327733 63.87481 
L 387.490646 63.625324 
L 387.65356 63.625324 
L 387.816474 63.87481 
L 388.142301 63.87481 
L 388.305215 63.625324 
L 388.468129 63.87481 
L 388.95687 63.87481 
L 389.119784 63.625324 
L 389.282698 63.87481 
L 389.445611 63.87481 
L 389.608525 63.625324 
L 389.771439 63.87481 
L 389.934353 63.87481 
L 390.097267 63.625324 
L 390.26018 63.87481 
L 390.423094 63.87481 
L 390.586008 63.625324 
L 390.748922 63.87481 
L 390.911835 63.87481 
L 391.074749 64.124271 
L 391.237663 63.87481 
L 391.400577 63.87481 
L 391.56349 64.124271 
L 391.726404 63.87481 
L 391.889318 64.124271 
L 392.052232 63.87481 
L 392.215145 63.87481 
L 392.378059 63.625324 
L 392.540973 63.87481 
L 392.703887 63.625324 
L 393.192628 63.625324 
L 393.355542 63.375838 
L 393.518456 63.625324 
L 393.844283 63.625324 
L 394.007197 64.124271 
L 394.170111 63.625324 
L 394.333024 63.625324 
L 394.495938 64.124271 
L 394.658852 63.625324 
L 394.821766 64.124271 
L 394.984679 63.625324 
L 395.147593 63.87481 
L 395.310507 63.625324 
L 395.473421 63.87481 
L 395.636334 63.87481 
L 395.799248 63.625324 
L 395.962162 63.87481 
L 396.125076 63.87481 
L 396.287989 63.375838 
L 396.450903 63.625324 
L 396.613817 63.375838 
L 396.939645 63.375838 
L 397.102558 63.87481 
L 397.265472 63.375838 
L 397.428386 63.87481 
L 397.5913 63.87481 
L 397.754213 63.375838 
L 397.917127 63.87481 
L 398.080041 63.375838 
L 398.242955 63.375838 
L 398.405868 63.87481 
L 398.568782 63.87481 
L 398.731696 63.375838 
L 398.89461 63.375838 
L 399.057523 63.87481 
L 399.220437 63.375838 
L 399.383351 63.87481 
L 399.709178 63.87481 
L 400.035006 63.375838 
L 400.19792 63.375838 
L 400.360834 63.625324 
L 400.523747 63.375838 
L 400.686661 63.625324 
L 400.849575 63.375838 
L 401.012489 63.375838 
L 401.175402 63.625324 
L 401.338316 63.375838 
L 401.50123 63.625324 
L 401.664144 63.375838 
L 401.827057 63.625324 
L 401.989971 63.625324 
L 402.152885 63.375838 
L 402.967454 63.375838 
L 403.130368 63.625324 
L 403.293281 63.625324 
L 403.456195 63.375838 
L 403.619109 63.625324 
L 403.782023 63.375838 
L 403.944936 63.625324 
L 404.10785 63.375838 
L 404.270764 63.375838 
L 404.433678 63.625324 
L 405.248246 63.625324 
L 405.41116 63.375838 
L 405.574074 63.625324 
L 405.736988 63.375838 
L 406.551557 63.375838 
L 406.71447 63.625324 
L 406.877384 63.375838 
L 407.040298 63.625324 
L 407.203212 63.375838 
L 407.366125 63.375838 
L 407.529039 63.625324 
L 408.180694 63.625324 
L 408.343608 63.87481 
L 408.506522 63.625324 
L 408.832349 63.625324 
L 408.995263 63.375838 
L 409.32109 63.87481 
L 409.484004 63.625324 
L 409.809832 63.625324 
L 409.972746 63.375838 
L 410.298573 63.87481 
L 410.461487 63.375838 
L 410.624401 63.375838 
L 410.787314 63.625324 
L 410.950228 63.375838 
L 411.764797 63.375838 
L 411.927711 63.625324 
L 412.090624 63.375838 
L 412.253538 63.625324 
L 412.416452 63.375838 
L 412.579366 63.625324 
L 412.742279 63.375838 
L 412.905193 63.375838 
L 413.068107 63.87481 
L 413.231021 63.375838 
L 413.556848 63.87481 
L 413.719762 63.375838 
L 413.882676 63.87481 
L 414.04559 63.87481 
L 414.208503 63.375838 
L 414.371417 63.375838 
L 414.534331 63.87481 
L 414.697245 63.625324 
L 414.860158 63.625324 
L 415.023072 63.87481 
L 415.185986 63.87481 
L 415.3489 63.625324 
L 415.511813 63.87481 
L 416.163468 63.87481 
L 416.326382 63.625324 
L 416.489296 63.87481 
L 416.65221 63.625324 
L 416.815124 63.625324 
L 416.978037 63.87481 
L 417.303865 63.87481 
L 417.629692 63.375838 
L 417.95552 63.87481 
L 418.281347 63.87481 
L 418.444261 63.625324 
L 418.607175 63.87481 
L 418.770089 63.625324 
L 418.933002 63.625324 
L 419.095916 63.87481 
L 419.25883 63.87481 
L 419.421744 63.625324 
L 419.584657 63.625324 
L 419.747571 63.87481 
L 420.399226 63.87481 
L 420.56214 63.625324 
L 420.725054 63.87481 
L 420.887968 63.625324 
L 422.354191 63.625324 
L 422.517105 63.87481 
L 422.680019 63.625324 
L 422.842933 63.625324 
L 423.005847 63.87481 
L 423.16876 63.625324 
L 423.331674 63.625324 
L 423.494588 63.87481 
L 423.657502 63.625324 
L 423.820415 63.87481 
L 423.983329 63.625324 
L 424.634984 63.625324 
L 424.797898 63.87481 
L 424.960812 63.625324 
L 425.449553 63.625324 
L 425.612467 63.87481 
L 425.77538 63.625324 
L 426.752863 63.625324 
L 426.915777 63.87481 
L 427.078691 63.87481 
L 427.241604 63.625324 
L 427.893259 63.625324 
L 428.056173 63.87481 
L 428.219087 63.625324 
L 430.011138 63.625324 
L 430.174052 63.87481 
L 430.336966 63.625324 
L 432.454845 63.625324 
L 432.617758 63.87481 
L 432.780672 63.625324 
L 434.083982 63.625324 
L 434.246896 63.375838 
L 434.40981 63.87481 
L 434.572724 63.625324 
L 438.31974 63.625324 
L 438.482654 63.375838 
L 438.645568 63.625324 
L 439.134309 63.625324 
L 439.297223 63.375838 
L 439.460136 63.375838 
L 439.62305 63.625324 
L 439.785964 63.375838 
L 439.948878 63.625324 
L 440.111792 63.375838 
L 440.274705 63.625324 
L 440.437619 63.375838 
L 440.600533 63.625324 
L 440.763447 63.375838 
L 440.92636 63.625324 
L 441.089274 63.375838 
L 441.252188 63.375838 
L 441.415102 63.625324 
L 441.740929 63.625324 
L 441.903843 63.375838 
L 442.22967 63.375838 
L 442.392584 63.625324 
L 442.555498 63.375838 
L 442.718412 63.375838 
L 442.881325 63.625324 
L 443.044239 63.625324 
L 443.207153 63.375838 
L 443.532981 63.375838 
L 443.695894 63.625324 
L 443.858808 63.375838 
L 444.999204 63.375838 
L 445.162118 63.625324 
L 445.325032 63.375838 
L 445.487946 63.625324 
L 445.650859 63.375838 
L 453.633634 63.375838 
L 453.796548 63.126352 
L 453.959461 63.375838 
L 467.970045 63.375838 
L 468.132959 63.625324 
L 468.295872 63.375838 
L 468.458786 63.625324 
L 468.6217 63.375838 
L 469.110441 63.375838 
L 469.273355 63.625324 
L 469.436269 63.375838 
L 474.812423 63.375838 
L 474.975337 63.126352 
L 475.301164 63.126352 
L 475.464078 63.375838 
L 475.789905 63.375838 
L 475.952819 63.126352 
L 476.115733 63.375838 
L 476.278647 63.126352 
L 476.604474 63.126352 
L 476.767388 63.375838 
L 476.930302 63.375838 
L 477.093216 63.126352 
L 477.256129 63.126352 
L 477.419043 63.375838 
L 477.581957 63.126352 
L 478.559439 63.126352 
L 478.722353 63.375838 
L 478.885267 63.126352 
L 479.048181 63.375838 
L 479.211094 63.375838 
L 479.374008 63.126352 
L 480.677318 63.126352 
L 480.840232 63.375838 
L 481.003146 63.126352 
L 483.609766 63.126352 
L 483.77268 63.375838 
L 483.935594 63.126352 
L 484.913076 63.126352 
L 485.07599 62.87689 
L 485.238904 63.126352 
L 485.727645 63.126352 
L 485.890559 62.87689 
L 486.053473 63.126352 
L 488.334265 63.126352 
L 488.497179 63.375838 
L 488.660093 63.126352 
L 489.637575 63.126352 
L 489.800489 63.375838 
L 489.963403 63.126352 
L 490.452144 63.126352 
L 490.615058 63.375838 
L 490.777972 63.375838 
L 490.940885 63.126352 
L 491.266713 63.126352 
L 491.429627 63.375838 
L 491.59254 63.126352 
L 491.918368 63.126352 
L 492.081282 63.375838 
L 492.244195 63.126352 
L 492.407109 63.375838 
L 492.570023 63.375838 
L 492.732937 63.126352 
L 492.895851 63.126352 
L 493.058764 63.375838 
L 493.221678 63.375838 
L 493.384592 63.126352 
L 493.547506 63.375838 
L 493.710419 63.126352 
L 493.873333 63.375838 
L 494.199161 63.375838 
L 494.362074 63.126352 
L 494.524988 63.375838 
L 494.687902 63.126352 
L 494.850816 63.375838 
L 495.013729 63.126352 
L 495.176643 63.375838 
L 495.828298 63.375838 
L 495.991212 63.126352 
L 496.154126 63.126352 
L 496.31704 63.375838 
L 496.479953 63.375838 
L 496.642867 63.126352 
L 496.805781 63.126352 
L 496.968695 63.375838 
L 497.131608 63.126352 
L 497.294522 63.375838 
L 497.457436 63.126352 
L 497.783263 63.126352 
L 497.946177 63.375838 
L 498.109091 63.375838 
L 498.109091 63.375838 
" style="fill:none;stroke:#0000ff;stroke-linecap:round;stroke-width:1.75;"/>
   </g>
   <g id="patch_3">
    <path d="M 72 352.44 
L 72 47.52 
" style="fill:none;"/>
   </g>
   <g id="patch_4">
    <path d="M 518.4 352.44 
L 518.4 47.52 
" style="fill:none;"/>
   </g>
   <g id="patch_5">
    <path d="M 72 352.44 
L 518.4 352.44 
" style="fill:none;"/>
   </g>
   <g id="patch_6">
    <path d="M 72 47.52 
L 518.4 47.52 
" style="fill:none;"/>
   </g>
   <g id="text_17">
    <!-- Accuracy Function Output -->
    <g style="fill:#262626;" transform="translate(230.415963 41.52)scale(0.12 -0.12)">
     <defs>
      <path d="M 35.5 69 
L 26.90625 69 
L 2.59375 0 
L 10.203125 0 
L 17.203125 20 
L 44 20 
L 51.09375 0 
L 59.796875 0 
z
M 42.09375 25.578125 
L 19.09375 25.578125 
C 23.90625 39.5 29.90625 56.84375 30.59375 61.328125 
L 30.703125 61.328125 
C 31.40625 57.234375 33.40625 51.265625 35.09375 46.1875 
z
" id="CMSS17-65"/>
      <path d="M 45.59375 31 
L 45.59375 37.078125 
L 17.203125 37.078125 
L 17.203125 62 
L 29.40625 62 
C 30.59375 62 31.796875 62 33 62 
L 49.5 62 
L 49.5 68.359375 
L 8.796875 68.359375 
L 8.796875 -0.5 
L 17.203125 -0.5 
L 17.203125 31 
z
" id="CMSS17-70"/>
      <path d="M 40.90625 29.328125 
C 40.90625 35.671875 39.40625 44 28.09375 44 
C 21.703125 44 17.5 40.71875 14.703125 37.328125 
L 14.703125 43.09375 
L 7.40625 43.09375 
L 7.40625 0 
L 15 0 
L 15 24.359375 
C 15 30.6875 17.40625 37.9375 24.203125 37.9375 
C 33 37.9375 33.296875 32 33.296875 28.578125 
L 33.296875 0 
L 40.90625 0 
z
" id="CMSS17-110"/>
      <path d="M 16.703125 37 
L 29.703125 37 
L 29.703125 42.765625 
L 16.703125 42.765625 
L 16.703125 55 
L 9.59375 55 
L 9.59375 42.765625 
L 1.703125 42.765625 
L 1.703125 37 
L 9.40625 37 
L 9.40625 11.703125 
C 9.40625 6 10.703125 -1 17.296875 -1 
C 22.296875 -1 26.90625 0.390625 31.296875 2.6875 
L 29.703125 8.5625 
C 27.296875 6.46875 24.40625 5.265625 21.296875 5.265625 
C 16.90625 5.265625 16.703125 10.875 16.703125 13.375 
z
" id="CMSS17-116"/>
      <path d="M 15.296875 65.359375 
L 6.90625 65.359375 
L 6.90625 57 
L 15.296875 57 
z
M 14.796875 42.796875 
L 7.40625 42.796875 
L 7.40625 0 
L 14.796875 0 
z
" id="CMSS17-105"/>
      <path d="M 64 34.03125 
C 64 54.734375 50.296875 70.265625 34.59375 70.265625 
C 18.90625 70.265625 5.203125 54.640625 5.203125 34.03125 
C 5.203125 13.234375 19.09375 -2 34.59375 -2 
C 50.09375 -2 64 13.234375 64 34.03125 
z
M 34.59375 4.265625 
C 23.59375 4.265625 13.59375 16.515625 13.59375 35.328125 
C 13.59375 53.640625 24.203125 64 34.59375 64 
C 45 64 55.59375 53.640625 55.59375 35.328125 
C 55.59375 16.421875 45.5 4.265625 34.59375 4.265625 
z
" id="CMSS17-79"/>
     </defs>
     <use transform="scale(0.996264)" xlink:href="#CMSS17-65"/>
     <use transform="translate(62.217855 0)scale(0.996264)" xlink:href="#CMSS17-99"/>
     <use transform="translate(103.856677 0)scale(0.996264)" xlink:href="#CMSS17-99"/>
     <use transform="translate(145.495499 0)scale(0.996264)" xlink:href="#CMSS17-117"/>
     <use transform="translate(193.700442 0)scale(0.996264)" xlink:href="#CMSS17-114"/>
     <use transform="translate(225.610215 0)scale(0.996264)" xlink:href="#CMSS17-97"/>
     <use transform="translate(270.532135 0)scale(0.996264)" xlink:href="#CMSS17-99"/>
     <use transform="translate(312.170957 0)scale(0.996264)" xlink:href="#CMSS17-121"/>
     <use transform="translate(386.400212 0)scale(0.996264)" xlink:href="#CMSS17-70"/>
     <use transform="translate(437.087317 0)scale(0.996264)" xlink:href="#CMSS17-117"/>
     <use transform="translate(485.29226 0)scale(0.996264)" xlink:href="#CMSS17-110"/>
     <use transform="translate(533.497203 0)scale(0.996264)" xlink:href="#CMSS17-99"/>
     <use transform="translate(575.136026 0)scale(0.996264)" xlink:href="#CMSS17-116"/>
     <use transform="translate(608.967592 0)scale(0.996264)" xlink:href="#CMSS17-105"/>
     <use transform="translate(631.148315 0)scale(0.996264)" xlink:href="#CMSS17-111"/>
     <use transform="translate(677.991939 0)scale(0.996264)" xlink:href="#CMSS17-110"/>
     <use transform="translate(757.425995 0)scale(0.996264)" xlink:href="#CMSS17-79"/>
     <use transform="translate(826.45025 0)scale(0.996264)" xlink:href="#CMSS17-117"/>
     <use transform="translate(874.655193 0)scale(0.996264)" xlink:href="#CMSS17-116"/>
     <use transform="translate(908.48676 0)scale(0.996264)" xlink:href="#CMSS17-112"/>
     <use transform="translate(956.691703 0)scale(0.996264)" xlink:href="#CMSS17-117"/>
     <use transform="translate(1004.896646 0)scale(0.996264)" xlink:href="#CMSS17-116"/>
    </g>
   </g>
   <g id="legend_1">
    <g id="line2d_31">
     <path d="M 81 60.177812 
L 101 60.177812 
" style="fill:none;stroke:#ff0000;stroke-linecap:round;stroke-width:1.75;"/>
    </g>
    <g id="line2d_32"/>
    <g id="text_18">
     <!-- training accuracy -->
     <g style="fill:#262626;" transform="translate(109 63.677812)scale(0.1 -0.1)">
      <defs>
       <path d="M 44.5 43.875 
C 38.796875 43.875 33.90625 42.78125 29.90625 40.890625 
C 26.59375 43.390625 23.203125 43.875 20.90625 43.875 
C 12.203125 43.875 5.59375 36.703125 5.59375 28.34375 
C 5.59375 22.9375 8.59375 18.859375 8.796875 18.671875 
C 7 16.171875 6 13.484375 6 10.5 
C 6 7 7.40625 4.515625 8.5 3.125 
C 3.296875 -0.046875 2.59375 -4.90625 2.59375 -6.796875 
C 2.59375 -14.03125 11.703125 -20 23.40625 -20 
C 35.203125 -20 44.296875 -14.03125 44.296875 -6.6875 
C 44.296875 7 29 7 24.796875 7 
L 16.703125 7 
C 15.203125 7 11.203125 7 11.203125 12.359375 
C 11.203125 14.390625 12.09375 15.6875 12.203125 15.78125 
C 13.703125 14.6875 16.796875 13 20.90625 13 
C 29.203125 13 36.09375 19.96875 36.09375 28.546875 
C 36.09375 33.3125 33.90625 36.796875 33 38 
L 33.296875 38 
C 33.59375 38 37.796875 38 39.296875 38 
C 42.5 38 42.796875 37.953125 45.59375 37.796875 
z
M 20.90625 18.46875 
C 17.5 18.46875 12.703125 20.546875 12.703125 28.484375 
C 12.703125 37.109375 18.203125 38.5 20.796875 38.5 
C 24.203125 38.5 29 36.421875 29 28.484375 
C 29 19.859375 23.5 18.46875 20.90625 18.46875 
z
M 24.703125 -0.15625 
C 27.09375 -0.15625 37.203125 -0.15625 37.203125 -6.90625 
C 37.203125 -11.15625 31 -14.515625 23.5 -14.515625 
C 15.90625 -14.515625 9.703125 -11.25 9.703125 -6.796875 
C 9.703125 -6.296875 9.703125 -0.15625 16.59375 -0.15625 
z
" id="CMSS17-103"/>
      </defs>
      <use transform="scale(0.996264)" xlink:href="#CMSS17-116"/>
      <use transform="translate(33.831567 0)scale(0.996264)" xlink:href="#CMSS17-114"/>
      <use transform="translate(65.741339 0)scale(0.996264)" xlink:href="#CMSS17-97"/>
      <use transform="translate(110.66326 0)scale(0.996264)" xlink:href="#CMSS17-105"/>
      <use transform="translate(132.843983 0)scale(0.996264)" xlink:href="#CMSS17-110"/>
      <use transform="translate(181.048926 0)scale(0.996264)" xlink:href="#CMSS17-105"/>
      <use transform="translate(203.229649 0)scale(0.996264)" xlink:href="#CMSS17-110"/>
      <use transform="translate(251.434592 0)scale(0.996264)" xlink:href="#CMSS17-103"/>
      <use transform="translate(329.507328 0)scale(0.996264)" xlink:href="#CMSS17-97"/>
      <use transform="translate(374.429249 0)scale(0.996264)" xlink:href="#CMSS17-99"/>
      <use transform="translate(416.068071 0)scale(0.996264)" xlink:href="#CMSS17-99"/>
      <use transform="translate(457.706893 0)scale(0.996264)" xlink:href="#CMSS17-117"/>
      <use transform="translate(505.911836 0)scale(0.996264)" xlink:href="#CMSS17-114"/>
      <use transform="translate(537.821609 0)scale(0.996264)" xlink:href="#CMSS17-97"/>
      <use transform="translate(582.74353 0)scale(0.996264)" xlink:href="#CMSS17-99"/>
      <use transform="translate(624.382352 0)scale(0.996264)" xlink:href="#CMSS17-121"/>
     </g>
    </g>
    <g id="line2d_33">
     <path d="M 81 74.323125 
L 101 74.323125 
" style="fill:none;stroke:#0000ff;stroke-linecap:round;stroke-width:1.75;"/>
    </g>
    <g id="line2d_34"/>
    <g id="text_19">
     <!-- validation accuracy -->
     <g style="fill:#262626;" transform="translate(109 77.823125)scale(0.1 -0.1)">
      <defs>
       <path d="M 41.796875 43 
L 34 43 
L 27.296875 24.3125 
C 25.203125 18.203125 22.203125 9.796875 21.703125 5.5 
L 21.59375 5.5 
C 21.40625 7.3125 20.59375 9.90625 20.09375 11.703125 
C 19.5 13.90625 18.703125 16.5 18.09375 18.3125 
L 9.296875 43 
L 1.296875 43 
L 17.09375 0 
L 26 0 
z
" id="CMSS17-118"/>
       <path d="M 14.796875 69 
L 7.40625 69 
L 7.40625 0 
L 14.796875 0 
z
" id="CMSS17-108"/>
       <path d="M 40.796875 69 
L 33.40625 69 
L 33.40625 38.09375 
C 30.296875 40.671875 25.203125 43.0625 19.59375 43.0625 
C 10.5 43.0625 3.296875 33.296875 3.296875 21.046875 
C 3.296875 8.78125 10.40625 -1 19.296875 -1 
C 26.203125 -1 30.796875 2.6875 33.203125 4.78125 
L 33.203125 -0.203125 
L 40.796875 -0.203125 
z
M 33.203125 13.0625 
C 33.203125 11.671875 33.203125 10.203125 30.09375 7.53125 
C 28.09375 5.859375 25.703125 5.078125 23.40625 5.078125 
C 18 5.078125 10.90625 9 10.90625 20.9375 
C 10.90625 33.34375 18.90625 37 24.40625 37 
C 28.09375 37 31.09375 35.21875 33.203125 32.265625 
z
" id="CMSS17-100"/>
      </defs>
      <use transform="scale(0.996264)" xlink:href="#CMSS17-118"/>
      <use transform="translate(43.000142 0)scale(0.996264)" xlink:href="#CMSS17-97"/>
      <use transform="translate(87.922062 0)scale(0.996264)" xlink:href="#CMSS17-108"/>
      <use transform="translate(110.102785 0)scale(0.996264)" xlink:href="#CMSS17-105"/>
      <use transform="translate(132.283508 0)scale(0.996264)" xlink:href="#CMSS17-100"/>
      <use transform="translate(180.488452 0)scale(0.996264)" xlink:href="#CMSS17-97"/>
      <use transform="translate(225.410372 0)scale(0.996264)" xlink:href="#CMSS17-116"/>
      <use transform="translate(259.241939 0)scale(0.996264)" xlink:href="#CMSS17-105"/>
      <use transform="translate(281.422662 0)scale(0.996264)" xlink:href="#CMSS17-111"/>
      <use transform="translate(328.266285 0)scale(0.996264)" xlink:href="#CMSS17-110"/>
      <use transform="translate(407.700341 0)scale(0.996264)" xlink:href="#CMSS17-97"/>
      <use transform="translate(452.622262 0)scale(0.996264)" xlink:href="#CMSS17-99"/>
      <use transform="translate(494.261084 0)scale(0.996264)" xlink:href="#CMSS17-99"/>
      <use transform="translate(535.899906 0)scale(0.996264)" xlink:href="#CMSS17-117"/>
      <use transform="translate(584.104849 0)scale(0.996264)" xlink:href="#CMSS17-114"/>
      <use transform="translate(616.014622 0)scale(0.996264)" xlink:href="#CMSS17-97"/>
      <use transform="translate(660.936542 0)scale(0.996264)" xlink:href="#CMSS17-99"/>
      <use transform="translate(702.575364 0)scale(0.996264)" xlink:href="#CMSS17-121"/>
     </g>
    </g>
   </g>
  </g>
 </g>
 <defs>
  <clipPath id="pf3cb8d19cd">
   <rect height="304.92" width="446.4" x="72" y="47.52"/>
  </clipPath>
 </defs>
</svg>
