<?xml version="1.0" encoding="utf-8" standalone="no"?>
<!DOCTYPE svg PUBLIC "-//W3C//DTD SVG 1.1//EN"
  "http://www.w3.org/Graphics/SVG/1.1/DTD/svg11.dtd">
<!-- Created with matplotlib (https://matplotlib.org/) -->
<svg height="396pt" version="1.1" viewBox="0 0 576 396" width="576pt" xmlns="http://www.w3.org/2000/svg" xmlns:xlink="http://www.w3.org/1999/xlink">
 <metadata>
  <rdf:RDF xmlns:cc="http://creativecommons.org/ns#" xmlns:dc="http://purl.org/dc/elements/1.1/" xmlns:rdf="http://www.w3.org/1999/02/22-rdf-syntax-ns#">
   <cc:Work>
    <dc:type rdf:resource="http://purl.org/dc/dcmitype/StillImage"/>
    <dc:date>2022-02-18T15:02:09.221004</dc:date>
    <dc:format>image/svg+xml</dc:format>
    <dc:creator>
     <cc:Agent>
      <dc:title>Matplotlib v3.3.3, https://matplotlib.org/</dc:title>
     </cc:Agent>
    </dc:creator>
   </cc:Work>
  </rdf:RDF>
 </metadata>
 <defs>
  <style type="text/css">*{stroke-linecap:butt;stroke-linejoin:round;}</style>
 </defs>
 <g id="figure_1">
  <g id="patch_1">
   <path d="M 0 396 
L 576 396 
L 576 0 
L 0 0 
z
" style="fill:#ffffff;"/>
  </g>
  <g id="axes_1">
   <g id="patch_2">
    <path d="M 72 352.44 
L 518.4 352.44 
L 518.4 47.52 
L 72 47.52 
z
" style="fill:#eaeaf2;"/>
   </g>
   <g id="matplotlib.axis_1">
    <g id="xtick_1">
     <g id="line2d_1">
      <path clip-path="url(#p17eadfb756)" d="M 92.290909 352.44 
L 92.290909 47.52 
" style="fill:none;stroke:#ffffff;stroke-linecap:round;"/>
     </g>
     <g id="line2d_2"/>
     <g id="text_1">
      <!-- $\mathdefault{0}$ -->
      <g style="fill:#262626;" transform="translate(89.800241 366.358498)scale(0.1 -0.1)">
       <defs>
        <path d="M 42 31.640625 
C 42 37.75 41.90625 48.125 37.703125 56.109375 
C 34 63.109375 28.09375 65.59375 22.90625 65.59375 
C 18.09375 65.59375 12 63.40625 8.203125 56.203125 
C 4.203125 48.71875 3.796875 39.4375 3.796875 31.640625 
C 3.796875 25.953125 3.90625 17.28125 7 9.671875 
C 11.296875 -0.609375 19 -2 22.90625 -2 
C 27.5 -2 34.5 -0.109375 38.59375 9.375 
C 41.59375 16.28125 42 24.359375 42 31.640625 
z
M 22.90625 -0.40625 
C 16.5 -0.40625 12.703125 5.078125 11.296875 12.6875 
C 10.203125 18.5625 10.203125 27.15625 10.203125 32.75 
C 10.203125 40.4375 10.203125 46.828125 11.5 52.921875 
C 13.40625 61.390625 19 64 22.90625 64 
C 27 64 32.296875 61.296875 34.203125 53.125 
C 35.5 47.4375 35.59375 40.734375 35.59375 32.75 
C 35.59375 26.25 35.59375 18.265625 34.40625 12.375 
C 32.296875 1.484375 26.40625 -0.40625 22.90625 -0.40625 
z
" id="CMR17-48"/>
       </defs>
       <use transform="scale(0.996264)" xlink:href="#CMR17-48"/>
      </g>
     </g>
    </g>
    <g id="xtick_2">
     <g id="line2d_3">
      <path clip-path="url(#p17eadfb756)" d="M 173.74779 352.44 
L 173.74779 47.52 
" style="fill:none;stroke:#ffffff;stroke-linecap:round;"/>
     </g>
     <g id="line2d_4"/>
     <g id="text_2">
      <!-- $\mathdefault{500}$ -->
      <g style="fill:#262626;" transform="translate(166.275787 366.358498)scale(0.1 -0.1)">
       <defs>
        <path d="M 11.40625 57.6875 
C 12.40625 57.28125 16.5 56 20.703125 56 
C 30 56 35.09375 61.109375 38 64.0625 
C 38 64.953125 38 65.5 37.40625 65.5 
C 37.296875 65.5 37.09375 65.5 36.296875 65.046875 
C 32.796875 63.40625 28.703125 62.078125 23.703125 62.078125 
C 20.703125 62.078125 16.203125 62.484375 11.296875 64.671875 
C 10.203125 65.171875 10 65.171875 9.90625 65.171875 
C 9.40625 65.171875 9.296875 65.0625 9.296875 63.078125 
L 9.296875 34.421875 
C 9.296875 32.640625 9.296875 32.140625 10.296875 32.140625 
C 10.796875 32.140625 11 32.34375 11.5 33.03125 
C 14.703125 37.515625 19.09375 39.40625 24.09375 39.40625 
C 27.59375 39.40625 35.09375 37.21875 35.09375 20.140625 
C 35.09375 16.953125 35.09375 11.171875 32.09375 6.578125 
C 29.59375 2.484375 25.703125 0.390625 21.40625 0.390625 
C 14.796875 0.390625 8.09375 5 6.296875 12.71875 
C 6.703125 12.609375 7.5 12.421875 7.90625 12.421875 
C 9.203125 12.421875 11.703125 13.125 11.703125 16.21875 
C 11.703125 18.90625 9.796875 20 7.90625 20 
C 5.59375 20 4.09375 18.59375 4.09375 15.796875 
C 4.09375 7.09375 11 -2 21.59375 -2 
C 31.90625 -2 41.703125 6.875 41.703125 19.75 
C 41.703125 31.71875 33.90625 41 24.203125 41 
C 19.09375 41 14.796875 39.109375 11.40625 35.53125 
z
" id="CMR17-53"/>
       </defs>
       <use transform="scale(0.996264)" xlink:href="#CMR17-53"/>
       <use transform="translate(45.690477 0)scale(0.996264)" xlink:href="#CMR17-48"/>
       <use transform="translate(91.380954 0)scale(0.996264)" xlink:href="#CMR17-48"/>
      </g>
     </g>
    </g>
    <g id="xtick_3">
     <g id="line2d_5">
      <path clip-path="url(#p17eadfb756)" d="M 255.204671 352.44 
L 255.204671 47.52 
" style="fill:none;stroke:#ffffff;stroke-linecap:round;"/>
     </g>
     <g id="line2d_6"/>
     <g id="text_3">
      <!-- $\mathdefault{1000}$ -->
      <g style="fill:#262626;" transform="translate(245.242001 366.358498)scale(0.1 -0.1)">
       <defs>
        <path d="M 26.59375 63.40625 
C 26.59375 65.5 26.5 65.5 25.09375 65.5 
C 21.203125 61.1875 15.296875 59.796875 9.703125 59.796875 
C 9.40625 59.796875 8.90625 59.796875 8.796875 59.5 
C 8.703125 59.296875 8.703125 59.09375 8.703125 57 
C 11.796875 57 17 57.59375 21 59.984375 
L 21 7.203125 
C 21 3.6875 20.796875 2.5 12.203125 2.5 
L 9.203125 2.5 
L 9.203125 0 
C 14 0 19 0 23.796875 0 
C 28.59375 0 33.59375 0 38.40625 0 
L 38.40625 2.5 
L 35.40625 2.5 
C 26.796875 2.5 26.59375 3.59375 26.59375 7.15625 
z
" id="CMR17-49"/>
       </defs>
       <use transform="scale(0.996264)" xlink:href="#CMR17-49"/>
       <use transform="translate(45.690477 0)scale(0.996264)" xlink:href="#CMR17-48"/>
       <use transform="translate(91.380954 0)scale(0.996264)" xlink:href="#CMR17-48"/>
       <use transform="translate(137.071431 0)scale(0.996264)" xlink:href="#CMR17-48"/>
      </g>
     </g>
    </g>
    <g id="xtick_4">
     <g id="line2d_7">
      <path clip-path="url(#p17eadfb756)" d="M 336.661552 352.44 
L 336.661552 47.52 
" style="fill:none;stroke:#ffffff;stroke-linecap:round;"/>
     </g>
     <g id="line2d_8"/>
     <g id="text_4">
      <!-- $\mathdefault{1500}$ -->
      <g style="fill:#262626;" transform="translate(326.698882 366.358498)scale(0.1 -0.1)">
       <use transform="scale(0.996264)" xlink:href="#CMR17-49"/>
       <use transform="translate(45.690477 0)scale(0.996264)" xlink:href="#CMR17-53"/>
       <use transform="translate(91.380954 0)scale(0.996264)" xlink:href="#CMR17-48"/>
       <use transform="translate(137.071431 0)scale(0.996264)" xlink:href="#CMR17-48"/>
      </g>
     </g>
    </g>
    <g id="xtick_5">
     <g id="line2d_9">
      <path clip-path="url(#p17eadfb756)" d="M 418.118434 352.44 
L 418.118434 47.52 
" style="fill:none;stroke:#ffffff;stroke-linecap:round;"/>
     </g>
     <g id="line2d_10"/>
     <g id="text_5">
      <!-- $\mathdefault{2000}$ -->
      <g style="fill:#262626;" transform="translate(408.155763 366.358498)scale(0.1 -0.1)">
       <defs>
        <path d="M 41.703125 15.453125 
L 39.90625 15.453125 
C 38.90625 8.375 38.09375 7.171875 37.703125 6.5625 
C 37.203125 5.765625 30 5.765625 28.59375 5.765625 
L 9.40625 5.765625 
C 13 9.671875 20 16.75 28.5 24.953125 
C 34.59375 30.734375 41.703125 37.53125 41.703125 47.421875 
C 41.703125 59.21875 32.296875 66 21.796875 66 
C 10.796875 66 4.09375 56.3125 4.09375 47.34375 
C 4.09375 43.4375 7 42.9375 8.203125 42.9375 
C 9.203125 42.9375 12.203125 43.546875 12.203125 47.03125 
C 12.203125 50.109375 9.59375 51 8.203125 51 
C 7.59375 51 7 50.90625 6.59375 50.703125 
C 8.5 59.21875 14.296875 63.40625 20.40625 63.40625 
C 29.09375 63.40625 34.796875 56.515625 34.796875 47.421875 
C 34.796875 38.734375 29.703125 31.25 24 24.75 
L 4.09375 2.28125 
L 4.09375 0 
L 39.296875 0 
z
" id="CMR17-50"/>
       </defs>
       <use transform="scale(0.996264)" xlink:href="#CMR17-50"/>
       <use transform="translate(45.690477 0)scale(0.996264)" xlink:href="#CMR17-48"/>
       <use transform="translate(91.380954 0)scale(0.996264)" xlink:href="#CMR17-48"/>
       <use transform="translate(137.071431 0)scale(0.996264)" xlink:href="#CMR17-48"/>
      </g>
     </g>
    </g>
    <g id="xtick_6">
     <g id="line2d_11">
      <path clip-path="url(#p17eadfb756)" d="M 499.575315 352.44 
L 499.575315 47.52 
" style="fill:none;stroke:#ffffff;stroke-linecap:round;"/>
     </g>
     <g id="line2d_12"/>
     <g id="text_6">
      <!-- $\mathdefault{2500}$ -->
      <g style="fill:#262626;" transform="translate(489.612644 366.358498)scale(0.1 -0.1)">
       <use transform="scale(0.996264)" xlink:href="#CMR17-50"/>
       <use transform="translate(45.690477 0)scale(0.996264)" xlink:href="#CMR17-53"/>
       <use transform="translate(91.380954 0)scale(0.996264)" xlink:href="#CMR17-48"/>
       <use transform="translate(137.071431 0)scale(0.996264)" xlink:href="#CMR17-48"/>
      </g>
     </g>
    </g>
    <g id="text_7">
     <!-- epoch -->
     <g style="fill:#262626;" transform="translate(281.623098 379.906023)scale(0.11 -0.11)">
      <defs>
       <path d="M 39.09375 21.515625 
C 39.09375 24.84375 38.90625 31.296875 35.703125 36.640625 
C 32.203125 42.390625 26.5 44 22.203125 44 
C 11.796875 44 3 34.1875 3 21.484375 
C 3 9.09375 12.09375 -1 23.59375 -1 
C 28.09375 -1 33.59375 0.296875 38.59375 3.875 
C 38.59375 4.28125 38.40625 6.46875 38.296875 6.5625 
C 38.296875 6.765625 38 9.84375 38 10.25 
C 33.203125 6.359375 27.703125 5.078125 23.703125 5.078125 
C 17.296875 5.078125 10.40625 10.421875 10.09375 21.515625 
z
M 10.90625 27 
C 12.203125 32.5625 16.59375 37.828125 22.203125 37.828125 
C 23.703125 37.828125 30.703125 37.828125 32.5 27 
z
" id="CMSS17-101"/>
       <path d="M 15.09375 5.203125 
C 18.40625 2.015625 22.90625 -0.078125 27.703125 -0.078125 
C 37 -0.078125 45 9.421875 45 22.0625 
C 45 33.734375 39 44 30.40625 44 
C 25.40625 44 19.40625 42.21875 14.90625 38.625 
L 14.90625 43.203125 
L 7.5 43.203125 
L 7.5 -19 
L 15.09375 -19 
z
M 15.09375 32.8125 
C 15.90625 34 19.296875 37.734375 24.796875 37.734375 
C 31.796875 37.734375 37.40625 30.625 37.40625 22.0625 
C 37.40625 12.296875 30.59375 6 23.90625 6 
C 21.90625 6 19.796875 6.484375 17.796875 8.171875 
C 15.09375 10.53125 15.09375 12 15.09375 13.390625 
z
" id="CMSS17-112"/>
       <path d="M 44.203125 21.1875 
C 44.203125 34 34.703125 44 23.5 44 
C 12 44 2.703125 33.703125 2.703125 21.1875 
C 2.703125 8.5 12.296875 -1 23.40625 -1 
C 34.796875 -1 44.203125 8.796875 44.203125 21.1875 
z
M 23.5 5.265625 
C 16.40625 5.265625 10.296875 11.078125 10.296875 22 
C 10.296875 33.609375 17.40625 37.921875 23.40625 37.921875 
C 29.90625 37.921875 36.59375 33.21875 36.59375 22 
C 36.59375 10.671875 30.09375 5.265625 23.5 5.265625 
z
" id="CMSS17-111"/>
       <path d="M 38.5 39.703125 
C 38.5 40.390625 33.90625 42.40625 32.703125 42.796875 
C 29.40625 44 25.203125 44 24.09375 44 
C 11.09375 44 3.296875 32.703125 3.296875 21.296875 
C 3.296875 9.296875 12 -1 23.703125 -1 
C 30.40625 -1 35.203125 1.1875 39.09375 3.78125 
L 38.5 10.375 
C 34.203125 7.078125 29.203125 5.265625 23.796875 5.265625 
C 16 5.265625 10.90625 12.09375 10.90625 21.390625 
C 10.90625 28.609375 14.203125 37.71875 24.203125 37.71875 
C 29.703125 37.71875 32.796875 36.609375 37.40625 33.515625 
z
" id="CMSS17-99"/>
       <path d="M 40.90625 29.546875 
C 40.90625 35.8125 39.40625 44.0625 28.09375 44.0625 
C 21.796875 44.0625 17.703125 40.984375 14.796875 37.609375 
L 14.796875 69.5 
L 7.40625 69.5 
L 7.40625 0.5 
L 15 0.5 
L 15 24.578125 
C 15 30.828125 17.40625 38 24.203125 38 
C 33 38 33.296875 32.125 33.296875 28.734375 
L 33.296875 0.5 
L 40.90625 0.5 
z
" id="CMSS17-104"/>
      </defs>
      <use transform="scale(0.996264)" xlink:href="#CMSS17-101"/>
      <use transform="translate(41.638822 0)scale(0.996264)" xlink:href="#CMSS17-112"/>
      <use transform="translate(92.446204 0)scale(0.996264)" xlink:href="#CMSS17-111"/>
      <use transform="translate(141.892266 0)scale(0.996264)" xlink:href="#CMSS17-99"/>
      <use transform="translate(183.531088 0)scale(0.996264)" xlink:href="#CMSS17-104"/>
     </g>
    </g>
   </g>
   <g id="matplotlib.axis_2">
    <g id="ytick_1">
     <g id="line2d_13">
      <path clip-path="url(#p17eadfb756)" d="M 72 342.252613 
L 518.4 342.252613 
" style="fill:none;stroke:#ffffff;stroke-linecap:round;"/>
     </g>
     <g id="line2d_14"/>
     <g id="text_8">
      <!-- $\mathdefault{0.00}$ -->
      <g style="fill:#262626;" transform="translate(47.288586 345.711862)scale(0.1 -0.1)">
       <defs>
        <path d="M 18.40625 4.796875 
C 18.40625 7.6875 16 9.671875 13.59375 9.671875 
C 10.703125 9.671875 8.703125 7.28125 8.703125 4.890625 
C 8.703125 2 11.09375 0 13.5 0 
C 16.40625 0 18.40625 2.390625 18.40625 4.796875 
z
" id="CMMI12-58"/>
       </defs>
       <use transform="scale(0.996264)" xlink:href="#CMR17-48"/>
       <use transform="translate(45.690477 0)scale(0.996264)" xlink:href="#CMMI12-58"/>
       <use transform="translate(72.787654 0)scale(0.996264)" xlink:href="#CMR17-48"/>
       <use transform="translate(118.478131 0)scale(0.996264)" xlink:href="#CMR17-48"/>
      </g>
     </g>
    </g>
    <g id="ytick_2">
     <g id="line2d_15">
      <path clip-path="url(#p17eadfb756)" d="M 72 300.371749 
L 518.4 300.371749 
" style="fill:none;stroke:#ffffff;stroke-linecap:round;"/>
     </g>
     <g id="line2d_16"/>
     <g id="text_9">
      <!-- $\mathdefault{0.02}$ -->
      <g style="fill:#262626;" transform="translate(47.288586 303.830998)scale(0.1 -0.1)">
       <use transform="scale(0.996264)" xlink:href="#CMR17-48"/>
       <use transform="translate(45.690477 0)scale(0.996264)" xlink:href="#CMMI12-58"/>
       <use transform="translate(72.787654 0)scale(0.996264)" xlink:href="#CMR17-48"/>
       <use transform="translate(118.478131 0)scale(0.996264)" xlink:href="#CMR17-50"/>
      </g>
     </g>
    </g>
    <g id="ytick_3">
     <g id="line2d_17">
      <path clip-path="url(#p17eadfb756)" d="M 72 258.490885 
L 518.4 258.490885 
" style="fill:none;stroke:#ffffff;stroke-linecap:round;"/>
     </g>
     <g id="line2d_18"/>
     <g id="text_10">
      <!-- $\mathdefault{0.04}$ -->
      <g style="fill:#262626;" transform="translate(47.288586 261.950134)scale(0.1 -0.1)">
       <defs>
        <path d="M 33.59375 64.40625 
C 33.59375 66.5 33.5 66.5 31.703125 66.5 
L 2 19.59375 
L 2 17 
L 27.796875 17 
L 27.796875 7.140625 
C 27.796875 3.5 27.59375 2.5 20.59375 2.5 
L 18.703125 2.5 
L 18.703125 0 
C 21.90625 0 27.296875 0 30.703125 0 
C 34.09375 0 39.5 0 42.703125 0 
L 42.703125 2.5 
L 40.796875 2.5 
C 33.796875 2.5 33.59375 3.5 33.59375 7.140625 
L 33.59375 17 
L 43.796875 17 
L 43.796875 19.59375 
L 33.59375 19.59375 
z
M 28.09375 57.859375 
L 28.09375 19.59375 
L 4 19.59375 
z
" id="CMR17-52"/>
       </defs>
       <use transform="scale(0.996264)" xlink:href="#CMR17-48"/>
       <use transform="translate(45.690477 0)scale(0.996264)" xlink:href="#CMMI12-58"/>
       <use transform="translate(72.787654 0)scale(0.996264)" xlink:href="#CMR17-48"/>
       <use transform="translate(118.478131 0)scale(0.996264)" xlink:href="#CMR17-52"/>
      </g>
     </g>
    </g>
    <g id="ytick_4">
     <g id="line2d_19">
      <path clip-path="url(#p17eadfb756)" d="M 72 216.610021 
L 518.4 216.610021 
" style="fill:none;stroke:#ffffff;stroke-linecap:round;"/>
     </g>
     <g id="line2d_20"/>
     <g id="text_11">
      <!-- $\mathdefault{0.06}$ -->
      <g style="fill:#262626;" transform="translate(47.288586 220.06927)scale(0.1 -0.1)">
       <defs>
        <path d="M 10.59375 34 
C 10.59375 57.65625 21.796875 63 28.296875 63 
C 30.40625 63 35.5 62.640625 37.5 59 
C 35.90625 59 32.90625 59 32.90625 55.515625 
C 32.90625 52.828125 35.09375 51.921875 36.5 51.921875 
C 37.40625 51.921875 40.09375 52.3125 40.09375 55.625 
C 40.09375 61.78125 35.09375 65.296875 28.203125 65.296875 
C 16.296875 65.296875 3.796875 52.96875 3.796875 31 
C 3.796875 3.953125 15.09375 -2 23.09375 -2 
C 32.796875 -2 42 6.671875 42 20.046875 
C 42 32.515625 33.90625 41.59375 23.703125 41.59375 
C 17.59375 41.59375 13.09375 37.609375 10.59375 30.625 
z
M 23.09375 0.390625 
C 10.796875 0.390625 10.796875 18.75 10.796875 22.4375 
C 10.796875 29.625 14.203125 40 23.5 40 
C 25.203125 40 30.09375 40 33.40625 33.125 
C 35.203125 29.21875 35.203125 25.140625 35.203125 20.140625 
C 35.203125 14.75 35.203125 10.78125 33.09375 6.78125 
C 30.90625 2.671875 27.703125 0.390625 23.09375 0.390625 
z
" id="CMR17-54"/>
       </defs>
       <use transform="scale(0.996264)" xlink:href="#CMR17-48"/>
       <use transform="translate(45.690477 0)scale(0.996264)" xlink:href="#CMMI12-58"/>
       <use transform="translate(72.787654 0)scale(0.996264)" xlink:href="#CMR17-48"/>
       <use transform="translate(118.478131 0)scale(0.996264)" xlink:href="#CMR17-54"/>
      </g>
     </g>
    </g>
    <g id="ytick_5">
     <g id="line2d_21">
      <path clip-path="url(#p17eadfb756)" d="M 72 174.729157 
L 518.4 174.729157 
" style="fill:none;stroke:#ffffff;stroke-linecap:round;"/>
     </g>
     <g id="line2d_22"/>
     <g id="text_12">
      <!-- $\mathdefault{0.08}$ -->
      <g style="fill:#262626;" transform="translate(47.288586 178.188406)scale(0.1 -0.1)">
       <defs>
        <path d="M 27.203125 35.375 
C 33.5 38.546875 39.90625 43.328125 39.90625 50.984375 
C 39.90625 60.015625 31.09375 65.296875 23 65.296875 
C 13.90625 65.296875 5.90625 58.734375 5.90625 49.6875 
C 5.90625 47.203125 6.5 42.921875 10.40625 39.140625 
C 11.40625 38.15625 15.59375 35.171875 18.296875 33.28125 
C 13.796875 30.984375 3.296875 25.53125 3.296875 14.59375 
C 3.296875 4.359375 13.09375 -2 22.796875 -2 
C 33.5 -2 42.5 5.65625 42.5 15.78125 
C 42.5 24.84375 36.40625 29.015625 32.40625 31.703125 
z
M 14.09375 44.09375 
C 13.296875 44.59375 9.296875 47.671875 9.296875 52.359375 
C 9.296875 58.421875 15.59375 63 22.796875 63 
C 30.703125 63 36.5 57.4375 36.5 50.96875 
C 36.5 41.703125 26.09375 36.421875 25.59375 36.421875 
C 25.5 36.421875 25.40625 36.421875 24.59375 37.03125 
z
M 32.5 23.734375 
C 34 22.640625 38.796875 19.375 38.796875 13.296875 
C 38.796875 5.953125 31.40625 0.390625 23 0.390625 
C 13.90625 0.390625 7 6.84375 7 14.6875 
C 7 22.546875 13.09375 29.09375 20 32.1875 
z
" id="CMR17-56"/>
       </defs>
       <use transform="scale(0.996264)" xlink:href="#CMR17-48"/>
       <use transform="translate(45.690477 0)scale(0.996264)" xlink:href="#CMMI12-58"/>
       <use transform="translate(72.787654 0)scale(0.996264)" xlink:href="#CMR17-48"/>
       <use transform="translate(118.478131 0)scale(0.996264)" xlink:href="#CMR17-56"/>
      </g>
     </g>
    </g>
    <g id="ytick_6">
     <g id="line2d_23">
      <path clip-path="url(#p17eadfb756)" d="M 72 132.848293 
L 518.4 132.848293 
" style="fill:none;stroke:#ffffff;stroke-linecap:round;"/>
     </g>
     <g id="line2d_24"/>
     <g id="text_13">
      <!-- $\mathdefault{0.10}$ -->
      <g style="fill:#262626;" transform="translate(47.288586 136.307542)scale(0.1 -0.1)">
       <use transform="scale(0.996264)" xlink:href="#CMR17-48"/>
       <use transform="translate(45.690477 0)scale(0.996264)" xlink:href="#CMMI12-58"/>
       <use transform="translate(72.787654 0)scale(0.996264)" xlink:href="#CMR17-49"/>
       <use transform="translate(118.478131 0)scale(0.996264)" xlink:href="#CMR17-48"/>
      </g>
     </g>
    </g>
    <g id="ytick_7">
     <g id="line2d_25">
      <path clip-path="url(#p17eadfb756)" d="M 72 90.967429 
L 518.4 90.967429 
" style="fill:none;stroke:#ffffff;stroke-linecap:round;"/>
     </g>
     <g id="line2d_26"/>
     <g id="text_14">
      <!-- $\mathdefault{0.12}$ -->
      <g style="fill:#262626;" transform="translate(47.288586 94.426678)scale(0.1 -0.1)">
       <use transform="scale(0.996264)" xlink:href="#CMR17-48"/>
       <use transform="translate(45.690477 0)scale(0.996264)" xlink:href="#CMMI12-58"/>
       <use transform="translate(72.787654 0)scale(0.996264)" xlink:href="#CMR17-49"/>
       <use transform="translate(118.478131 0)scale(0.996264)" xlink:href="#CMR17-50"/>
      </g>
     </g>
    </g>
    <g id="ytick_8">
     <g id="line2d_27">
      <path clip-path="url(#p17eadfb756)" d="M 72 49.086564 
L 518.4 49.086564 
" style="fill:none;stroke:#ffffff;stroke-linecap:round;"/>
     </g>
     <g id="line2d_28"/>
     <g id="text_15">
      <!-- $\mathdefault{0.14}$ -->
      <g style="fill:#262626;" transform="translate(47.288586 52.545814)scale(0.1 -0.1)">
       <use transform="scale(0.996264)" xlink:href="#CMR17-48"/>
       <use transform="translate(45.690477 0)scale(0.996264)" xlink:href="#CMMI12-58"/>
       <use transform="translate(72.787654 0)scale(0.996264)" xlink:href="#CMR17-49"/>
       <use transform="translate(118.478131 0)scale(0.996264)" xlink:href="#CMR17-52"/>
      </g>
     </g>
    </g>
    <g id="text_16">
     <!-- loss -->
     <g style="fill:#262626;" transform="translate(41.157691 208.229635)rotate(-90)scale(0.11 -0.11)">
      <defs>
       <path d="M 14.796875 69 
L 7.40625 69 
L 7.40625 0 
L 14.796875 0 
z
" id="CMSS17-108"/>
       <path d="M 32.203125 41.046875 
C 26.296875 43.859375 21.703125 43.859375 18.703125 43.859375 
C 11.59375 43.859375 3.09375 41.375 3.09375 31.296875 
C 3.09375 21.234375 14.09375 19.03125 17.09375 18.421875 
C 21.703125 17.53125 26.796875 16.53125 26.796875 11.5625 
C 26.796875 5.265625 19.59375 5.265625 18.296875 5.265625 
C 14.296875 5.265625 8.796875 6.359375 3.796875 9.96875 
L 2.59375 3.28125 
C 8.296875 0 13.796875 -1 18.40625 -1 
C 30.703125 -1 33.796875 6.5 33.796875 12.203125 
C 33.796875 17.09375 31 20.390625 29.09375 21.890625 
C 25.796875 24.5 24.59375 24.796875 16.40625 26.5 
C 15 26.703125 10.09375 27.796875 10.09375 32.28125 
C 10.09375 38 16.40625 38 17.796875 38 
C 24.296875 38 28.296875 35.984375 31 34.5 
z
" id="CMSS17-115"/>
      </defs>
      <use transform="scale(0.996264)" xlink:href="#CMSS17-108"/>
      <use transform="translate(22.180723 0)scale(0.996264)" xlink:href="#CMSS17-111"/>
      <use transform="translate(69.024347 0)scale(0.996264)" xlink:href="#CMSS17-115"/>
      <use transform="translate(104.937889 0)scale(0.996264)" xlink:href="#CMSS17-115"/>
     </g>
    </g>
   </g>
   <g id="line2d_29">
    <path clip-path="url(#p17eadfb756)" d="M 92.290909 61.38 
L 93.105478 163.157121 
L 93.757133 217.704406 
L 94.571702 270.688887 
L 95.060443 291.70145 
L 95.549184 303.526086 
L 96.037926 310.337712 
L 96.689581 316.132979 
L 97.504149 321.833762 
L 97.992891 323.847271 
L 98.318718 324.553248 
L 98.644546 324.855394 
L 98.80746 324.873817 
L 98.970373 313.688667 
L 99.296201 314.949215 
L 99.784942 317.547857 
L 100.436597 319.868465 
L 101.088252 321.479312 
L 101.576994 322.500918 
L 102.228649 323.510515 
L 103.369045 325.00592 
L 104.183614 325.517563 
L 107.441889 327.012481 
L 109.559768 327.742242 
L 111.677647 328.293343 
L 115.098836 328.474441 
L 115.26175 327.095473 
L 118.357111 327.500816 
L 118.520025 327.137272 
L 134.648487 329.062621 
L 134.811401 328.229655 
L 136.277625 328.664083 
L 139.047159 329.152682 
L 150.939864 330.793641 
L 151.102777 329.570002 
L 152.08026 329.919017 
L 153.220656 330.214014 
L 154.849794 330.584185 
L 158.759724 331.315181 
L 170.652429 332.805671 
L 175.865669 333.262498 
L 183.522616 333.79387 
L 183.68553 333.674564 
L 187.106719 333.958768 
L 199.813992 334.704697 
L 200.13982 334.665348 
L 210.5663 335.21686 
L 216.105368 335.439403 
L 216.268282 335.093392 
L 217.571592 335.162706 
L 220.829868 335.31815 
L 268.237772 337.04905 
L 269.86691 337.092198 
L 283.225838 337.401721 
L 283.71458 337.368017 
L 296.910595 337.605833 
L 299.028473 337.65262 
L 304.730455 337.587549 
L 322.650969 337.859169 
L 394.495938 338.309681 
L 395.962162 338.31953 
L 446.302515 338.550596 
L 446.791256 338.513656 
L 451.027014 338.531274 
L 452.981979 338.543188 
L 474.323682 338.477892 
L 474.649509 338.391213 
L 485.401817 338.32849 
L 488.171351 338.293786 
L 493.384592 338.287358 
L 493.547506 337.978634 
L 498.109091 337.999509 
L 498.109091 337.999509 
" style="fill:none;stroke:#ff0000;stroke-linecap:round;stroke-width:1.75;"/>
   </g>
   <g id="line2d_30">
    <path clip-path="url(#p17eadfb756)" d="M 92.290909 74.91578 
L 92.942564 155.473466 
L 93.757133 223.578272 
L 94.408788 263.42088 
L 94.897529 282.916258 
L 95.386271 293.82216 
L 95.875012 299.663968 
L 96.526667 304.571784 
L 97.178322 307.928765 
L 97.504149 308.850131 
L 97.829977 309.247397 
L 98.155805 309.163514 
L 98.644546 308.693384 
L 98.80746 308.659668 
L 99.133287 310.206857 
L 99.622028 311.947872 
L 100.273683 313.280355 
L 102.065735 316.568357 
L 102.880304 317.499634 
L 104.0207 318.469466 
L 106.301493 319.918356 
L 106.790234 320.138059 
L 107.604803 320.389139 
L 109.071027 321.095142 
L 110.863078 321.56568 
L 111.351819 321.634774 
L 115.098836 321.917942 
L 116.56506 322.0325 
L 118.357111 321.91661 
L 118.845852 322.116259 
L 121.126645 322.702045 
L 134.811401 324.942144 
L 135.951797 325.459169 
L 138.23259 325.992552 
L 139.047159 326.125868 
L 151.265691 328.390984 
L 151.754432 328.591921 
L 152.243174 328.785251 
L 152.731915 328.918215 
L 153.057742 328.967072 
L 153.546484 329.129216 
L 154.849794 329.362503 
L 155.827276 329.728064 
L 160.714689 330.526061 
L 161.529258 330.648078 
L 163.810051 330.967042 
L 164.787533 331.106576 
L 165.276275 331.143726 
L 165.765016 331.146783 
L 167.068326 331.357675 
L 168.208722 331.568775 
L 170.489515 331.815756 
L 174.399445 332.185412 
L 178.798117 332.5519 
L 184.500099 332.95397 
L 196.555717 333.75366 
L 216.59411 334.75999 
L 217.734506 334.781578 
L 218.711989 334.853522 
L 220.666954 334.926899 
L 223.273574 335.041377 
L 226.531849 335.172727 
L 253.086792 336.158996 
L 254.71593 336.217024 
L 256.507981 336.303255 
L 257.32255 336.308031 
L 262.209963 336.476269 
L 262.861618 336.487796 
L 281.433787 336.997923 
L 282.41127 337.024372 
L 300.005956 337.312244 
L 300.820525 337.265492 
L 301.309266 337.307897 
L 302.123835 337.293734 
L 302.612576 337.332669 
L 312.224488 337.498588 
L 312.387402 337.435977 
L 312.713229 337.492932 
L 314.831108 337.524494 
L 314.994022 337.449716 
L 315.31985 337.51433 
L 317.437729 337.522181 
L 317.92647 337.554841 
L 319.392694 337.561069 
L 321.184745 337.600804 
L 322.325141 337.592678 
L 322.976796 337.619913 
L 324.931762 337.622549 
L 325.74633 337.655801 
L 329.819174 337.691307 
L 331.448312 337.7081 
L 332.262881 337.703015 
L 333.729105 337.727735 
L 336.172811 337.732312 
L 338.779431 337.806183 
L 340.082742 337.786623 
L 346.599292 337.884657 
L 347.250947 337.87696 
L 348.717171 337.892117 
L 350.346309 337.875707 
L 351.812532 337.900034 
L 354.093325 337.923461 
L 403.782023 338.236569 
L 404.433678 338.268903 
L 405.085333 338.258834 
L 405.248246 338.283177 
L 405.41116 338.193256 
L 405.574074 338.315102 
L 406.225729 338.269488 
L 406.877384 338.281816 
L 407.691953 338.268258 
L 412.090624 338.295247 
L 412.905193 338.271102 
L 414.371417 338.328319 
L 414.534331 338.268185 
L 414.697245 338.333816 
L 415.023072 338.269557 
L 416.65221 338.313069 
L 416.978037 338.299149 
L 419.25883 338.319706 
L 420.399226 338.353176 
L 420.56214 338.207894 
L 420.725054 338.330978 
L 421.050881 338.304099 
L 421.376709 338.33323 
L 421.539623 338.288373 
L 421.702536 338.382694 
L 422.191278 338.291457 
L 423.983329 338.340292 
L 424.47207 338.349018 
L 424.960812 338.364287 
L 425.449553 338.369848 
L 429.196569 338.391597 
L 429.359483 338.318709 
L 429.848225 338.372658 
L 430.174052 338.408108 
L 430.662793 338.307286 
L 430.988621 338.375305 
L 431.80319 338.38274 
L 432.129017 338.351322 
L 433.758155 338.428662 
L 434.246896 338.353621 
L 434.572724 338.413953 
L 437.179344 338.369117 
L 437.505171 338.456771 
L 437.830999 338.397393 
L 438.31974 338.432257 
L 438.645568 338.40012 
L 476.278647 338.370952 
L 477.256129 338.372262 
L 477.581957 338.409111 
L 479.048181 338.36286 
L 479.211094 338.457074 
L 479.374008 338.354484 
L 479.86275 338.387878 
L 482.46937 338.412625 
L 482.958111 338.444441 
L 483.283939 338.381746 
L 483.609766 338.399534 
L 483.935594 338.455029 
L 484.913076 338.295921 
L 485.07599 338.428763 
L 485.238904 338.343314 
L 485.564731 338.372448 
L 486.542214 338.466846 
L 487.030955 338.376988 
L 487.519696 338.351521 
L 487.68261 338.461956 
L 487.845524 338.345354 
L 488.171351 338.390436 
L 488.334265 338.363654 
L 488.497179 338.466435 
L 488.98592 338.344559 
L 489.311748 338.385844 
L 490.452144 338.423247 
L 490.940885 338.43257 
L 491.266713 338.349704 
L 491.755454 338.480079 
L 491.918368 338.379655 
L 492.244195 338.418649 
L 492.407109 338.383558 
L 492.570023 338.5069 
L 492.732937 338.387043 
L 493.221678 338.473774 
L 493.384592 338.368893 
L 493.547506 338.425278 
L 493.710419 338.300593 
L 494.036247 338.452489 
L 494.362074 338.292868 
L 494.524988 338.450923 
L 495.013729 338.399126 
L 497.131608 338.322684 
L 497.294522 338.506861 
L 497.457436 338.378515 
L 498.109091 338.38512 
L 498.109091 338.38512 
" style="fill:none;stroke:#0000ff;stroke-linecap:round;stroke-width:1.75;"/>
   </g>
   <g id="patch_3">
    <path d="M 72 352.44 
L 72 47.52 
" style="fill:none;"/>
   </g>
   <g id="patch_4">
    <path d="M 518.4 352.44 
L 518.4 47.52 
" style="fill:none;"/>
   </g>
   <g id="patch_5">
    <path d="M 72 352.44 
L 518.4 352.44 
" style="fill:none;"/>
   </g>
   <g id="patch_6">
    <path d="M 72 47.52 
L 518.4 47.52 
" style="fill:none;"/>
   </g>
   <g id="text_17">
    <!-- Loss Function Output -->
    <g style="fill:#262626;" transform="translate(241.98287 41.52)scale(0.12 -0.12)">
     <defs>
      <path d="M 26.09375 6.46875 
C 24.90625 6.46875 23.703125 6.46875 22.5 6.46875 
L 17.203125 6.46875 
L 17.203125 69 
L 8.796875 69 
L 8.796875 0 
L 46.90625 0 
L 46.90625 6.46875 
z
" id="CMSS17-76"/>
      <path d="M 45.59375 31 
L 45.59375 37.078125 
L 17.203125 37.078125 
L 17.203125 62 
L 29.40625 62 
C 30.59375 62 31.796875 62 33 62 
L 49.5 62 
L 49.5 68.359375 
L 8.796875 68.359375 
L 8.796875 -0.5 
L 17.203125 -0.5 
L 17.203125 31 
z
" id="CMSS17-70"/>
      <path d="M 40.90625 42.796875 
L 33.296875 42.796875 
L 33.296875 15.1875 
C 33.296875 7.78125 27.90625 4.78125 22.203125 4.78125 
C 15.59375 4.78125 15 6.984375 15 11.078125 
L 15 42.796875 
L 7.40625 42.796875 
L 7.40625 10.59375 
C 7.40625 2.796875 10.09375 -1 17 -1 
C 20.40625 -1 28.09375 -0.203125 33.5 4.78125 
L 33.5 0 
L 40.90625 0 
z
" id="CMSS17-117"/>
      <path d="M 40.90625 29.328125 
C 40.90625 35.671875 39.40625 44 28.09375 44 
C 21.703125 44 17.5 40.71875 14.703125 37.328125 
L 14.703125 43.09375 
L 7.40625 43.09375 
L 7.40625 0 
L 15 0 
L 15 24.359375 
C 15 30.6875 17.40625 37.9375 24.203125 37.9375 
C 33 37.9375 33.296875 32 33.296875 28.578125 
L 33.296875 0 
L 40.90625 0 
z
" id="CMSS17-110"/>
      <path d="M 16.703125 37 
L 29.703125 37 
L 29.703125 42.765625 
L 16.703125 42.765625 
L 16.703125 55 
L 9.59375 55 
L 9.59375 42.765625 
L 1.703125 42.765625 
L 1.703125 37 
L 9.40625 37 
L 9.40625 11.703125 
C 9.40625 6 10.703125 -1 17.296875 -1 
C 22.296875 -1 26.90625 0.390625 31.296875 2.6875 
L 29.703125 8.5625 
C 27.296875 6.46875 24.40625 5.265625 21.296875 5.265625 
C 16.90625 5.265625 16.703125 10.875 16.703125 13.375 
z
" id="CMSS17-116"/>
      <path d="M 15.296875 65.359375 
L 6.90625 65.359375 
L 6.90625 57 
L 15.296875 57 
z
M 14.796875 42.796875 
L 7.40625 42.796875 
L 7.40625 0 
L 14.796875 0 
z
" id="CMSS17-105"/>
      <path d="M 64 34.03125 
C 64 54.734375 50.296875 70.265625 34.59375 70.265625 
C 18.90625 70.265625 5.203125 54.640625 5.203125 34.03125 
C 5.203125 13.234375 19.09375 -2 34.59375 -2 
C 50.09375 -2 64 13.234375 64 34.03125 
z
M 34.59375 4.265625 
C 23.59375 4.265625 13.59375 16.515625 13.59375 35.328125 
C 13.59375 53.640625 24.203125 64 34.59375 64 
C 45 64 55.59375 53.640625 55.59375 35.328125 
C 55.59375 16.421875 45.5 4.265625 34.59375 4.265625 
z
" id="CMSS17-79"/>
     </defs>
     <use transform="scale(0.996264)" xlink:href="#CMSS17-76"/>
     <use transform="translate(50.687105 0)scale(0.996264)" xlink:href="#CMSS17-111"/>
     <use transform="translate(97.530729 0)scale(0.996264)" xlink:href="#CMSS17-115"/>
     <use transform="translate(133.444271 0)scale(0.996264)" xlink:href="#CMSS17-115"/>
     <use transform="translate(200.586926 0)scale(0.996264)" xlink:href="#CMSS17-70"/>
     <use transform="translate(251.274031 0)scale(0.996264)" xlink:href="#CMSS17-117"/>
     <use transform="translate(299.478974 0)scale(0.996264)" xlink:href="#CMSS17-110"/>
     <use transform="translate(347.683917 0)scale(0.996264)" xlink:href="#CMSS17-99"/>
     <use transform="translate(389.322739 0)scale(0.996264)" xlink:href="#CMSS17-116"/>
     <use transform="translate(423.154306 0)scale(0.996264)" xlink:href="#CMSS17-105"/>
     <use transform="translate(445.335029 0)scale(0.996264)" xlink:href="#CMSS17-111"/>
     <use transform="translate(492.178653 0)scale(0.996264)" xlink:href="#CMSS17-110"/>
     <use transform="translate(571.612708 0)scale(0.996264)" xlink:href="#CMSS17-79"/>
     <use transform="translate(640.636964 0)scale(0.996264)" xlink:href="#CMSS17-117"/>
     <use transform="translate(688.841907 0)scale(0.996264)" xlink:href="#CMSS17-116"/>
     <use transform="translate(722.673474 0)scale(0.996264)" xlink:href="#CMSS17-112"/>
     <use transform="translate(770.878417 0)scale(0.996264)" xlink:href="#CMSS17-117"/>
     <use transform="translate(819.08336 0)scale(0.996264)" xlink:href="#CMSS17-116"/>
    </g>
   </g>
   <g id="legend_1">
    <g id="line2d_31">
     <path d="M 81 60.177812 
L 101 60.177812 
" style="fill:none;stroke:#ff0000;stroke-linecap:round;stroke-width:1.75;"/>
    </g>
    <g id="line2d_32"/>
    <g id="text_18">
     <!-- training loss -->
     <g style="fill:#262626;" transform="translate(109 63.677812)scale(0.1 -0.1)">
      <defs>
       <path d="M 14.90625 21.296875 
C 14.90625 30.703125 21.796875 37 30.59375 37 
L 30.59375 43.578125 
C 24.203125 43.578125 18.203125 40.390625 14.59375 35.203125 
L 14.59375 43.09375 
L 7.5 43.09375 
L 7.5 0 
L 14.90625 0 
z
" id="CMSS17-114"/>
       <path d="M 37.59375 27.984375 
C 37.59375 37.375 30.90625 43.875 21.90625 43.875 
C 17.5 43.875 12.703125 43.078125 7.203125 39.890625 
L 7.796875 33.359375 
C 10.296875 35.125 14.59375 38 21.796875 38 
C 26.90625 38 30 34.0625 30 27.84375 
L 30 24 
C 14 24 4 19.34375 4 11.34375 
C 4 7.203125 6.5 -1 14.796875 -1 
C 16.296875 -1 24.40625 -1 30.203125 3.390625 
L 30.203125 -0.296875 
L 37.59375 -0.296875 
z
M 30 12.75 
C 30 10.953125 30 8.5625 27 6.78125 
C 24.40625 5.078125 21.09375 5.078125 19.703125 5.078125 
C 14.703125 5.078125 11.296875 7.984375 11.296875 11.625 
C 11.296875 18.921875 26.90625 18.921875 30 18.921875 
z
" id="CMSS17-97"/>
       <path d="M 44.5 43.875 
C 38.796875 43.875 33.90625 42.78125 29.90625 40.890625 
C 26.59375 43.390625 23.203125 43.875 20.90625 43.875 
C 12.203125 43.875 5.59375 36.703125 5.59375 28.34375 
C 5.59375 22.9375 8.59375 18.859375 8.796875 18.671875 
C 7 16.171875 6 13.484375 6 10.5 
C 6 7 7.40625 4.515625 8.5 3.125 
C 3.296875 -0.046875 2.59375 -4.90625 2.59375 -6.796875 
C 2.59375 -14.03125 11.703125 -20 23.40625 -20 
C 35.203125 -20 44.296875 -14.03125 44.296875 -6.6875 
C 44.296875 7 29 7 24.796875 7 
L 16.703125 7 
C 15.203125 7 11.203125 7 11.203125 12.359375 
C 11.203125 14.390625 12.09375 15.6875 12.203125 15.78125 
C 13.703125 14.6875 16.796875 13 20.90625 13 
C 29.203125 13 36.09375 19.96875 36.09375 28.546875 
C 36.09375 33.3125 33.90625 36.796875 33 38 
L 33.296875 38 
C 33.59375 38 37.796875 38 39.296875 38 
C 42.5 38 42.796875 37.953125 45.59375 37.796875 
z
M 20.90625 18.46875 
C 17.5 18.46875 12.703125 20.546875 12.703125 28.484375 
C 12.703125 37.109375 18.203125 38.5 20.796875 38.5 
C 24.203125 38.5 29 36.421875 29 28.484375 
C 29 19.859375 23.5 18.46875 20.90625 18.46875 
z
M 24.703125 -0.15625 
C 27.09375 -0.15625 37.203125 -0.15625 37.203125 -6.90625 
C 37.203125 -11.15625 31 -14.515625 23.5 -14.515625 
C 15.90625 -14.515625 9.703125 -11.25 9.703125 -6.796875 
C 9.703125 -6.296875 9.703125 -0.15625 16.59375 -0.15625 
z
" id="CMSS17-103"/>
      </defs>
      <use transform="scale(0.996264)" xlink:href="#CMSS17-116"/>
      <use transform="translate(33.831567 0)scale(0.996264)" xlink:href="#CMSS17-114"/>
      <use transform="translate(65.741339 0)scale(0.996264)" xlink:href="#CMSS17-97"/>
      <use transform="translate(110.66326 0)scale(0.996264)" xlink:href="#CMSS17-105"/>
      <use transform="translate(132.843983 0)scale(0.996264)" xlink:href="#CMSS17-110"/>
      <use transform="translate(181.048926 0)scale(0.996264)" xlink:href="#CMSS17-105"/>
      <use transform="translate(203.229649 0)scale(0.996264)" xlink:href="#CMSS17-110"/>
      <use transform="translate(251.434592 0)scale(0.996264)" xlink:href="#CMSS17-103"/>
      <use transform="translate(329.507328 0)scale(0.996264)" xlink:href="#CMSS17-108"/>
      <use transform="translate(351.688052 0)scale(0.996264)" xlink:href="#CMSS17-111"/>
      <use transform="translate(398.531675 0)scale(0.996264)" xlink:href="#CMSS17-115"/>
      <use transform="translate(434.445217 0)scale(0.996264)" xlink:href="#CMSS17-115"/>
     </g>
    </g>
    <g id="line2d_33">
     <path d="M 81 74.323125 
L 101 74.323125 
" style="fill:none;stroke:#0000ff;stroke-linecap:round;stroke-width:1.75;"/>
    </g>
    <g id="line2d_34"/>
    <g id="text_19">
     <!-- validation loss -->
     <g style="fill:#262626;" transform="translate(109 77.823125)scale(0.1 -0.1)">
      <defs>
       <path d="M 41.796875 43 
L 34 43 
L 27.296875 24.3125 
C 25.203125 18.203125 22.203125 9.796875 21.703125 5.5 
L 21.59375 5.5 
C 21.40625 7.3125 20.59375 9.90625 20.09375 11.703125 
C 19.5 13.90625 18.703125 16.5 18.09375 18.3125 
L 9.296875 43 
L 1.296875 43 
L 17.09375 0 
L 26 0 
z
" id="CMSS17-118"/>
       <path d="M 40.796875 69 
L 33.40625 69 
L 33.40625 38.09375 
C 30.296875 40.671875 25.203125 43.0625 19.59375 43.0625 
C 10.5 43.0625 3.296875 33.296875 3.296875 21.046875 
C 3.296875 8.78125 10.40625 -1 19.296875 -1 
C 26.203125 -1 30.796875 2.6875 33.203125 4.78125 
L 33.203125 -0.203125 
L 40.796875 -0.203125 
z
M 33.203125 13.0625 
C 33.203125 11.671875 33.203125 10.203125 30.09375 7.53125 
C 28.09375 5.859375 25.703125 5.078125 23.40625 5.078125 
C 18 5.078125 10.90625 9 10.90625 20.9375 
C 10.90625 33.34375 18.90625 37 24.40625 37 
C 28.09375 37 31.09375 35.21875 33.203125 32.265625 
z
" id="CMSS17-100"/>
      </defs>
      <use transform="scale(0.996264)" xlink:href="#CMSS17-118"/>
      <use transform="translate(43.000142 0)scale(0.996264)" xlink:href="#CMSS17-97"/>
      <use transform="translate(87.922062 0)scale(0.996264)" xlink:href="#CMSS17-108"/>
      <use transform="translate(110.102785 0)scale(0.996264)" xlink:href="#CMSS17-105"/>
      <use transform="translate(132.283508 0)scale(0.996264)" xlink:href="#CMSS17-100"/>
      <use transform="translate(180.488452 0)scale(0.996264)" xlink:href="#CMSS17-97"/>
      <use transform="translate(225.410372 0)scale(0.996264)" xlink:href="#CMSS17-116"/>
      <use transform="translate(259.241939 0)scale(0.996264)" xlink:href="#CMSS17-105"/>
      <use transform="translate(281.422662 0)scale(0.996264)" xlink:href="#CMSS17-111"/>
      <use transform="translate(328.266285 0)scale(0.996264)" xlink:href="#CMSS17-110"/>
      <use transform="translate(407.700341 0)scale(0.996264)" xlink:href="#CMSS17-108"/>
      <use transform="translate(429.881064 0)scale(0.996264)" xlink:href="#CMSS17-111"/>
      <use transform="translate(476.724688 0)scale(0.996264)" xlink:href="#CMSS17-115"/>
      <use transform="translate(512.63823 0)scale(0.996264)" xlink:href="#CMSS17-115"/>
     </g>
    </g>
   </g>
  </g>
 </g>
 <defs>
  <clipPath id="p17eadfb756">
   <rect height="304.92" width="446.4" x="72" y="47.52"/>
  </clipPath>
 </defs>
</svg>
