<?xml version="1.0" encoding="utf-8" standalone="no"?>
<!DOCTYPE svg PUBLIC "-//W3C//DTD SVG 1.1//EN"
  "http://www.w3.org/Graphics/SVG/1.1/DTD/svg11.dtd">
<svg xmlns:xlink="http://www.w3.org/1999/xlink" width="432pt" height="432pt" viewBox="0 0 432 432" xmlns="http://www.w3.org/2000/svg" version="1.1">
 <metadata>
  <rdf:RDF xmlns:dc="http://purl.org/dc/elements/1.1/" xmlns:cc="http://creativecommons.org/ns#" xmlns:rdf="http://www.w3.org/1999/02/22-rdf-syntax-ns#">
   <cc:Work>
    <dc:type rdf:resource="http://purl.org/dc/dcmitype/StillImage"/>
    <dc:date>2022-06-12T14:34:21.003557</dc:date>
    <dc:format>image/svg+xml</dc:format>
    <dc:creator>
     <cc:Agent>
      <dc:title>Matplotlib v3.5.2, https://matplotlib.org/</dc:title>
     </cc:Agent>
    </dc:creator>
   </cc:Work>
  </rdf:RDF>
 </metadata>
 <defs>
  <style type="text/css">*{stroke-linejoin: round; stroke-linecap: butt}</style>
 </defs>
 <g id="figure_1">
  <g id="patch_1">
   <path d="M 0 432 
L 432 432 
L 432 0 
L 0 0 
z
" style="fill: #ffffff"/>
  </g>
  <g id="axes_1">
   <g id="patch_2">
    <path d="M 54 384.48 
L 388.8 384.48 
L 388.8 51.84 
L 54 51.84 
z
" style="fill: #ffffff"/>
   </g>
   <g id="matplotlib.axis_1">
    <g id="xtick_1">
     <g id="line2d_1">
      <path d="M 54 384.48 
L 54 51.84 
" clip-path="url(#p598c38bf3c)" style="fill: none; stroke-dasharray: 2.96,1.28; stroke-dashoffset: 0; stroke: #b0b0b0; stroke-opacity: 0.8; stroke-width: 0.8"/>
     </g>
     <g id="line2d_2">
      <defs>
       <path id="m63e85d0224" d="M 0 0 
L 0 3.5 
" style="stroke: #000000; stroke-width: 0.8"/>
      </defs>
      <g>
       <use xlink:href="#m63e85d0224" x="54" y="384.48" style="stroke: #000000; stroke-width: 0.8"/>
      </g>
     </g>
     <g id="text_1">
      <!-- 0.00 -->
      <g transform="translate(40.126245 402.549588)scale(0.16 -0.16)">
       <defs>
        <path id="CMSS17-30" d="M 2758 2044 
C 2758 2405 2752 3077 2490 3596 
C 2227 4096 1805 4229 1504 4229 
C 1069 4229 698 3975 506 3570 
C 301 3146 243 2709 243 2044 
C 243 1589 262 1031 493 543 
C 755 5 1197 -128 1498 -128 
C 1894 -128 2278 81 2496 518 
C 2720 974 2758 1474 2758 2044 
z
M 1498 261 
C 1011 261 864 811 819 995 
C 742 1310 730 1614 730 2114 
C 730 2506 730 2948 851 3297 
C 998 3701 1254 3840 1498 3840 
C 1971 3840 2125 3372 2176 3208 
C 2272 2873 2272 2481 2272 2114 
C 2272 1526 2272 261 1498 261 
z
" transform="scale(0.015625)"/>
        <path id="CMSS17-2e" d="M 1088 510 
L 576 510 
L 576 0 
L 1088 0 
L 1088 510 
z
" transform="scale(0.015625)"/>
       </defs>
       <use xlink:href="#CMSS17-30" transform="scale(0.996264)"/>
       <use xlink:href="#CMSS17-2e" transform="translate(46.843624 0)scale(0.996264)"/>
       <use xlink:href="#CMSS17-30" transform="translate(72.867828 0)scale(0.996264)"/>
       <use xlink:href="#CMSS17-30" transform="translate(119.711452 0)scale(0.996264)"/>
      </g>
     </g>
    </g>
    <g id="xtick_2">
     <g id="line2d_3">
      <path d="M 165.6 384.48 
L 165.6 51.84 
" clip-path="url(#p598c38bf3c)" style="fill: none; stroke-dasharray: 2.96,1.28; stroke-dashoffset: 0; stroke: #b0b0b0; stroke-opacity: 0.8; stroke-width: 0.8"/>
     </g>
     <g id="line2d_4">
      <g>
       <use xlink:href="#m63e85d0224" x="165.6" y="384.48" style="stroke: #000000; stroke-width: 0.8"/>
      </g>
     </g>
     <g id="text_2">
      <!-- 5.03 -->
      <g transform="translate(151.726245 402.549588)scale(0.16 -0.16)">
       <defs>
        <path id="CMSS17-35" d="M 934 3752 
L 2502 3752 
L 2502 4160 
L 467 4160 
L 467 1781 
L 896 1781 
C 1011 2046 1248 2240 1555 2240 
C 1843 2240 2163 1989 2163 1266 
C 2163 493 1709 267 1376 267 
C 966 267 589 512 422 851 
L 218 499 
C 512 49 992 -128 1376 -128 
C 2118 -128 2701 497 2701 1253 
C 2701 2030 2182 2629 1562 2629 
C 1338 2629 1120 2553 934 2399 
L 934 3752 
z
" transform="scale(0.015625)"/>
        <path id="CMSS17-33" d="M 1005 2025 
L 1440 2025 
C 2042 2025 2214 1507 2214 1146 
C 2214 653 1933 267 1472 267 
C 1114 267 608 444 320 912 
C 275 691 275 678 250 526 
C 550 88 1037 -128 1485 -128 
C 2214 -128 2752 473 2752 1138 
C 2752 1638 2400 2057 1920 2215 
C 2304 2424 2586 2816 2586 3273 
C 2586 3805 2093 4229 1491 4229 
C 941 4229 512 3892 333 3530 
C 378 3468 493 3284 550 3189 
C 691 3562 1056 3840 1485 3840 
C 1843 3840 2080 3607 2080 3271 
C 2080 2923 1856 2543 1478 2455 
C 1453 2455 1056 2417 1005 2411 
L 1005 2025 
z
" transform="scale(0.015625)"/>
       </defs>
       <use xlink:href="#CMSS17-35" transform="scale(0.996264)"/>
       <use xlink:href="#CMSS17-2e" transform="translate(46.843624 0)scale(0.996264)"/>
       <use xlink:href="#CMSS17-30" transform="translate(72.867828 0)scale(0.996264)"/>
       <use xlink:href="#CMSS17-33" transform="translate(119.711452 0)scale(0.996264)"/>
      </g>
     </g>
    </g>
    <g id="xtick_3">
     <g id="line2d_5">
      <path d="M 277.2 384.48 
L 277.2 51.84 
" clip-path="url(#p598c38bf3c)" style="fill: none; stroke-dasharray: 2.96,1.28; stroke-dashoffset: 0; stroke: #b0b0b0; stroke-opacity: 0.8; stroke-width: 0.8"/>
     </g>
     <g id="line2d_6">
      <g>
       <use xlink:href="#m63e85d0224" x="277.2" y="384.48" style="stroke: #000000; stroke-width: 0.8"/>
      </g>
     </g>
     <g id="text_3">
      <!-- 10.06 -->
      <g transform="translate(259.424252 402.549588)scale(0.16 -0.16)">
       <defs>
        <path id="CMSS17-31" d="M 1818 4288 
L 1696 4288 
C 1350 3940 947 3890 538 3890 
L 538 3520 
C 723 3520 1024 3520 1325 3667 
L 1325 369 
L 570 369 
L 570 0 
L 2573 0 
L 2573 369 
L 1818 369 
L 1818 4288 
z
" transform="scale(0.015625)"/>
        <path id="CMSS17-36" d="M 2496 4101 
C 2227 4210 2035 4229 1856 4229 
C 1024 4229 250 3368 250 2006 
C 250 265 986 -128 1510 -128 
C 1798 -128 2086 -39 2362 280 
C 2643 617 2752 898 2752 1389 
C 2752 2179 2362 2880 1779 2880 
C 1357 2880 992 2657 768 2376 
C 832 3258 1254 3840 1862 3840 
C 2029 3840 2246 3816 2496 3710 
L 2496 4101 
z
M 774 1369 
C 774 1420 774 1452 781 1548 
C 781 2045 1069 2491 1536 2491 
C 1837 2491 1990 2332 2106 2135 
C 2240 1886 2246 1650 2246 1388 
C 2246 1140 2246 891 2099 637 
C 1978 439 1818 267 1510 267 
C 902 267 800 1114 774 1369 
z
" transform="scale(0.015625)"/>
       </defs>
       <use xlink:href="#CMSS17-31" transform="scale(0.996264)"/>
       <use xlink:href="#CMSS17-30" transform="translate(46.843624 0)scale(0.996264)"/>
       <use xlink:href="#CMSS17-2e" transform="translate(93.687247 0)scale(0.996264)"/>
       <use xlink:href="#CMSS17-30" transform="translate(119.711452 0)scale(0.996264)"/>
       <use xlink:href="#CMSS17-36" transform="translate(166.555075 0)scale(0.996264)"/>
      </g>
     </g>
    </g>
    <g id="xtick_4">
     <g id="line2d_7">
      <path d="M 388.8 384.48 
L 388.8 51.84 
" clip-path="url(#p598c38bf3c)" style="fill: none; stroke-dasharray: 2.96,1.28; stroke-dashoffset: 0; stroke: #b0b0b0; stroke-opacity: 0.8; stroke-width: 0.8"/>
     </g>
     <g id="line2d_8">
      <g>
       <use xlink:href="#m63e85d0224" x="388.8" y="384.48" style="stroke: #000000; stroke-width: 0.8"/>
      </g>
     </g>
     <g id="text_4">
      <!-- 15.09 -->
      <g transform="translate(371.024252 402.549588)scale(0.16 -0.16)">
       <defs>
        <path id="CMSS17-39" d="M 435 174 
C 614 21 845 -128 1235 -128 
C 2010 -128 2752 721 2752 2095 
C 2752 3932 1952 4229 1523 4229 
C 1094 4229 819 4041 582 3741 
C 301 3397 250 3090 250 2733 
C 250 2307 326 2045 506 1745 
C 749 1357 973 1275 1222 1275 
C 1600 1275 1978 1459 2234 1776 
C 2189 902 1798 267 1235 267 
C 1005 267 819 339 634 516 
L 435 174 
z
M 2214 2746 
C 2221 2703 2221 2622 2221 2596 
C 2221 2074 1914 1664 1466 1664 
C 1171 1664 1018 1813 902 2006 
C 762 2249 755 2485 755 2733 
C 755 2976 755 3244 934 3511 
C 1069 3703 1235 3840 1523 3840 
C 2112 3840 2208 3000 2214 2746 
z
" transform="scale(0.015625)"/>
       </defs>
       <use xlink:href="#CMSS17-31" transform="scale(0.996264)"/>
       <use xlink:href="#CMSS17-35" transform="translate(46.843624 0)scale(0.996264)"/>
       <use xlink:href="#CMSS17-2e" transform="translate(93.687247 0)scale(0.996264)"/>
       <use xlink:href="#CMSS17-30" transform="translate(119.711452 0)scale(0.996264)"/>
       <use xlink:href="#CMSS17-39" transform="translate(166.555075 0)scale(0.996264)"/>
      </g>
     </g>
    </g>
    <g id="text_5">
     <!-- $L_2$-distance to the nearest neighbor -->
     <g transform="translate(106.01816 420.718653)scale(0.16 -0.16)">
      <defs>
       <path id="CMMI12-4c" d="M 2349 3861 
C 2406 4103 2426 4167 2989 4167 
C 3162 4167 3206 4167 3206 4288 
C 3206 4352 3136 4352 3110 4352 
C 2982 4352 2835 4352 2707 4352 
L 1850 4352 
C 1728 4352 1587 4352 1466 4352 
C 1414 4352 1344 4352 1344 4231 
C 1344 4167 1402 4167 1498 4167 
C 1888 4167 1888 4116 1888 4046 
C 1888 4034 1888 3995 1862 3899 
L 998 472 
C 941 249 928 185 480 185 
C 358 185 294 185 294 70 
C 294 0 333 0 461 0 
L 3328 0 
C 3469 0 3475 6 3520 121 
L 4013 1478 
C 4026 1510 4038 1548 4038 1567 
C 4038 1605 4006 1631 3974 1631 
C 3968 1631 3936 1631 3923 1605 
C 3910 1599 3910 1586 3859 1465 
C 3654 905 3366 185 2285 185 
L 1670 185 
C 1581 185 1568 185 1530 192 
C 1459 198 1453 211 1453 262 
C 1453 307 1466 345 1478 401 
L 2349 3861 
z
" transform="scale(0.015625)"/>
       <path id="CMR17-32" d="M 2669 989 
L 2554 989 
C 2490 536 2438 459 2413 420 
C 2381 369 1920 369 1830 369 
L 602 369 
C 832 619 1280 1072 1824 1597 
C 2214 1967 2669 2402 2669 3035 
C 2669 3790 2067 4224 1395 4224 
C 691 4224 262 3604 262 3030 
C 262 2780 448 2748 525 2748 
C 589 2748 781 2787 781 3010 
C 781 3207 614 3264 525 3264 
C 486 3264 448 3258 422 3245 
C 544 3790 915 4058 1306 4058 
C 1862 4058 2227 3617 2227 3035 
C 2227 2479 1901 2000 1536 1584 
L 262 146 
L 262 0 
L 2515 0 
L 2669 989 
z
" transform="scale(0.015625)"/>
       <path id="CMSS17-2d" d="M 1664 1216 
L 1664 1585 
L 64 1585 
L 64 1216 
L 1664 1216 
z
" transform="scale(0.015625)"/>
       <path id="CMSS17-64" d="M 2611 4416 
L 2138 4416 
L 2138 2438 
C 1939 2603 1613 2756 1254 2756 
C 672 2756 211 2131 211 1347 
C 211 562 666 -64 1235 -64 
C 1677 -64 1971 172 2125 306 
L 2125 -13 
L 2611 -13 
L 2611 4416 
z
M 2125 836 
C 2125 747 2125 653 1926 482 
C 1798 375 1645 325 1498 325 
C 1152 325 698 576 698 1340 
C 698 2134 1210 2368 1562 2368 
C 1798 2368 1990 2254 2125 2065 
L 2125 836 
z
" transform="scale(0.015625)"/>
       <path id="CMSS17-69" d="M 979 4183 
L 442 4183 
L 442 3648 
L 979 3648 
L 979 4183 
z
M 947 2739 
L 474 2739 
L 474 0 
L 947 0 
L 947 2739 
z
" transform="scale(0.015625)"/>
       <path id="CMSS17-73" d="M 2061 2627 
C 1683 2807 1389 2807 1197 2807 
C 742 2807 198 2648 198 2003 
C 198 1359 902 1218 1094 1179 
C 1389 1122 1715 1058 1715 740 
C 1715 337 1254 337 1171 337 
C 915 337 563 407 243 638 
L 166 210 
C 531 0 883 -64 1178 -64 
C 1965 -64 2163 416 2163 781 
C 2163 1094 1984 1305 1862 1401 
C 1651 1568 1574 1587 1050 1696 
C 960 1709 646 1779 646 2066 
C 646 2432 1050 2432 1139 2432 
C 1555 2432 1811 2303 1984 2208 
L 2061 2627 
z
" transform="scale(0.015625)"/>
       <path id="CMSS17-74" d="M 1069 2368 
L 1901 2368 
L 1901 2737 
L 1069 2737 
L 1069 3520 
L 614 3520 
L 614 2737 
L 109 2737 
L 109 2368 
L 602 2368 
L 602 749 
C 602 384 685 -64 1107 -64 
C 1427 -64 1722 25 2003 172 
L 1901 548 
C 1747 414 1562 337 1363 337 
C 1082 337 1069 696 1069 856 
L 1069 2368 
z
" transform="scale(0.015625)"/>
       <path id="CMSS17-61" d="M 2406 1791 
C 2406 2392 1978 2808 1402 2808 
C 1120 2808 813 2757 461 2553 
L 499 2135 
C 659 2248 934 2432 1395 2432 
C 1722 2432 1920 2180 1920 1782 
L 1920 1536 
C 896 1536 256 1238 256 726 
C 256 461 416 -64 947 -64 
C 1043 -64 1562 -64 1933 217 
L 1933 -19 
L 2406 -19 
L 2406 1791 
z
M 1920 816 
C 1920 701 1920 548 1728 434 
C 1562 325 1350 325 1261 325 
C 941 325 723 511 723 744 
C 723 1211 1722 1211 1920 1211 
L 1920 816 
z
" transform="scale(0.015625)"/>
       <path id="CMSS17-6e" d="M 2618 1877 
C 2618 2283 2522 2816 1798 2816 
C 1389 2816 1120 2606 941 2389 
L 941 2758 
L 474 2758 
L 474 0 
L 960 0 
L 960 1559 
C 960 1964 1114 2428 1549 2428 
C 2112 2428 2131 2048 2131 1829 
L 2131 0 
L 2618 0 
L 2618 1877 
z
" transform="scale(0.015625)"/>
       <path id="CMSS17-63" d="M 2464 2541 
C 2464 2585 2170 2714 2093 2739 
C 1882 2816 1613 2816 1542 2816 
C 710 2816 211 2093 211 1363 
C 211 595 768 -64 1517 -64 
C 1946 -64 2253 76 2502 242 
L 2464 664 
C 2189 453 1869 337 1523 337 
C 1024 337 698 774 698 1369 
C 698 1831 909 2414 1549 2414 
C 1901 2414 2099 2343 2394 2145 
L 2464 2541 
z
" transform="scale(0.015625)"/>
       <path id="CMSS17-65" d="M 2502 1377 
C 2502 1590 2490 2003 2285 2345 
C 2061 2713 1696 2816 1421 2816 
C 755 2816 192 2188 192 1375 
C 192 582 774 -64 1510 -64 
C 1798 -64 2150 19 2470 248 
C 2470 274 2458 414 2451 420 
C 2451 433 2432 630 2432 656 
C 2125 407 1773 325 1517 325 
C 1107 325 666 667 646 1377 
L 2502 1377 
z
M 698 1728 
C 781 2084 1062 2421 1421 2421 
C 1517 2421 1965 2421 2080 1728 
L 698 1728 
z
" transform="scale(0.015625)"/>
       <path id="CMSS17-6f" d="M 2829 1356 
C 2829 2176 2221 2816 1504 2816 
C 768 2816 173 2157 173 1356 
C 173 544 787 -64 1498 -64 
C 2227 -64 2829 563 2829 1356 
z
M 1504 337 
C 1050 337 659 709 659 1408 
C 659 2151 1114 2427 1498 2427 
C 1914 2427 2342 2126 2342 1408 
C 2342 683 1926 337 1504 337 
z
" transform="scale(0.015625)"/>
       <path id="CMSS17-68" d="M 2618 1891 
C 2618 2292 2522 2820 1798 2820 
C 1395 2820 1133 2623 947 2407 
L 947 4448 
L 474 4448 
L 474 32 
L 960 32 
L 960 1573 
C 960 1973 1114 2432 1549 2432 
C 2112 2432 2131 2056 2131 1839 
L 2131 32 
L 2618 32 
L 2618 1891 
z
" transform="scale(0.015625)"/>
       <path id="CMSS17-72" d="M 954 1363 
C 954 1965 1395 2368 1958 2368 
L 1958 2789 
C 1549 2789 1165 2585 934 2253 
L 934 2758 
L 480 2758 
L 480 0 
L 954 0 
L 954 1363 
z
" transform="scale(0.015625)"/>
       <path id="CMSS17-67" d="M 2848 2808 
C 2483 2808 2170 2738 1914 2617 
C 1702 2777 1485 2808 1338 2808 
C 781 2808 358 2349 358 1814 
C 358 1468 550 1207 563 1195 
C 448 1035 384 863 384 672 
C 384 448 474 289 544 200 
C 211 -3 166 -314 166 -435 
C 166 -898 749 -1280 1498 -1280 
C 2253 -1280 2835 -898 2835 -428 
C 2835 448 1856 448 1587 448 
L 1069 448 
C 973 448 717 448 717 791 
C 717 921 774 1004 781 1010 
C 877 940 1075 832 1338 832 
C 1869 832 2310 1278 2310 1827 
C 2310 2132 2170 2355 2112 2432 
L 2131 2432 
C 2150 2432 2419 2432 2515 2432 
C 2720 2432 2739 2429 2918 2419 
L 2848 2808 
z
M 1338 1182 
C 1120 1182 813 1315 813 1823 
C 813 2375 1165 2464 1331 2464 
C 1549 2464 1856 2331 1856 1823 
C 1856 1271 1504 1182 1338 1182 
z
M 1581 -10 
C 1734 -10 2381 -10 2381 -442 
C 2381 -714 1984 -929 1504 -929 
C 1018 -929 621 -720 621 -435 
C 621 -403 621 -10 1062 -10 
L 1581 -10 
z
" transform="scale(0.015625)"/>
       <path id="CMSS17-62" d="M 954 4416 
L 480 4416 
L 480 -13 
L 966 -13 
L 966 274 
C 1210 38 1504 -64 1766 -64 
C 2381 -64 2880 549 2880 1352 
C 2880 2086 2496 2756 1926 2756 
C 1523 2756 1165 2591 954 2419 
L 954 4416 
z
M 966 2046 
C 1107 2222 1306 2368 1587 2368 
C 1965 2368 2394 2097 2394 1352 
C 2394 558 1882 325 1530 325 
C 1402 325 1267 356 1139 464 
C 966 615 966 709 966 797 
L 966 2046 
z
" transform="scale(0.015625)"/>
      </defs>
      <use xlink:href="#CMMI12-4c" transform="scale(0.996264)"/>
      <use xlink:href="#CMR17-32" transform="translate(66.370875 -14.943915)scale(0.697382)"/>
      <use xlink:href="#CMSS17-2d" transform="translate(98.852189 0)scale(0.996264)"/>
      <use xlink:href="#CMSS17-64" transform="translate(130.081302 0)scale(0.996264)"/>
      <use xlink:href="#CMSS17-69" transform="translate(178.286245 0)scale(0.996264)"/>
      <use xlink:href="#CMSS17-73" transform="translate(200.466968 0)scale(0.996264)"/>
      <use xlink:href="#CMSS17-74" transform="translate(236.38051 0)scale(0.996264)"/>
      <use xlink:href="#CMSS17-61" transform="translate(270.212077 0)scale(0.996264)"/>
      <use xlink:href="#CMSS17-6e" transform="translate(315.133998 0)scale(0.996264)"/>
      <use xlink:href="#CMSS17-63" transform="translate(363.338941 0)scale(0.996264)"/>
      <use xlink:href="#CMSS17-65" transform="translate(404.977763 0)scale(0.996264)"/>
      <use xlink:href="#CMSS17-74" transform="translate(477.845698 0)scale(0.996264)"/>
      <use xlink:href="#CMSS17-6f" transform="translate(511.677264 0)scale(0.996264)"/>
      <use xlink:href="#CMSS17-74" transform="translate(589.750001 0)scale(0.996264)"/>
      <use xlink:href="#CMSS17-68" transform="translate(623.581567 0)scale(0.996264)"/>
      <use xlink:href="#CMSS17-65" transform="translate(671.78651 0)scale(0.996264)"/>
      <use xlink:href="#CMSS17-6e" transform="translate(744.654445 0)scale(0.996264)"/>
      <use xlink:href="#CMSS17-65" transform="translate(792.859388 0)scale(0.996264)"/>
      <use xlink:href="#CMSS17-61" transform="translate(834.49821 0)scale(0.996264)"/>
      <use xlink:href="#CMSS17-72" transform="translate(876.817677 0)scale(0.996264)"/>
      <use xlink:href="#CMSS17-65" transform="translate(908.72745 0)scale(0.996264)"/>
      <use xlink:href="#CMSS17-73" transform="translate(950.366272 0)scale(0.996264)"/>
      <use xlink:href="#CMSS17-74" transform="translate(986.279814 0)scale(0.996264)"/>
      <use xlink:href="#CMSS17-6e" transform="translate(1051.340493 0)scale(0.996264)"/>
      <use xlink:href="#CMSS17-65" transform="translate(1099.545436 0)scale(0.996264)"/>
      <use xlink:href="#CMSS17-69" transform="translate(1141.184258 0)scale(0.996264)"/>
      <use xlink:href="#CMSS17-67" transform="translate(1163.364981 0)scale(0.996264)"/>
      <use xlink:href="#CMSS17-68" transform="translate(1210.208605 0)scale(0.996264)"/>
      <use xlink:href="#CMSS17-62" transform="translate(1258.413548 0)scale(0.996264)"/>
      <use xlink:href="#CMSS17-6f" transform="translate(1309.22093 0)scale(0.996264)"/>
      <use xlink:href="#CMSS17-72" transform="translate(1353.4621 0)scale(0.996264)"/>
     </g>
    </g>
   </g>
   <g id="matplotlib.axis_2">
    <g id="ytick_1">
     <g id="line2d_9">
      <path d="M 54 362.304 
L 388.8 362.304 
" clip-path="url(#p598c38bf3c)" style="fill: none; stroke-dasharray: 2.96,1.28; stroke-dashoffset: 0; stroke: #b0b0b0; stroke-opacity: 0.8; stroke-width: 0.8"/>
     </g>
     <g id="line2d_10">
      <defs>
       <path id="m92eb278cb5" d="M 0 0 
L 3.5 0 
" style="stroke: #000000; stroke-width: 0.8"/>
      </defs>
      <g>
       <use xlink:href="#m92eb278cb5" x="388.8" y="362.304" style="stroke: #000000; stroke-width: 0.8"/>
      </g>
     </g>
     <g id="text_6">
      <!-- 0.00 -->
      <g transform="translate(406.869588 384.516715)rotate(-90)scale(0.16 -0.16)">
       <use xlink:href="#CMSS17-30" transform="scale(0.996264)"/>
       <use xlink:href="#CMSS17-2e" transform="translate(46.843624 0)scale(0.996264)"/>
       <use xlink:href="#CMSS17-30" transform="translate(72.867828 0)scale(0.996264)"/>
       <use xlink:href="#CMSS17-30" transform="translate(119.711452 0)scale(0.996264)"/>
      </g>
     </g>
    </g>
    <g id="ytick_2">
     <g id="line2d_11">
      <path d="M 54 258.816 
L 388.8 258.816 
" clip-path="url(#p598c38bf3c)" style="fill: none; stroke-dasharray: 2.96,1.28; stroke-dashoffset: 0; stroke: #b0b0b0; stroke-opacity: 0.8; stroke-width: 0.8"/>
     </g>
     <g id="line2d_12">
      <g>
       <use xlink:href="#m92eb278cb5" x="388.8" y="258.816" style="stroke: #000000; stroke-width: 0.8"/>
      </g>
     </g>
     <g id="text_7">
      <!-- 0.47 -->
      <g transform="translate(406.869588 281.028715)rotate(-90)scale(0.16 -0.16)">
       <defs>
        <path id="CMSS17-34" d="M 2253 1088 
L 2835 1088 
L 2835 1477 
L 2253 1477 
L 2253 4192 
L 1690 4192 
L 166 1477 
L 166 1088 
L 1747 1088 
L 1747 0 
L 2253 0 
L 2253 1088 
z
M 659 1477 
C 1030 2127 1766 3439 1766 3885 
L 1766 1477 
L 659 1477 
z
" transform="scale(0.015625)"/>
        <path id="CMSS17-37" d="M 1389 3776 
C 1466 3776 1542 3776 1619 3776 
L 2355 3776 
C 1440 2711 915 1365 915 -32 
L 1427 -32 
C 1427 1323 1875 2696 2752 3795 
L 2752 4209 
L 250 4209 
L 250 3776 
L 1389 3776 
z
" transform="scale(0.015625)"/>
       </defs>
       <use xlink:href="#CMSS17-30" transform="scale(0.996264)"/>
       <use xlink:href="#CMSS17-2e" transform="translate(46.843624 0)scale(0.996264)"/>
       <use xlink:href="#CMSS17-34" transform="translate(72.867828 0)scale(0.996264)"/>
       <use xlink:href="#CMSS17-37" transform="translate(119.711452 0)scale(0.996264)"/>
      </g>
     </g>
    </g>
    <g id="ytick_3">
     <g id="line2d_13">
      <path d="M 54 155.328 
L 388.8 155.328 
" clip-path="url(#p598c38bf3c)" style="fill: none; stroke-dasharray: 2.96,1.28; stroke-dashoffset: 0; stroke: #b0b0b0; stroke-opacity: 0.8; stroke-width: 0.8"/>
     </g>
     <g id="line2d_14">
      <g>
       <use xlink:href="#m92eb278cb5" x="388.8" y="155.328" style="stroke: #000000; stroke-width: 0.8"/>
      </g>
     </g>
     <g id="text_8">
      <!-- 0.93 -->
      <g transform="translate(406.869588 177.540715)rotate(-90)scale(0.16 -0.16)">
       <use xlink:href="#CMSS17-30" transform="scale(0.996264)"/>
       <use xlink:href="#CMSS17-2e" transform="translate(46.843624 0)scale(0.996264)"/>
       <use xlink:href="#CMSS17-39" transform="translate(72.867828 0)scale(0.996264)"/>
       <use xlink:href="#CMSS17-33" transform="translate(119.711452 0)scale(0.996264)"/>
      </g>
     </g>
    </g>
    <g id="ytick_4">
     <g id="line2d_15">
      <path d="M 54 51.84 
L 388.8 51.84 
" clip-path="url(#p598c38bf3c)" style="fill: none; stroke-dasharray: 2.96,1.28; stroke-dashoffset: 0; stroke: #b0b0b0; stroke-opacity: 0.8; stroke-width: 0.8"/>
     </g>
     <g id="line2d_16">
      <g>
       <use xlink:href="#m92eb278cb5" x="388.8" y="51.84" style="stroke: #000000; stroke-width: 0.8"/>
      </g>
     </g>
     <g id="text_9">
      <!-- 1.40 -->
      <g transform="translate(406.869588 74.052715)rotate(-90)scale(0.16 -0.16)">
       <use xlink:href="#CMSS17-31" transform="scale(0.996264)"/>
       <use xlink:href="#CMSS17-2e" transform="translate(46.843624 0)scale(0.996264)"/>
       <use xlink:href="#CMSS17-34" transform="translate(72.867828 0)scale(0.996264)"/>
       <use xlink:href="#CMSS17-30" transform="translate(119.711452 0)scale(0.996264)"/>
      </g>
     </g>
    </g>
    <g id="text_10">
     <!-- Degree of violation -->
     <g transform="translate(425.038653 279.660179)rotate(-90)scale(0.16 -0.16)">
      <defs>
       <path id="CMSS17-44" d="M 570 4416 
L 570 0 
L 2144 0 
C 3194 0 4000 980 4000 2170 
C 4000 3398 3194 4416 2144 4416 
L 570 4416 
z
M 1094 357 
L 1094 4059 
L 2003 4059 
C 2861 4059 3475 3277 3475 2170 
C 3475 1107 2867 357 2003 357 
L 1094 357 
z
" transform="scale(0.015625)"/>
       <path id="CMSS17-66" d="M 1075 2368 
L 1722 2368 
L 1722 2737 
L 1062 2737 
L 1062 3559 
C 1062 4014 1408 4092 1606 4092 
C 1670 4092 1850 4092 2080 4009 
L 2080 4429 
C 1933 4461 1754 4480 1613 4480 
C 1018 4480 602 3993 602 3359 
L 602 2737 
L 160 2737 
L 160 2368 
L 602 2368 
L 602 0 
L 1075 0 
L 1075 2368 
z
" transform="scale(0.015625)"/>
       <path id="CMSS17-76" d="M 2675 2752 
L 2176 2752 
L 1747 1556 
C 1613 1165 1421 627 1389 352 
L 1382 352 
C 1370 468 1318 634 1286 749 
C 1248 890 1197 1056 1158 1172 
L 595 2752 
L 83 2752 
L 1094 0 
L 1664 0 
L 2675 2752 
z
" transform="scale(0.015625)"/>
       <path id="CMSS17-6c" d="M 947 4416 
L 474 4416 
L 474 0 
L 947 0 
L 947 4416 
z
" transform="scale(0.015625)"/>
      </defs>
      <use xlink:href="#CMSS17-44" transform="scale(0.996264)"/>
      <use xlink:href="#CMSS17-65" transform="translate(67.542842 0)scale(0.996264)"/>
      <use xlink:href="#CMSS17-67" transform="translate(109.181664 0)scale(0.996264)"/>
      <use xlink:href="#CMSS17-72" transform="translate(156.025287 0)scale(0.996264)"/>
      <use xlink:href="#CMSS17-65" transform="translate(187.93506 0)scale(0.996264)"/>
      <use xlink:href="#CMSS17-65" transform="translate(229.573882 0)scale(0.996264)"/>
      <use xlink:href="#CMSS17-6f" transform="translate(302.441817 0)scale(0.996264)"/>
      <use xlink:href="#CMSS17-66" transform="translate(349.28544 0)scale(0.996264)"/>
      <use xlink:href="#CMSS17-76" transform="translate(409.141212 0)scale(0.996264)"/>
      <use xlink:href="#CMSS17-69" transform="translate(452.141353 0)scale(0.996264)"/>
      <use xlink:href="#CMSS17-6f" transform="translate(474.322077 0)scale(0.996264)"/>
      <use xlink:href="#CMSS17-6c" transform="translate(521.1657 0)scale(0.996264)"/>
      <use xlink:href="#CMSS17-61" transform="translate(543.346423 0)scale(0.996264)"/>
      <use xlink:href="#CMSS17-74" transform="translate(588.268344 0)scale(0.996264)"/>
      <use xlink:href="#CMSS17-69" transform="translate(622.09991 0)scale(0.996264)"/>
      <use xlink:href="#CMSS17-6f" transform="translate(644.280633 0)scale(0.996264)"/>
      <use xlink:href="#CMSS17-6e" transform="translate(691.124257 0)scale(0.996264)"/>
     </g>
    </g>
   </g>
   <g id="line2d_17">
    <path d="M 54 211.495329 
L 55.675676 217.683225 
L 57.016216 221.870455 
L 58.356757 225.408174 
L 59.697297 228.322955 
L 61.037838 230.641369 
L 62.043243 232.004801 
L 63.048649 233.058935 
L 64.054054 233.814983 
L 65.059459 234.284153 
L 66.064865 234.477657 
L 67.07027 234.406706 
L 68.075676 234.08251 
L 69.081081 233.516279 
L 70.086486 232.719225 
L 71.427027 231.316802 
L 72.767568 229.550528 
L 74.108108 227.446977 
L 75.783784 224.383724 
L 77.794595 220.140067 
L 79.805405 215.361746 
L 82.151351 209.23093 
L 85.167568 200.687686 
L 89.859459 186.589124 
L 95.556757 169.604033 
L 98.572973 161.319407 
L 100.918919 155.470199 
L 102.92973 150.989289 
L 104.605405 147.699328 
L 106.281081 144.866874 
L 107.956757 142.497625 
L 109.632432 140.547975 
L 111.308108 138.971763 
L 112.983784 137.722832 
L 114.659459 136.755021 
L 116.335135 136.022173 
L 118.345946 135.387913 
L 120.691892 134.885154 
L 128.735135 133.406577 
L 130.745946 132.686357 
L 132.421622 131.866265 
L 134.432432 130.646012 
L 137.783784 128.292244 
L 141.805405 125.498304 
L 143.816216 124.342363 
L 145.491892 123.597419 
L 147.167568 123.111422 
L 148.508108 122.947151 
L 149.848649 123.013897 
L 151.189189 123.340678 
L 152.52973 123.956511 
L 153.87027 124.890416 
L 155.210811 126.17141 
L 156.551351 127.828513 
L 157.891892 129.887275 
L 159.232432 132.331025 
L 160.908108 135.858699 
L 162.918919 140.668638 
L 165.264865 146.881868 
L 168.951351 157.393044 
L 173.978378 171.678094 
L 176.324324 177.724835 
L 178.335135 182.335854 
L 180.010811 185.658121 
L 181.351351 187.911599 
L 182.691892 189.756512 
L 184.032432 191.159615 
L 185.037838 191.935788 
L 186.043243 192.494763 
L 187.048649 192.854098 
L 188.054054 193.03135 
L 189.394595 193.014793 
L 190.735135 192.747363 
L 192.075676 192.270679 
L 193.751351 191.44396 
L 196.097297 190.001273 
L 201.459459 186.570628 
L 203.135135 185.779217 
L 204.475676 185.339858 
L 205.816216 185.117823 
L 207.156757 185.15473 
L 208.162162 185.377377 
L 209.167568 185.785594 
L 210.508108 186.622245 
L 211.848649 187.779379 
L 213.189189 189.241805 
L 214.52973 190.994332 
L 216.205405 193.569804 
L 217.881081 196.545154 
L 219.891892 200.601636 
L 221.902703 205.139947 
L 224.248649 210.975223 
L 226.92973 218.25727 
L 229.945946 227.08609 
L 233.967568 239.617125 
L 242.010811 264.983166 
L 244.356757 271.577968 
L 246.367568 276.648879 
L 248.043243 280.36393 
L 249.718919 283.533503 
L 251.059459 285.625263 
L 252.4 287.280224 
L 253.405405 288.21135 
L 254.410811 288.85841 
L 255.416216 289.204963 
L 256.421622 289.234565 
L 257.091892 289.070097 
L 258.097297 288.53491 
L 259.102703 287.638926 
L 260.108108 286.365707 
L 261.113514 284.7088 
L 262.454054 281.947565 
L 263.794595 278.624108 
L 265.47027 273.79328 
L 267.481081 267.197196 
L 270.162162 257.461493 
L 278.205405 227.495275 
L 280.216216 221.160086 
L 281.891892 216.609607 
L 283.232432 213.551624 
L 284.572973 211.092479 
L 285.578378 209.686169 
L 286.583784 208.685798 
L 287.589189 208.083428 
L 288.259459 207.891209 
L 288.92973 207.858223 
L 289.935135 208.091824 
L 290.940541 208.643893 
L 291.945946 209.490544 
L 292.951351 210.607893 
L 294.291892 212.477498 
L 295.632432 214.729269 
L 297.308108 217.995156 
L 299.318919 222.429982 
L 302.335135 229.73912 
L 307.697297 242.851338 
L 309.708108 247.204128 
L 311.383784 250.377392 
L 313.059459 253.034824 
L 314.4 254.776716 
L 315.740541 256.18217 
L 317.081081 257.255759 
L 318.421622 258.002054 
L 319.427027 258.349739 
L 320.432432 258.517823 
L 321.437838 258.508234 
L 322.443243 258.322902 
L 323.783784 257.805747 
L 325.124324 256.984161 
L 326.464865 255.862716 
L 327.805405 254.445984 
L 329.145946 252.738538 
L 330.821622 250.202379 
L 332.497297 247.228055 
L 334.172973 243.824494 
L 336.183784 239.186205 
L 338.194595 233.959804 
L 340.540541 227.212919 
L 343.556757 217.817911 
L 353.275676 186.931463 
L 355.621622 180.456235 
L 357.632432 175.533096 
L 359.308108 171.970451 
L 360.983784 168.977734 
L 362.324324 167.043705 
L 363.664865 165.559796 
L 364.67027 164.765081 
L 365.675676 164.260906 
L 366.681081 164.063279 
L 367.686486 164.188206 
L 368.691892 164.651693 
L 369.697297 165.469747 
L 370.702703 166.658374 
L 371.708108 168.23358 
L 372.713514 170.211372 
L 373.718919 172.607756 
L 375.059459 176.481744 
L 376.4 181.166293 
L 377.740541 186.699343 
L 379.081081 193.118837 
L 380.756757 202.447565 
L 382.432432 213.294746 
L 384.108108 225.734485 
L 385.783784 239.840885 
L 387.459459 255.688049 
L 388.8 269.668928 
L 388.8 269.668928 
" clip-path="url(#p598c38bf3c)" style="fill: none; stroke: #2e8b57; stroke-width: 3; stroke-linecap: square"/>
   </g>
   <g id="line2d_18">
    <path d="M 54 362.304 
L 63.718919 362.447265 
L 75.113514 362.384232 
L 89.524324 362.063831 
L 126.054054 360.917621 
L 146.162162 360.27899 
L 151.524324 360.411831 
L 155.881081 360.727773 
L 160.237838 361.263224 
L 170.291892 362.597487 
L 173.643243 362.771288 
L 176.659459 362.692507 
L 179.340541 362.383107 
L 181.686486 361.891672 
L 184.032432 361.1658 
L 186.713514 360.073098 
L 190.064865 358.43697 
L 199.783784 353.493194 
L 202.464865 352.469639 
L 204.810811 351.825012 
L 206.821622 351.505111 
L 208.832432 351.438486 
L 210.843243 351.643102 
L 212.854054 352.089785 
L 215.2 352.868091 
L 217.881081 354.025637 
L 221.232432 355.747719 
L 231.286486 361.123613 
L 233.967568 362.198706 
L 236.313514 362.891866 
L 238.659459 363.36028 
L 241.340541 363.65819 
L 244.356757 363.743229 
L 247.708108 363.600608 
L 252.064865 363.179131 
L 261.448649 362.20217 
L 266.140541 362.026598 
L 271.837838 362.051342 
L 287.924324 362.267593 
L 298.648649 361.891248 
L 304.345946 361.846239 
L 308.702703 362.034461 
L 312.389189 362.411153 
L 318.086486 363.291258 
L 322.443243 363.864145 
L 325.459459 364.032881 
L 327.805405 363.960754 
L 330.151351 363.659003 
L 332.162162 363.181833 
L 334.172973 362.471582 
L 336.183784 361.498538 
L 338.194595 360.234162 
L 340.205405 358.684802 
L 342.551351 356.578843 
L 345.232432 353.872699 
L 349.254054 349.456836 
L 355.621622 342.447732 
L 358.637838 339.496701 
L 360.983784 337.511896 
L 362.994595 336.090926 
L 364.67027 335.141401 
L 366.345946 334.435043 
L 368.021622 333.999866 
L 369.362162 333.865797 
L 370.702703 333.937553 
L 372.043243 334.229476 
L 373.383784 334.755908 
L 374.724324 335.531191 
L 376.064865 336.569668 
L 377.405405 337.88568 
L 378.745946 339.49357 
L 380.086486 341.407679 
L 381.762162 344.252787 
L 383.437838 347.626784 
L 385.113514 351.557684 
L 386.789189 356.073497 
L 388.464865 361.202236 
L 388.8 362.304 
L 388.8 362.304 
" clip-path="url(#p598c38bf3c)" style="fill: none; stroke: #dc143c; stroke-width: 3; stroke-linecap: square"/>
   </g>
   <g id="line2d_19">
    <path d="M 54 362.304 
L 75.448649 362.293791 
L 104.605405 362.25316 
L 121.697297 361.978799 
L 151.189189 361.458566 
L 158.897297 361.609793 
L 169.286486 361.861093 
L 173.643243 361.733113 
L 177.32973 361.415128 
L 180.681081 360.909095 
L 183.697297 360.241492 
L 187.383784 359.168539 
L 194.421622 356.796694 
L 198.778378 355.464845 
L 201.794595 354.753393 
L 204.475676 354.337273 
L 206.821622 354.184393 
L 209.167568 354.266241 
L 211.513514 354.592916 
L 214.194595 355.218725 
L 217.210811 356.170415 
L 221.232432 357.699483 
L 229.945946 361.093574 
L 232.962162 361.994987 
L 235.643243 362.562253 
L 238.324324 362.8979 
L 241.340541 363.049367 
L 245.027027 362.994984 
L 250.724324 362.637609 
L 256.756757 362.300404 
L 260.443243 362.319166 
L 264.12973 362.585639 
L 276.194595 363.669432 
L 279.210811 363.592282 
L 281.891892 363.280078 
L 284.237838 362.774496 
L 286.583784 362.01478 
L 288.92973 361.004232 
L 291.945946 359.437327 
L 297.643243 356.132651 
L 301.32973 354.126239 
L 304.010811 352.91089 
L 306.356757 352.1051 
L 308.367568 351.659326 
L 310.043243 351.492877 
L 311.718919 351.53894 
L 313.394595 351.808048 
L 315.405405 352.382497 
L 317.751351 353.317942 
L 320.767568 354.782702 
L 326.8 357.774086 
L 329.145946 358.663497 
L 331.156757 359.183402 
L 332.832432 359.396418 
L 334.508108 359.369396 
L 335.848649 359.149862 
L 337.189189 358.733695 
L 338.52973 358.106845 
L 340.205405 357.045459 
L 341.881081 355.710969 
L 343.891892 353.802783 
L 346.237838 351.236848 
L 349.254054 347.561307 
L 358.972973 335.358427 
L 361.318919 332.907341 
L 363.32973 331.126037 
L 365.005405 329.917334 
L 366.681081 328.999965 
L 368.021622 328.501458 
L 369.362162 328.233339 
L 370.702703 328.215134 
L 372.043243 328.46637 
L 373.383784 329.006573 
L 374.724324 329.855269 
L 376.064865 331.031986 
L 377.405405 332.556248 
L 378.745946 334.447584 
L 380.086486 336.725519 
L 381.427027 339.40958 
L 382.767568 342.519293 
L 384.443243 347.034755 
L 386.118919 352.283946 
L 387.794595 358.305004 
L 388.8 362.304 
L 388.8 362.304 
" clip-path="url(#p598c38bf3c)" style="fill: none; stroke: #800080; stroke-width: 3; stroke-linecap: square"/>
   </g>
   <g id="patch_3">
    <path d="M 54 384.48 
L 54 51.84 
" style="fill: none; stroke: #000000; stroke-width: 0.8; stroke-linejoin: miter; stroke-linecap: square"/>
   </g>
   <g id="patch_4">
    <path d="M 388.8 384.48 
L 388.8 51.84 
" style="fill: none; stroke: #000000; stroke-width: 0.8; stroke-linejoin: miter; stroke-linecap: square"/>
   </g>
   <g id="patch_5">
    <path d="M 54 384.48 
L 388.8 384.48 
" style="fill: none; stroke: #000000; stroke-width: 0.8; stroke-linejoin: miter; stroke-linecap: square"/>
   </g>
   <g id="patch_6">
    <path d="M 54 51.84 
L 388.8 51.84 
" style="fill: none; stroke: #000000; stroke-width: 0.8; stroke-linejoin: miter; stroke-linecap: square"/>
   </g>
   <g id="legend_1">
    <g id="patch_7">
     <path d="M 63.8 121.576085 
L 363.526746 121.576085 
Q 366.326746 121.576085 366.326746 118.776085 
L 366.326746 61.64 
Q 366.326746 58.84 363.526746 58.84 
L 63.8 58.84 
Q 61 58.84 61 61.64 
L 61 118.776085 
Q 61 121.576085 63.8 121.576085 
z
" style="fill: #ffffff; opacity: 0.8; stroke: #cccccc; stroke-linejoin: miter"/>
    </g>
    <g id="line2d_20">
     <path d="M 66.6 69.34 
L 80.6 69.34 
L 94.6 69.34 
" style="fill: none; stroke: #2e8b57; stroke-width: 3; stroke-linecap: square"/>
    </g>
    <g id="text_11">
     <!-- Orig. model -->
     <g transform="translate(105.8 74.24)scale(0.14 -0.14)">
      <defs>
       <path id="CMSS17-4f" d="M 4096 2178 
C 4096 3503 3219 4497 2214 4497 
C 1210 4497 333 3497 333 2178 
C 333 847 1222 -128 2214 -128 
C 3206 -128 4096 847 4096 2178 
z
M 2214 273 
C 1510 273 870 1057 870 2261 
C 870 3433 1549 4096 2214 4096 
C 2880 4096 3558 3433 3558 2261 
C 3558 1051 2912 273 2214 273 
z
" transform="scale(0.015625)"/>
       <path id="CMSS17-6d" d="M 4288 1877 
C 4288 2308 4179 2816 3462 2816 
C 2982 2816 2694 2516 2566 2331 
C 2451 2670 2182 2816 1798 2816 
C 1363 2816 1088 2568 941 2389 
L 941 2758 
L 474 2758 
L 474 0 
L 960 0 
L 960 1559 
C 960 1939 1101 2428 1555 2428 
C 2138 2428 2138 2016 2138 1829 
L 2138 0 
L 2624 0 
L 2624 1559 
C 2624 1939 2765 2428 3219 2428 
C 3802 2428 3802 2016 3802 1829 
L 3802 0 
L 4288 0 
L 4288 1877 
z
" transform="scale(0.015625)"/>
      </defs>
      <use xlink:href="#CMSS17-4f" transform="scale(0.996264)"/>
      <use xlink:href="#CMSS17-72" transform="translate(69.024255 0)scale(0.996264)"/>
      <use xlink:href="#CMSS17-69" transform="translate(100.934028 0)scale(0.996264)"/>
      <use xlink:href="#CMSS17-67" transform="translate(123.114751 0)scale(0.996264)"/>
      <use xlink:href="#CMSS17-2e" transform="translate(169.958374 0)scale(0.996264)"/>
      <use xlink:href="#CMSS17-6d" transform="translate(237.621386 0)scale(0.996264)"/>
      <use xlink:href="#CMSS17-6f" transform="translate(311.850641 0)scale(0.996264)"/>
      <use xlink:href="#CMSS17-64" transform="translate(361.296703 0)scale(0.996264)"/>
      <use xlink:href="#CMSS17-65" transform="translate(409.501646 0)scale(0.996264)"/>
      <use xlink:href="#CMSS17-6c" transform="translate(451.140468 0)scale(0.996264)"/>
     </g>
    </g>
    <g id="line2d_21">
     <path d="M 66.6 88.852028 
L 80.6 88.852028 
L 94.6 88.852028 
" style="fill: none; stroke: #dc143c; stroke-width: 3; stroke-linecap: square"/>
    </g>
    <g id="text_12">
     <!-- Rep. model - mid layer, control bound = 2 -->
     <g transform="translate(105.8 93.752028)scale(0.14 -0.14)">
      <defs>
       <path id="CMSS17-52" d="M 2522 2109 
L 2534 2115 
C 3533 2459 3539 3147 3539 3268 
C 3539 3873 2925 4453 2003 4453 
L 570 4453 
L 570 32 
L 1094 32 
L 1094 2048 
L 2035 2048 
L 3168 32 
L 3706 32 
L 2522 2109 
z
M 1094 2437 
L 1094 4096 
L 1933 4096 
C 2746 4096 3034 3637 3034 3267 
C 3034 2922 2778 2437 1933 2437 
L 1094 2437 
z
" transform="scale(0.015625)"/>
       <path id="CMSS17-70" d="M 966 333 
C 1178 129 1466 -5 1773 -5 
C 2368 -5 2880 603 2880 1412 
C 2880 2159 2496 2816 1946 2816 
C 1626 2816 1242 2702 954 2472 
L 954 2765 
L 480 2765 
L 480 -1216 
L 966 -1216 
L 966 333 
z
M 966 2100 
C 1018 2176 1235 2415 1587 2415 
C 2035 2415 2394 1960 2394 1412 
C 2394 787 1958 384 1530 384 
C 1402 384 1267 415 1139 523 
C 966 674 966 768 966 857 
L 966 2100 
z
" transform="scale(0.015625)"/>
       <path id="CMSS17-79" d="M 2675 2752 
L 2176 2752 
C 1632 1294 1446 702 1434 383 
L 1427 383 
C 1408 696 1126 1460 902 2007 
L 602 2752 
L 83 2752 
L 1216 13 
C 1146 -178 1043 -465 1011 -529 
C 870 -885 774 -885 672 -885 
C 646 -885 442 -885 211 -809 
L 250 -1229 
C 410 -1261 570 -1280 685 -1280 
C 845 -1280 1165 -1280 1459 -497 
L 2675 2752 
z
" transform="scale(0.015625)"/>
       <path id="CMSS17-2c" d="M 1088 6 
L 1088 510 
L 576 510 
L 576 0 
L 736 0 
L 570 -800 
L 826 -800 
L 1088 6 
z
" transform="scale(0.015625)"/>
       <path id="CMSS17-75" d="M 2618 2739 
L 2131 2739 
L 2131 972 
C 2131 498 1786 306 1421 306 
C 998 306 960 447 960 709 
L 960 2739 
L 474 2739 
L 474 678 
C 474 179 646 -64 1088 -64 
C 1306 -64 1798 -13 2144 306 
L 2144 0 
L 2618 0 
L 2618 2739 
z
" transform="scale(0.015625)"/>
       <path id="CMSS17-3d" d="M 4147 2017 
C 4243 2017 4339 2017 4339 2125 
C 4339 2240 4230 2240 4122 2240 
L 550 2240 
C 442 2240 333 2240 333 2125 
C 333 2017 429 2017 525 2017 
L 4147 2017 
z
M 4122 896 
C 4230 896 4339 896 4339 1011 
C 4339 1119 4243 1119 4147 1119 
L 525 1119 
C 429 1119 333 1119 333 1011 
C 333 896 442 896 550 896 
L 4122 896 
z
" transform="scale(0.015625)"/>
       <path id="CMSS17-32" d="M 1651 1357 
C 1830 1541 2099 1764 2285 1987 
C 2464 2204 2701 2511 2701 2957 
C 2701 3657 2227 4288 1421 4288 
C 787 4288 422 3893 250 3274 
L 499 2929 
C 640 3510 838 3880 1338 3880 
C 1888 3880 2195 3433 2195 2942 
C 2195 2355 1747 1901 1408 1563 
C 1030 1187 659 804 301 408 
L 301 0 
L 2701 0 
L 2701 433 
L 1613 433 
C 1536 433 1459 433 1382 433 
L 742 433 
L 742 439 
L 1651 1357 
z
" transform="scale(0.015625)"/>
      </defs>
      <use xlink:href="#CMSS17-52" transform="scale(0.996264)"/>
      <use xlink:href="#CMSS17-65" transform="translate(60.416155 0)scale(0.996264)"/>
      <use xlink:href="#CMSS17-70" transform="translate(102.054977 0)scale(0.996264)"/>
      <use xlink:href="#CMSS17-2e" transform="translate(150.25992 0)scale(0.996264)"/>
      <use xlink:href="#CMSS17-6d" transform="translate(217.922932 0)scale(0.996264)"/>
      <use xlink:href="#CMSS17-6f" transform="translate(292.152186 0)scale(0.996264)"/>
      <use xlink:href="#CMSS17-64" transform="translate(341.598249 0)scale(0.996264)"/>
      <use xlink:href="#CMSS17-65" transform="translate(389.803192 0)scale(0.996264)"/>
      <use xlink:href="#CMSS17-6c" transform="translate(431.442014 0)scale(0.996264)"/>
      <use xlink:href="#CMSS17-2d" transform="translate(484.85185 0)scale(0.996264)"/>
      <use xlink:href="#CMSS17-6d" transform="translate(547.310075 0)scale(0.996264)"/>
      <use xlink:href="#CMSS17-69" transform="translate(621.539329 0)scale(0.996264)"/>
      <use xlink:href="#CMSS17-64" transform="translate(643.720052 0)scale(0.996264)"/>
      <use xlink:href="#CMSS17-6c" transform="translate(723.154108 0)scale(0.996264)"/>
      <use xlink:href="#CMSS17-61" transform="translate(745.334831 0)scale(0.996264)"/>
      <use xlink:href="#CMSS17-79" transform="translate(787.654298 0)scale(0.996264)"/>
      <use xlink:href="#CMSS17-65" transform="translate(828.051986 0)scale(0.996264)"/>
      <use xlink:href="#CMSS17-72" transform="translate(869.690808 0)scale(0.996264)"/>
      <use xlink:href="#CMSS17-2c" transform="translate(901.60058 0)scale(0.996264)"/>
      <use xlink:href="#CMSS17-63" transform="translate(958.853898 0)scale(0.996264)"/>
      <use xlink:href="#CMSS17-6f" transform="translate(1000.49272 0)scale(0.996264)"/>
      <use xlink:href="#CMSS17-6e" transform="translate(1047.336344 0)scale(0.996264)"/>
      <use xlink:href="#CMSS17-74" transform="translate(1095.541287 0)scale(0.996264)"/>
      <use xlink:href="#CMSS17-72" transform="translate(1129.372854 0)scale(0.996264)"/>
      <use xlink:href="#CMSS17-6f" transform="translate(1161.282626 0)scale(0.996264)"/>
      <use xlink:href="#CMSS17-6c" transform="translate(1208.12625 0)scale(0.996264)"/>
      <use xlink:href="#CMSS17-62" transform="translate(1261.536085 0)scale(0.996264)"/>
      <use xlink:href="#CMSS17-6f" transform="translate(1312.343467 0)scale(0.996264)"/>
      <use xlink:href="#CMSS17-75" transform="translate(1359.187091 0)scale(0.996264)"/>
      <use xlink:href="#CMSS17-6e" transform="translate(1407.392034 0)scale(0.996264)"/>
      <use xlink:href="#CMSS17-64" transform="translate(1455.596977 0)scale(0.996264)"/>
      <use xlink:href="#CMSS17-3d" transform="translate(1535.031033 0)scale(0.996264)"/>
      <use xlink:href="#CMSS17-32" transform="translate(1639.12808 0)scale(0.996264)"/>
     </g>
    </g>
    <g id="line2d_22">
     <path d="M 66.6 108.364057 
L 80.6 108.364057 
L 94.6 108.364057 
" style="fill: none; stroke: #800080; stroke-width: 3; stroke-linecap: square"/>
    </g>
    <g id="text_13">
     <!-- Rep. model - last layer, control bound = 1.5 -->
     <g transform="translate(105.8 113.264057)scale(0.14 -0.14)">
      <use xlink:href="#CMSS17-52" transform="scale(0.996264)"/>
      <use xlink:href="#CMSS17-65" transform="translate(60.416155 0)scale(0.996264)"/>
      <use xlink:href="#CMSS17-70" transform="translate(102.054977 0)scale(0.996264)"/>
      <use xlink:href="#CMSS17-2e" transform="translate(150.25992 0)scale(0.996264)"/>
      <use xlink:href="#CMSS17-6d" transform="translate(217.922932 0)scale(0.996264)"/>
      <use xlink:href="#CMSS17-6f" transform="translate(292.152186 0)scale(0.996264)"/>
      <use xlink:href="#CMSS17-64" transform="translate(341.598249 0)scale(0.996264)"/>
      <use xlink:href="#CMSS17-65" transform="translate(389.803192 0)scale(0.996264)"/>
      <use xlink:href="#CMSS17-6c" transform="translate(431.442014 0)scale(0.996264)"/>
      <use xlink:href="#CMSS17-2d" transform="translate(484.85185 0)scale(0.996264)"/>
      <use xlink:href="#CMSS17-6c" transform="translate(547.310075 0)scale(0.996264)"/>
      <use xlink:href="#CMSS17-61" transform="translate(569.490798 0)scale(0.996264)"/>
      <use xlink:href="#CMSS17-73" transform="translate(614.412719 0)scale(0.996264)"/>
      <use xlink:href="#CMSS17-74" transform="translate(650.326261 0)scale(0.996264)"/>
      <use xlink:href="#CMSS17-6c" transform="translate(715.38694 0)scale(0.996264)"/>
      <use xlink:href="#CMSS17-61" transform="translate(737.567663 0)scale(0.996264)"/>
      <use xlink:href="#CMSS17-79" transform="translate(779.88713 0)scale(0.996264)"/>
      <use xlink:href="#CMSS17-65" transform="translate(820.284818 0)scale(0.996264)"/>
      <use xlink:href="#CMSS17-72" transform="translate(861.92364 0)scale(0.996264)"/>
      <use xlink:href="#CMSS17-2c" transform="translate(893.833412 0)scale(0.996264)"/>
      <use xlink:href="#CMSS17-63" transform="translate(951.08673 0)scale(0.996264)"/>
      <use xlink:href="#CMSS17-6f" transform="translate(992.725552 0)scale(0.996264)"/>
      <use xlink:href="#CMSS17-6e" transform="translate(1039.569175 0)scale(0.996264)"/>
      <use xlink:href="#CMSS17-74" transform="translate(1087.774119 0)scale(0.996264)"/>
      <use xlink:href="#CMSS17-72" transform="translate(1121.605685 0)scale(0.996264)"/>
      <use xlink:href="#CMSS17-6f" transform="translate(1153.515458 0)scale(0.996264)"/>
      <use xlink:href="#CMSS17-6c" transform="translate(1200.359081 0)scale(0.996264)"/>
      <use xlink:href="#CMSS17-62" transform="translate(1253.768917 0)scale(0.996264)"/>
      <use xlink:href="#CMSS17-6f" transform="translate(1304.576299 0)scale(0.996264)"/>
      <use xlink:href="#CMSS17-75" transform="translate(1351.419922 0)scale(0.996264)"/>
      <use xlink:href="#CMSS17-6e" transform="translate(1399.624866 0)scale(0.996264)"/>
      <use xlink:href="#CMSS17-64" transform="translate(1447.829809 0)scale(0.996264)"/>
      <use xlink:href="#CMSS17-3d" transform="translate(1527.263865 0)scale(0.996264)"/>
      <use xlink:href="#CMSS17-31" transform="translate(1631.360912 0)scale(0.996264)"/>
      <use xlink:href="#CMSS17-2e" transform="translate(1678.204536 0)scale(0.996264)"/>
      <use xlink:href="#CMSS17-35" transform="translate(1704.228741 0)scale(0.996264)"/>
     </g>
    </g>
   </g>
  </g>
 </g>
 <defs>
  <clipPath id="p598c38bf3c">
   <rect x="54" y="51.84" width="334.8" height="332.64"/>
  </clipPath>
 </defs>
</svg>
